999
dxfrw 0.6.3
  0
SECTION
  2
HEADER
  9
$ACADVER
  1
AC1021
  9
$DWGCODEPAGE
  3
ANSI_1252
  9
$INSBASE
 10
0
 20
0
 30
0
  9
$EXTMIN
 10
-13.125
 20
-1.42e-14
 30
0
  9
$EXTMAX
 10
173.4
 20
143.125
 30
0
  9
$LIMMIN
 10
0
 20
0
  9
$LIMMAX
 10
12
 20
9
  9
$ORTHOMODE
 70
    0
  9
$REGENMODE
 70
    1
  9
$FILLMODE
 70
    1
  9
$QTEXTMODE
 70
    0
  9
$MIRRTEXT
 70
    0
  9
$LTSCALE
 40
1
  9
$ATTMODE
 70
    1
  9
$TEXTSIZE
 40
2.5
  9
$TRACEWID
 40
0.05
  9
$TEXTSTYLE
  7
STANDARD
  9
$CLAYER
  8
0
  9
$CELTYPE
  6
BYLAYER
  9
$CECOLOR
 62
  256
  9
$CELTSCALE
 40
1
  9
$DISPSILH
 70
    0
  9
$DIMSCALE
 40
1
  9
$DIMASZ
 40
2.5
  9
$DIMEXO
 40
0.625
  9
$DIMDLI
 40
0.38
  9
$DIMRND
 40
0
  9
$DIMDLE
 40
0
  9
$DIMEXE
 40
1.25
  9
$DIMTP
 40
0
  9
$DIMTM
 40
0
  9
$DIMTXT
 40
2.5
  9
$DIMCEN
 40
0.09
  9
$DIMTSZ
 40
0
  9
$DIMTOL
 70
    0
  9
$DIMLIM
 70
    0
  9
$DIMTIH
 70
    0
  9
$DIMTOH
 70
    0
  9
$DIMSE1
 70
    0
  9
$DIMSE2
 70
    0
  9
$DIMTAD
 70
    0
  9
$DIMZIN
 70
    8
  9
$DIMBLK
  1

  9
$DIMASO
 70
    1
  9
$DIMSHO
 70
    1
  9
$DIMPOST
  1

  9
$DIMAPOST
  1

  9
$DIMALT
 70
    0
  9
$DIMALTD
 70
    2
  9
$DIMALTF
 40
25.4
  9
$DIMLFAC
 40
1
  9
$DIMTOFL
 70
    1
  9
$DIMTVP
 40
0
  9
$DIMTIX
 70
    0
  9
$DIMSOXD
 70
    0
  9
$DIMSAH
 70
    0
  9
$DIMBLK1
  1

  9
$DIMBLK2
  1

  9
$DIMSTYLE
  2
Standard
  9
$DIMCLRD
 70
    0
  9
$DIMCLRE
 70
    0
  9
$DIMCLRT
 70
    0
  9
$DIMTFAC
 40
1
  9
$DIMGAP
 40
0.625
  9
$DIMJUST
 70
    0
  9
$DIMSD1
 70
    0
  9
$DIMSD2
 70
    0
  9
$DIMTOLJ
 70
    1
  9
$DIMTZIN
 70
    0
  9
$DIMALTZ
 70
    0
  9
$DIMALTTZ
 70
    0
  9
$DIMUPT
 70
    0
  9
$DIMDEC
 70
    2
  9
$DIMTDEC
 70
    4
  9
$DIMALTU
 70
    2
  9
$DIMALTTD
 70
    2
  9
$DIMTXSTY
  7
STANDARD
  9
$DIMAUNIT
 70
    0
  9
$DIMADEC
 70
    0
  9
$DIMALTRND
 40
0
  9
$DIMAZIN
 70
    2
  9
$DIMDSEP
 70
   46
  9
$DIMATFIT
 70
    3
  9
$DIMFRAC
 70
    0
  9
$DIMLDRBLK
  1
STANDARD
  9
$DIMLUNIT
 70
    2
  9
$DIMLWD
 70
   -2
  9
$DIMLWE
 70
   -2
  9
$DIMTMOVE
 70
    0
  9
$DIMFXL
 40
1
  9
$DIMFXLON
 70
    0
  9
$DIMJOGANG
 40
0.7854
  9
$DIMTFILL
 70
    0
  9
$DIMTFILLCLR
 70
    0
  9
$DIMARCSYM
 70
    0
  9
$DIMLTYPE
  6

  9
$DIMLTEX1
  6

  9
$DIMLTEX2
  6

  9
$LUNITS
 70
    2
  9
$LUPREC
 70
    4
  9
$SKETCHINC
 40
0.1
  9
$FILLETRAD
 40
0.5
  9
$AUNITS
 70
    0
  9
$AUPREC
 70
    0
  9
$MENU
  1
.
  9
$ELEVATION
 40
0
  9
$PELEVATION
 40
0
  9
$THICKNESS
 40
0
  9
$LIMCHECK
 70
    0
  9
$CHAMFERA
 40
0
  9
$CHAMFERB
 40
0
  9
$CHAMFERC
 40
0
  9
$CHAMFERD
 40
0
  9
$SKPOLY
 70
    0
  9
$USRTIMER
 70
    1
  9
$ANGBASE
 50
0
  9
$ANGDIR
 70
    0
  9
$PDMODE
 70
    0
  9
$PDSIZE
 40
0
  9
$PLINEWID
 40
0
  9
$SPLFRAME
 70
    0
  9
$SPLINETYPE
 70
    6
  9
$SPLINESEGS
 70
    8
  9
$HANDSEED
  5
20000
  9
$SURFTAB1
 70
    6
  9
$SURFTAB2
 70
    6
  9
$SURFTYPE
 70
    6
  9
$SURFU
 70
    6
  9
$SURFV
 70
    6
  9
$UCSBASE
  2

  9
$UCSNAME
  2

  9
$UCSORG
 10
0
 20
0
 30
0
  9
$UCSXDIR
 10
1
 20
0
 30
0
  9
$UCSYDIR
 10
0
 20
1
 30
0
  9
$UCSORTHOREF
  2

  9
$UCSORTHOVIEW
 70
    0
  9
$UCSORGTOP
 10
0
 20
0
 30
0
  9
$UCSORGBOTTOM
 10
0
 20
0
 30
0
  9
$UCSORGLEFT
 10
0
 20
0
 30
0
  9
$UCSORGRIGHT
 10
0
 20
0
 30
0
  9
$UCSORGFRONT
 10
0
 20
0
 30
0
  9
$UCSORGBACK
 10
0
 20
0
 30
0
  9
$PUCSBASE
  2

  9
$PUCSNAME
  2

  9
$PUCSORG
 10
0
 20
0
 30
0
  9
$PUCSXDIR
 10
1
 20
0
 30
0
  9
$PUCSYDIR
 10
0
 20
1
 30
0
  9
$PUCSORTHOREF
  2

  9
$PUCSORTHOVIEW
 70
    0
  9
$PUCSORGTOP
 10
0
 20
0
 30
0
  9
$PUCSORGBOTTOM
 10
0
 20
0
 30
0
  9
$PUCSORGLEFT
 10
0
 20
0
 30
0
  9
$PUCSORGRIGHT
 10
0
 20
0
 30
0
  9
$PUCSORGFRONT
 10
0
 20
0
 30
0
  9
$PUCSORGBACK
 10
0
 20
0
 30
0
  9
$USERI1
 70
    0
  9
$USERI2
 70
    0
  9
$USERI3
 70
    0
  9
$USERI4
 70
    0
  9
$USERI5
 70
    0
  9
$USERR1
 40
0
  9
$USERR2
 40
0
  9
$USERR3
 40
0
  9
$USERR4
 40
0
  9
$USERR5
 40
0
  9
$WORLDVIEW
 70
    1
  9
$SHADEDGE
 70
    3
  9
$SHADEDIF
 70
   70
  9
$TILEMODE
 70
    1
  9
$MAXACTVP
 70
   64
  9
$PINSBASE
 10
0
 20
0
 30
0
  9
$PLIMCHECK
 70
    0
  9
$PEXTMIN
 10
1e+20
 20
1e+20
 30
1e+20
  9
$PEXTMAX
 10
-1e+20
 20
-1e+20
 30
-1e+20
  9
$GRIDMODE
 70
    1
  9
$SNAPSTYLE
 70
    0
  9
$PLIMMIN
 10
0
 20
0
  9
$PLIMMAX
 10
12
 20
9
  9
$UNITMODE
 70
    0
  9
$VISRETAIN
 70
    1
  9
$PLINEGEN
 70
    0
  9
$PSLTSCALE
 70
    1
  9
$TREEDEPTH
 70
 3020
  9
$CMLSTYLE
  2
Standard
  9
$CMLJUST
 70
    0
  9
$CMLSCALE
 40
1
  9
$PROXYGRAPHICS
 70
    1
  9
$MEASUREMENT
 70
    1
  9
$CELWEIGHT
370
   -1
  9
$ENDCAPS
280
    0
  9
$JOINSTYLE
280
    0
  9
$LWDISPLAY
290
    0
  9
$INSUNITS
 70
    4
  9
$HYPERLINKBASE
  1

  9
$STYLESHEET
  1

  9
$XEDIT
290
    1
  9
$CEPSNTYPE
380
    0
  9
$PSTYLEMODE
290
    1
  9
$EXTNAMES
290
    1
  9
$PSVPSCALE
 40
1
  9
$OLESTARTUP
290
    0
  9
$SORTENTS
280
  127
  9
$INDEXCTL
280
    0
  9
$HIDETEXT
280
    1
  9
$XCLIPFRAME
290
    0
  9
$HALOGAP
280
    0
  9
$OBSCOLOR
 70
  257
  9
$OBSLTYPE
280
    0
  9
$INTERSECTIONDISPLAY
280
    0
  9
$INTERSECTIONCOLOR
 70
  257
  9
$DIMASSOC
280
    1
  9
$PROJECTNAME
  1

  9
$CAMERADISPLAY
290
    0
  9
$LENSLENGTH
 40
50
  9
$CAMERAHEIGHT
 40
0
  9
$STEPSPERSEC
 40
2
  9
$STEPSIZE
 40
50
  9
$3DDWFPREC
 40
2
  9
$PSOLWIDTH
 40
5
  9
$PSOLHEIGHT
 40
80
  9
$LOFTANG1
 40
1.570796326794897
  9
$LOFTANG2
 40
1.570796326794897
  9
$LOFTMAG1
 40
0
  9
$LOFTMAG2
 40
0
  9
$LOFTPARAM
 70
    7
  9
$LOFTNORMALS
280
    1
  9
$LATITUDE
 40
1
  9
$LONGITUDE
 40
1
  9
$NORTHDIRECTION
 40
0
  9
$TIMEZONE
 70
-8000
  9
$LIGHTGLYPHDISPLAY
280
    1
  9
$TILEMODELIGHTSYNCH
280
    1
  9
$SOLIDHIST
280
    1
  9
$SHOWHIST
280
    1
  9
$DWFFRAME
280
    2
  9
$DGNFRAME
280
    0
  9
$REALWORLDSCALE
290
    1
  9
$INTERFERECOLOR
 62
    1
  9
$CSHADOW
280
    0
  9
$SHADOWPLANELOCATION
 40
0
  0
ENDSEC
  0
SECTION
  2
CLASSES
  0
ENDSEC
  0
SECTION
  2
TABLES
  0
TABLE
  2
VPORT
  5
8
330
0
100
AcDbSymbolTable
 70
    1
  0
VPORT
  5
31
330
2
100
AcDbSymbolTableRecord
100
AcDbViewportTableRecord
  2
*ACTIVE
 70
    0
 10
0
 20
0
 11
1
 21
1
 12
108.4258653409572
 22
62.87532227132707
 13
0
 23
0
 14
10
 24
10
 15
10
 25
10
 16
0
 26
0
 36
1
 17
0
 27
0
 37
0
 40
196.6070448731899
 41
1.893069306930693
 42
50
 43
0
 44
0
 50
0
 51
0
 71
    0
 72
  100
 73
    1
 74
    3
 75
    0
 76
    1
 77
    0
 78
    0
281
    0
 65
    1
110
0
120
0
130
0
111
1
121
0
131
0
112
0
122
1
132
0
 79
    0
146
0
348
10020
 60
    7
 61
    5
292
1
282
    1
141
0
142
0
 63
  250
421
3358443
  0
ENDTAB
  0
TABLE
  2
LTYPE
  5
5
330
0
100
AcDbSymbolTable
 70
    4
  0
LTYPE
  5
14
330
5
100
AcDbSymbolTableRecord
100
AcDbLinetypeTableRecord
  2
ByBlock
 70
    0
  3

 72
   65
 73
    0
 40
0
  0
LTYPE
  5
15
330
5
100
AcDbSymbolTableRecord
100
AcDbLinetypeTableRecord
  2
ByLayer
 70
    0
  3

 72
   65
 73
    0
 40
0
  0
LTYPE
  5
16
330
5
100
AcDbSymbolTableRecord
100
AcDbLinetypeTableRecord
  2
Continuous
 70
    0
  3
Solid line
 72
   65
 73
    0
 40
0
  0
LTYPE
  5
32
330
5
100
AcDbSymbolTableRecord
100
AcDbLinetypeTableRecord
  2
DOT
 70
    0
  3
Dot . . . . . . . . . . . . . . . . . . . . . .
 72
   65
 73
    2
 40
6.35
 49
0
 74
    0
 49
-6.35
 74
    0
  0
LTYPE
  5
33
330
5
100
AcDbSymbolTableRecord
100
AcDbLinetypeTableRecord
  2
DOTTINY
 70
    0
  3
Dot (.15x) .....................................
 72
   65
 73
    2
 40
0.9525
 49
0
 74
    0
 49
-0.9525
 74
    0
  0
LTYPE
  5
34
330
5
100
AcDbSymbolTableRecord
100
AcDbLinetypeTableRecord
  2
DOT2
 70
    0
  3
Dot (.5x) .....................................
 72
   65
 73
    2
 40
3.175
 49
0
 74
    0
 49
-3.175
 74
    0
  0
LTYPE
  5
35
330
5
100
AcDbSymbolTableRecord
100
AcDbLinetypeTableRecord
  2
DOTX2
 70
    0
  3
Dot (2x) .  .  .  .  .  .  .  .  .  .  .  .  .
 72
   65
 73
    2
 40
12.7
 49
0
 74
    0
 49
-12.7
 74
    0
  0
LTYPE
  5
36
330
5
100
AcDbSymbolTableRecord
100
AcDbLinetypeTableRecord
  2
DASHED
 70
    0
  3
Dashed _ _ _ _ _ _ _ _ _ _ _ _ _ _ _ _ _
 72
   65
 73
    2
 40
19.05
 49
12.7
 74
    0
 49
-6.35
 74
    0
  0
LTYPE
  5
37
330
5
100
AcDbSymbolTableRecord
100
AcDbLinetypeTableRecord
  2
DASHEDTINY
 70
    0
  3
Dashed (.15x) _ _ _ _ _ _ _ _ _ _ _ _ _ _ _ _ _
 72
   65
 73
    2
 40
2.8575
 49
1.905
 74
    0
 49
-0.9525
 74
    0
  0
LTYPE
  5
38
330
5
100
AcDbSymbolTableRecord
100
AcDbLinetypeTableRecord
  2
DASHED2
 70
    0
  3
Dashed (.5x) _ _ _ _ _ _ _ _ _ _ _ _ _ _ _ _ _
 72
   65
 73
    2
 40
9.524999999999999
 49
6.35
 74
    0
 49
-3.175
 74
    0
  0
LTYPE
  5
39
330
5
100
AcDbSymbolTableRecord
100
AcDbLinetypeTableRecord
  2
DASHEDX2
 70
    0
  3
Dashed (2x) ____  ____  ____  ____  ____  ___
 72
   65
 73
    2
 40
38.09999999999999
 49
25.4
 74
    0
 49
-12.7
 74
    0
  0
LTYPE
  5
3A
330
5
100
AcDbSymbolTableRecord
100
AcDbLinetypeTableRecord
  2
DASHDOT
 70
    0
  3
Dash dot __ . __ . __ . __ . __ . __ . __ . __
 72
   65
 73
    4
 40
25.4
 49
12.7
 74
    0
 49
-6.35
 74
    0
 49
0
 74
    0
 49
-6.35
 74
    0
  0
LTYPE
  5
3B
330
5
100
AcDbSymbolTableRecord
100
AcDbLinetypeTableRecord
  2
DASHDOTTINY
 70
    0
  3
Dash dot (.15x) _._._._._._._._._._._._._._._.
 72
   65
 73
    4
 40
3.81
 49
1.905
 74
    0
 49
-0.9525
 74
    0
 49
0
 74
    0
 49
-0.9525
 74
    0
  0
LTYPE
  5
3C
330
5
100
AcDbSymbolTableRecord
100
AcDbLinetypeTableRecord
  2
DASHDOT2
 70
    0
  3
Dash dot (.5x) _._._._._._._._._._._._._._._.
 72
   65
 73
    4
 40
12.7
 49
6.35
 74
    0
 49
-3.175
 74
    0
 49
0
 74
    0
 49
-3.175
 74
    0
  0
LTYPE
  5
3D
330
5
100
AcDbSymbolTableRecord
100
AcDbLinetypeTableRecord
  2
DASHDOTX2
 70
    0
  3
Dash dot (2x) ____  .  ____  .  ____  .  ___
 72
   65
 73
    4
 40
50.8
 49
25.4
 74
    0
 49
-12.7
 74
    0
 49
0
 74
    0
 49
-12.7
 74
    0
  0
LTYPE
  5
3E
330
5
100
AcDbSymbolTableRecord
100
AcDbLinetypeTableRecord
  2
DIVIDE
 70
    0
  3
Divide ____ . . ____ . . ____ . . ____ . . ____
 72
   65
 73
    6
 40
31.75
 49
12.7
 74
    0
 49
-6.35
 74
    0
 49
0
 74
    0
 49
-6.35
 74
    0
 49
0
 74
    0
 49
-6.35
 74
    0
  0
LTYPE
  5
3F
330
5
100
AcDbSymbolTableRecord
100
AcDbLinetypeTableRecord
  2
DIVIDETINY
 70
    0
  3
Divide (.15x) __..__..__..__..__..__..__..__.._
 72
   65
 73
    6
 40
4.7625
 49
1.905
 74
    0
 49
-0.9525
 74
    0
 49
0
 74
    0
 49
-0.9525
 74
    0
 49
0
 74
    0
 49
-0.9525
 74
    0
  0
LTYPE
  5
40
330
5
100
AcDbSymbolTableRecord
100
AcDbLinetypeTableRecord
  2
DIVIDE2
 70
    0
  3
Divide (.5x) __..__..__..__..__..__..__..__.._
 72
   65
 73
    6
 40
15.875
 49
6.35
 74
    0
 49
-3.175
 74
    0
 49
0
 74
    0
 49
-3.175
 74
    0
 49
0
 74
    0
 49
-3.175
 74
    0
  0
LTYPE
  5
41
330
5
100
AcDbSymbolTableRecord
100
AcDbLinetypeTableRecord
  2
DIVIDEX2
 70
    0
  3
Divide (2x) ________  .  .  ________  .  .  _
 72
   65
 73
    6
 40
63.5
 49
25.4
 74
    0
 49
-12.7
 74
    0
 49
0
 74
    0
 49
-12.7
 74
    0
 49
0
 74
    0
 49
-12.7
 74
    0
  0
LTYPE
  5
42
330
5
100
AcDbSymbolTableRecord
100
AcDbLinetypeTableRecord
  2
BORDER
 70
    0
  3
Border __ __ . __ __ . __ __ . __ __ . __ __ .
 72
   65
 73
    6
 40
44.45
 49
12.7
 74
    0
 49
-6.35
 74
    0
 49
12.7
 74
    0
 49
-6.35
 74
    0
 49
0
 74
    0
 49
-6.35
 74
    0
  0
LTYPE
  5
43
330
5
100
AcDbSymbolTableRecord
100
AcDbLinetypeTableRecord
  2
BORDERTINY
 70
    0
  3
Border (.15x) __.__.__.__.__.__.__.__.__.__.__.
 72
   65
 73
    6
 40
6.6675
 49
1.905
 74
    0
 49
-0.9525
 74
    0
 49
1.905
 74
    0
 49
-0.9525
 74
    0
 49
0
 74
    0
 49
-0.9525
 74
    0
  0
LTYPE
  5
44
330
5
100
AcDbSymbolTableRecord
100
AcDbLinetypeTableRecord
  2
BORDER2
 70
    0
  3
Border (.5x) __.__.__.__.__.__.__.__.__.__.__.
 72
   65
 73
    6
 40
22.225
 49
6.35
 74
    0
 49
-3.175
 74
    0
 49
6.35
 74
    0
 49
-3.175
 74
    0
 49
0
 74
    0
 49
-3.175
 74
    0
  0
LTYPE
  5
45
330
5
100
AcDbSymbolTableRecord
100
AcDbLinetypeTableRecord
  2
BORDERX2
 70
    0
  3
Border (2x) ____  ____  .  ____  ____  .  ___
 72
   65
 73
    6
 40
88.89999999999999
 49
25.4
 74
    0
 49
-12.7
 74
    0
 49
25.4
 74
    0
 49
-12.7
 74
    0
 49
0
 74
    0
 49
-12.7
 74
    0
  0
LTYPE
  5
46
330
5
100
AcDbSymbolTableRecord
100
AcDbLinetypeTableRecord
  2
CENTER
 70
    0
  3
Center ____ _ ____ _ ____ _ ____ _ ____ _ ____
 72
   65
 73
    4
 40
50.8
 49
31.75
 74
    0
 49
-6.35
 74
    0
 49
6.35
 74
    0
 49
-6.35
 74
    0
  0
LTYPE
  5
47
330
5
100
AcDbSymbolTableRecord
100
AcDbLinetypeTableRecord
  2
CENTERTINY
 70
    0
  3
Center (.15x) ___ _ ___ _ ___ _ ___ _ ___ _ ___
 72
   65
 73
    4
 40
7.619999999999999
 49
4.7625
 74
    0
 49
-0.9525
 74
    0
 49
0.9525
 74
    0
 49
-0.9525
 74
    0
  0
LTYPE
  5
48
330
5
100
AcDbSymbolTableRecord
100
AcDbLinetypeTableRecord
  2
CENTER2
 70
    0
  3
Center (.5x) ___ _ ___ _ ___ _ ___ _ ___ _ ___
 72
   65
 73
    4
 40
28.575
 49
19.05
 74
    0
 49
-3.175
 74
    0
 49
3.175
 74
    0
 49
-3.175
 74
    0
  0
LTYPE
  5
49
330
5
100
AcDbSymbolTableRecord
100
AcDbLinetypeTableRecord
  2
CENTERX2
 70
    0
  3
Center (2x) ________  __  ________  __  _____
 72
   65
 73
    4
 40
101.6
 49
63.5
 74
    0
 49
-12.7
 74
    0
 49
12.7
 74
    0
 49
-12.7
 74
    0
  0
ENDTAB
  0
TABLE
  2
LAYER
  5
2
330
0
100
AcDbSymbolTable
 70
    1
  0
LAYER
  5
10
330
2
100
AcDbSymbolTableRecord
100
AcDbLayerTableRecord
  2
0
 70
    0
 62
  255
  6
CONTINUOUS
370
   -3
390
F
  0
LAYER
  5
4A
330
2
100
AcDbSymbolTableRecord
100
AcDbLayerTableRecord
  2
connector cutout
 70
    0
 62
    1
  6
CONTINUOUS
370
   13
390
F
  0
LAYER
  5
4B
330
2
100
AcDbSymbolTableRecord
100
AcDbLayerTableRecord
  2
dimensiones
 70
    0
 62
    4
  6
CONTINUOUS
370
    0
390
F
  0
ENDTAB
  0
TABLE
  2
STYLE
  5
3
330
0
100
AcDbSymbolTable
 70
    3
  0
STYLE
  5
4C
330
2
100
AcDbSymbolTableRecord
100
AcDbTextStyleTableRecord
  2
Standard
 70
    0
 40
0
 41
1
 50
0
 71
    0
 42
1
  3
txt
  4

  0
ENDTAB
  0
TABLE
  2
VIEW
  5
6
330
0
100
AcDbSymbolTable
 70
    0
  0
ENDTAB
  0
TABLE
  2
UCS
  5
7
330
0
100
AcDbSymbolTable
 70
    0
  0
ENDTAB
  0
TABLE
  2
APPID
  5
9
330
0
100
AcDbSymbolTable
 70
    1
  0
APPID
  5
12
330
9
100
AcDbSymbolTableRecord
100
AcDbRegAppTableRecord
  2
ACAD
 70
    0
  0
APPID
  5
4D
330
9
100
AcDbSymbolTableRecord
100
AcDbRegAppTableRecord
  2
LibreCad
 70
    0
  0
ENDTAB
  0
TABLE
  2
DIMSTYLE
  5
A
330
0
100
AcDbSymbolTable
 70
    1
100
AcDbDimStyleTable
 71
    1
  0
DIMSTYLE
105
4E
330
A
100
AcDbSymbolTableRecord
100
AcDbDimStyleTableRecord
  2
Standard
 70
    0
 40
1
 41
2.5
 42
0.625
 43
0.38
 44
1.25
 45
0
 46
0
 47
0
 48
0
 49
1
140
2.5
141
0.09
142
0
143
25.4
144
1
145
0
146
1
147
0.625
148
0
 71
    0
 72
    0
 73
    0
 74
    1
 75
    0
 76
    0
 77
    0
 78
    8
 79
    2
170
    0
171
    2
172
    0
173
    0
174
    0
175
    0
176
    0
177
    0
178
    0
179
    0
271
    2
272
    4
273
    2
274
    2
275
    0
276
    0
277
    2
278
   46
279
    0
280
    0
281
    0
282
    0
283
    1
284
    0
285
    0
286
    0
288
    0
289
    3
340
STANDARD
341

371
   -2
372
   -2
  0
ENDTAB
  0
TABLE
  2
BLOCK_RECORD
  5
1
330
0
100
AcDbSymbolTable
 70
    2
  0
BLOCK_RECORD
  5
1F
330
1
100
AcDbSymbolTableRecord
100
AcDbBlockTableRecord
  2
*Model_Space
 70
    0
280
    1
281
    0
  0
BLOCK_RECORD
  5
1E
330
1
100
AcDbSymbolTableRecord
100
AcDbBlockTableRecord
  2
*Paper_Space
 70
    0
280
    1
281
    0
  0
BLOCK_RECORD
  5
4F
330
1
100
AcDbSymbolTableRecord
100
AcDbBlockTableRecord
  2
*D1
 70
    0
280
    1
281
    0
  0
BLOCK_RECORD
  5
52
330
1
100
AcDbSymbolTableRecord
100
AcDbBlockTableRecord
  2
*D2
 70
    0
280
    1
281
    0
  0
BLOCK_RECORD
  5
55
330
1
100
AcDbSymbolTableRecord
100
AcDbBlockTableRecord
  2
block 1
 70
    0
280
    1
281
    0
  0
BLOCK_RECORD
  5
58
330
1
100
AcDbSymbolTableRecord
100
AcDbBlockTableRecord
  2
reset
 70
    0
280
    1
281
    0
  0
BLOCK_RECORD
  5
5B
330
1
100
AcDbSymbolTableRecord
100
AcDbBlockTableRecord
  2
ethernet
 70
    0
280
    1
281
    0
  0
ENDTAB
  0
ENDSEC
  0
SECTION
  2
BLOCKS
  0
BLOCK
  5
20
330
1F
100
AcDbEntity
  8
0
100
AcDbBlockBegin
  2
*Model_Space
 70
    0
 10
0
 20
0
 30
0
  3
*Model_Space
  1

  0
ENDBLK
  5
21
330
1F
100
AcDbEntity
  8
0
100
AcDbBlockEnd
  0
BLOCK
  5
1C
330
1B
100
AcDbEntity
  8
0
100
AcDbBlockBegin
  2
*Paper_Space
 70
    0
 10
0
 20
0
 30
0
  3
*Paper_Space
  1

  0
ENDBLK
  5
1D
330
1F
100
AcDbEntity
  8
0
100
AcDbBlockEnd
  0
BLOCK
  5
50
330
4F
100
AcDbEntity
  8
0
100
AcDbBlockBegin
  2
*D1
 70
    1
 10
0
 20
0
  3
*D1
  1

  0
LINE
  5
5E
100
AcDbEntity
  8
dimensiones
  6
ByBlock
 62
    0
370
   -2
100
AcDbLine
 10
0
 20
140
 11
68.20000000000002
 21
140
  0
SOLID
  5
5F
100
AcDbEntity
  8
dimensiones
  6
ByBlock
 62
    0
370
   -2
100
AcDbTrace
 10
0
 20
140
 30
0
 11
2.5
 21
140.4162846577728
 31
0
 12
2.5
 22
139.5837153422272
 32
0
 13
2.5
 23
139.5837153422272
 33
0
  0
SOLID
  5
60
100
AcDbEntity
  8
dimensiones
  6
ByBlock
 62
    0
370
   -2
100
AcDbTrace
 10
68.20000000000002
 20
140
 30
0
 11
65.70000000000002
 21
139.5837153422272
 31
0
 12
65.70000000000002
 22
140.4162846577728
 32
0
 13
65.70000000000002
 23
140.4162846577728
 33
0
  0
MTEXT
  5
61
100
AcDbEntity
  8
dimensiones
  6
CONTINUOUS
 62
    0
370
   -2
100
AcDbMText
 10
34.10000000000001
 20
141.875
 30
0
 40
2.5
 41
5.833333333333488
 71
    5
 72
    1
  1
68.2
  7
STANDARD
210
0
220
0
230
1
 50
0
 73
    2
 44
1
  0
LINE
  5
62
100
AcDbEntity
  8
dimensiones
  6
ByBlock
 62
    0
370
   -2
100
AcDbLine
 10
3.827021247335479e-17
 20
110.625
 11
7.654042494670958e-17
 21
141.25
  0
LINE
  5
63
100
AcDbEntity
  8
dimensiones
  6
ByBlock
 62
    0
370
   -2
100
AcDbLine
 10
68.20000000000002
 20
110.525
 11
68.20000000000002
 21
141.25
  0
ENDBLK
  5
51
330
4F
100
AcDbEntity
  8
0
100
AcDbBlockEnd
  0
BLOCK
  5
53
330
52
100
AcDbEntity
  8
0
100
AcDbBlockBegin
  2
*D2
 70
    1
 10
0
 20
0
  3
*D2
  1

  0
LINE
  5
64
100
AcDbEntity
  8
dimensiones
  6
ByBlock
 62
    0
370
   -2
100
AcDbLine
 10
-10
 20
96.20000000000002
 11
-10
 21
126.2
  0
SOLID
  5
65
100
AcDbEntity
  8
dimensiones
  6
ByBlock
 62
    0
370
   -2
100
AcDbTrace
 10
-10
 20
96.20000000000002
 30
0
 11
-10.41628465777284
 21
98.70000000000002
 31
0
 12
-9.58371534222716
 22
98.70000000000002
 32
0
 13
-9.58371534222716
 23
98.70000000000002
 33
0
  0
SOLID
  5
66
100
AcDbEntity
  8
dimensiones
  6
ByBlock
 62
    0
370
   -2
100
AcDbTrace
 10
-10
 20
126.2
 30
0
 11
-9.58371534222716
 21
123.7
 31
0
 12
-10.41628465777284
 22
123.7
 32
0
 13
-10.41628465777284
 23
123.7
 33
0
  0
MTEXT
  5
67
100
AcDbEntity
  8
dimensiones
  6
CONTINUOUS
 62
    0
370
   -2
100
AcDbMText
 10
-11.875
 20
111.2
 30
0
 40
2.5
 41
3.055555555555711
 71
    5
 72
    1
  1
30
  7
STANDARD
210
0
220
0
230
1
 50
90
 73
    2
 44
1
  0
LINE
  5
68
100
AcDbEntity
  8
dimensiones
  6
ByBlock
 62
    0
370
   -2
100
AcDbLine
 10
19.375
 20
96.20000000000002
 11
-11.25
 21
96.20000000000002
  0
LINE
  5
69
100
AcDbEntity
  8
dimensiones
  6
ByBlock
 62
    0
370
   -2
100
AcDbLine
 10
19.375
 20
126.2
 11
-11.25
 21
126.2
  0
ENDBLK
  5
54
330
52
100
AcDbEntity
  8
0
100
AcDbBlockEnd
  0
BLOCK
  5
56
330
55
100
AcDbEntity
  8
0
100
AcDbBlockBegin
  2
block 1
 70
    0
 10
0
 20
0
  3
block 1
  1

  0
LINE
  5
6A
100
AcDbEntity
  8
0
  6
ByLayer
 62
  256
370
   -1
100
AcDbLine
 10
-2.9
 20
-24.89999999999999
 11
0
 21
-24.89999999999999
  0
LINE
  5
6B
100
AcDbEntity
  8
0
  6
ByLayer
 62
  256
370
   -1
100
AcDbLine
 10
0
 20
-24.89999999999999
 11
0
 21
-15.89999999999999
  0
LINE
  5
6C
100
AcDbEntity
  8
0
  6
ByLayer
 62
  256
370
   -1
100
AcDbLine
 10
0
 20
-15.89999999999999
 11
-2.9
 21
-15.89999999999999
  0
LINE
  5
6D
100
AcDbEntity
  8
0
  6
ByLayer
 62
  256
370
   -1
100
AcDbLine
 10
-2.9
 20
-15.89999999999999
 11
-2.9
 21
-24.89999999999999
  0
LINE
  5
6E
100
AcDbEntity
  8
0
  6
ByLayer
 62
  256
370
   -1
100
AcDbLine
 10
-2.9
 20
0
 11
0
 21
0
  0
LINE
  5
6F
100
AcDbEntity
  8
0
  6
ByLayer
 62
  256
370
   -1
100
AcDbLine
 10
0
 20
0
 11
0
 21
8
  0
LINE
  5
70
100
AcDbEntity
  8
0
  6
ByLayer
 62
  256
370
   -1
100
AcDbLine
 10
0
 20
8
 11
-2.9
 21
8
  0
LINE
  5
71
100
AcDbEntity
  8
0
  6
ByLayer
 62
  256
370
   -1
100
AcDbLine
 10
-2.9
 20
8
 11
-2.9
 21
0
  0
LINE
  5
72
100
AcDbEntity
  8
0
  6
ByLayer
 62
  256
370
   -1
100
AcDbLine
 10
55.2
 20
-24.89999999999999
 11
58.09999999999999
 21
-24.89999999999999
  0
LINE
  5
73
100
AcDbEntity
  8
0
  6
ByLayer
 62
  256
370
   -1
100
AcDbLine
 10
58.09999999999999
 20
-24.89999999999999
 11
58.09999999999999
 21
-15.89999999999999
  0
LINE
  5
74
100
AcDbEntity
  8
0
  6
ByLayer
 62
  256
370
   -1
100
AcDbLine
 10
58.09999999999999
 20
-15.89999999999999
 11
55.2
 21
-15.89999999999999
  0
LINE
  5
75
100
AcDbEntity
  8
0
  6
ByLayer
 62
  256
370
   -1
100
AcDbLine
 10
55.2
 20
-15.89999999999999
 11
55.2
 21
-24.89999999999999
  0
LINE
  5
76
100
AcDbEntity
  8
0
  6
ByLayer
 62
  256
370
   -1
100
AcDbLine
 10
55.2
 20
0
 11
58.09999999999999
 21
0
  0
LINE
  5
77
100
AcDbEntity
  8
0
  6
ByLayer
 62
  256
370
   -1
100
AcDbLine
 10
58.09999999999999
 20
0
 11
58.09999999999999
 21
8
  0
LINE
  5
78
100
AcDbEntity
  8
0
  6
ByLayer
 62
  256
370
   -1
100
AcDbLine
 10
58.09999999999999
 20
8
 11
55.2
 21
8
  0
LINE
  5
79
100
AcDbEntity
  8
0
  6
ByLayer
 62
  256
370
   -1
100
AcDbLine
 10
55.2
 20
8
 11
55.2
 21
0
  0
ARC
  5
7A
100
AcDbEntity
  8
0
  6
ByLayer
 62
  256
370
   -1
100
AcDbCircle
 10
59.2
 20
-25.89999999999999
 40
2
100
AcDbArc
 50
270
 51
0
  0
ARC
  5
7B
100
AcDbEntity
  8
0
  6
ByLayer
 62
  256
370
   -1
100
AcDbCircle
 10
59.2
 20
9.099999999999994
 40
2
100
AcDbArc
 50
0
 51
90
  0
ARC
  5
7C
100
AcDbEntity
  8
0
  6
ByLayer
 62
  256
370
   -1
100
AcDbCircle
 10
-4
 20
9.099999999999994
 40
2
100
AcDbArc
 50
90
 51
180
  0
ARC
  5
7D
100
AcDbEntity
  8
0
  6
ByLayer
 62
  256
370
   -1
100
AcDbCircle
 10
-4
 20
-25.89999999999999
 40
2
100
AcDbArc
 50
180
 51
270
  0
LINE
  5
7E
100
AcDbEntity
  8
0
  6
ByLayer
 62
  256
370
   -1
100
AcDbLine
 10
-6
 20
9.099999999999994
 11
-6
 21
-25.89999999999999
  0
LINE
  5
7F
100
AcDbEntity
  8
0
  6
ByLayer
 62
  256
370
   -1
100
AcDbLine
 10
-4
 20
-27.89999999999999
 11
59.20000000000002
 21
-27.89999999999999
  0
LINE
  5
80
100
AcDbEntity
  8
0
  6
ByLayer
 62
  256
370
   -1
100
AcDbLine
 10
61.2
 20
-25.89999999999999
 11
61.2
 21
9.099999999999994
  0
LINE
  5
81
100
AcDbEntity
  8
0
  6
ByLayer
 62
  256
370
   -1
100
AcDbLine
 10
59.2
 20
11.09999999999999
 11
-4
 21
11.09999999999999
  0
LINE
  5
82
100
AcDbEntity
  8
0
  6
ByLayer
 62
  256
370
   -1
100
AcDbLine
 10
133.5
 20
-24.89999999999999
 11
145.5
 21
-24.89999999999999
  0
LINE
  5
83
100
AcDbEntity
  8
0
  6
ByLayer
 62
  256
370
   -1
100
AcDbLine
 10
145.5
 20
-24.89999999999999
 11
145.5
 21
-21.89999999999999
  0
LINE
  5
84
100
AcDbEntity
  8
0
  6
ByLayer
 62
  256
370
   -1
100
AcDbLine
 10
145.5
 20
-21.89999999999999
 11
133.5
 21
-21.89999999999999
  0
LINE
  5
85
100
AcDbEntity
  8
0
  6
ByLayer
 62
  256
370
   -1
100
AcDbLine
 10
133.5
 20
-21.89999999999999
 11
133.5
 21
-24.89999999999999
  0
LINE
  5
86
100
AcDbEntity
  8
0
  6
ByLayer
 62
  256
370
   -1
100
AcDbLine
 10
97.5
 20
-24.89999999999999
 11
109.5
 21
-24.89999999999999
  0
LINE
  5
87
100
AcDbEntity
  8
0
  6
ByLayer
 62
  256
370
   -1
100
AcDbLine
 10
109.5
 20
-24.89999999999999
 11
109.5
 21
-21.89999999999999
  0
LINE
  5
88
100
AcDbEntity
  8
0
  6
ByLayer
 62
  256
370
   -1
100
AcDbLine
 10
109.5
 20
-21.89999999999999
 11
97.5
 21
-21.89999999999999
  0
LINE
  5
89
100
AcDbEntity
  8
0
  6
ByLayer
 62
  256
370
   -1
100
AcDbLine
 10
97.5
 20
-21.89999999999999
 11
97.5
 21
-24.89999999999999
  0
LINE
  5
8A
100
AcDbEntity
  8
0
  6
ByLayer
 62
  256
370
   -1
100
AcDbLine
 10
133.5
 20
5.099999999999994
 11
145.5
 21
5.099999999999994
  0
LINE
  5
8B
100
AcDbEntity
  8
0
  6
ByLayer
 62
  256
370
   -1
100
AcDbLine
 10
145.5
 20
5.099999999999994
 11
145.5
 21
8.099999999999994
  0
LINE
  5
8C
100
AcDbEntity
  8
0
  6
ByLayer
 62
  256
370
   -1
100
AcDbLine
 10
145.5
 20
8.099999999999994
 11
133.5
 21
8.099999999999994
  0
LINE
  5
8D
100
AcDbEntity
  8
0
  6
ByLayer
 62
  256
370
   -1
100
AcDbLine
 10
133.5
 20
8.099999999999994
 11
133.5
 21
5.099999999999994
  0
LINE
  5
8E
100
AcDbEntity
  8
0
  6
ByLayer
 62
  256
370
   -1
100
AcDbLine
 10
97.5
 20
5.099999999999994
 11
109.5
 21
5.099999999999994
  0
LINE
  5
8F
100
AcDbEntity
  8
0
  6
ByLayer
 62
  256
370
   -1
100
AcDbLine
 10
109.5
 20
5.099999999999994
 11
109.5
 21
8.099999999999994
  0
LINE
  5
90
100
AcDbEntity
  8
0
  6
ByLayer
 62
  256
370
   -1
100
AcDbLine
 10
109.5
 20
8.099999999999994
 11
97.5
 21
8.099999999999994
  0
LINE
  5
91
100
AcDbEntity
  8
0
  6
ByLayer
 62
  256
370
   -1
100
AcDbLine
 10
97.5
 20
8.099999999999994
 11
97.5
 21
5.099999999999994
  0
LINE
  5
92
100
AcDbEntity
  8
0
  6
ByLayer
 62
  256
370
   -1
100
AcDbLine
 10
165
 20
-24.89999999999999
 11
168
 21
-24.89999999999999
  0
LINE
  5
93
100
AcDbEntity
  8
0
  6
ByLayer
 62
  256
370
   -1
100
AcDbLine
 10
165
 20
-16.89999999999999
 11
168
 21
-16.89999999999999
  0
LINE
  5
94
100
AcDbEntity
  8
0
  6
ByLayer
 62
  256
370
   -1
100
AcDbLine
 10
165
 20
8.099999999999994
 11
168
 21
8.099999999999994
  0
LINE
  5
95
100
AcDbEntity
  8
0
  6
ByLayer
 62
  256
370
   -1
100
AcDbLine
 10
165
 20
0.0999999999999943
 11
168
 21
0.0999999999999943
  0
LINE
  5
96
100
AcDbEntity
  8
0
  6
ByLayer
 62
  256
370
   -1
100
AcDbLine
 10
75
 20
-24.89999999999999
 11
75
 21
-24.89999999999999
  0
LINE
  5
97
100
AcDbEntity
  8
0
  6
ByLayer
 62
  256
370
   -1
100
AcDbLine
 10
168
 20
-16.89999999999999
 11
168
 21
-16.89999999999999
  0
LINE
  5
98
100
AcDbEntity
  8
0
  6
ByLayer
 62
  256
370
   -1
100
AcDbLine
 10
75
 20
-24.89999999999999
 11
75
 21
-25.84948974278319
  0
LINE
  5
99
100
AcDbEntity
  8
0
  6
ByLayer
 62
  256
370
   -1
100
AcDbLine
 10
75
 20
-24.89999999999999
 11
78
 21
-24.89999999999999
  0
ARC
  5
9A
100
AcDbEntity
  8
0
  6
ByLayer
 62
  256
370
   -1
100
AcDbCircle
 10
75
 20
-23.39999999999999
 40
3
100
AcDbArc
 50
180
 51
258.4905700378631
  0
ARC
  5
9B
100
AcDbEntity
  8
0
  6
ByLayer
 62
  256
370
   -1
100
AcDbCircle
 10
79
 20
-26.89999999999999
 40
1
100
AcDbArc
 50
180
 51
270
  0
LINE
  5
9C
100
AcDbEntity
  8
0
  6
ByLayer
 62
  256
370
   -1
100
AcDbLine
 10
79
 20
-27.89999999999999
 11
164
 21
-27.89999999999999
  0
LINE
  5
9D
100
AcDbEntity
  8
0
  6
ByLayer
 62
  256
370
   -1
100
AcDbLine
 10
78
 20
-26.89999999999999
 11
78
 21
-24.89999999999999
  0
LINE
  5
9E
100
AcDbEntity
  8
0
  6
ByLayer
 62
  256
370
   -1
100
AcDbLine
 10
78
 20
-16.89999999999999
 11
78
 21
0.0999999999999943
  0
ARC
  5
9F
100
AcDbEntity
  8
0
  6
ByLayer
 62
  256
370
   -1
100
AcDbCircle
 10
75
 20
-19.89999999999999
 40
3
100
AcDbArc
 50
90
 51
180
  0
LINE
  5
A0
100
AcDbEntity
  8
0
  6
ByLayer
 62
  256
370
   -1
100
AcDbLine
 10
72
 20
-19.89999999999999
 11
72
 21
-23.39999999999999
  0
LINE
  5
A1
100
AcDbEntity
  8
0
  6
ByLayer
 62
  256
370
   -1
100
AcDbLine
 10
75
 20
-16.89999999999999
 11
78
 21
-16.89999999999999
  0
LINE
  5
A2
100
AcDbEntity
  8
0
  6
ByLayer
 62
  256
370
   -1
100
AcDbLine
 10
168
 20
-24.89999999999999
 11
168
 21
-25.84948974278319
  0
LINE
  5
A3
100
AcDbEntity
  8
0
  6
ByLayer
 62
  256
370
   -1
100
AcDbLine
 10
168
 20
-24.89999999999999
 11
168
 21
-24.89999999999999
  0
ARC
  5
A4
100
AcDbEntity
  8
0
  6
ByLayer
 62
  256
370
   -1
100
AcDbCircle
 10
168
 20
-19.89999999999999
 40
3
100
AcDbArc
 50
0
 51
90
  0
LINE
  5
A5
100
AcDbEntity
  8
0
  6
ByLayer
 62
  256
370
   -1
100
AcDbLine
 10
171
 20
-23.39999999999999
 11
171
 21
-19.89999999999999
  0
LINE
  5
A6
100
AcDbEntity
  8
0
  6
ByLayer
 62
  256
370
   -1
100
AcDbLine
 10
165
 20
-16.89999999999999
 11
165
 21
0.0999999999999943
  0
LINE
  5
A7
100
AcDbEntity
  8
0
  6
ByLayer
 62
  256
370
   -1
100
AcDbLine
 10
75
 20
8.099999999999994
 11
75
 21
9.599999999999994
  0
ARC
  5
A8
100
AcDbEntity
  8
0
  6
ByLayer
 62
  256
370
   -1
100
AcDbCircle
 10
75
 20
3.099999999999994
 40
3
100
AcDbArc
 50
180
 51
270
  0
ARC
  5
A9
100
AcDbEntity
  8
0
  6
ByLayer
 62
  256
370
   -1
100
AcDbCircle
 10
75
 20
6.599999999999994
 40
3
100
AcDbArc
 50
90
 51
180
  0
LINE
  5
AA
100
AcDbEntity
  8
0
  6
ByLayer
 62
  256
370
   -1
100
AcDbLine
 10
75
 20
8.099999999999994
 11
78
 21
8.099999999999994
  0
LINE
  5
AB
100
AcDbEntity
  8
0
  6
ByLayer
 62
  256
370
   -1
100
AcDbLine
 10
72
 20
6.599999999999994
 11
72
 21
5.599999999999994
  0
LINE
  5
AC
100
AcDbEntity
  8
0
  6
ByLayer
 62
  256
370
   -1
100
AcDbLine
 10
75
 20
0.0999999999999943
 11
78
 21
0.0999999999999943
  0
LINE
  5
AD
100
AcDbEntity
  8
0
  6
ByLayer
 62
  256
370
   -1
100
AcDbLine
 10
78
 20
11.09999999999999
 11
78
 21
11.09999999999999
  0
LINE
  5
AE
100
AcDbEntity
  8
0
  6
ByLayer
 62
  256
370
   -1
100
AcDbLine
 10
78
 20
8.099999999999994
 11
78
 21
10.09999999999999
  0
LINE
  5
AF
100
AcDbEntity
  8
0
  6
ByLayer
 62
  256
370
   -1
100
AcDbLine
 10
72
 20
4.099999999999994
 11
78
 21
4.099999999999994
  0
LINE
  5
B0
100
AcDbEntity
  8
0
  6
ByLayer
 62
  256
370
   -1
100
AcDbLine
 10
72
 20
5.599999999999994
 11
78
 21
5.599999999999994
  0
ARC
  5
B1
100
AcDbEntity
  8
0
  6
ByLayer
 62
  256
370
   -1
100
AcDbCircle
 10
74.66085207381897
 20
53.9883763127954
 40
50
100
AcDbArc
 50
273.8292316441647
 51
283.4020647241631
  0
ARC
  5
B2
100
AcDbEntity
  8
0
  6
ByLayer
 62
  256
370
   -1
100
AcDbCircle
 10
74.66085207381882
 20
55.48837631279531
 40
50
100
AcDbArc
 50
273.829231644165
 51
283.4020647241632
  0
ARC
  5
B3
100
AcDbEntity
  8
0
  6
ByLayer
 62
  256
370
   -1
100
AcDbCircle
 10
97.5271649031926
 20
-43.36165724696914
 40
50
100
AcDbArc
 50
94.19648390323084
 51
103.0348280905873
  0
ARC
  5
B4
100
AcDbEntity
  8
0
  6
ByLayer
 62
  256
370
   -1
100
AcDbCircle
 10
97.4185492617721
 20
-41.88667517781006
 40
50
100
AcDbArc
 50
94.19790426307659
 51
102.9071047091695
  0
LINE
  5
B5
100
AcDbEntity
  8
0
  6
ByLayer
 62
  256
370
   -1
100
AcDbLine
 10
72
 20
4.099999999999994
 11
72
 21
3.099999999999994
  0
ARC
  5
B6
100
AcDbEntity
  8
0
  6
ByLayer
 62
  256
370
   -1
100
AcDbCircle
 10
79
 20
10.09999999999999
 40
1
100
AcDbArc
 50
90
 51
180
  0
LINE
  5
B7
100
AcDbEntity
  8
0
  6
ByLayer
 62
  256
370
   -1
100
AcDbLine
 10
168
 20
8.099999999999994
 11
168
 21
8.099999999999994
  0
ARC
  5
B8
100
AcDbEntity
  8
0
  6
ByLayer
 62
  256
370
   -1
100
AcDbCircle
 10
168
 20
3.099999999999994
 40
3
100
AcDbArc
 50
270
 51
0
  0
ARC
  5
B9
100
AcDbEntity
  8
0
  6
ByLayer
 62
  256
370
   -1
100
AcDbCircle
 10
168
 20
6.599999999999994
 40
3
100
AcDbArc
 50
0
 51
90
  0
LINE
  5
BA
100
AcDbEntity
  8
0
  6
ByLayer
 62
  256
370
   -1
100
AcDbLine
 10
171
 20
3.099999999999994
 11
171
 21
4.099999999999994
  0
LINE
  5
BB
100
AcDbEntity
  8
0
  6
ByLayer
 62
  256
370
   -1
100
AcDbLine
 10
168
 20
8.099999999999994
 11
168
 21
9.599999999999994
  0
LINE
  5
BC
100
AcDbEntity
  8
0
  6
ByLayer
 62
  256
370
   -1
100
AcDbLine
 10
165
 20
8.099999999999994
 11
165
 21
10.09999999999999
  0
LINE
  5
BD
100
AcDbEntity
  8
0
  6
ByLayer
 62
  256
370
   -1
100
AcDbLine
 10
165
 20
4.099999999999994
 11
171
 21
4.099999999999994
  0
LINE
  5
BE
100
AcDbEntity
  8
0
  6
ByLayer
 62
  256
370
   -1
100
AcDbLine
 10
165
 20
5.599999999999994
 11
171
 21
5.599999999999994
  0
ARC
  5
BF
100
AcDbEntity
  8
0
  6
ByLayer
 62
  256
370
   -1
100
AcDbCircle
 10
145.4722318637595
 20
-43.36151758942849
 40
50
100
AcDbArc
 50
76.96446237171254
 51
85.80424125995906
  0
ARC
  5
C0
100
AcDbEntity
  8
0
  6
ByLayer
 62
  256
370
   -1
100
AcDbCircle
 10
145.5820361459785
 20
-41.88680932678368
 40
50
100
AcDbArc
 50
77.09358350657607
 51
85.67512012509562
  0
ARC
  5
C1
100
AcDbEntity
  8
0
  6
ByLayer
 62
  256
370
   -1
100
AcDbCircle
 10
168.3391479261811
 20
53.98837631279531
 40
50
100
AcDbArc
 50
256.5979352758366
 51
266.1707683558352
  0
ARC
  5
C2
100
AcDbEntity
  8
0
  6
ByLayer
 62
  256
370
   -1
100
AcDbCircle
 10
168.3391479261811
 20
55.48837631279531
 40
50
100
AcDbArc
 50
256.5979352758366
 51
266.1707683558348
  0
ARC
  5
C3
100
AcDbEntity
  8
0
  6
ByLayer
 62
  256
370
   -1
100
AcDbCircle
 10
149.2415366281686
 20
7.23764596542901
 40
0.7415366281685447
100
AcDbArc
 50
81.38435181549828
 51
261.3843518155396
  0
LINE
  5
C4
100
AcDbEntity
  8
0
  6
ByLayer
 62
  256
370
   -1
100
AcDbLine
 10
171
 20
5.599999999999994
 11
171
 21
6.599999999999994
  0
ARC
  5
C5
100
AcDbEntity
  8
0
  6
ByLayer
 62
  256
370
   -1
100
AcDbCircle
 10
93.75846337183141
 20
7.23764596542901
 40
0.7415366281685868
100
AcDbArc
 50
278.5191974163502
 51
98.52208078011843
  0
ARC
  5
C6
100
AcDbEntity
  8
0
  6
ByLayer
 62
  256
370
   -1
100
AcDbCircle
 10
168.5000192682394
 20
-25.8495053308462
 40
0.5000192684823564
100
AcDbArc
 50
179.9982138086076
 51
280.7595040611738
  0
ARC
  5
C7
100
AcDbEntity
  8
0
  6
ByLayer
 62
  256
370
   -1
100
AcDbCircle
 10
168
 20
-23.39999999999999
 40
3
100
AcDbArc
 50
281.4076830966835
 51
0
  0
ARC
  5
C8
100
AcDbEntity
  8
0
  6
ByLayer
 62
  256
370
   -1
100
AcDbCircle
 10
164
 20
-26.89999999999999
 40
1
100
AcDbArc
 50
270
 51
0
  0
LINE
  5
C9
100
AcDbEntity
  8
0
  6
ByLayer
 62
  256
370
   -1
100
AcDbLine
 10
165
 20
-26.89999999999999
 11
165
 21
-24.89999999999999
  0
ARC
  5
CA
100
AcDbEntity
  8
0
  6
ByLayer
 62
  256
370
   -1
100
AcDbCircle
 10
164
 20
10.09999999999999
 40
1
100
AcDbArc
 50
0
 51
90
  0
LINE
  5
CB
100
AcDbEntity
  8
0
  6
ByLayer
 62
  256
370
   -1
100
AcDbLine
 10
164
 20
11.09999999999999
 11
79
 21
11.09999999999999
  0
ARC
  5
CC
100
AcDbEntity
  8
0
  6
ByLayer
 62
  256
370
   -1
100
AcDbCircle
 10
74.49999913259505
 20
-25.84949044962819
 40
0.5000008674054547
100
AcDbArc
 50
258.6282965166952
 51
8.1005078916e-05
  0
ENDBLK
  5
57
330
55
100
AcDbEntity
  8
0
100
AcDbBlockEnd
  0
BLOCK
  5
59
330
58
100
AcDbEntity
  8
0
100
AcDbBlockBegin
  2
reset
 70
    0
 10
0
 20
0
  3
reset
  1

  0
ENDBLK
  5
5A
330
58
100
AcDbEntity
  8
0
100
AcDbBlockEnd
  0
BLOCK
  5
5C
330
5B
100
AcDbEntity
  8
0
100
AcDbBlockBegin
  2
ethernet
 70
    0
 10
0
 20
0
  3
ethernet
  1

  0
ENDBLK
  5
5D
330
5B
100
AcDbEntity
  8
0
100
AcDbBlockEnd
  0
ENDSEC
  0
SECTION
  2
ENTITIES
  0
ARC
  5
CD
100
AcDbEntity
  8
0
  6
ByLayer
 62
  256
370
   -3
100
AcDbCircle
 10
1
 20
90.2
 40
1
100
AcDbArc
 50
90
 51
180
  0
LINE
  5
CE
100
AcDbEntity
  8
0
  6
ByLayer
 62
  256
370
   -3
100
AcDbLine
 10
0
 20
90.2
 11
0
 21
36
  0
ARC
  5
CF
100
AcDbEntity
  8
0
  6
ByLayer
 62
  256
370
   -3
100
AcDbCircle
 10
84.39999999999999
 20
90.2
 40
1
100
AcDbArc
 50
0
 51
90
  0
LINE
  5
D0
100
AcDbEntity
  8
0
  6
ByLayer
 62
  256
370
   -3
100
AcDbLine
 10
84.40000000000001
 20
91.2
 11
65.7
 21
91.2
  0
ARC
  5
D1
100
AcDbEntity
  8
0
  6
ByLayer
 62
  256
370
   -3
100
AcDbCircle
 10
84.39999999999999
 20
36
 40
1
100
AcDbArc
 50
270
 51
0
  0
LINE
  5
D2
100
AcDbEntity
  8
0
  6
ByLayer
 62
  256
370
   -3
100
AcDbLine
 10
85.40000000000001
 20
36
 11
85.40000000000001
 21
90.2
  0
ARC
  5
D3
100
AcDbEntity
  8
0
  6
ByLayer
 62
  256
370
   -3
100
AcDbCircle
 10
1
 20
36
 40
1
100
AcDbArc
 50
180
 51
270
  0
LINE
  5
D4
100
AcDbEntity
  8
0
  6
ByLayer
 62
  256
370
   -3
100
AcDbLine
 10
1
 20
35
 11
19.7
 21
35
  0
LINE
  5
D5
100
AcDbEntity
  8
0
  6
ByLayer
 62
  256
370
   -3
100
AcDbLine
 10
65.7
 20
91.2
 11
65.7
 21
93.2
  0
LINE
  5
D6
100
AcDbEntity
  8
0
  6
ByLayer
 62
  256
370
   -3
100
AcDbLine
 10
31.69999999999999
 20
91.2
 11
31.69999999999999
 21
93.2
  0
LINE
  5
D7
100
AcDbEntity
  8
0
  6
ByLayer
 62
  256
370
   -3
100
AcDbLine
 10
19.69999999999999
 20
35
 11
19.69999999999999
 21
33
  0
LINE
  5
D8
100
AcDbEntity
  8
0
  6
ByLayer
 62
  256
370
   -3
100
AcDbLine
 10
53.7
 20
35
 11
53.7
 21
33
  0
LINE
  5
D9
100
AcDbEntity
  8
0
  6
ByLayer
 62
  256
370
   -3
100
AcDbLine
 10
19.7
 20
91.2
 11
1
 21
91.2
  0
LINE
  5
DA
100
AcDbEntity
  8
0
  6
ByLayer
 62
  256
370
   -3
100
AcDbLine
 10
53.7
 20
91.2
 11
31.7
 21
91.2
  0
LINE
  5
DB
100
AcDbEntity
  8
0
  6
ByLayer
 62
  256
370
   -3
100
AcDbLine
 10
31.7
 20
35
 11
53.7
 21
35
  0
LINE
  5
DC
100
AcDbEntity
  8
0
  6
ByLayer
 62
  256
370
   -3
100
AcDbLine
 10
65.7
 20
35
 11
84.40000000000001
 21
35
  0
ARC
  5
DD
100
AcDbEntity
  8
0
  6
ByLayer
 62
  256
370
   -3
100
AcDbCircle
 10
30.69999999999999
 20
33
 40
1
100
AcDbArc
 50
270
 51
0
  0
LINE
  5
DE
100
AcDbEntity
  8
0
  6
ByLayer
 62
  256
370
   -3
100
AcDbLine
 10
31.69999999999999
 20
33
 11
31.69999999999999
 21
35
  0
ARC
  5
DF
100
AcDbEntity
  8
0
  6
ByLayer
 62
  256
370
   -3
100
AcDbCircle
 10
54.7
 20
33
 40
1
100
AcDbArc
 50
180
 51
270
  0
ARC
  5
E0
100
AcDbEntity
  8
0
  6
ByLayer
 62
  256
370
   -3
100
AcDbCircle
 10
64.7
 20
33
 40
1
100
AcDbArc
 50
270
 51
0
  0
LINE
  5
E1
100
AcDbEntity
  8
0
  6
ByLayer
 62
  256
370
   -3
100
AcDbLine
 10
54.7
 20
32
 11
64.7
 21
32
  0
LINE
  5
E2
100
AcDbEntity
  8
0
  6
ByLayer
 62
  256
370
   -3
100
AcDbLine
 10
65.7
 20
33
 11
65.7
 21
35
  0
ARC
  5
E3
100
AcDbEntity
  8
0
  6
ByLayer
 62
  256
370
   -3
100
AcDbCircle
 10
20.69999999999999
 20
93.2
 40
1
100
AcDbArc
 50
90
 51
180
  0
ARC
  5
E4
100
AcDbEntity
  8
0
  6
ByLayer
 62
  256
370
   -3
100
AcDbCircle
 10
30.69999999999999
 20
93.2
 40
1
100
AcDbArc
 50
0
 51
90
  0
LINE
  5
E5
100
AcDbEntity
  8
0
  6
ByLayer
 62
  256
370
   -3
100
AcDbLine
 10
30.69999999999999
 20
94.2
 11
20.69999999999999
 21
94.2
  0
LINE
  5
E6
100
AcDbEntity
  8
0
  6
ByLayer
 62
  256
370
   -3
100
AcDbLine
 10
19.69999999999999
 20
93.2
 11
19.69999999999999
 21
91.2
  0
ARC
  5
E7
100
AcDbEntity
  8
0
  6
ByLayer
 62
  256
370
   -3
100
AcDbCircle
 10
54.7
 20
93.2
 40
1
100
AcDbArc
 50
90
 51
180
  0
ARC
  5
E8
100
AcDbEntity
  8
0
  6
ByLayer
 62
  256
370
   -3
100
AcDbCircle
 10
64.7
 20
93.2
 40
1
100
AcDbArc
 50
0
 51
90
  0
LINE
  5
E9
100
AcDbEntity
  8
0
  6
ByLayer
 62
  256
370
   -3
100
AcDbLine
 10
64.7
 20
94.2
 11
54.7
 21
94.2
  0
LINE
  5
EA
100
AcDbEntity
  8
0
  6
ByLayer
 62
  256
370
   -3
100
AcDbLine
 10
53.7
 20
93.2
 11
53.7
 21
91.2
  0
ARC
  5
EB
100
AcDbEntity
  8
0
  6
ByLayer
 62
  256
370
   -3
100
AcDbCircle
 10
20.69999999999999
 20
33
 40
1
100
AcDbArc
 50
180
 51
270
  0
LINE
  5
EC
100
AcDbEntity
  8
0
  6
ByLayer
 62
  256
370
   -3
100
AcDbLine
 10
20.69999999999999
 20
32
 11
30.69999999999999
 21
32
  0
ARC
  5
ED
100
AcDbEntity
  8
0
  6
ByLayer
 62
  256
370
   -3
100
AcDbCircle
 10
171.8
 20
36
 40
1
100
AcDbArc
 50
270
 51
0
  0
LINE
  5
EE
100
AcDbEntity
  8
0
  6
ByLayer
 62
  256
370
   -3
100
AcDbLine
 10
172.8
 20
36
 11
172.8
 21
55.25000000000002
  0
ARC
  5
EF
100
AcDbEntity
  8
0
  6
ByLayer
 62
  256
370
   -3
100
AcDbCircle
 10
88.40000000000001
 20
36
 40
1
100
AcDbArc
 50
180
 51
270
  0
LINE
  5
F0
100
AcDbEntity
  8
0
  6
ByLayer
 62
  256
370
   -3
100
AcDbLine
 10
88.40000000000001
 20
35
 11
91
 21
35
  0
ARC
  5
F1
100
AcDbEntity
  8
0
  6
ByLayer
 62
  256
370
   -3
100
AcDbCircle
 10
142.1
 20
33
 40
1
100
AcDbArc
 50
180
 51
270
  0
LINE
  5
F2
100
AcDbEntity
  8
0
  6
ByLayer
 62
  256
370
   -3
100
AcDbLine
 10
153.1
 20
91.2
 11
153.1
 21
93.2
  0
ARC
  5
F3
100
AcDbEntity
  8
0
  6
ByLayer
 62
  256
370
   -3
100
AcDbCircle
 10
152.1
 20
33
 40
1
100
AcDbArc
 50
270
 51
0
  0
LINE
  5
F4
100
AcDbEntity
  8
0
  6
ByLayer
 62
  256
370
   -3
100
AcDbLine
 10
142.1
 20
32
 11
152.1
 21
32
  0
LINE
  5
F5
100
AcDbEntity
  8
0
  6
ByLayer
 62
  256
370
   -3
100
AcDbLine
 10
153.1
 20
33
 11
153.1
 21
35
  0
LINE
  5
F6
100
AcDbEntity
  8
0
  6
ByLayer
 62
  256
370
   -3
100
AcDbLine
 10
141.1
 20
35
 11
141.1
 21
33
  0
ARC
  5
F7
100
AcDbEntity
  8
0
  6
ByLayer
 62
  256
370
   -3
100
AcDbCircle
 10
142.1
 20
93.2
 40
1
100
AcDbArc
 50
90
 51
180
  0
LINE
  5
F8
100
AcDbEntity
  8
0
  6
ByLayer
 62
  256
370
   -3
100
AcDbLine
 10
141.1
 20
91.2
 11
94
 21
91.2
  0
ARC
  5
F9
100
AcDbEntity
  8
0
  6
ByLayer
 62
  256
370
   -3
100
AcDbCircle
 10
152.1
 20
93.2
 40
1
100
AcDbArc
 50
0
 51
90
  0
LINE
  5
FA
100
AcDbEntity
  8
0
  6
ByLayer
 62
  256
370
   -3
100
AcDbLine
 10
94
 20
35
 11
141.1
 21
35
  0
LINE
  5
FB
100
AcDbEntity
  8
0
  6
ByLayer
 62
  256
370
   -3
100
AcDbLine
 10
152.1
 20
94.2
 11
142.1
 21
94.2
  0
ARC
  5
FC
100
AcDbEntity
  8
0
  6
ByLayer
 62
  256
370
   -3
100
AcDbCircle
 10
88.40000000000001
 20
90.2
 40
1
100
AcDbArc
 50
90
 51
180
  0
LINE
  5
FD
100
AcDbEntity
  8
0
  6
ByLayer
 62
  256
370
   -3
100
AcDbLine
 10
141.1
 20
93.2
 11
141.1
 21
91.2
  0
LINE
  5
FE
100
AcDbEntity
  8
0
  6
ByLayer
 62
  256
370
   -3
100
AcDbLine
 10
153.1
 20
35
 11
171.8
 21
35
  0
LINE
  5
FF
100
AcDbEntity
  8
0
  6
ByLayer
 62
  256
370
   -3
100
AcDbLine
 10
87.40000000000001
 20
90.2
 11
87.40000000000001
 21
36
  0
LINE
  5
100
100
AcDbEntity
  8
0
  6
ByLayer
 62
  256
370
   -3
100
AcDbLine
 10
3.000000000000014
 20
27.00000000000008
 11
3.000000000000014
 21
27.00000000000008
  0
LINE
  5
101
100
AcDbEntity
  8
0
  6
ByLayer
 62
  256
370
   -3
100
AcDbLine
 10
6
 20
19
 11
6
 21
11.00000000000006
  0
LINE
  5
102
100
AcDbEntity
  8
0
  6
ByLayer
 62
  256
370
   -3
100
AcDbLine
 10
170.3
 20
26.99999999999994
 11
167.4
 21
26.99999999999994
  0
LINE
  5
103
100
AcDbEntity
  8
0
  6
ByLayer
 62
  256
370
   -3
100
AcDbLine
 10
94.40000000000001
 20
3
 11
94.40000000000001
 21
1.5
  0
LINE
  5
104
100
AcDbEntity
  8
0
  6
ByLayer
 62
  256
370
   -3
100
AcDbLine
 10
167.4
 20
26.99999999999994
 11
167.4
 21
18.00000000000004
  0
LINE
  5
105
100
AcDbEntity
  8
0
  6
ByLayer
 62
  256
370
   -3
100
AcDbLine
 10
167.4
 20
18.00000000000004
 11
170.3
 21
17.99999999999993
  0
LINE
  5
106
100
AcDbEntity
  8
0
  6
ByLayer
 62
  256
370
   -3
100
AcDbLine
 10
170.3
 20
17.99999999999993
 11
170.3
 21
26.99999999999994
  0
LINE
  5
107
100
AcDbEntity
  8
0
  6
ByLayer
 62
  256
370
   -3
100
AcDbLine
 10
170.3
 20
11.10000000000008
 11
167.4
 21
11.10000000000006
  0
ARC
  5
108
100
AcDbEntity
  8
0
  6
ByLayer
 62
  256
370
   -3
100
AcDbCircle
 10
94.40000000000001
 20
8
 40
3
100
AcDbArc
 50
0
 51
90
  0
LINE
  5
109
100
AcDbEntity
  8
0
  6
ByLayer
 62
  256
370
   -3
100
AcDbLine
 10
167.4
 20
11.10000000000006
 11
167.4
 21
3.100000000000014
  0
LINE
  5
10A
100
AcDbEntity
  8
0
  6
ByLayer
 62
  256
370
   -3
100
AcDbLine
 10
167.4
 20
3.100000000000014
 11
170.3
 21
3.100000000000014
  0
LINE
  5
10B
100
AcDbEntity
  8
0
  6
ByLayer
 62
  256
370
   -3
100
AcDbLine
 10
170.3
 20
3.100000000000014
 11
170.3
 21
11.10000000000008
  0
ARC
  5
10C
100
AcDbEntity
  8
0
  6
ByLayer
 62
  256
370
   -3
100
AcDbCircle
 10
94.40000000000001
 20
4.5
 40
3
100
AcDbArc
 50
270
 51
0
  0
LINE
  5
10D
100
AcDbEntity
  8
0
  6
ByLayer
 62
  256
370
   -3
100
AcDbLine
 10
94.40000000000001
 20
3
 11
91.40000000000001
 21
3
  0
LINE
  5
10E
100
AcDbEntity
  8
0
  6
ByLayer
 62
  256
370
   -3
100
AcDbLine
 10
97.40000000000001
 20
4.5
 11
97.40000000000001
 21
5.5
  0
LINE
  5
10F
100
AcDbEntity
  8
0
  6
ByLayer
 62
  256
370
   -3
100
AcDbLine
 10
111.2
 20
27
 11
108.3
 21
27.00000000000001
  0
LINE
  5
110
100
AcDbEntity
  8
0
  6
ByLayer
 62
  256
370
   -3
100
AcDbLine
 10
94.40000000000001
 20
11
 11
91.40000000000001
 21
11
  0
LINE
  5
111
100
AcDbEntity
  8
0
  6
ByLayer
 62
  256
370
   -3
100
AcDbLine
 10
108.3
 20
27.00000000000001
 11
108.3
 21
17.99999999999999
  0
LINE
  5
112
100
AcDbEntity
  8
0
  6
ByLayer
 62
  256
370
   -3
100
AcDbLine
 10
108.3
 20
17.99999999999999
 11
111.2
 21
17.99999999999999
  0
LINE
  5
113
100
AcDbEntity
  8
0
  6
ByLayer
 62
  256
370
   -3
100
AcDbLine
 10
111.2
 20
17.99999999999999
 11
111.2
 21
27
  0
LINE
  5
114
100
AcDbEntity
  8
0
  6
ByLayer
 62
  256
370
   -3
100
AcDbLine
 10
91.40000000000001
 20
-1.42e-14
 11
91.40000000000001
 21
0
  0
LINE
  5
115
100
AcDbEntity
  8
0
  6
ByLayer
 62
  256
370
   -3
100
AcDbLine
 10
91.40000000000001
 20
3
 11
91.40000000000001
 21
1
  0
LINE
  5
116
100
AcDbEntity
  8
0
  6
ByLayer
 62
  256
370
   -3
100
AcDbLine
 10
111.2
 20
11.1
 11
108.3
 21
11.10000000000001
  0
LINE
  5
117
100
AcDbEntity
  8
0
  6
ByLayer
 62
  256
370
   -3
100
AcDbLine
 10
97.40000000000001
 20
7
 11
91.40000000000001
 21
7
  0
LINE
  5
118
100
AcDbEntity
  8
0
  6
ByLayer
 62
  256
370
   -3
100
AcDbLine
 10
108.3
 20
11.10000000000001
 11
108.3
 21
3.099999999999986
  0
LINE
  5
119
100
AcDbEntity
  8
0
  6
ByLayer
 62
  256
370
   -3
100
AcDbLine
 10
97.40000000000001
 20
5.5
 11
91.40000000000001
 21
5.5
  0
LINE
  5
11A
100
AcDbEntity
  8
0
  6
ByLayer
 62
  256
370
   -3
100
AcDbLine
 10
108.3
 20
3.099999999999986
 11
111.2
 21
3.099999999999986
  0
LINE
  5
11B
100
AcDbEntity
  8
0
  6
ByLayer
 62
  256
370
   -3
100
AcDbLine
 10
111.2
 20
3.099999999999986
 11
111.2
 21
11.1
  0
ARC
  5
11C
100
AcDbEntity
  8
0
  6
ByLayer
 62
  256
370
   -3
100
AcDbCircle
 10
107.2
 20
27.99999999999997
 40
2
100
AcDbArc
 50
90
 51
180
  0
ARC
  5
11D
100
AcDbEntity
  8
0
  6
ByLayer
 62
  256
370
   -3
100
AcDbCircle
 10
94.739147926181
 20
-42.88837631279537
 40
50
100
AcDbArc
 50
93.82923164416465
 51
103.402064724163
  0
ARC
  5
11E
100
AcDbEntity
  8
0
  6
ByLayer
 62
  256
370
   -3
100
AcDbCircle
 10
107.2
 20
1.999999999999993
 40
2
100
AcDbArc
 50
180
 51
270
  0
ARC
  5
11F
100
AcDbEntity
  8
0
  6
ByLayer
 62
  256
370
   -3
100
AcDbCircle
 10
171.4
 20
2.000000000000014
 40
2
100
AcDbArc
 50
270
 51
0
  0
ARC
  5
120
100
AcDbEntity
  8
0
  6
ByLayer
 62
  256
370
   -3
100
AcDbCircle
 10
94.73914792618118
 20
-44.38837631279534
 40
50
100
AcDbArc
 50
93.82923164416502
 51
103.4020647241632
  0
ARC
  5
121
100
AcDbEntity
  8
0
  6
ByLayer
 62
  256
370
   -3
100
AcDbCircle
 10
171.4
 20
27.99999999999994
 40
2
100
AcDbArc
 50
0
 51
90
  0
LINE
  5
122
100
AcDbEntity
  8
0
  6
ByLayer
 62
  256
370
   -3
100
AcDbLine
 10
173.4
 20
2.000000000000028
 11
173.4
 21
28
  0
ARC
  5
123
100
AcDbEntity
  8
0
  6
ByLayer
 62
  256
370
   -3
100
AcDbCircle
 10
71.87283509680749
 20
54.46165724696918
 40
50
100
AcDbArc
 50
274.1964839032309
 51
283.0348280905872
  0
LINE
  5
124
100
AcDbEntity
  8
0
  6
ByLayer
 62
  256
370
   -3
100
AcDbLine
 10
171.4
 20
29.99999999999993
 11
107.2
 21
29.99999999999999
  0
ARC
  5
125
100
AcDbEntity
  8
0
  6
ByLayer
 62
  256
370
   -3
100
AcDbCircle
 10
71.98145073822789
 20
52.98667517781007
 40
50
100
AcDbArc
 50
274.1979042630766
 51
282.9071047091695
  0
LINE
  5
126
100
AcDbEntity
  8
0
  6
ByLayer
 62
  256
370
   -3
100
AcDbLine
 10
105.2
 20
28
 11
105.2
 21
2
  0
LINE
  5
127
100
AcDbEntity
  8
0
  6
ByLayer
 62
  256
370
   -3
100
AcDbLine
 10
97.40000000000001
 20
7
 11
97.40000000000001
 21
8
  0
LINE
  5
128
100
AcDbEntity
  8
0
  6
ByLayer
 62
  256
370
   -3
100
AcDbLine
 10
107.2
 20
0
 11
171.4
 21
2.84e-14
  0
ARC
  5
129
100
AcDbEntity
  8
0
  6
ByLayer
 62
  256
370
   -3
100
AcDbCircle
 10
90.40000000000001
 20
1
 40
1
100
AcDbArc
 50
270
 51
0
  0
LINE
  5
12A
100
AcDbEntity
  8
0
  6
ByLayer
 62
  256
370
   -3
100
AcDbLine
 10
3
 20
3.000000000000007
 11
3
 21
3.000000000000007
  0
LINE
  5
12B
100
AcDbEntity
  8
0
  6
ByLayer
 62
  256
370
   -3
100
AcDbLine
 10
59.70000000000001
 20
24.00000000000004
 11
71.7
 21
24.00000000000001
  0
LINE
  5
12C
100
AcDbEntity
  8
0
  6
ByLayer
 62
  256
370
   -3
100
AcDbLine
 10
71.7
 20
24.00000000000001
 11
71.7
 21
28.00000000000001
  0
ARC
  5
12D
100
AcDbEntity
  8
0
  6
ByLayer
 62
  256
370
   -3
100
AcDbCircle
 10
3
 20
8.000000000000071
 40
3
100
AcDbArc
 50
90
 51
180
  0
LINE
  5
12E
100
AcDbEntity
  8
0
  6
ByLayer
 62
  256
370
   -3
100
AcDbLine
 10
37.7
 20
6.000000000000014
 11
25.7
 21
6
  0
LINE
  5
12F
100
AcDbEntity
  8
0
  6
ByLayer
 62
  256
370
   -3
100
AcDbLine
 10
25.7
 20
6
 11
25.7
 21
3.000000000000014
  0
ARC
  5
130
100
AcDbEntity
  8
0
  6
ByLayer
 62
  256
370
   -3
100
AcDbCircle
 10
3
 20
4.5
 40
3
100
AcDbArc
 50
180
 51
270
  0
LINE
  5
131
100
AcDbEntity
  8
0
  6
ByLayer
 62
  256
370
   -3
100
AcDbLine
 10
25.7
 20
3.000000000000014
 11
37.7
 21
3.000000000000014
  0
LINE
  5
132
100
AcDbEntity
  8
0
  6
ByLayer
 62
  256
370
   -3
100
AcDbLine
 10
37.7
 20
3.000000000000014
 11
37.7
 21
6.000000000000014
  0
LINE
  5
133
100
AcDbEntity
  8
0
  6
ByLayer
 62
  256
370
   -3
100
AcDbLine
 10
71.7
 20
6
 11
59.7
 21
5.999999999999993
  0
LINE
  5
134
100
AcDbEntity
  8
0
  6
ByLayer
 62
  256
370
   -3
100
AcDbLine
 10
0
 20
8.000000000000014
 11
0
 21
7
  0
LINE
  5
135
100
AcDbEntity
  8
0
  6
ByLayer
 62
  256
370
   -3
100
AcDbLine
 10
59.7
 20
5.999999999999993
 11
59.7
 21
3
  0
LINE
  5
136
100
AcDbEntity
  8
0
  6
ByLayer
 62
  256
370
   -3
100
AcDbLine
 10
59.7
 20
3
 11
71.7
 21
3
  0
LINE
  5
137
100
AcDbEntity
  8
0
  6
ByLayer
 62
  256
370
   -3
100
AcDbLine
 10
71.7
 20
3
 11
71.7
 21
6
  0
LINE
  5
138
100
AcDbEntity
  8
0
  6
ByLayer
 62
  256
370
   -3
100
AcDbLine
 10
3
 20
3.000000000000007
 11
3
 21
1.500000000000043
  0
LINE
  5
139
100
AcDbEntity
  8
0
  6
ByLayer
 62
  256
370
   -3
100
AcDbLine
 10
6
 20
2.999999999999964
 11
6
 21
1
  0
LINE
  5
13A
100
AcDbEntity
  8
0
  6
ByLayer
 62
  256
370
   -3
100
AcDbLine
 10
6
 20
7.000000000000007
 11
0
 21
7
  0
LINE
  5
13B
100
AcDbEntity
  8
0
  6
ByLayer
 62
  256
370
   -3
100
AcDbLine
 10
6
 20
5.499999999999972
 11
0
 21
5.499999999999979
  0
LINE
  5
13C
100
AcDbEntity
  8
0
  6
ByLayer
 62
  256
370
   -3
100
AcDbLine
 10
6
 20
27.00000000000004
 11
3.000000000000014
 21
27.00000000000008
  0
LINE
  5
13D
100
AcDbEntity
  8
0
  6
ByLayer
 62
  256
370
   -3
100
AcDbLine
 10
6
 20
2.999999999999964
 11
3
 21
3.000000000000007
  0
LINE
  5
13E
100
AcDbEntity
  8
0
  6
ByLayer
 62
  256
370
   -3
100
AcDbLine
 10
6
 20
11.00000000000006
 11
3
 21
10.99999999999994
  0
LINE
  5
13F
100
AcDbEntity
  8
0
  6
ByLayer
 62
  256
370
   -3
100
AcDbLine
 10
94.40000000000001
 20
27
 11
94.40000000000001
 21
27
  0
ARC
  5
140
100
AcDbEntity
  8
0
  6
ByLayer
 62
  256
370
   -3
100
AcDbCircle
 10
25.5277681362405
 20
54.46151758942855
 40
50
100
AcDbArc
 50
256.9644623717125
 51
265.6751792971554
  0
ARC
  5
141
100
AcDbEntity
  8
0
  6
ByLayer
 62
  256
370
   -3
100
AcDbCircle
 10
25.41796385402149
 20
52.98680932678371
 40
50
100
AcDbArc
 50
257.0935835065762
 51
265.6751201250954
  0
ARC
  5
142
100
AcDbEntity
  8
0
  6
ByLayer
 62
  256
370
   -3
100
AcDbCircle
 10
2.660852073818958
 20
-42.88837631279534
 40
50
100
AcDbArc
 50
76.59793527583655
 51
86.17076835583518
  0
LINE
  5
143
100
AcDbEntity
  8
0
  6
ByLayer
 62
  256
370
   -3
100
AcDbLine
 10
3
 20
19.00000000000011
 11
3
 21
19.00000000000011
  0
ARC
  5
144
100
AcDbEntity
  8
0
  6
ByLayer
 62
  256
370
   -3
100
AcDbCircle
 10
2.66085207381893
 20
-44.38837631279532
 40
50
100
AcDbArc
 50
76.59793527583655
 51
86.17076835583478
  0
LINE
  5
145
100
AcDbEntity
  8
0
  6
ByLayer
 62
  256
370
   -3
100
AcDbLine
 10
94.40000000000001
 20
27
 11
91.40000000000001
 21
27
  0
ARC
  5
146
100
AcDbEntity
  8
0
  6
ByLayer
 62
  256
370
   -3
100
AcDbCircle
 10
21.75846337183143
 20
3.862354034571055
 40
0.7415366281685447
100
AcDbArc
 50
261.3843518154983
 51
90.09506874157877
  0
LINE
  5
147
100
AcDbEntity
  8
0
  6
ByLayer
 62
  256
370
   -3
100
AcDbLine
 10
0
 20
5.499999999999979
 11
0
 21
4.500000000000021
  0
ARC
  5
148
100
AcDbEntity
  8
0
  6
ByLayer
 62
  256
370
   -3
100
AcDbCircle
 10
90.40000000000002
 20
29
 40
1
100
AcDbArc
 50
0
 51
90
  0
LINE
  5
149
100
AcDbEntity
  8
0
  6
ByLayer
 62
  256
370
   -3
100
AcDbLine
 10
90.40000000000002
 20
30
 11
73.7
 21
30.00000000000001
  0
LINE
  5
14A
100
AcDbEntity
  8
0
  6
ByLayer
 62
  256
370
   -3
100
AcDbLine
 10
91.40000000000001
 20
29
 11
91.40000000000001
 21
27
  0
LINE
  5
14B
100
AcDbEntity
  8
0
  6
ByLayer
 62
  256
370
   -3
100
AcDbLine
 10
91.40000000000001
 20
19
 11
91.40000000000001
 21
11
  0
ARC
  5
14C
100
AcDbEntity
  8
0
  6
ByLayer
 62
  256
370
   -3
100
AcDbCircle
 10
75.64153662816859
 20
3.86235403457102
 40
0.7415366281685868
100
AcDbArc
 50
98.51919741614992
 51
278.5220807801184
  0
ARC
  5
14D
100
AcDbEntity
  8
0
  6
ByLayer
 62
  256
370
   -3
100
AcDbCircle
 10
7
 20
1
 40
1
100
AcDbArc
 50
180
 51
270
  0
LINE
  5
14E
100
AcDbEntity
  8
0
  6
ByLayer
 62
  256
370
   -3
100
AcDbLine
 10
7
 20
0
 11
82.00000000000001
 21
0
  0
LINE
  5
14F
100
AcDbEntity
  8
0
  6
ByLayer
 62
  256
370
   -3
100
AcDbLine
 10
6.00000000000001
 20
29.00000000000009
 11
6
 21
27.00000000000004
  0
ARC
  5
150
100
AcDbEntity
  8
0
  6
ByLayer
 62
  256
370
   -3
100
AcDbCircle
 10
7.000000000000009
 20
29.00000000000008
 40
1
100
AcDbArc
 50
89.99999999999969
 51
180
  0
LINE
  5
151
100
AcDbEntity
  8
0
  6
ByLayer
 62
  256
370
   -3
100
AcDbLine
 10
3.1
 20
99.2
 11
6
 21
99.2
  0
LINE
  5
152
100
AcDbEntity
  8
0
  6
ByLayer
 62
  256
370
   -3
100
AcDbLine
 10
6
 20
99.2
 11
6
 21
108.2
  0
LINE
  5
153
100
AcDbEntity
  8
0
  6
ByLayer
 62
  256
370
   -3
100
AcDbLine
 10
6
 20
108.2
 11
3.1
 21
108.2
  0
LINE
  5
154
100
AcDbEntity
  8
0
  6
ByLayer
 62
  256
370
   -3
100
AcDbLine
 10
3.1
 20
108.2
 11
3.1
 21
99.2
  0
LINE
  5
155
100
AcDbEntity
  8
0
  6
ByLayer
 62
  256
370
   -3
100
AcDbLine
 10
3.1
 20
115.1
 11
6
 21
115.1
  0
LINE
  5
156
100
AcDbEntity
  8
0
  6
ByLayer
 62
  256
370
   -3
100
AcDbLine
 10
6
 20
115.1
 11
6
 21
123.1
  0
LINE
  5
157
100
AcDbEntity
  8
0
  6
ByLayer
 62
  256
370
   -3
100
AcDbLine
 10
6
 20
123.1
 11
3.1
 21
123.1
  0
LINE
  5
158
100
AcDbEntity
  8
0
  6
ByLayer
 62
  256
370
   -3
100
AcDbLine
 10
3.1
 20
123.1
 11
3.1
 21
115.1
  0
LINE
  5
159
100
AcDbEntity
  8
0
  6
ByLayer
 62
  256
370
   -3
100
AcDbLine
 10
62.2
 20
99.2
 11
65.09999999999999
 21
99.2
  0
LINE
  5
15A
100
AcDbEntity
  8
0
  6
ByLayer
 62
  256
370
   -3
100
AcDbLine
 10
65.09999999999999
 20
99.2
 11
65.09999999999999
 21
108.2
  0
LINE
  5
15B
100
AcDbEntity
  8
0
  6
ByLayer
 62
  256
370
   -3
100
AcDbLine
 10
65.09999999999999
 20
108.2
 11
62.2
 21
108.2
  0
LINE
  5
15C
100
AcDbEntity
  8
0
  6
ByLayer
 62
  256
370
   -3
100
AcDbLine
 10
62.2
 20
108.2
 11
62.2
 21
99.2
  0
LINE
  5
15D
100
AcDbEntity
  8
0
  6
ByLayer
 62
  256
370
   -3
100
AcDbLine
 10
62.2
 20
115.1
 11
65.09999999999999
 21
115.1
  0
LINE
  5
15E
100
AcDbEntity
  8
0
  6
ByLayer
 62
  256
370
   -3
100
AcDbLine
 10
65.09999999999999
 20
115.1
 11
65.09999999999999
 21
123.1
  0
LINE
  5
15F
100
AcDbEntity
  8
0
  6
ByLayer
 62
  256
370
   -3
100
AcDbLine
 10
65.09999999999999
 20
123.1
 11
62.2
 21
123.1
  0
LINE
  5
160
100
AcDbEntity
  8
0
  6
ByLayer
 62
  256
370
   -3
100
AcDbLine
 10
62.2
 20
123.1
 11
62.2
 21
115.1
  0
ARC
  5
161
100
AcDbEntity
  8
0
  6
ByLayer
 62
  256
370
   -3
100
AcDbCircle
 10
66.2
 20
98.2
 40
2
100
AcDbArc
 50
270
 51
0
  0
ARC
  5
162
100
AcDbEntity
  8
0
  6
ByLayer
 62
  256
370
   -3
100
AcDbCircle
 10
66.2
 20
124.2
 40
2
100
AcDbArc
 50
0
 51
90
  0
ARC
  5
163
100
AcDbEntity
  8
0
  6
ByLayer
 62
  256
370
   -3
100
AcDbCircle
 10
2
 20
124.2
 40
2
100
AcDbArc
 50
90
 51
180
  0
ARC
  5
164
100
AcDbEntity
  8
0
  6
ByLayer
 62
  256
370
   -3
100
AcDbCircle
 10
2
 20
98.2
 40
2
100
AcDbArc
 50
180
 51
270
  0
LINE
  5
165
100
AcDbEntity
  8
0
  6
ByLayer
 62
  256
370
   -3
100
AcDbLine
 10
0
 20
124.2
 11
0
 21
98.2
  0
LINE
  5
166
100
AcDbEntity
  8
0
  6
ByLayer
 62
  256
370
   -3
100
AcDbLine
 10
2
 20
96.2
 11
66.2
 21
96.2
  0
LINE
  5
167
100
AcDbEntity
  8
0
  6
ByLayer
 62
  256
370
   -3
100
AcDbLine
 10
68.2
 20
98.2
 11
68.2
 21
124.2
  0
LINE
  5
168
100
AcDbEntity
  8
0
  6
ByLayer
 62
  256
370
   -3
100
AcDbLine
 10
66.2
 20
126.2
 11
2
 21
126.2
  0
LINE
  5
169
100
AcDbEntity
  8
0
  6
ByLayer
 62
  256
370
   -3
100
AcDbLine
 10
146.6
 20
102.2
 11
134.6
 21
102.2
  0
LINE
  5
16A
100
AcDbEntity
  8
0
  6
ByLayer
 62
  256
370
   -3
100
AcDbLine
 10
134.6
 20
102.2
 11
134.6
 21
98.2
  0
LINE
  5
16B
100
AcDbEntity
  8
0
  6
ByLayer
 62
  256
370
   -3
100
AcDbLine
 10
134.6
 20
120.2
 11
146.6
 21
120.2
  0
LINE
  5
16C
100
AcDbEntity
  8
0
  6
ByLayer
 62
  256
370
   -3
100
AcDbLine
 10
146.6
 20
120.2
 11
146.6
 21
123.2
  0
LINE
  5
16D
100
AcDbEntity
  8
0
  6
ByLayer
 62
  256
370
   -3
100
AcDbLine
 10
146.6
 20
123.2
 11
134.6
 21
123.2
  0
LINE
  5
16E
100
AcDbEntity
  8
0
  6
ByLayer
 62
  256
370
   -3
100
AcDbLine
 10
134.6
 20
123.2
 11
134.6
 21
120.2
  0
LINE
  5
16F
100
AcDbEntity
  8
0
  6
ByLayer
 62
  256
370
   -3
100
AcDbLine
 10
100.6
 20
120.2
 11
112.6
 21
120.2
  0
LINE
  5
170
100
AcDbEntity
  8
0
  6
ByLayer
 62
  256
370
   -3
100
AcDbLine
 10
112.6
 20
120.2
 11
112.6
 21
123.2
  0
LINE
  5
171
100
AcDbEntity
  8
0
  6
ByLayer
 62
  256
370
   -3
100
AcDbLine
 10
112.6
 20
123.2
 11
100.6
 21
123.2
  0
LINE
  5
172
100
AcDbEntity
  8
0
  6
ByLayer
 62
  256
370
   -3
100
AcDbLine
 10
100.6
 20
123.2
 11
100.6
 21
120.2
  0
LINE
  5
173
100
AcDbEntity
  8
0
  6
ByLayer
 62
  256
370
   -3
100
AcDbLine
 10
166.3
 20
99.2
 11
169.3
 21
99.2
  0
LINE
  5
174
100
AcDbEntity
  8
0
  6
ByLayer
 62
  256
370
   -3
100
AcDbLine
 10
166.3
 20
123.2
 11
169.3
 21
123.2
  0
LINE
  5
175
100
AcDbEntity
  8
0
  6
ByLayer
 62
  256
370
   -3
100
AcDbLine
 10
166.3
 20
115.2
 11
169.3
 21
115.2
  0
LINE
  5
176
100
AcDbEntity
  8
0
  6
ByLayer
 62
  256
370
   -3
100
AcDbLine
 10
77.90000000000001
 20
99.2
 11
77.90000000000001
 21
99.2
  0
LINE
  5
177
100
AcDbEntity
  8
0
  6
ByLayer
 62
  256
370
   -3
100
AcDbLine
 10
169.3
 20
107.2
 11
169.3
 21
107.2
  0
LINE
  5
178
100
AcDbEntity
  8
0
  6
ByLayer
 62
  256
370
   -3
100
AcDbLine
 10
77.90000000000001
 20
99.2
 11
80.90000000000001
 21
99.2
  0
ARC
  5
179
100
AcDbEntity
  8
0
  6
ByLayer
 62
  256
370
   -3
100
AcDbCircle
 10
81.90000000000001
 20
97.2
 40
1
100
AcDbArc
 50
180
 51
270
  0
LINE
  5
17A
100
AcDbEntity
  8
0
  6
ByLayer
 62
  256
370
   -3
100
AcDbLine
 10
81.89999999999999
 20
96.2
 11
132.6
 21
96.2
  0
LINE
  5
17B
100
AcDbEntity
  8
0
  6
ByLayer
 62
  256
370
   -3
100
AcDbLine
 10
80.90000000000001
 20
97.2
 11
80.90000000000001
 21
99.2
  0
LINE
  5
17C
100
AcDbEntity
  8
0
  6
ByLayer
 62
  256
370
   -3
100
AcDbLine
 10
169.3
 20
99.2
 11
169.3
 21
99.2
  0
LINE
  5
17D
100
AcDbEntity
  8
0
  6
ByLayer
 62
  256
370
   -3
100
AcDbLine
 10
166.3
 20
107.2
 11
166.3
 21
115.2
  0
LINE
  5
17E
100
AcDbEntity
  8
0
  6
ByLayer
 62
  256
370
   -3
100
AcDbLine
 10
77.90000000000001
 20
123.2
 11
77.90000000000001
 21
124.7
  0
ARC
  5
17F
100
AcDbEntity
  8
0
  6
ByLayer
 62
  256
370
   -3
100
AcDbCircle
 10
77.90000000000001
 20
118.2
 40
3
100
AcDbArc
 50
180
 51
270
  0
ARC
  5
180
100
AcDbEntity
  8
0
  6
ByLayer
 62
  256
370
   -3
100
AcDbCircle
 10
77.90000000000001
 20
121.7
 40
3
100
AcDbArc
 50
90
 51
180
  0
LINE
  5
181
100
AcDbEntity
  8
0
  6
ByLayer
 62
  256
370
   -3
100
AcDbLine
 10
77.90000000000001
 20
123.2
 11
80.90000000000001
 21
123.2
  0
LINE
  5
182
100
AcDbEntity
  8
0
  6
ByLayer
 62
  256
370
   -3
100
AcDbLine
 10
74.90000000000001
 20
121.7
 11
74.90000000000001
 21
120.7
  0
LINE
  5
183
100
AcDbEntity
  8
0
  6
ByLayer
 62
  256
370
   -3
100
AcDbLine
 10
77.90000000000001
 20
115.2
 11
80.90000000000001
 21
115.2
  0
LINE
  5
184
100
AcDbEntity
  8
0
  6
ByLayer
 62
  256
370
   -3
100
AcDbLine
 10
80.40000000000001
 20
126.2
 11
80.40000000000001
 21
126.2
  0
LINE
  5
185
100
AcDbEntity
  8
0
  6
ByLayer
 62
  256
370
   -3
100
AcDbLine
 10
80.90000000000001
 20
123.2
 11
80.90000000000001
 21
125.2
  0
LINE
  5
186
100
AcDbEntity
  8
0
  6
ByLayer
 62
  256
370
   -3
100
AcDbLine
 10
74.90000000000001
 20
119.2
 11
80.90000000000001
 21
119.2
  0
LINE
  5
187
100
AcDbEntity
  8
0
  6
ByLayer
 62
  256
370
   -3
100
AcDbLine
 10
74.90000000000001
 20
120.7
 11
80.90000000000001
 21
120.7
  0
ARC
  5
188
100
AcDbEntity
  8
0
  6
ByLayer
 62
  256
370
   -3
100
AcDbCircle
 10
77.56085207381898
 20
169.0883763127954
 40
50
100
AcDbArc
 50
273.8292316441647
 51
283.4020647241631
  0
ARC
  5
189
100
AcDbEntity
  8
0
  6
ByLayer
 62
  256
370
   -3
100
AcDbCircle
 10
77.56085207381882
 20
170.5883763127953
 40
50
100
AcDbArc
 50
273.829231644165
 51
283.4020647241632
  0
ARC
  5
18A
100
AcDbEntity
  8
0
  6
ByLayer
 62
  256
370
   -3
100
AcDbCircle
 10
100.4271649031926
 20
71.73834275303085
 40
50
100
AcDbArc
 50
94.19648390323084
 51
103.0348280905873
  0
ARC
  5
18B
100
AcDbEntity
  8
0
  6
ByLayer
 62
  256
370
   -3
100
AcDbCircle
 10
100.3185492617721
 20
73.21332482218993
 40
50
100
AcDbArc
 50
94.19790426307659
 51
102.9071047091695
  0
LINE
  5
18C
100
AcDbEntity
  8
0
  6
ByLayer
 62
  256
370
   -3
100
AcDbLine
 10
74.90000000000001
 20
119.2
 11
74.90000000000001
 21
118.2
  0
ARC
  5
18D
100
AcDbEntity
  8
0
  6
ByLayer
 62
  256
370
   -3
100
AcDbCircle
 10
81.90000000000001
 20
125.2
 40
1
100
AcDbArc
 50
90
 51
180
  0
LINE
  5
18E
100
AcDbEntity
  8
0
  6
ByLayer
 62
  256
370
   -3
100
AcDbLine
 10
169.3
 20
123.2
 11
169.3
 21
123.2
  0
ARC
  5
18F
100
AcDbEntity
  8
0
  6
ByLayer
 62
  256
370
   -3
100
AcDbCircle
 10
169.3
 20
118.2
 40
3
100
AcDbArc
 50
270
 51
0
  0
ARC
  5
190
100
AcDbEntity
  8
0
  6
ByLayer
 62
  256
370
   -3
100
AcDbCircle
 10
169.3
 20
121.7
 40
3
100
AcDbArc
 50
0
 51
90
  0
LINE
  5
191
100
AcDbEntity
  8
0
  6
ByLayer
 62
  256
370
   -3
100
AcDbLine
 10
172.3
 20
118.2
 11
172.3
 21
119.2
  0
LINE
  5
192
100
AcDbEntity
  8
0
  6
ByLayer
 62
  256
370
   -3
100
AcDbLine
 10
169.3
 20
123.2
 11
169.3
 21
124.7
  0
LINE
  5
193
100
AcDbEntity
  8
0
  6
ByLayer
 62
  256
370
   -3
100
AcDbLine
 10
166.3
 20
123.2
 11
166.3
 21
125.2
  0
LINE
  5
194
100
AcDbEntity
  8
0
  6
ByLayer
 62
  256
370
   -3
100
AcDbLine
 10
166.3
 20
119.2
 11
172.3
 21
119.2
  0
LINE
  5
195
100
AcDbEntity
  8
0
  6
ByLayer
 62
  256
370
   -3
100
AcDbLine
 10
166.3
 20
120.7
 11
172.3
 21
120.7
  0
ARC
  5
196
100
AcDbEntity
  8
0
  6
ByLayer
 62
  256
370
   -3
100
AcDbCircle
 10
146.7722318637595
 20
71.73848241057151
 40
50
100
AcDbArc
 50
76.96446237171254
 51
85.80424125995906
  0
ARC
  5
197
100
AcDbEntity
  8
0
  6
ByLayer
 62
  256
370
   -3
100
AcDbCircle
 10
146.8820361459785
 20
73.21319067321632
 40
50
100
AcDbArc
 50
77.09358350657607
 51
85.67512012509562
  0
ARC
  5
198
100
AcDbEntity
  8
0
  6
ByLayer
 62
  256
370
   -3
100
AcDbCircle
 10
169.6391479261811
 20
169.0883763127953
 40
50
100
AcDbArc
 50
256.5979352758366
 51
266.1707683558352
  0
ARC
  5
199
100
AcDbEntity
  8
0
  6
ByLayer
 62
  256
370
   -3
100
AcDbCircle
 10
169.6391479261811
 20
170.5883763127953
 40
50
100
AcDbArc
 50
256.5979352758366
 51
266.1707683558348
  0
ARC
  5
19A
100
AcDbEntity
  8
0
  6
ByLayer
 62
  256
370
   -3
100
AcDbCircle
 10
150.5415366281686
 20
122.337645965429
 40
0.7415366281685447
100
AcDbArc
 50
81.38435181549828
 51
261.3843518155396
  0
LINE
  5
19B
100
AcDbEntity
  8
0
  6
ByLayer
 62
  256
370
   -3
100
AcDbLine
 10
172.3
 20
120.7
 11
172.3
 21
121.7
  0
ARC
  5
19C
100
AcDbEntity
  8
0
  6
ByLayer
 62
  256
370
   -3
100
AcDbCircle
 10
96.6584633718314
 20
122.337645965429
 40
0.7415366281685868
100
AcDbArc
 50
278.5191974163502
 51
98.52208078011843
  0
ARC
  5
19D
100
AcDbEntity
  8
0
  6
ByLayer
 62
  256
370
   -3
100
AcDbCircle
 10
165.3
 20
97.2
 40
1
100
AcDbArc
 50
270
 51
0
  0
LINE
  5
19E
100
AcDbEntity
  8
0
  6
ByLayer
 62
  256
370
   -3
100
AcDbLine
 10
166.3
 20
97.2
 11
166.3
 21
99.2
  0
ARC
  5
19F
100
AcDbEntity
  8
0
  6
ByLayer
 62
  256
370
   -3
100
AcDbCircle
 10
165.3
 20
125.2
 40
1
100
AcDbArc
 50
0
 51
90
  0
LINE
  5
1A0
100
AcDbEntity
  8
0
  6
ByLayer
 62
  256
370
   -3
100
AcDbLine
 10
165.3
 20
126.2
 11
81.90000000000001
 21
126.2
  0
LINE
  5
1A1
100
AcDbEntity
  8
connector cutout
  6
ByLayer
 62
  256
370
   -1
100
AcDbLine
 10
113.55
 20
10
 11
129.55
 21
10
  0
LINE
  5
1A2
100
AcDbEntity
  8
connector cutout
  6
ByLayer
 62
  256
370
   -1
100
AcDbLine
 10
129.55
 20
10
 11
129.55
 21
24
  0
LINE
  5
1A3
100
AcDbEntity
  8
connector cutout
  6
ByLayer
 62
  256
370
   -1
100
AcDbLine
 10
129.55
 20
24
 11
113.55
 21
24
  0
LINE
  5
1A4
100
AcDbEntity
  8
connector cutout
  6
ByLayer
 62
  256
370
   -1
100
AcDbLine
 10
113.55
 20
24
 11
113.55
 21
10
  0
LINE
  5
1A5
100
AcDbEntity
  8
connector cutout
  6
ByLayer
 62
  256
370
   -1
100
AcDbLine
 10
12.55
 20
10
 11
21.05
 21
10
  0
LINE
  5
1A6
100
AcDbEntity
  8
connector cutout
  6
ByLayer
 62
  256
370
   -1
100
AcDbLine
 10
21.05
 20
10
 11
21.05
 21
13.5
  0
LINE
  5
1A7
100
AcDbEntity
  8
connector cutout
  6
ByLayer
 62
  256
370
   -1
100
AcDbLine
 10
21.05
 20
13.5
 11
12.55
 21
13.5
  0
LINE
  5
1A8
100
AcDbEntity
  8
connector cutout
  6
ByLayer
 62
  256
370
   -1
100
AcDbLine
 10
12.55
 20
13.5
 11
12.55
 21
10
  0
LINE
  5
1A9
100
AcDbEntity
  8
connector cutout
  6
ByLayer
 62
  256
370
   -1
100
AcDbLine
 10
30.45
 20
10
 11
45.95
 21
10
  0
LINE
  5
1AA
100
AcDbEntity
  8
connector cutout
  6
ByLayer
 62
  256
370
   -1
100
AcDbLine
 10
45.95
 20
10
 11
45.95
 21
17
  0
LINE
  5
1AB
100
AcDbEntity
  8
connector cutout
  6
ByLayer
 62
  256
370
   -1
100
AcDbLine
 10
45.95
 20
17
 11
30.45
 21
17
  0
LINE
  5
1AC
100
AcDbEntity
  8
connector cutout
  6
ByLayer
 62
  256
370
   -1
100
AcDbLine
 10
30.45
 20
17
 11
30.45
 21
10
  0
CIRCLE
  5
1AD
100
AcDbEntity
  8
connector cutout
  6
ByLayer
 62
  256
370
   -1
100
AcDbCircle
 10
59.7
 20
13.25
 40
3.25
  0
LINE
  5
1AE
100
AcDbEntity
  8
connector cutout
  6
ByLayer
 62
  256
370
   -1
100
AcDbLine
 10
27.45
 20
117.8
 11
40.95
 21
117.8
  0
LINE
  5
1AF
100
AcDbEntity
  8
connector cutout
  6
ByLayer
 62
  256
370
   -1
100
AcDbLine
 10
40.95
 20
117.8
 11
40.95
 21
119.3
  0
LINE
  5
1B0
100
AcDbEntity
  8
connector cutout
  6
ByLayer
 62
  256
370
   -1
100
AcDbLine
 10
40.95
 20
119.3
 11
27.45
 21
119.3
  0
LINE
  5
1B1
100
AcDbEntity
  8
connector cutout
  6
ByLayer
 62
  256
370
   -1
100
AcDbLine
 10
27.45
 20
119.3
 11
27.45
 21
117.8
  0
CIRCLE
  5
1B2
100
AcDbEntity
  8
connector cutout
  6
ByLayer
 62
  256
370
   -1
100
AcDbCircle
 10
3.7
 20
38.6
 40
1.35
  0
CIRCLE
  5
1B3
100
AcDbEntity
  8
connector cutout
  6
ByLayer
 62
  256
370
   -1
100
AcDbCircle
 10
61.7
 20
38.6
 40
1.35
  0
CIRCLE
  5
1B4
100
AcDbEntity
  8
connector cutout
  6
ByLayer
 62
  256
370
   -1
100
AcDbCircle
 10
61.7
 20
87.59999999999999
 40
1.35
  0
CIRCLE
  5
1B5
100
AcDbEntity
  8
connector cutout
  6
ByLayer
 62
  256
370
   -1
100
AcDbCircle
 10
3.7
 20
87.59999999999999
 40
1.35
  0
LINE
  5
1B6
100
AcDbEntity
  8
connector cutout
  6
ByLayer
 62
  256
370
   -1
100
AcDbLine
 10
132.45
 20
10.5
 11
148.15
 21
10.5
  0
LINE
  5
1B7
100
AcDbEntity
  8
connector cutout
  6
ByLayer
 62
  256
370
   -1
100
AcDbLine
 10
148.15
 20
10.5
 11
148.15
 21
27
  0
LINE
  5
1B8
100
AcDbEntity
  8
connector cutout
  6
ByLayer
 62
  256
370
   -1
100
AcDbLine
 10
148.15
 20
27
 11
132.45
 21
27
  0
LINE
  5
1B9
100
AcDbEntity
  8
connector cutout
  6
ByLayer
 62
  256
370
   -1
100
AcDbLine
 10
132.45
 20
27
 11
132.45
 21
10.5
  0
LINE
  5
1BA
100
AcDbEntity
  8
connector cutout
  6
ByLayer
 62
  256
370
   -1
100
AcDbLine
 10
150.45
 20
10.5
 11
166.15
 21
10.5
  0
LINE
  5
1BB
100
AcDbEntity
  8
connector cutout
  6
ByLayer
 62
  256
370
   -1
100
AcDbLine
 10
166.15
 20
10.5
 11
166.15
 21
27
  0
LINE
  5
1BC
100
AcDbEntity
  8
connector cutout
  6
ByLayer
 62
  256
370
   -1
100
AcDbLine
 10
166.15
 20
27
 11
150.45
 21
27
  0
LINE
  5
1BD
100
AcDbEntity
  8
connector cutout
  6
ByLayer
 62
  256
370
   -1
100
AcDbLine
 10
150.45
 20
27
 11
150.45
 21
10.5
  0
ARC
  5
1BE
100
AcDbEntity
  8
0
  6
ByLayer
 62
  256
370
   -3
100
AcDbCircle
 10
95.90000000000001
 20
27
 40
1.5
100
AcDbArc
 50
0
 51
180
  0
ARC
  5
1BF
100
AcDbEntity
  8
0
  6
ByLayer
 62
  256
370
   -3
100
AcDbCircle
 10
91.40000000000002
 20
25
 40
6
100
AcDbArc
 50
270
 51
0
  0
LINE
  5
1C0
100
AcDbEntity
  8
0
  6
ByLayer
 62
  256
370
   -3
100
AcDbLine
 10
97.40000000000001
 20
25.00000000000002
 11
97.40000000000001
 21
27
  0
ARC
  5
1C1
100
AcDbEntity
  8
0
  6
ByLayer
 62
  256
370
   -1
100
AcDbCircle
 10
1.500000000000014
 20
27.00000000000008
 40
1.5
100
AcDbArc
 50
0
 51
180
  0
LINE
  5
1C2
100
AcDbEntity
  8
0
  6
ByLayer
 62
  256
370
   -3
100
AcDbLine
 10
-6.5e-15
 20
27.00000000000009
 11
-9.6e-15
 21
25.00000000000004
  0
ARC
  5
1C3
100
AcDbEntity
  8
0
  6
ByLayer
 62
  256
370
   -1
100
AcDbCircle
 10
5.99999999999999
 20
25.00000000000002
 40
6
100
AcDbArc
 50
180
 51
269.9999999999983
  0
ARC
  5
1C4
100
AcDbEntity
  8
0
  6
ByLayer
 62
  256
370
   -1
100
AcDbCircle
 10
76.40000000000001
 20
99.2
 40
1.5
100
AcDbArc
 50
180
 51
0
  0
ARC
  5
1C5
100
AcDbEntity
  8
0
  6
ByLayer
 62
  256
370
   -1
100
AcDbCircle
 10
80.90000000000001
 20
101.2
 40
6
100
AcDbArc
 50
90
 51
180
  0
LINE
  5
1C6
100
AcDbEntity
  8
0
  6
ByLayer
 62
  256
370
   -3
100
AcDbLine
 10
74.90000000000001
 20
101.2
 11
74.90000000000001
 21
99.2
  0
ARC
  5
1C7
100
AcDbEntity
  8
0
  6
ByLayer
 62
  256
370
   -1
100
AcDbCircle
 10
170.8
 20
99.2
 40
1.5
100
AcDbArc
 50
180
 51
0
  0
LINE
  5
1C8
100
AcDbEntity
  8
0
  6
ByLayer
 62
  256
370
   -3
100
AcDbLine
 10
172.3
 20
99.2
 11
172.3
 21
101.2
  0
ARC
  5
1C9
100
AcDbEntity
  8
0
  6
ByLayer
 62
  256
370
   -1
100
AcDbCircle
 10
166.3
 20
101.2
 40
6
100
AcDbArc
 50
0
 51
90
  0
ARC
  5
1CA
100
AcDbEntity
  8
0
  6
ByLayer
 62
  256
370
   -1
100
AcDbCircle
 10
132.6
 20
98.2
 40
2
100
AcDbArc
 50
270
 51
0
  0
LINE
  5
1CB
100
AcDbEntity
  8
0
  6
ByLayer
 62
  256
370
   -3
100
AcDbLine
 10
146.6
 20
98.2
 11
146.6
 21
102.2
  0
LINE
  5
1CC
100
AcDbEntity
  8
0
  6
ByLayer
 62
  256
370
   -3
100
AcDbLine
 10
148.6
 20
96.2
 11
165.3
 21
96.2
  0
ARC
  5
1CD
100
AcDbEntity
  8
0
  6
ByLayer
 62
  256
370
   -1
100
AcDbCircle
 10
148.6
 20
98.2
 40
2
100
AcDbArc
 50
180
 51
270
  0
LINE
  5
1CE
100
AcDbEntity
  8
0
  6
ByLayer
 62
  256
370
   -3
100
AcDbLine
 10
57.70000000000002
 20
30.00000000000003
 11
7.000000000000014
 21
30.00000000000008
  0
LINE
  5
1CF
100
AcDbEntity
  8
0
  6
ByLayer
 62
  256
370
   -3
100
AcDbLine
 10
59.7
 20
28.00000000000004
 11
59.70000000000001
 21
24.00000000000004
  0
ARC
  5
1D0
100
AcDbEntity
  8
0
  6
ByLayer
 62
  256
370
   -1
100
AcDbCircle
 10
57.70000000000002
 20
28.00000000000004
 40
2
100
AcDbArc
 50
0
 51
90
  0
ARC
  5
1D1
100
AcDbEntity
  8
0
  6
ByLayer
 62
  256
370
   -1
100
AcDbCircle
 10
73.7
 20
28.00000000000001
 40
2
100
AcDbArc
 50
90
 51
180
  0
CIRCLE
  5
1D2
100
AcDbEntity
  8
0
  6
ByLayer
 62
  256
370
   -1
100
AcDbCircle
 10
11.1
 20
25.50000000000004
 40
2.1
  0
CIRCLE
  5
1D3
100
AcDbEntity
  8
0
  6
ByLayer
 62
  256
370
   -1
100
AcDbCircle
 10
86
 20
100.7
 40
2.1
  0
LINE
  5
1D4
100
AcDbEntity
  8
0
  6
ByLayer
 62
  256
370
   -1
100
AcDbLine
 10
94
 20
91.2
 11
94
 21
93.7
  0
LINE
  5
1D5
100
AcDbEntity
  8
0
  6
ByLayer
 62
  256
370
   -1
100
AcDbLine
 10
94
 20
35
 11
93.99999999999999
 21
35
  0
LINE
  5
1D6
100
AcDbEntity
  8
0
  6
ByLayer
 62
  256
370
   -1
100
AcDbLine
 10
91
 20
35
 11
91
 21
32.5
  0
ARC
  5
1D7
100
AcDbEntity
  8
0
  6
ByLayer
 62
  256
370
   -1
100
AcDbCircle
 10
91.5
 20
32.5
 40
0.5
100
AcDbArc
 50
180
 51
270
  0
LINE
  5
1D8
100
AcDbEntity
  8
0
  6
ByLayer
 62
  256
370
   -1
100
AcDbLine
 10
91.5
 20
32
 11
93.5
 21
32
  0
ARC
  5
1D9
100
AcDbEntity
  8
0
  6
ByLayer
 62
  256
370
   -1
100
AcDbCircle
 10
93.5
 20
32.5
 40
0.5
100
AcDbArc
 50
270
 51
0
  0
LINE
  5
1DA
100
AcDbEntity
  8
0
  6
ByLayer
 62
  256
370
   -1
100
AcDbLine
 10
94
 20
32.5
 11
94
 21
35
  0
ARC
  5
1DB
100
AcDbEntity
  8
0
  6
ByLayer
 62
  256
370
   -1
100
AcDbCircle
 10
91.5
 20
93.7
 40
0.5
100
AcDbArc
 50
90
 51
180
  0
ARC
  5
1DC
100
AcDbEntity
  8
0
  6
ByLayer
 62
  256
370
   -1
100
AcDbCircle
 10
93.5
 20
93.7
 40
0.5
100
AcDbArc
 50
0
 51
90
  0
LINE
  5
1DD
100
AcDbEntity
  8
0
  6
ByLayer
 62
  256
370
   -1
100
AcDbLine
 10
93.5
 20
94.2
 11
91.5
 21
94.2
  0
LINE
  5
1DE
100
AcDbEntity
  8
0
  6
ByLayer
 62
  256
370
   -1
100
AcDbLine
 10
91
 20
93.7
 11
91
 21
91.2
  0
LINE
  5
1DF
100
AcDbEntity
  8
0
  6
ByLayer
 62
  256
370
   -3
100
AcDbLine
 10
91
 20
91.2
 11
88.40000000000001
 21
91.2
  0
LINE
  5
1E0
100
AcDbEntity
  8
0
  6
ByLayer
 62
  256
370
   -1
100
AcDbLine
 10
94
 20
91.2
 11
94
 21
91.2
  0
CIRCLE
  5
1E1
100
AcDbEntity
  8
connector cutout
  6
ByLayer
 62
  256
370
   -1
100
AcDbCircle
 10
141.1
 20
63.09999999999999
 40
8
  0
LINE
  5
1E2
100
AcDbEntity
  8
0
  6
ByLayer
 62
  256
370
   -3
100
AcDbLine
 10
80.90000000000001
 20
107.2
 11
80.90000000000001
 21
115.2
  0
LINE
  5
1E3
100
AcDbEntity
  8
0
  6
ByLayer
 62
  256
370
   -1
100
AcDbLine
 10
157.3
 20
74.25000000000001
 11
171.65
 21
74.25000000000001
  0
LINE
  5
1E4
100
AcDbEntity
  8
0
  6
ByLayer
 62
  256
370
   -1
100
AcDbLine
 10
157.3
 20
89.95
 11
157.3
 21
74.25000000000001
  0
LINE
  5
1E5
100
AcDbEntity
  8
0
  6
ByLayer
 62
  256
370
   -1
100
AcDbLine
 10
157.3
 20
56.25000000000002
 11
171.8
 21
56.25000000000002
  0
LINE
  5
1E6
100
AcDbEntity
  8
0
  6
ByLayer
 62
  256
370
   -1
100
AcDbLine
 10
157.3
 20
71.95000000000002
 11
157.3
 21
56.25000000000002
  0
ARC
  5
1E7
100
AcDbEntity
  8
0
  6
ByLayer
 62
  256
370
   -1
100
AcDbCircle
 10
171.65
 20
73.10000000000001
 40
1.150000000000006
100
AcDbArc
 50
270
 51
90
  0
LINE
  5
1E8
100
AcDbEntity
  8
0
  6
ByLayer
 62
  256
370
   -1
100
AcDbLine
 10
171.65
 20
71.95000000000002
 11
157.3
 21
71.95000000000002
  0
ARC
  5
1E9
100
AcDbEntity
  8
0
  6
ByLayer
 62
  256
370
   -1
100
AcDbCircle
 10
171.8
 20
55.25000000000002
 40
1
100
AcDbArc
 50
0
 51
90
  0
ARC
  5
1EA
100
AcDbEntity
  8
0
  6
ByLayer
 62
  256
370
   -1
100
AcDbCircle
 10
172.175
 20
90.575
 40
0.625
100
AcDbArc
 50
270
 51
90
  0
LINE
  5
1EB
100
AcDbEntity
  8
0
  6
ByLayer
 62
  256
370
   -1
100
AcDbLine
 10
172.175
 20
89.95
 11
157.3
 21
89.95
  0
LINE
  5
1EC
100
AcDbEntity
  8
0
  6
ByLayer
 62
  256
370
   -3
100
AcDbLine
 10
172.175
 20
91.2
 11
153.1
 21
91.2
  0
ARC
  5
1ED
100
AcDbEntity
  8
0
  6
ByLayer
 62
  256
370
   -1
100
AcDbCircle
 10
83
 20
0.5
 40
0.5
100
AcDbArc
 50
0
 51
180
  0
ARC
  5
1EE
100
AcDbEntity
  8
0
  6
ByLayer
 62
  256
370
   -1
100
AcDbCircle
 10
84
 20
0.5
 40
0.5
100
AcDbArc
 50
180
 51
0
  0
ARC
  5
1EF
100
AcDbEntity
  8
0
  6
ByLayer
 62
  256
370
   -1
100
AcDbCircle
 10
85
 20
0.5
 40
0.5
100
AcDbArc
 50
0
 51
180
  0
ARC
  5
1F0
100
AcDbEntity
  8
0
  6
ByLayer
 62
  256
370
   -1
100
AcDbCircle
 10
86
 20
0.5
 40
0.5
100
AcDbArc
 50
180
 51
0
  0
ARC
  5
1F1
100
AcDbEntity
  8
0
  6
ByLayer
 62
  256
370
   -1
100
AcDbCircle
 10
87
 20
0.5
 40
0.5
100
AcDbArc
 50
0
 51
180
  0
ARC
  5
1F2
100
AcDbEntity
  8
0
  6
ByLayer
 62
  256
370
   -1
100
AcDbCircle
 10
88
 20
0.5
 40
0.5
100
AcDbArc
 50
180
 51
0
  0
ARC
  5
1F3
100
AcDbEntity
  8
0
  6
ByLayer
 62
  256
370
   -1
100
AcDbCircle
 10
89
 20
0.5
 40
0.5
100
AcDbArc
 50
0
 51
180
  0
ARC
  5
1F4
100
AcDbEntity
  8
0
  6
ByLayer
 62
  256
370
   -1
100
AcDbCircle
 10
90
 20
0.5
 40
0.5
100
AcDbArc
 50
180
 51
270
  0
LINE
  5
1F5
100
AcDbEntity
  8
0
  6
ByLayer
 62
  256
370
   -3
100
AcDbLine
 10
90
 20
0
 11
90.40000000000001
 21
0
  0
LINE
  5
1F6
100
AcDbEntity
  8
0
  6
ByLayer
 62
  256
370
   -3
100
AcDbLine
 10
82.00000000000001
 20
0
 11
80
 21
0
  0
ARC
  5
1F7
100
AcDbEntity
  8
0
  6
ByLayer
 62
  256
370
   -1
100
AcDbCircle
 10
82
 20
0.5
 40
0.5
100
AcDbArc
 50
270
 51
0
  0
DIMENSION
  5
1F8
100
AcDbEntity
  8
dimensiones
  6
ByLayer
 62
  256
370
   -1
100
AcDbDimension
  2
*D1
 10
68.20000000000002
 20
140
 30
0
 11
34.10000000000001
 21
141.875
 31
0
 70
   32
 71
    5
  3
Standard
 53
0
210
0
220
0
230
1
100
AcDbAlignedDimension
 13
0
 23
110
 33
0
 14
68.20000000000002
 24
109.9
 34
0
100
AcDbRotatedDimension
  0
DIMENSION
  5
1F9
100
AcDbEntity
  8
dimensiones
  6
ByLayer
 62
  256
370
   -1
100
AcDbDimension
  2
*D2
 10
-10
 20
126.2
 30
0
 11
-11.875
 21
111.2
 31
0
 70
   32
 71
    5
  3
Standard
 53
0
210
0
220
0
230
1
100
AcDbAlignedDimension
 13
20
 23
96.20000000000002
 33
0
 14
20
 24
126.2
 34
0
 50
90
100
AcDbRotatedDimension
  0
ENDSEC
  0
SECTION
  2
OBJECTS
  0
DICTIONARY
  5
C
330
0
100
AcDbDictionary
281
    1
  3
ACAD_GROUP
350
D
  0
DICTIONARY
  5
D
330
C
100
AcDbDictionary
281
    1
  0
ENDSEC
  0
EOF
