999
dxfrw 0.6.3
  0
SECTION
  2
HEADER
  9
$ACADVER
  1
AC1021
  9
$DWGCODEPAGE
  3
ANSI_1252
  9
$INSBASE
 10
0
 20
0
 30
0
  9
$EXTMIN
 10
-89.13888888888889
 20
-60
 30
0
  9
$EXTMAX
 10
358.5848373268531
 20
81.75
 30
0
  9
$LIMMIN
 10
0
 20
0
  9
$LIMMAX
 10
420
 20
297
  9
$ORTHOMODE
 70
    0
  9
$REGENMODE
 70
    1
  9
$FILLMODE
 70
    1
  9
$QTEXTMODE
 70
    0
  9
$MIRRTEXT
 70
    1
  9
$LTSCALE
 40
1
  9
$ATTMODE
 70
    1
  9
$TEXTSIZE
 40
3.5
  9
$TRACEWID
 40
1
  9
$TEXTSTYLE
  7
STANDARD
  9
$CLAYER
  8
connector cutout
  9
$CELTYPE
  6
BYLAYER
  9
$CECOLOR
 62
  256
  9
$CELTSCALE
 40
1
  9
$DISPSILH
 70
    0
  9
$DIMSCALE
 40
1
  9
$DIMASZ
 40
3.302
  9
$DIMEXO
 40
1
  9
$DIMDLI
 40
3.75
  9
$DIMRND
 40
0
  9
$DIMDLE
 40
0
  9
$DIMEXE
 40
1
  9
$DIMTP
 40
0
  9
$DIMTM
 40
0
  9
$DIMTXT
 40
3.5
  9
$DIMCEN
 40
2.5
  9
$DIMTSZ
 40
0
  9
$DIMTOL
 70
    0
  9
$DIMLIM
 70
    0
  9
$DIMTIH
 70
    1
  9
$DIMTOH
 70
    1
  9
$DIMSE1
 70
    0
  9
$DIMSE2
 70
    0
  9
$DIMTAD
 70
    1
  9
$DIMZIN
 70
    0
  9
$DIMBLK
  1

  9
$DIMASO
 70
    1
  9
$DIMSHO
 70
    1
  9
$DIMPOST
  1

  9
$DIMAPOST
  1

  9
$DIMALT
 70
    0
  9
$DIMALTD
 70
    3
  9
$DIMALTF
 40
0.0393700787
  9
$DIMLFAC
 40
1
  9
$DIMTOFL
 70
    1
  9
$DIMTVP
 40
0
  9
$DIMTIX
 70
    0
  9
$DIMSOXD
 70
    0
  9
$DIMSAH
 70
    0
  9
$DIMBLK1
  1

  9
$DIMBLK2
  1

  9
$DIMSTYLE
  2
ISO-25
  9
$DIMCLRD
 70
    0
  9
$DIMCLRE
 70
    0
  9
$DIMCLRT
 70
    0
  9
$DIMTFAC
 40
1
  9
$DIMGAP
 40
1.524
  9
$DIMJUST
 70
    0
  9
$DIMSD1
 70
    0
  9
$DIMSD2
 70
    0
  9
$DIMTOLJ
 70
    0
  9
$DIMTZIN
 70
    8
  9
$DIMALTZ
 70
    0
  9
$DIMALTTZ
 70
    0
  9
$DIMUPT
 70
    0
  9
$DIMDEC
 70
    4
  9
$DIMTDEC
 70
    2
  9
$DIMALTU
 70
    2
  9
$DIMALTTD
 70
    3
  9
$DIMTXSTY
  7
standard
  9
$DIMAUNIT
 70
    0
  9
$DIMADEC
 70
    0
  9
$DIMALTRND
 40
0
  9
$DIMAZIN
 70
    0
  9
$DIMDSEP
 70
    0
  9
$DIMATFIT
 70
    3
  9
$DIMFRAC
 70
    0
  9
$DIMLDRBLK
  1
STANDARD
  9
$DIMLUNIT
 70
    2
  9
$DIMLWD
 70
   -2
  9
$DIMLWE
 70
   -2
  9
$DIMTMOVE
 70
    0
  9
$DIMFXL
 40
1
  9
$DIMFXLON
 70
    0
  9
$DIMJOGANG
 40
0.7854
  9
$DIMTFILL
 70
    0
  9
$DIMTFILLCLR
 70
    0
  9
$DIMARCSYM
 70
    0
  9
$DIMLTYPE
  6

  9
$DIMLTEX1
  6

  9
$DIMLTEX2
  6

  9
$LUNITS
 70
    2
  9
$LUPREC
 70
    2
  9
$SKETCHINC
 40
1
  9
$FILLETRAD
 40
10
  9
$AUNITS
 70
    0
  9
$AUPREC
 70
    2
  9
$MENU
  1
.
  9
$ELEVATION
 40
0
  9
$PELEVATION
 40
0
  9
$THICKNESS
 40
0
  9
$LIMCHECK
 70
    0
  9
$CHAMFERA
 40
0
  9
$CHAMFERB
 40
0
  9
$CHAMFERC
 40
0
  9
$CHAMFERD
 40
0
  9
$SKPOLY
 70
    0
  9
$USRTIMER
 70
    1
  9
$ANGBASE
 50
0
  9
$ANGDIR
 70
    0
  9
$PDMODE
 70
    0
  9
$PDSIZE
 40
-1
  9
$PLINEWID
 40
0
  9
$SPLFRAME
 70
    0
  9
$SPLINETYPE
 70
    6
  9
$SPLINESEGS
 70
    8
  9
$HANDSEED
  5
20000
  9
$SURFTAB1
 70
    6
  9
$SURFTAB2
 70
    6
  9
$SURFTYPE
 70
    6
  9
$SURFU
 70
    6
  9
$SURFV
 70
    6
  9
$UCSBASE
  2

  9
$UCSNAME
  2

  9
$UCSORG
 10
0
 20
0
 30
0
  9
$UCSXDIR
 10
1
 20
0
 30
0
  9
$UCSYDIR
 10
0
 20
1
 30
0
  9
$UCSORTHOREF
  2

  9
$UCSORTHOVIEW
 70
    0
  9
$UCSORGTOP
 10
0
 20
0
 30
0
  9
$UCSORGBOTTOM
 10
0
 20
0
 30
0
  9
$UCSORGLEFT
 10
0
 20
0
 30
0
  9
$UCSORGRIGHT
 10
0
 20
0
 30
0
  9
$UCSORGFRONT
 10
0
 20
0
 30
0
  9
$UCSORGBACK
 10
0
 20
0
 30
0
  9
$PUCSBASE
  2

  9
$PUCSNAME
  2

  9
$PUCSORG
 10
0
 20
0
 30
0
  9
$PUCSXDIR
 10
1
 20
0
 30
0
  9
$PUCSYDIR
 10
0
 20
1
 30
0
  9
$PUCSORTHOREF
  2

  9
$PUCSORTHOVIEW
 70
    0
  9
$PUCSORGTOP
 10
0
 20
0
 30
0
  9
$PUCSORGBOTTOM
 10
0
 20
0
 30
0
  9
$PUCSORGLEFT
 10
0
 20
0
 30
0
  9
$PUCSORGRIGHT
 10
0
 20
0
 30
0
  9
$PUCSORGFRONT
 10
0
 20
0
 30
0
  9
$PUCSORGBACK
 10
0
 20
0
 30
0
  9
$USERI1
 70
    0
  9
$USERI2
 70
    0
  9
$USERI3
 70
    0
  9
$USERI4
 70
    0
  9
$USERI5
 70
    0
  9
$USERR1
 40
0
  9
$USERR2
 40
0
  9
$USERR3
 40
0
  9
$USERR4
 40
0
  9
$USERR5
 40
0
  9
$WORLDVIEW
 70
    1
  9
$SHADEDGE
 70
    3
  9
$SHADEDIF
 70
   70
  9
$TILEMODE
 70
    1
  9
$MAXACTVP
 70
   64
  9
$PINSBASE
 10
0
 20
0
 30
0
  9
$PLIMCHECK
 70
    0
  9
$PEXTMIN
 10
1e+20
 20
1e+20
 30
1e+20
  9
$PEXTMAX
 10
-1e+20
 20
-1e+20
 30
-1e+20
  9
$GRIDMODE
 70
    1
  9
$SNAPSTYLE
 70
    0
  9
$GRIDUNIT
 10
0
 20
0
  9
$PLIMMIN
 10
0
 20
0
  9
$PLIMMAX
 10
297
 20
210
  9
$UNITMODE
 70
    0
  9
$VISRETAIN
 70
    1
  9
$PLINEGEN
 70
    0
  9
$PSLTSCALE
 70
    1
  9
$TREEDEPTH
 70
 3020
  9
$CMLSTYLE
  2
Standard
  9
$CMLJUST
 70
    0
  9
$CMLSCALE
 40
20
  9
$PROXYGRAPHICS
 70
    1
  9
$MEASUREMENT
 70
    1
  9
$CELWEIGHT
370
   -1
  9
$ENDCAPS
280
    0
  9
$JOINSTYLE
280
    0
  9
$LWDISPLAY
290
    0
  9
$INSUNITS
 70
    4
  9
$HYPERLINKBASE
  1

  9
$STYLESHEET
  1

  9
$XEDIT
290
    1
  9
$CEPSNTYPE
380
    0
  9
$PSTYLEMODE
290
    1
  9
$EXTNAMES
290
    1
  9
$PSVPSCALE
 40
1
  9
$OLESTARTUP
290
    0
  9
$SORTENTS
280
  127
  9
$INDEXCTL
280
    0
  9
$HIDETEXT
280
    1
  9
$XCLIPFRAME
290
    0
  9
$HALOGAP
280
    0
  9
$OBSCOLOR
 70
  257
  9
$OBSLTYPE
280
    0
  9
$INTERSECTIONDISPLAY
280
    0
  9
$INTERSECTIONCOLOR
 70
  257
  9
$DIMASSOC
280
    1
  9
$PROJECTNAME
  1

  9
$CAMERADISPLAY
290
    0
  9
$LENSLENGTH
 40
50
  9
$CAMERAHEIGHT
 40
0
  9
$STEPSPERSEC
 40
2
  9
$STEPSIZE
 40
50
  9
$3DDWFPREC
 40
2
  9
$PSOLWIDTH
 40
5
  9
$PSOLHEIGHT
 40
80
  9
$LOFTANG1
 40
1.570796326794897
  9
$LOFTANG2
 40
1.570796326794897
  9
$LOFTMAG1
 40
0
  9
$LOFTMAG2
 40
0
  9
$LOFTPARAM
 70
    7
  9
$LOFTNORMALS
280
    1
  9
$LATITUDE
 40
1
  9
$LONGITUDE
 40
1
  9
$NORTHDIRECTION
 40
0
  9
$TIMEZONE
 70
-8000
  9
$LIGHTGLYPHDISPLAY
280
    1
  9
$TILEMODELIGHTSYNCH
280
    1
  9
$SOLIDHIST
280
    1
  9
$SHOWHIST
280
    1
  9
$DWFFRAME
280
    2
  9
$DGNFRAME
280
    0
  9
$REALWORLDSCALE
290
    1
  9
$INTERFERECOLOR
 62
    1
  9
$CSHADOW
280
    0
  9
$SHADOWPLANELOCATION
 40
0
  0
ENDSEC
  0
SECTION
  2
CLASSES
  0
ENDSEC
  0
SECTION
  2
TABLES
  0
TABLE
  2
VPORT
  5
8
330
0
100
AcDbSymbolTable
 70
    1
  0
VPORT
  5
31
330
2
100
AcDbSymbolTableRecord
100
AcDbViewportTableRecord
  2
*ACTIVE
 70
    0
 10
0
 20
0
 11
1
 21
1
 12
133.9105409702252
 22
54.26114857157825
 13
0
 23
0
 14
10
 24
10
 15
10
 25
10
 16
0
 26
0
 36
1
 17
0
 27
0
 37
0
 40
258.3627165931111
 41
1.961464354527938
 42
50
 43
0
 44
0
 50
0
 51
0
 71
    0
 72
  100
 73
    1
 74
    3
 75
    0
 76
    1
 77
    0
 78
    0
281
    0
 65
    1
110
0
120
0
130
0
111
1
121
0
131
0
112
0
122
1
132
0
 79
    0
146
0
348
10020
 60
    7
 61
    5
292
1
282
    1
141
0
142
0
 63
  250
421
3358443
  0
ENDTAB
  0
TABLE
  2
LTYPE
  5
5
330
0
100
AcDbSymbolTable
 70
    4
  0
LTYPE
  5
14
330
5
100
AcDbSymbolTableRecord
100
AcDbLinetypeTableRecord
  2
ByBlock
 70
    0
  3

 72
   65
 73
    0
 40
0
  0
LTYPE
  5
15
330
5
100
AcDbSymbolTableRecord
100
AcDbLinetypeTableRecord
  2
ByLayer
 70
    0
  3

 72
   65
 73
    0
 40
0
  0
LTYPE
  5
16
330
5
100
AcDbSymbolTableRecord
100
AcDbLinetypeTableRecord
  2
Continuous
 70
    0
  3
Solid line
 72
   65
 73
    0
 40
0
  0
LTYPE
  5
32
330
5
100
AcDbSymbolTableRecord
100
AcDbLinetypeTableRecord
  2
DOT
 70
    0
  3
Dot . . . . . . . . . . . . . . . . . . . . . .
 72
   65
 73
    2
 40
6.35
 49
0
 74
    0
 49
-6.35
 74
    0
  0
LTYPE
  5
33
330
5
100
AcDbSymbolTableRecord
100
AcDbLinetypeTableRecord
  2
DOTTINY
 70
    0
  3
Dot (.15x) .....................................
 72
   65
 73
    2
 40
0.9525
 49
0
 74
    0
 49
-0.9525
 74
    0
  0
LTYPE
  5
34
330
5
100
AcDbSymbolTableRecord
100
AcDbLinetypeTableRecord
  2
DOT2
 70
    0
  3
Dot (.5x) .....................................
 72
   65
 73
    2
 40
3.175
 49
0
 74
    0
 49
-3.175
 74
    0
  0
LTYPE
  5
35
330
5
100
AcDbSymbolTableRecord
100
AcDbLinetypeTableRecord
  2
DOTX2
 70
    0
  3
Dot (2x) .  .  .  .  .  .  .  .  .  .  .  .  .
 72
   65
 73
    2
 40
12.7
 49
0
 74
    0
 49
-12.7
 74
    0
  0
LTYPE
  5
36
330
5
100
AcDbSymbolTableRecord
100
AcDbLinetypeTableRecord
  2
DASHED
 70
    0
  3
Dashed _ _ _ _ _ _ _ _ _ _ _ _ _ _ _ _ _
 72
   65
 73
    2
 40
19.05
 49
12.7
 74
    0
 49
-6.35
 74
    0
  0
LTYPE
  5
37
330
5
100
AcDbSymbolTableRecord
100
AcDbLinetypeTableRecord
  2
DASHEDTINY
 70
    0
  3
Dashed (.15x) _ _ _ _ _ _ _ _ _ _ _ _ _ _ _ _ _
 72
   65
 73
    2
 40
2.8575
 49
1.905
 74
    0
 49
-0.9525
 74
    0
  0
LTYPE
  5
38
330
5
100
AcDbSymbolTableRecord
100
AcDbLinetypeTableRecord
  2
DASHED2
 70
    0
  3
Dashed (.5x) _ _ _ _ _ _ _ _ _ _ _ _ _ _ _ _ _
 72
   65
 73
    2
 40
9.524999999999999
 49
6.35
 74
    0
 49
-3.175
 74
    0
  0
LTYPE
  5
39
330
5
100
AcDbSymbolTableRecord
100
AcDbLinetypeTableRecord
  2
DASHEDX2
 70
    0
  3
Dashed (2x) ____  ____  ____  ____  ____  ___
 72
   65
 73
    2
 40
38.09999999999999
 49
25.4
 74
    0
 49
-12.7
 74
    0
  0
LTYPE
  5
3A
330
5
100
AcDbSymbolTableRecord
100
AcDbLinetypeTableRecord
  2
DASHDOT
 70
    0
  3
Dash dot __ . __ . __ . __ . __ . __ . __ . __
 72
   65
 73
    4
 40
25.4
 49
12.7
 74
    0
 49
-6.35
 74
    0
 49
0
 74
    0
 49
-6.35
 74
    0
  0
LTYPE
  5
3B
330
5
100
AcDbSymbolTableRecord
100
AcDbLinetypeTableRecord
  2
DASHDOTTINY
 70
    0
  3
Dash dot (.15x) _._._._._._._._._._._._._._._.
 72
   65
 73
    4
 40
3.81
 49
1.905
 74
    0
 49
-0.9525
 74
    0
 49
0
 74
    0
 49
-0.9525
 74
    0
  0
LTYPE
  5
3C
330
5
100
AcDbSymbolTableRecord
100
AcDbLinetypeTableRecord
  2
DASHDOT2
 70
    0
  3
Dash dot (.5x) _._._._._._._._._._._._._._._.
 72
   65
 73
    4
 40
12.7
 49
6.35
 74
    0
 49
-3.175
 74
    0
 49
0
 74
    0
 49
-3.175
 74
    0
  0
LTYPE
  5
3D
330
5
100
AcDbSymbolTableRecord
100
AcDbLinetypeTableRecord
  2
DASHDOTX2
 70
    0
  3
Dash dot (2x) ____  .  ____  .  ____  .  ___
 72
   65
 73
    4
 40
50.8
 49
25.4
 74
    0
 49
-12.7
 74
    0
 49
0
 74
    0
 49
-12.7
 74
    0
  0
LTYPE
  5
3E
330
5
100
AcDbSymbolTableRecord
100
AcDbLinetypeTableRecord
  2
DIVIDE
 70
    0
  3
Divide ____ . . ____ . . ____ . . ____ . . ____
 72
   65
 73
    6
 40
31.75
 49
12.7
 74
    0
 49
-6.35
 74
    0
 49
0
 74
    0
 49
-6.35
 74
    0
 49
0
 74
    0
 49
-6.35
 74
    0
  0
LTYPE
  5
3F
330
5
100
AcDbSymbolTableRecord
100
AcDbLinetypeTableRecord
  2
DIVIDETINY
 70
    0
  3
Divide (.15x) __..__..__..__..__..__..__..__.._
 72
   65
 73
    6
 40
4.7625
 49
1.905
 74
    0
 49
-0.9525
 74
    0
 49
0
 74
    0
 49
-0.9525
 74
    0
 49
0
 74
    0
 49
-0.9525
 74
    0
  0
LTYPE
  5
40
330
5
100
AcDbSymbolTableRecord
100
AcDbLinetypeTableRecord
  2
DIVIDE2
 70
    0
  3
Divide (.5x) __..__..__..__..__..__..__..__.._
 72
   65
 73
    6
 40
15.875
 49
6.35
 74
    0
 49
-3.175
 74
    0
 49
0
 74
    0
 49
-3.175
 74
    0
 49
0
 74
    0
 49
-3.175
 74
    0
  0
LTYPE
  5
41
330
5
100
AcDbSymbolTableRecord
100
AcDbLinetypeTableRecord
  2
DIVIDEX2
 70
    0
  3
Divide (2x) ________  .  .  ________  .  .  _
 72
   65
 73
    6
 40
63.5
 49
25.4
 74
    0
 49
-12.7
 74
    0
 49
0
 74
    0
 49
-12.7
 74
    0
 49
0
 74
    0
 49
-12.7
 74
    0
  0
LTYPE
  5
42
330
5
100
AcDbSymbolTableRecord
100
AcDbLinetypeTableRecord
  2
BORDER
 70
    0
  3
Border __ __ . __ __ . __ __ . __ __ . __ __ .
 72
   65
 73
    6
 40
44.45
 49
12.7
 74
    0
 49
-6.35
 74
    0
 49
12.7
 74
    0
 49
-6.35
 74
    0
 49
0
 74
    0
 49
-6.35
 74
    0
  0
LTYPE
  5
43
330
5
100
AcDbSymbolTableRecord
100
AcDbLinetypeTableRecord
  2
BORDERTINY
 70
    0
  3
Border (.15x) __.__.__.__.__.__.__.__.__.__.__.
 72
   65
 73
    6
 40
6.6675
 49
1.905
 74
    0
 49
-0.9525
 74
    0
 49
1.905
 74
    0
 49
-0.9525
 74
    0
 49
0
 74
    0
 49
-0.9525
 74
    0
  0
LTYPE
  5
44
330
5
100
AcDbSymbolTableRecord
100
AcDbLinetypeTableRecord
  2
BORDER2
 70
    0
  3
Border (.5x) __.__.__.__.__.__.__.__.__.__.__.
 72
   65
 73
    6
 40
22.225
 49
6.35
 74
    0
 49
-3.175
 74
    0
 49
6.35
 74
    0
 49
-3.175
 74
    0
 49
0
 74
    0
 49
-3.175
 74
    0
  0
LTYPE
  5
45
330
5
100
AcDbSymbolTableRecord
100
AcDbLinetypeTableRecord
  2
BORDERX2
 70
    0
  3
Border (2x) ____  ____  .  ____  ____  .  ___
 72
   65
 73
    6
 40
88.89999999999999
 49
25.4
 74
    0
 49
-12.7
 74
    0
 49
25.4
 74
    0
 49
-12.7
 74
    0
 49
0
 74
    0
 49
-12.7
 74
    0
  0
LTYPE
  5
46
330
5
100
AcDbSymbolTableRecord
100
AcDbLinetypeTableRecord
  2
CENTER
 70
    0
  3
Center ____ _ ____ _ ____ _ ____ _ ____ _ ____
 72
   65
 73
    4
 40
50.8
 49
31.75
 74
    0
 49
-6.35
 74
    0
 49
6.35
 74
    0
 49
-6.35
 74
    0
  0
LTYPE
  5
47
330
5
100
AcDbSymbolTableRecord
100
AcDbLinetypeTableRecord
  2
CENTERTINY
 70
    0
  3
Center (.15x) ___ _ ___ _ ___ _ ___ _ ___ _ ___
 72
   65
 73
    4
 40
7.619999999999999
 49
4.7625
 74
    0
 49
-0.9525
 74
    0
 49
0.9525
 74
    0
 49
-0.9525
 74
    0
  0
LTYPE
  5
48
330
5
100
AcDbSymbolTableRecord
100
AcDbLinetypeTableRecord
  2
CENTER2
 70
    0
  3
Center (.5x) ___ _ ___ _ ___ _ ___ _ ___ _ ___
 72
   65
 73
    4
 40
28.575
 49
19.05
 74
    0
 49
-3.175
 74
    0
 49
3.175
 74
    0
 49
-3.175
 74
    0
  0
LTYPE
  5
49
330
5
100
AcDbSymbolTableRecord
100
AcDbLinetypeTableRecord
  2
CENTERX2
 70
    0
  3
Center (2x) ________  __  ________  __  _____
 72
   65
 73
    4
 40
101.6
 49
63.5
 74
    0
 49
-12.7
 74
    0
 49
12.7
 74
    0
 49
-12.7
 74
    0
  0
ENDTAB
  0
TABLE
  2
LAYER
  5
2
330
0
100
AcDbSymbolTable
 70
    1
  0
LAYER
  5
10
330
2
100
AcDbSymbolTableRecord
100
AcDbLayerTableRecord
  2
0
 70
    0
 62
    7
  6
CONTINUOUS
370
   -3
390
F
  0
LAYER
  5
4A
330
2
100
AcDbSymbolTableRecord
100
AcDbLayerTableRecord
  2
connector cutout
 70
    0
 62
    1
  6
CONTINUOUS
370
   13
390
F
  0
LAYER
  5
4B
330
2
100
AcDbSymbolTableRecord
100
AcDbLayerTableRecord
  2
medidas
 70
    0
 62
    4
  6
CONTINUOUS
370
    0
390
F
  0
LAYER
  5
4C
330
2
100
AcDbSymbolTableRecord
100
AcDbLayerTableRecord
  2
text
 70
    0
 62
    2
  6
CONTINUOUS
370
   -3
390
F
  0
ENDTAB
  0
TABLE
  2
STYLE
  5
3
330
0
100
AcDbSymbolTable
 70
    3
  0
STYLE
  5
4D
330
2
100
AcDbSymbolTableRecord
100
AcDbTextStyleTableRecord
  2
Standard
 70
    0
 40
0
 41
1
 50
0
 71
    0
 42
1
  3
txt
  4

  0
ENDTAB
  0
TABLE
  2
VIEW
  5
6
330
0
100
AcDbSymbolTable
 70
    0
  0
ENDTAB
  0
TABLE
  2
UCS
  5
7
330
0
100
AcDbSymbolTable
 70
    0
  0
ENDTAB
  0
TABLE
  2
APPID
  5
9
330
0
100
AcDbSymbolTable
 70
    1
  0
APPID
  5
12
330
9
100
AcDbSymbolTableRecord
100
AcDbRegAppTableRecord
  2
ACAD
 70
    0
  0
APPID
  5
4E
330
9
100
AcDbSymbolTableRecord
100
AcDbRegAppTableRecord
  2
LibreCad
 70
    0
  0
ENDTAB
  0
TABLE
  2
DIMSTYLE
  5
A
330
0
100
AcDbSymbolTable
 70
    1
100
AcDbDimStyleTable
 71
    1
  0
DIMSTYLE
105
4F
330
A
100
AcDbSymbolTableRecord
100
AcDbDimStyleTableRecord
  2
Standard
 70
    0
 40
1
 41
3.302
 42
1
 43
0.38
 44
1
 45
0
 46
0
 47
0
 48
0
 49
1
140
3.5
141
0.09
142
0
143
25.4
144
1
145
0
146
1
147
1.524
148
0
 71
    0
 72
    0
 73
    1
 74
    1
 75
    0
 76
    0
 77
    0
 78
    0
 79
    0
170
    0
171
    2
172
    0
173
    0
174
    0
175
    0
176
    0
177
    0
178
    0
179
    0
271
    4
272
    4
273
    2
274
    2
275
    0
276
    0
277
    2
278
    0
279
    0
280
    0
281
    0
282
    0
283
    1
284
    0
285
    0
286
    0
288
    0
289
    3
340
standard
341

371
   -2
372
   -2
  0
ENDTAB
  0
TABLE
  2
BLOCK_RECORD
  5
1
330
0
100
AcDbSymbolTable
 70
    2
  0
BLOCK_RECORD
  5
1F
330
1
100
AcDbSymbolTableRecord
100
AcDbBlockTableRecord
  2
*Model_Space
 70
    0
280
    1
281
    0
  0
BLOCK_RECORD
  5
1E
330
1
100
AcDbSymbolTableRecord
100
AcDbBlockTableRecord
  2
*Paper_Space
 70
    0
280
    1
281
    0
  0
BLOCK_RECORD
  5
50
330
1
100
AcDbSymbolTableRecord
100
AcDbBlockTableRecord
  2
*D1
 70
    0
280
    1
281
    0
  0
BLOCK_RECORD
  5
53
330
1
100
AcDbSymbolTableRecord
100
AcDbBlockTableRecord
  2
*D2
 70
    0
280
    1
281
    0
  0
BLOCK_RECORD
  5
56
330
1
100
AcDbSymbolTableRecord
100
AcDbBlockTableRecord
  2
block 1
 70
    0
280
    1
281
    0
  0
BLOCK_RECORD
  5
59
330
1
100
AcDbSymbolTableRecord
100
AcDbBlockTableRecord
  2
reset
 70
    0
280
    1
281
    0
  0
BLOCK_RECORD
  5
5C
330
1
100
AcDbSymbolTableRecord
100
AcDbBlockTableRecord
  2
ethernet
 70
    0
280
    1
281
    0
  0
BLOCK_RECORD
  5
5F
330
1
100
AcDbSymbolTableRecord
100
AcDbBlockTableRecord
  2
RPi2B_slim_box-clean
 70
    0
280
    1
281
    0
  0
ENDTAB
  0
ENDSEC
  0
SECTION
  2
BLOCKS
  0
BLOCK
  5
20
330
1F
100
AcDbEntity
  8
0
100
AcDbBlockBegin
  2
*Model_Space
 70
    0
 10
0
 20
0
 30
0
  3
*Model_Space
  1

  0
ENDBLK
  5
21
330
1F
100
AcDbEntity
  8
0
100
AcDbBlockEnd
  0
BLOCK
  5
1C
330
1B
100
AcDbEntity
  8
0
100
AcDbBlockBegin
  2
*Paper_Space
 70
    0
 10
0
 20
0
 30
0
  3
*Paper_Space
  1

  0
ENDBLK
  5
1D
330
1F
100
AcDbEntity
  8
0
100
AcDbBlockEnd
  0
BLOCK
  5
51
330
50
100
AcDbEntity
  8
0
100
AcDbBlockBegin
  2
*D1
 70
    1
 10
0
 20
0
  3
*D1
  1

  0
LINE
  5
62
100
AcDbEntity
  8
medidas
  6
ByBlock
 62
    0
370
   -2
100
AcDbLine
 10
-59.99999999999999
 20
80
 11
-10.66288888888889
 21
80
  0
SOLID
  5
63
100
AcDbEntity
  8
medidas
  6
ByBlock
 62
    0
370
   -2
100
AcDbTrace
 10
-59.99999999999999
 20
80
 30
0
 11
-56.69799999999999
 21
80.54982877598637
 31
0
 12
-56.69799999999999
 22
79.45017122401363
 32
0
 13
-56.69799999999999
 23
79.45017122401363
 33
0
  0
SOLID
  5
64
100
AcDbEntity
  8
medidas
  6
ByBlock
 62
    0
370
   -2
100
AcDbTrace
 10
60
 20
80
 30
0
 11
56.698
 21
79.45017122401363
 31
0
 12
56.698
 22
80.54982877598637
 32
0
 13
56.698
 23
80.54982877598637
 33
0
  0
LINE
  5
65
100
AcDbEntity
  8
medidas
  6
ByBlock
 62
    0
370
   -2
100
AcDbLine
 10
10.66288888888889
 20
80
 11
60
 21
80
  0
MTEXT
  5
66
100
AcDbEntity
  8
medidas
  6
CONTINUOUS
 62
    0
370
   -2
100
AcDbMText
 10
3.552713678800501e-15
 20
80
 30
0
 40
3.5
 41
18.27777777777778
 71
    5
 72
    1
  1
120.0000
  7
standard
210
0
220
0
230
1
 50
0
 73
    2
 44
1
  0
LINE
  5
67
100
AcDbEntity
  8
medidas
  6
ByBlock
 62
    0
370
   -2
100
AcDbLine
 10
-60
 20
21
 11
-59.99999999999999
 21
81
  0
LINE
  5
68
100
AcDbEntity
  8
medidas
  6
ByBlock
 62
    0
370
   -2
100
AcDbLine
 10
60
 20
21
 11
60
 21
81
  0
ENDBLK
  5
52
330
50
100
AcDbEntity
  8
0
100
AcDbBlockEnd
  0
BLOCK
  5
54
330
53
100
AcDbEntity
  8
0
100
AcDbBlockBegin
  2
*D2
 70
    1
 10
0
 20
0
  3
*D2
  1

  0
LINE
  5
69
100
AcDbEntity
  8
medidas
  6
ByBlock
 62
    0
370
   -2
100
AcDbLine
 10
-80
 20
-59.99999999999999
 11
-80
 21
-3.273999999999997
  0
SOLID
  5
6A
100
AcDbEntity
  8
medidas
  6
ByBlock
 62
    0
370
   -2
100
AcDbTrace
 10
-80
 20
-59.99999999999999
 30
0
 11
-80.54982877598637
 21
-56.69799999999999
 31
0
 12
-79.45017122401363
 22
-56.69799999999999
 32
0
 13
-79.45017122401363
 23
-56.69799999999999
 33
0
  0
SOLID
  5
6B
100
AcDbEntity
  8
medidas
  6
ByBlock
 62
    0
370
   -2
100
AcDbTrace
 10
-80
 20
60
 30
0
 11
-79.45017122401363
 21
56.698
 31
0
 12
-80.54982877598637
 22
56.698
 32
0
 13
-80.54982877598637
 23
56.698
 33
0
  0
LINE
  5
6C
100
AcDbEntity
  8
medidas
  6
ByBlock
 62
    0
370
   -2
100
AcDbLine
 10
-80
 20
3.274000000000004
 11
-80
 21
60
  0
MTEXT
  5
6D
100
AcDbEntity
  8
medidas
  6
CONTINUOUS
 62
    0
370
   -2
100
AcDbMText
 10
-80
 20
3.552713678800501e-15
 30
0
 40
3.5
 41
18.27777777777778
 71
    5
 72
    1
  1
120.0000
  7
standard
210
0
220
0
230
1
 50
0
 73
    2
 44
1
  0
LINE
  5
6E
100
AcDbEntity
  8
medidas
  6
ByBlock
 62
    0
370
   -2
100
AcDbLine
 10
-41
 20
-60
 11
-81
 21
-59.99999999999999
  0
LINE
  5
6F
100
AcDbEntity
  8
medidas
  6
ByBlock
 62
    0
370
   -2
100
AcDbLine
 10
-41
 20
60
 11
-81
 21
60
  0
ENDBLK
  5
55
330
53
100
AcDbEntity
  8
0
100
AcDbBlockEnd
  0
BLOCK
  5
57
330
56
100
AcDbEntity
  8
0
100
AcDbBlockBegin
  2
block 1
 70
    0
 10
0
 20
0
  3
block 1
  1

  0
LINE
  5
70
100
AcDbEntity
  8
0
  6
ByLayer
 62
  256
370
   -1
100
AcDbLine
 10
-2.9
 20
-24.89999999999999
 11
0
 21
-24.89999999999999
  0
LINE
  5
71
100
AcDbEntity
  8
0
  6
ByLayer
 62
  256
370
   -1
100
AcDbLine
 10
0
 20
-24.89999999999999
 11
0
 21
-15.89999999999999
  0
LINE
  5
72
100
AcDbEntity
  8
0
  6
ByLayer
 62
  256
370
   -1
100
AcDbLine
 10
0
 20
-15.89999999999999
 11
-2.9
 21
-15.89999999999999
  0
LINE
  5
73
100
AcDbEntity
  8
0
  6
ByLayer
 62
  256
370
   -1
100
AcDbLine
 10
-2.9
 20
-15.89999999999999
 11
-2.9
 21
-24.89999999999999
  0
LINE
  5
74
100
AcDbEntity
  8
0
  6
ByLayer
 62
  256
370
   -1
100
AcDbLine
 10
-2.9
 20
0
 11
0
 21
0
  0
LINE
  5
75
100
AcDbEntity
  8
0
  6
ByLayer
 62
  256
370
   -1
100
AcDbLine
 10
0
 20
0
 11
0
 21
8
  0
LINE
  5
76
100
AcDbEntity
  8
0
  6
ByLayer
 62
  256
370
   -1
100
AcDbLine
 10
0
 20
8
 11
-2.9
 21
8
  0
LINE
  5
77
100
AcDbEntity
  8
0
  6
ByLayer
 62
  256
370
   -1
100
AcDbLine
 10
-2.9
 20
8
 11
-2.9
 21
0
  0
LINE
  5
78
100
AcDbEntity
  8
0
  6
ByLayer
 62
  256
370
   -1
100
AcDbLine
 10
55.2
 20
-24.89999999999999
 11
58.09999999999999
 21
-24.89999999999999
  0
LINE
  5
79
100
AcDbEntity
  8
0
  6
ByLayer
 62
  256
370
   -1
100
AcDbLine
 10
58.09999999999999
 20
-24.89999999999999
 11
58.09999999999999
 21
-15.89999999999999
  0
LINE
  5
7A
100
AcDbEntity
  8
0
  6
ByLayer
 62
  256
370
   -1
100
AcDbLine
 10
58.09999999999999
 20
-15.89999999999999
 11
55.2
 21
-15.89999999999999
  0
LINE
  5
7B
100
AcDbEntity
  8
0
  6
ByLayer
 62
  256
370
   -1
100
AcDbLine
 10
55.2
 20
-15.89999999999999
 11
55.2
 21
-24.89999999999999
  0
LINE
  5
7C
100
AcDbEntity
  8
0
  6
ByLayer
 62
  256
370
   -1
100
AcDbLine
 10
55.2
 20
0
 11
58.09999999999999
 21
0
  0
LINE
  5
7D
100
AcDbEntity
  8
0
  6
ByLayer
 62
  256
370
   -1
100
AcDbLine
 10
58.09999999999999
 20
0
 11
58.09999999999999
 21
8
  0
LINE
  5
7E
100
AcDbEntity
  8
0
  6
ByLayer
 62
  256
370
   -1
100
AcDbLine
 10
58.09999999999999
 20
8
 11
55.2
 21
8
  0
LINE
  5
7F
100
AcDbEntity
  8
0
  6
ByLayer
 62
  256
370
   -1
100
AcDbLine
 10
55.2
 20
8
 11
55.2
 21
0
  0
ARC
  5
80
100
AcDbEntity
  8
0
  6
ByLayer
 62
  256
370
   -1
100
AcDbCircle
 10
59.2
 20
-25.89999999999999
 40
2
100
AcDbArc
 50
270
 51
0
  0
ARC
  5
81
100
AcDbEntity
  8
0
  6
ByLayer
 62
  256
370
   -1
100
AcDbCircle
 10
59.2
 20
9.099999999999994
 40
2
100
AcDbArc
 50
0
 51
90
  0
ARC
  5
82
100
AcDbEntity
  8
0
  6
ByLayer
 62
  256
370
   -1
100
AcDbCircle
 10
-4
 20
9.099999999999994
 40
2
100
AcDbArc
 50
90
 51
180
  0
ARC
  5
83
100
AcDbEntity
  8
0
  6
ByLayer
 62
  256
370
   -1
100
AcDbCircle
 10
-4
 20
-25.89999999999999
 40
2
100
AcDbArc
 50
180
 51
270
  0
LINE
  5
84
100
AcDbEntity
  8
0
  6
ByLayer
 62
  256
370
   -1
100
AcDbLine
 10
-6
 20
9.099999999999994
 11
-6
 21
-25.89999999999999
  0
LINE
  5
85
100
AcDbEntity
  8
0
  6
ByLayer
 62
  256
370
   -1
100
AcDbLine
 10
-4
 20
-27.89999999999999
 11
59.20000000000002
 21
-27.89999999999999
  0
LINE
  5
86
100
AcDbEntity
  8
0
  6
ByLayer
 62
  256
370
   -1
100
AcDbLine
 10
61.2
 20
-25.89999999999999
 11
61.2
 21
9.099999999999994
  0
LINE
  5
87
100
AcDbEntity
  8
0
  6
ByLayer
 62
  256
370
   -1
100
AcDbLine
 10
59.2
 20
11.09999999999999
 11
-4
 21
11.09999999999999
  0
LINE
  5
88
100
AcDbEntity
  8
0
  6
ByLayer
 62
  256
370
   -1
100
AcDbLine
 10
133.5
 20
-24.89999999999999
 11
145.5
 21
-24.89999999999999
  0
LINE
  5
89
100
AcDbEntity
  8
0
  6
ByLayer
 62
  256
370
   -1
100
AcDbLine
 10
145.5
 20
-24.89999999999999
 11
145.5
 21
-21.89999999999999
  0
LINE
  5
8A
100
AcDbEntity
  8
0
  6
ByLayer
 62
  256
370
   -1
100
AcDbLine
 10
145.5
 20
-21.89999999999999
 11
133.5
 21
-21.89999999999999
  0
LINE
  5
8B
100
AcDbEntity
  8
0
  6
ByLayer
 62
  256
370
   -1
100
AcDbLine
 10
133.5
 20
-21.89999999999999
 11
133.5
 21
-24.89999999999999
  0
LINE
  5
8C
100
AcDbEntity
  8
0
  6
ByLayer
 62
  256
370
   -1
100
AcDbLine
 10
97.5
 20
-24.89999999999999
 11
109.5
 21
-24.89999999999999
  0
LINE
  5
8D
100
AcDbEntity
  8
0
  6
ByLayer
 62
  256
370
   -1
100
AcDbLine
 10
109.5
 20
-24.89999999999999
 11
109.5
 21
-21.89999999999999
  0
LINE
  5
8E
100
AcDbEntity
  8
0
  6
ByLayer
 62
  256
370
   -1
100
AcDbLine
 10
109.5
 20
-21.89999999999999
 11
97.5
 21
-21.89999999999999
  0
LINE
  5
8F
100
AcDbEntity
  8
0
  6
ByLayer
 62
  256
370
   -1
100
AcDbLine
 10
97.5
 20
-21.89999999999999
 11
97.5
 21
-24.89999999999999
  0
LINE
  5
90
100
AcDbEntity
  8
0
  6
ByLayer
 62
  256
370
   -1
100
AcDbLine
 10
133.5
 20
5.099999999999994
 11
145.5
 21
5.099999999999994
  0
LINE
  5
91
100
AcDbEntity
  8
0
  6
ByLayer
 62
  256
370
   -1
100
AcDbLine
 10
145.5
 20
5.099999999999994
 11
145.5
 21
8.099999999999994
  0
LINE
  5
92
100
AcDbEntity
  8
0
  6
ByLayer
 62
  256
370
   -1
100
AcDbLine
 10
145.5
 20
8.099999999999994
 11
133.5
 21
8.099999999999994
  0
LINE
  5
93
100
AcDbEntity
  8
0
  6
ByLayer
 62
  256
370
   -1
100
AcDbLine
 10
133.5
 20
8.099999999999994
 11
133.5
 21
5.099999999999994
  0
LINE
  5
94
100
AcDbEntity
  8
0
  6
ByLayer
 62
  256
370
   -1
100
AcDbLine
 10
97.5
 20
5.099999999999994
 11
109.5
 21
5.099999999999994
  0
LINE
  5
95
100
AcDbEntity
  8
0
  6
ByLayer
 62
  256
370
   -1
100
AcDbLine
 10
109.5
 20
5.099999999999994
 11
109.5
 21
8.099999999999994
  0
LINE
  5
96
100
AcDbEntity
  8
0
  6
ByLayer
 62
  256
370
   -1
100
AcDbLine
 10
109.5
 20
8.099999999999994
 11
97.5
 21
8.099999999999994
  0
LINE
  5
97
100
AcDbEntity
  8
0
  6
ByLayer
 62
  256
370
   -1
100
AcDbLine
 10
97.5
 20
8.099999999999994
 11
97.5
 21
5.099999999999994
  0
LINE
  5
98
100
AcDbEntity
  8
0
  6
ByLayer
 62
  256
370
   -1
100
AcDbLine
 10
165
 20
-24.89999999999999
 11
168
 21
-24.89999999999999
  0
LINE
  5
99
100
AcDbEntity
  8
0
  6
ByLayer
 62
  256
370
   -1
100
AcDbLine
 10
165
 20
-16.89999999999999
 11
168
 21
-16.89999999999999
  0
LINE
  5
9A
100
AcDbEntity
  8
0
  6
ByLayer
 62
  256
370
   -1
100
AcDbLine
 10
165
 20
8.099999999999994
 11
168
 21
8.099999999999994
  0
LINE
  5
9B
100
AcDbEntity
  8
0
  6
ByLayer
 62
  256
370
   -1
100
AcDbLine
 10
165
 20
0.0999999999999943
 11
168
 21
0.0999999999999943
  0
LINE
  5
9C
100
AcDbEntity
  8
0
  6
ByLayer
 62
  256
370
   -1
100
AcDbLine
 10
75
 20
-24.89999999999999
 11
75
 21
-24.89999999999999
  0
LINE
  5
9D
100
AcDbEntity
  8
0
  6
ByLayer
 62
  256
370
   -1
100
AcDbLine
 10
168
 20
-16.89999999999999
 11
168
 21
-16.89999999999999
  0
LINE
  5
9E
100
AcDbEntity
  8
0
  6
ByLayer
 62
  256
370
   -1
100
AcDbLine
 10
75
 20
-24.89999999999999
 11
75
 21
-25.84948974278319
  0
LINE
  5
9F
100
AcDbEntity
  8
0
  6
ByLayer
 62
  256
370
   -1
100
AcDbLine
 10
75
 20
-24.89999999999999
 11
78
 21
-24.89999999999999
  0
ARC
  5
A0
100
AcDbEntity
  8
0
  6
ByLayer
 62
  256
370
   -1
100
AcDbCircle
 10
75
 20
-23.39999999999999
 40
3
100
AcDbArc
 50
180
 51
258.4905700378631
  0
ARC
  5
A1
100
AcDbEntity
  8
0
  6
ByLayer
 62
  256
370
   -1
100
AcDbCircle
 10
79
 20
-26.89999999999999
 40
1
100
AcDbArc
 50
180
 51
270
  0
LINE
  5
A2
100
AcDbEntity
  8
0
  6
ByLayer
 62
  256
370
   -1
100
AcDbLine
 10
79
 20
-27.89999999999999
 11
164
 21
-27.89999999999999
  0
LINE
  5
A3
100
AcDbEntity
  8
0
  6
ByLayer
 62
  256
370
   -1
100
AcDbLine
 10
78
 20
-26.89999999999999
 11
78
 21
-24.89999999999999
  0
LINE
  5
A4
100
AcDbEntity
  8
0
  6
ByLayer
 62
  256
370
   -1
100
AcDbLine
 10
78
 20
-16.89999999999999
 11
78
 21
0.0999999999999943
  0
ARC
  5
A5
100
AcDbEntity
  8
0
  6
ByLayer
 62
  256
370
   -1
100
AcDbCircle
 10
75
 20
-19.89999999999999
 40
3
100
AcDbArc
 50
90
 51
180
  0
LINE
  5
A6
100
AcDbEntity
  8
0
  6
ByLayer
 62
  256
370
   -1
100
AcDbLine
 10
72
 20
-19.89999999999999
 11
72
 21
-23.39999999999999
  0
LINE
  5
A7
100
AcDbEntity
  8
0
  6
ByLayer
 62
  256
370
   -1
100
AcDbLine
 10
75
 20
-16.89999999999999
 11
78
 21
-16.89999999999999
  0
LINE
  5
A8
100
AcDbEntity
  8
0
  6
ByLayer
 62
  256
370
   -1
100
AcDbLine
 10
168
 20
-24.89999999999999
 11
168
 21
-25.84948974278319
  0
LINE
  5
A9
100
AcDbEntity
  8
0
  6
ByLayer
 62
  256
370
   -1
100
AcDbLine
 10
168
 20
-24.89999999999999
 11
168
 21
-24.89999999999999
  0
ARC
  5
AA
100
AcDbEntity
  8
0
  6
ByLayer
 62
  256
370
   -1
100
AcDbCircle
 10
168
 20
-19.89999999999999
 40
3
100
AcDbArc
 50
0
 51
90
  0
LINE
  5
AB
100
AcDbEntity
  8
0
  6
ByLayer
 62
  256
370
   -1
100
AcDbLine
 10
171
 20
-23.39999999999999
 11
171
 21
-19.89999999999999
  0
LINE
  5
AC
100
AcDbEntity
  8
0
  6
ByLayer
 62
  256
370
   -1
100
AcDbLine
 10
165
 20
-16.89999999999999
 11
165
 21
0.0999999999999943
  0
LINE
  5
AD
100
AcDbEntity
  8
0
  6
ByLayer
 62
  256
370
   -1
100
AcDbLine
 10
75
 20
8.099999999999994
 11
75
 21
9.599999999999994
  0
ARC
  5
AE
100
AcDbEntity
  8
0
  6
ByLayer
 62
  256
370
   -1
100
AcDbCircle
 10
75
 20
3.099999999999994
 40
3
100
AcDbArc
 50
180
 51
270
  0
ARC
  5
AF
100
AcDbEntity
  8
0
  6
ByLayer
 62
  256
370
   -1
100
AcDbCircle
 10
75
 20
6.599999999999994
 40
3
100
AcDbArc
 50
90
 51
180
  0
LINE
  5
B0
100
AcDbEntity
  8
0
  6
ByLayer
 62
  256
370
   -1
100
AcDbLine
 10
75
 20
8.099999999999994
 11
78
 21
8.099999999999994
  0
LINE
  5
B1
100
AcDbEntity
  8
0
  6
ByLayer
 62
  256
370
   -1
100
AcDbLine
 10
72
 20
6.599999999999994
 11
72
 21
5.599999999999994
  0
LINE
  5
B2
100
AcDbEntity
  8
0
  6
ByLayer
 62
  256
370
   -1
100
AcDbLine
 10
75
 20
0.0999999999999943
 11
78
 21
0.0999999999999943
  0
LINE
  5
B3
100
AcDbEntity
  8
0
  6
ByLayer
 62
  256
370
   -1
100
AcDbLine
 10
78
 20
11.09999999999999
 11
78
 21
11.09999999999999
  0
LINE
  5
B4
100
AcDbEntity
  8
0
  6
ByLayer
 62
  256
370
   -1
100
AcDbLine
 10
78
 20
8.099999999999994
 11
78
 21
10.09999999999999
  0
LINE
  5
B5
100
AcDbEntity
  8
0
  6
ByLayer
 62
  256
370
   -1
100
AcDbLine
 10
72
 20
4.099999999999994
 11
78
 21
4.099999999999994
  0
LINE
  5
B6
100
AcDbEntity
  8
0
  6
ByLayer
 62
  256
370
   -1
100
AcDbLine
 10
72
 20
5.599999999999994
 11
78
 21
5.599999999999994
  0
ARC
  5
B7
100
AcDbEntity
  8
0
  6
ByLayer
 62
  256
370
   -1
100
AcDbCircle
 10
74.66085207381897
 20
53.9883763127954
 40
50
100
AcDbArc
 50
273.8292316441647
 51
283.4020647241631
  0
ARC
  5
B8
100
AcDbEntity
  8
0
  6
ByLayer
 62
  256
370
   -1
100
AcDbCircle
 10
74.66085207381882
 20
55.48837631279531
 40
50
100
AcDbArc
 50
273.829231644165
 51
283.4020647241632
  0
ARC
  5
B9
100
AcDbEntity
  8
0
  6
ByLayer
 62
  256
370
   -1
100
AcDbCircle
 10
97.5271649031926
 20
-43.36165724696914
 40
50
100
AcDbArc
 50
94.19648390323084
 51
103.0348280905873
  0
ARC
  5
BA
100
AcDbEntity
  8
0
  6
ByLayer
 62
  256
370
   -1
100
AcDbCircle
 10
97.4185492617721
 20
-41.88667517781006
 40
50
100
AcDbArc
 50
94.19790426307659
 51
102.9071047091695
  0
LINE
  5
BB
100
AcDbEntity
  8
0
  6
ByLayer
 62
  256
370
   -1
100
AcDbLine
 10
72
 20
4.099999999999994
 11
72
 21
3.099999999999994
  0
ARC
  5
BC
100
AcDbEntity
  8
0
  6
ByLayer
 62
  256
370
   -1
100
AcDbCircle
 10
79
 20
10.09999999999999
 40
1
100
AcDbArc
 50
90
 51
180
  0
LINE
  5
BD
100
AcDbEntity
  8
0
  6
ByLayer
 62
  256
370
   -1
100
AcDbLine
 10
168
 20
8.099999999999994
 11
168
 21
8.099999999999994
  0
ARC
  5
BE
100
AcDbEntity
  8
0
  6
ByLayer
 62
  256
370
   -1
100
AcDbCircle
 10
168
 20
3.099999999999994
 40
3
100
AcDbArc
 50
270
 51
0
  0
ARC
  5
BF
100
AcDbEntity
  8
0
  6
ByLayer
 62
  256
370
   -1
100
AcDbCircle
 10
168
 20
6.599999999999994
 40
3
100
AcDbArc
 50
0
 51
90
  0
LINE
  5
C0
100
AcDbEntity
  8
0
  6
ByLayer
 62
  256
370
   -1
100
AcDbLine
 10
171
 20
3.099999999999994
 11
171
 21
4.099999999999994
  0
LINE
  5
C1
100
AcDbEntity
  8
0
  6
ByLayer
 62
  256
370
   -1
100
AcDbLine
 10
168
 20
8.099999999999994
 11
168
 21
9.599999999999994
  0
LINE
  5
C2
100
AcDbEntity
  8
0
  6
ByLayer
 62
  256
370
   -1
100
AcDbLine
 10
165
 20
8.099999999999994
 11
165
 21
10.09999999999999
  0
LINE
  5
C3
100
AcDbEntity
  8
0
  6
ByLayer
 62
  256
370
   -1
100
AcDbLine
 10
165
 20
4.099999999999994
 11
171
 21
4.099999999999994
  0
LINE
  5
C4
100
AcDbEntity
  8
0
  6
ByLayer
 62
  256
370
   -1
100
AcDbLine
 10
165
 20
5.599999999999994
 11
171
 21
5.599999999999994
  0
ARC
  5
C5
100
AcDbEntity
  8
0
  6
ByLayer
 62
  256
370
   -1
100
AcDbCircle
 10
145.4722318637595
 20
-43.36151758942849
 40
50
100
AcDbArc
 50
76.96446237171254
 51
85.80424125995906
  0
ARC
  5
C6
100
AcDbEntity
  8
0
  6
ByLayer
 62
  256
370
   -1
100
AcDbCircle
 10
145.5820361459785
 20
-41.88680932678368
 40
50
100
AcDbArc
 50
77.09358350657607
 51
85.67512012509562
  0
ARC
  5
C7
100
AcDbEntity
  8
0
  6
ByLayer
 62
  256
370
   -1
100
AcDbCircle
 10
168.3391479261811
 20
53.98837631279531
 40
50
100
AcDbArc
 50
256.5979352758366
 51
266.1707683558352
  0
ARC
  5
C8
100
AcDbEntity
  8
0
  6
ByLayer
 62
  256
370
   -1
100
AcDbCircle
 10
168.3391479261811
 20
55.48837631279531
 40
50
100
AcDbArc
 50
256.5979352758366
 51
266.1707683558348
  0
ARC
  5
C9
100
AcDbEntity
  8
0
  6
ByLayer
 62
  256
370
   -1
100
AcDbCircle
 10
149.2415366281686
 20
7.23764596542901
 40
0.7415366281685447
100
AcDbArc
 50
81.38435181549828
 51
261.3843518155396
  0
LINE
  5
CA
100
AcDbEntity
  8
0
  6
ByLayer
 62
  256
370
   -1
100
AcDbLine
 10
171
 20
5.599999999999994
 11
171
 21
6.599999999999994
  0
ARC
  5
CB
100
AcDbEntity
  8
0
  6
ByLayer
 62
  256
370
   -1
100
AcDbCircle
 10
93.75846337183141
 20
7.23764596542901
 40
0.7415366281685868
100
AcDbArc
 50
278.5191974163502
 51
98.52208078011843
  0
ARC
  5
CC
100
AcDbEntity
  8
0
  6
ByLayer
 62
  256
370
   -1
100
AcDbCircle
 10
168.5000192682394
 20
-25.8495053308462
 40
0.5000192684823564
100
AcDbArc
 50
179.9982138086076
 51
280.7595040611738
  0
ARC
  5
CD
100
AcDbEntity
  8
0
  6
ByLayer
 62
  256
370
   -1
100
AcDbCircle
 10
168
 20
-23.39999999999999
 40
3
100
AcDbArc
 50
281.4076830966835
 51
0
  0
ARC
  5
CE
100
AcDbEntity
  8
0
  6
ByLayer
 62
  256
370
   -1
100
AcDbCircle
 10
164
 20
-26.89999999999999
 40
1
100
AcDbArc
 50
270
 51
0
  0
LINE
  5
CF
100
AcDbEntity
  8
0
  6
ByLayer
 62
  256
370
   -1
100
AcDbLine
 10
165
 20
-26.89999999999999
 11
165
 21
-24.89999999999999
  0
ARC
  5
D0
100
AcDbEntity
  8
0
  6
ByLayer
 62
  256
370
   -1
100
AcDbCircle
 10
164
 20
10.09999999999999
 40
1
100
AcDbArc
 50
0
 51
90
  0
LINE
  5
D1
100
AcDbEntity
  8
0
  6
ByLayer
 62
  256
370
   -1
100
AcDbLine
 10
164
 20
11.09999999999999
 11
79
 21
11.09999999999999
  0
ARC
  5
D2
100
AcDbEntity
  8
0
  6
ByLayer
 62
  256
370
   -1
100
AcDbCircle
 10
74.49999913259505
 20
-25.84949044962819
 40
0.5000008674054547
100
AcDbArc
 50
258.6282965166952
 51
8.1005078916e-05
  0
ENDBLK
  5
58
330
56
100
AcDbEntity
  8
0
100
AcDbBlockEnd
  0
BLOCK
  5
5A
330
59
100
AcDbEntity
  8
0
100
AcDbBlockBegin
  2
reset
 70
    0
 10
0
 20
0
  3
reset
  1

  0
LINE
  5
D3
100
AcDbEntity
  8
text
  6
ByLayer
 62
  256
370
   -1
100
AcDbLine
 10
-6.896709772466856
 20
0.0530365035193974
 11
-6.896709772466856
 21
3.053036503519397
  0
LINE
  5
D4
100
AcDbEntity
  8
text
  6
ByLayer
 62
  256
370
   -1
100
AcDbLine
 10
-6.896709772466856
 20
3.053036503519397
 11
-5.62186937305615
 21
3.053036503519397
  0
SPLINE
  5
D5
100
AcDbEntity
  8
text
  6
ByLayer
 62
  256
370
   -1
100
AcDbSpline
210
0
220
0
230
0
 70
    8
 71
    3
 72
    8
 73
    4
 74
    0
 42
1e-07
 43
1e-07
 40
0
 40
0
 40
0
 40
0
 40
1
 40
1
 40
1
 40
1
 10
-5.62186937305615
 20
3.053036503519397
 30
0
 10
-5.30135865117041
 20
3.053036503519397
 30
0
 10
-5.068423637256508
 20
3.026109019479456
 30
0
 10
-4.923064331314457
 20
2.972254051399574
 30
0
  0
SPLINE
  5
D6
100
AcDbEntity
  8
text
  6
ByLayer
 62
  256
370
   -1
100
AcDbSpline
210
0
220
0
230
0
 70
    8
 71
    3
 72
    8
 73
    4
 74
    0
 42
1e-07
 43
1e-07
 40
0
 40
0
 40
0
 40
0
 40
1
 40
1
 40
1
 40
1
 10
-4.923064331314457
 20
2.972254051399574
 30
0
 10
-4.777705025372406
 20
2.918399083319692
 30
0
 10
-4.661401211327551
 20
2.822556883286953
 30
0
 10
-4.574152889179899
 20
2.684727451301359
 30
0
  0
SPLINE
  5
D7
100
AcDbEntity
  8
text
  6
ByLayer
 62
  256
370
   -1
100
AcDbSpline
210
0
220
0
230
0
 70
    8
 71
    3
 72
    8
 73
    4
 74
    0
 42
1e-07
 43
1e-07
 40
0
 40
0
 40
0
 40
0
 40
1
 40
1
 40
1
 40
1
 10
-4.574152889179899
 20
2.684727451301359
 30
0
 10
-4.486904567032248
 20
2.546898019315762
 30
0
 10
-4.443280405958426
 20
2.389261744966444
 30
0
 10
-4.443280405958426
 20
2.211818628253397
 30
0
  0
SPLINE
  5
D8
100
AcDbEntity
  8
text
  6
ByLayer
 62
  256
370
   -1
100
AcDbSpline
210
0
220
0
230
0
 70
    8
 71
    3
 72
    8
 73
    4
 74
    0
 42
1e-07
 43
1e-07
 40
0
 40
0
 40
0
 40
0
 40
1
 40
1
 40
1
 40
1
 10
-4.443280405958426
 20
2.211818628253397
 30
0
 10
-4.443280405958426
 20
1.986904567032248
 30
0
 10
-4.509412342445572
 20
1.801113111802259
 30
0
 10
-4.641676215419878
 20
1.65444426256343
 30
0
  0
SPLINE
  5
D9
100
AcDbEntity
  8
text
  6
ByLayer
 62
  256
370
   -1
100
AcDbSpline
210
0
220
0
230
0
 70
    8
 71
    3
 72
    8
 73
    4
 74
    0
 42
1e-07
 43
1e-07
 40
0
 40
0
 40
0
 40
0
 40
1
 40
1
 40
1
 40
1
 10
-4.641676215419878
 20
1.65444426256343
 30
0
 10
-4.773940088394177
 20
1.507775413324604
 30
0
 10
-4.971681126207237
 20
1.41528891798985
 30
0
 10
-5.234899328859065
 20
1.376984776559175
 30
0
  0
SPLINE
  5
DA
100
AcDbEntity
  8
text
  6
ByLayer
 62
  256
370
   -1
100
AcDbSpline
210
0
220
0
230
0
 70
    8
 71
    3
 72
    8
 73
    4
 74
    0
 42
1e-07
 43
1e-07
 40
0
 40
0
 40
0
 40
0
 40
1
 40
1
 40
1
 40
1
 10
-5.234899328859065
 20
1.376984776559175
 30
0
 10
-5.103944999181536
 20
1.300703879522016
 30
0
 10
-4.995825830741531
 20
1.216811262072351
 30
0
 10
-4.910541823539042
 20
1.125306924210181
 30
0
  0
SPLINE
  5
DB
100
AcDbEntity
  8
text
  6
ByLayer
 62
  256
370
   -1
100
AcDbSpline
210
0
220
0
230
0
 70
    8
 71
    3
 72
    8
 73
    4
 74
    0
 42
1e-07
 43
1e-07
 40
0
 40
0
 40
0
 40
0
 40
1
 40
1
 40
1
 40
1
 10
-4.910541823539042
 20
1.125306924210181
 30
0
 10
-4.82525781633656
 20
1.033802586348012
 30
0
 10
-4.710427238500579
 20
0.8715010640039278
 30
0
 10
-4.566050090031105
 20
0.6384023571779345
 30
0
  0
LINE
  5
DC
100
AcDbEntity
  8
text
  6
ByLayer
 62
  256
370
   -1
100
AcDbLine
 10
-4.566050090031105
 20
0.6384023571779345
 11
-4.19970535275823
 21
0.0530365035193974
  0
LINE
  5
DD
100
AcDbEntity
  8
text
  6
ByLayer
 62
  256
370
   -1
100
AcDbLine
 10
-4.19970535275823
 20
0.0530365035193974
 11
-4.924046488787042
 21
0.0530365035193974
  0
LINE
  5
DE
100
AcDbEntity
  8
text
  6
ByLayer
 62
  256
370
   -1
100
AcDbLine
 10
-4.924046488787042
 20
0.0530365035193974
 11
-5.362088721558358
 21
0.7056801440497615
  0
SPLINE
  5
DF
100
AcDbEntity
  8
text
  6
ByLayer
 62
  256
370
   -1
100
AcDbSpline
210
0
220
0
230
0
 70
    8
 71
    3
 72
    8
 73
    4
 74
    0
 42
1e-07
 43
1e-07
 40
0
 40
0
 40
0
 40
0
 40
1
 40
1
 40
1
 40
1
 10
-5.362088721558358
 20
0.7056801440497615
 30
0
 10
-5.517596988050421
 20
0.939106236699951
 30
0
 10
-5.623997380913409
 20
1.08618431821902
 30
0
 10
-5.681289900147327
 20
1.146914388606973
 30
0
  0
SPLINE
  5
E0
100
AcDbEntity
  8
text
  6
ByLayer
 62
  256
370
   -1
100
AcDbSpline
210
0
220
0
230
0
 70
    8
 71
    3
 72
    8
 73
    4
 74
    0
 42
1e-07
 43
1e-07
 40
0
 40
0
 40
0
 40
0
 40
1
 40
1
 40
1
 40
1
 10
-5.681289900147327
 20
1.146914388606973
 30
0
 10
-5.738582419381245
 20
1.207644458994924
 30
0
 10
-5.799230643313152
 20
1.249222458667539
 30
0
 10
-5.863234571943039
 20
1.271648387624815
 30
0
  0
SPLINE
  5
E1
100
AcDbEntity
  8
text
  6
ByLayer
 62
  256
370
   -1
100
AcDbSpline
210
0
220
0
230
0
 70
    8
 71
    3
 72
    8
 73
    4
 74
    0
 42
1e-07
 43
1e-07
 40
0
 40
0
 40
0
 40
0
 40
1
 40
1
 40
1
 40
1
 10
-5.863234571943039
 20
1.271648387624815
 30
0
 10
-5.927238500572926
 20
1.29407431658209
 30
0
 10
-6.028973645441155
 20
1.305287281060728
 30
0
 10
-6.168440006547719
 20
1.305287281060728
 30
0
  0
LINE
  5
E2
100
AcDbEntity
  8
text
  6
ByLayer
 62
  256
370
   -1
100
AcDbLine
 10
-6.168440006547719
 20
1.305287281060728
 11
-6.291209690620398
 21
1.305287281060728
  0
LINE
  5
E3
100
AcDbEntity
  8
text
  6
ByLayer
 62
  256
370
   -1
100
AcDbLine
 10
-6.291209690620398
 20
1.305287281060728
 11
-6.291209690620398
 21
0.0530365035193974
  0
LINE
  5
E4
100
AcDbEntity
  8
text
  6
ByLayer
 62
  256
370
   -1
100
AcDbLine
 10
-6.291209690620398
 20
0.0530365035193974
 11
-6.896709772466856
 21
0.0530365035193974
  0
LINE
  5
E5
100
AcDbEntity
  8
text
  6
ByLayer
 62
  256
370
   -1
100
AcDbLine
 10
-6.291209690620398
 20
1.78408904894418
 11
-5.842854804386974
 21
1.78408904894418
  0
SPLINE
  5
E6
100
AcDbEntity
  8
text
  6
ByLayer
 62
  256
370
   -1
100
AcDbSpline
210
0
220
0
230
0
 70
    8
 71
    3
 72
    8
 73
    4
 74
    0
 42
1e-07
 43
1e-07
 40
0
 40
0
 40
0
 40
0
 40
1
 40
1
 40
1
 40
1
 10
-5.842854804386974
 20
1.78408904894418
 30
0
 10
-5.552136192502871
 20
1.78408904894418
 30
0
 10
-5.370682599443448
 20
1.796366017351449
 30
0
 10
-5.298494025208711
 20
1.820919954165984
 30
0
  0
SPLINE
  5
E7
100
AcDbEntity
  8
text
  6
ByLayer
 62
  256
370
   -1
100
AcDbSpline
210
0
220
0
230
0
 70
    8
 71
    3
 72
    8
 73
    4
 74
    0
 42
1e-07
 43
1e-07
 40
0
 40
0
 40
0
 40
0
 40
1
 40
1
 40
1
 40
1
 10
-5.298494025208711
 20
1.820919954165984
 30
0
 10
-5.226305450973975
 20
1.84547389098052
 30
0
 10
-5.169749549844497
 20
1.88778850875757
 30
0
 10
-5.12882632182027
 20
1.947863807497134
 30
0
  0
SPLINE
  5
E8
100
AcDbEntity
  8
text
  6
ByLayer
 62
  256
370
   -1
100
AcDbSpline
210
0
220
0
230
0
 70
    8
 71
    3
 72
    8
 73
    4
 74
    0
 42
1e-07
 43
1e-07
 40
0
 40
0
 40
0
 40
0
 40
1
 40
1
 40
1
 40
1
 10
-5.12882632182027
 20
1.947863807497134
 30
0
 10
-5.087903093796044
 20
2.0079391062367
 30
0
 10
-5.06744147978393
 20
2.08299230643313
 30
0
 10
-5.06744147978393
 20
2.173023408086429
 30
0
  0
SPLINE
  5
E9
100
AcDbEntity
  8
text
  6
ByLayer
 62
  256
370
   -1
100
AcDbSpline
210
0
220
0
230
0
 70
    8
 71
    3
 72
    8
 73
    4
 74
    0
 42
1e-07
 43
1e-07
 40
0
 40
0
 40
0
 40
0
 40
1
 40
1
 40
1
 40
1
 10
-5.06744147978393
 20
2.173023408086429
 30
0
 10
-5.06744147978393
 20
2.273858241938123
 30
0
 10
-5.094368963823868
 20
2.355377312162382
 30
0
 10
-5.14822393190375
 20
2.417580618759207
 30
0
  0
SPLINE
  5
EA
100
AcDbEntity
  8
text
  6
ByLayer
 62
  256
370
   -1
100
AcDbSpline
210
0
220
0
230
0
 70
    8
 71
    3
 72
    8
 73
    4
 74
    0
 42
1e-07
 43
1e-07
 40
0
 40
0
 40
0
 40
0
 40
1
 40
1
 40
1
 40
1
 10
-5.14822393190375
 20
2.417580618759207
 30
0
 10
-5.202078899983633
 20
2.479783925356031
 30
0
 10
-5.278114257652646
 20
2.51907022425929
 30
0
 10
-5.376330004910791
 20
2.53543951546898
 30
0
  0
SPLINE
  5
EB
100
AcDbEntity
  8
text
  6
ByLayer
 62
  256
370
   -1
100
AcDbSpline
210
0
220
0
230
0
 70
    8
 71
    3
 72
    8
 73
    4
 74
    0
 42
1e-07
 43
1e-07
 40
0
 40
0
 40
0
 40
0
 40
1
 40
1
 40
1
 40
1
 10
-5.376330004910791
 20
2.53543951546898
 30
0
 10
-5.42543787853986
 20
2.541987231952856
 30
0
 10
-5.572761499427081
 20
2.545261090194794
 30
0
 10
-5.818300867572439
 20
2.545261090194794
 30
0
  0
LINE
  5
EC
100
AcDbEntity
  8
text
  6
ByLayer
 62
  256
370
   -1
100
AcDbLine
 10
-5.818300867572439
 20
2.545261090194794
 11
-6.291209690620398
 21
2.545261090194794
  0
LINE
  5
ED
100
AcDbEntity
  8
text
  6
ByLayer
 62
  256
370
   -1
100
AcDbLine
 10
-6.291209690620398
 20
2.545261090194794
 11
-6.291209690620398
 21
1.78408904894418
  0
LINE
  5
EE
100
AcDbEntity
  8
text
  6
ByLayer
 62
  256
370
   -1
100
AcDbLine
 10
-3.881486331641845
 20
0.0530365035193974
 11
-3.881486331641845
 21
3.053036503519397
  0
LINE
  5
EF
100
AcDbEntity
  8
text
  6
ByLayer
 62
  256
370
   -1
100
AcDbLine
 10
-3.881486331641845
 20
3.053036503519397
 11
-1.657390734981178
 21
3.053036503519397
  0
LINE
  5
F0
100
AcDbEntity
  8
text
  6
ByLayer
 62
  256
370
   -1
100
AcDbLine
 10
-1.657390734981178
 20
3.053036503519397
 11
-1.657390734981178
 21
2.545261090194794
  0
LINE
  5
F1
100
AcDbEntity
  8
text
  6
ByLayer
 62
  256
370
   -1
100
AcDbLine
 10
-1.657390734981178
 20
2.545261090194794
 11
-3.275986249795388
 21
2.545261090194794
  0
LINE
  5
F2
100
AcDbEntity
  8
text
  6
ByLayer
 62
  256
370
   -1
100
AcDbLine
 10
-3.275986249795388
 20
2.545261090194794
 11
-3.275986249795388
 21
1.880340481257161
  0
LINE
  5
F3
100
AcDbEntity
  8
text
  6
ByLayer
 62
  256
370
   -1
100
AcDbLine
 10
-3.275986249795388
 20
1.880340481257161
 11
-1.769847765591756
 21
1.880340481257161
  0
LINE
  5
F4
100
AcDbEntity
  8
text
  6
ByLayer
 62
  256
370
   -1
100
AcDbLine
 10
-1.769847765591756
 20
1.880340481257161
 11
-1.769847765591756
 21
1.375020461614012
  0
LINE
  5
F5
100
AcDbEntity
  8
text
  6
ByLayer
 62
  256
370
   -1
100
AcDbLine
 10
-1.769847765591756
 20
1.375020461614012
 11
-3.275986249795388
 21
1.375020461614012
  0
LINE
  5
F6
100
AcDbEntity
  8
text
  6
ByLayer
 62
  256
370
   -1
100
AcDbLine
 10
-3.275986249795388
 20
1.375020461614012
 11
-3.275986249795388
 21
0.558356523162546
  0
LINE
  5
F7
100
AcDbEntity
  8
text
  6
ByLayer
 62
  256
370
   -1
100
AcDbLine
 10
-3.275986249795388
 20
0.558356523162546
 11
-1.599934522835163
 21
0.558356523162546
  0
LINE
  5
F8
100
AcDbEntity
  8
text
  6
ByLayer
 62
  256
370
   -1
100
AcDbLine
 10
-1.599934522835163
 20
0.558356523162546
 11
-1.599934522835163
 21
0.0530365035193974
  0
LINE
  5
F9
100
AcDbEntity
  8
text
  6
ByLayer
 62
  256
370
   -1
100
AcDbLine
 10
-1.599934522835163
 20
0.0530365035193974
 11
-3.881486331641845
 21
0.0530365035193974
  0
LINE
  5
FA
100
AcDbEntity
  8
text
  6
ByLayer
 62
  256
370
   -1
100
AcDbLine
 10
-1.238009494188901
 20
1.029301031265346
 11
-0.6487150106400463
 21
1.086266164675068
  0
SPLINE
  5
FB
100
AcDbEntity
  8
text
  6
ByLayer
 62
  256
370
   -1
100
AcDbSpline
210
0
220
0
230
0
 70
    8
 71
    3
 72
    8
 73
    4
 74
    0
 42
1e-07
 43
1e-07
 40
0
 40
0
 40
0
 40
0
 40
1
 40
1
 40
1
 40
1
 10
-0.6487150106400463
 20
1.086266164675068
 30
0
 10
-0.6130299558029151
 20
0.8885251268620067
 30
0
 10
-0.5410050744802817
 20
0.7432476673760018
 30
0
 10
-0.4326403666721248
 20
0.6504337862170573
 30
0
  0
SPLINE
  5
FC
100
AcDbEntity
  8
text
  6
ByLayer
 62
  256
370
   -1
100
AcDbSpline
210
0
220
0
230
0
 70
    8
 71
    3
 72
    8
 73
    4
 74
    0
 42
1e-07
 43
1e-07
 40
0
 40
0
 40
0
 40
0
 40
1
 40
1
 40
1
 40
1
 10
-0.4326403666721248
 20
0.6504337862170573
 30
0
 10
-0.324275658863975
 20
0.557619905058111
 30
0
 10
-0.177934195449339
 20
0.5112129644786378
 30
0
 10
0.0063840235717763
 20
0.5112129644786378
 30
0
  0
SPLINE
  5
FD
100
AcDbEntity
  8
text
  6
ByLayer
 62
  256
370
   -1
100
AcDbSpline
210
0
220
0
230
0
 70
    8
 71
    3
 72
    8
 73
    4
 74
    0
 42
1e-07
 43
1e-07
 40
0
 40
0
 40
0
 40
0
 40
1
 40
1
 40
1
 40
1
 10
0.0063840235717763
 20
0.5112129644786378
 30
0
 10
0.2015059747912886
 20
0.5112129644786378
 30
0
 10
0.3485022098543098
 20
0.5525454247831068
 30
0
 10
0.4473727287608398
 20
0.6352103453920428
 30
0
  0
SPLINE
  5
FE
100
AcDbEntity
  8
text
  6
ByLayer
 62
  256
370
   -1
100
AcDbSpline
210
0
220
0
230
0
 70
    8
 71
    3
 72
    8
 73
    4
 74
    0
 42
1e-07
 43
1e-07
 40
0
 40
0
 40
0
 40
0
 40
1
 40
1
 40
1
 40
1
 10
0.4473727287608398
 20
0.6352103453920428
 30
0
 10
0.5462432476673698
 20
0.7178752660009806
 30
0
 10
0.5956785071206383
 20
0.8143722376821074
 30
0
 10
0.5956785071206383
 20
0.9247012604354232
 30
0
  0
SPLINE
  5
FF
100
AcDbEntity
  8
text
  6
ByLayer
 62
  256
370
   -1
100
AcDbSpline
210
0
220
0
230
0
 70
    8
 71
    3
 72
    8
 73
    4
 74
    0
 42
1e-07
 43
1e-07
 40
0
 40
0
 40
0
 40
0
 40
1
 40
1
 40
1
 40
1
 10
0.5956785071206383
 20
0.9247012604354232
 30
0
 10
0.5956785071206383
 20
0.9957439842854807
 30
0
 10
0.5748895072843325
 20
1.056146668849237
 30
0
 10
0.5333115076117139
 20
1.105909314126698
 30
0
  0
SPLINE
  5
100
100
AcDbEntity
  8
text
  6
ByLayer
 62
  256
370
   -1
100
AcDbSpline
210
0
220
0
230
0
 70
    8
 71
    3
 72
    8
 73
    4
 74
    0
 42
1e-07
 43
1e-07
 40
0
 40
0
 40
0
 40
0
 40
1
 40
1
 40
1
 40
1
 10
0.5333115076117139
 20
1.105909314126698
 30
0
 10
0.4917335079391023
 20
1.155671959404158
 30
0
 10
0.4190538549680767
 20
1.199050581109837
 30
0
 10
0.315272548698637
 20
1.236045179243739
 30
0
  0
SPLINE
  5
101
100
AcDbEntity
  8
text
  6
ByLayer
 62
  256
370
   -1
100
AcDbSpline
210
0
220
0
230
0
 70
    8
 71
    3
 72
    8
 73
    4
 74
    0
 42
1e-07
 43
1e-07
 40
0
 40
0
 40
0
 40
0
 40
1
 40
1
 40
1
 40
1
 10
0.315272548698637
 20
1.236045179243739
 30
0
 10
0.2442298248485812
 20
1.260599116058273
 30
0
 10
0.08266492060893429
 20
1.304141430676051
 30
0
 10
-0.169422164020304
 20
1.36667212309707
 30
0
  0
SPLINE
  5
102
100
AcDbEntity
  8
text
  6
ByLayer
 62
  256
370
   -1
100
AcDbSpline
210
0
220
0
230
0
 70
    8
 71
    3
 72
    8
 73
    4
 74
    0
 42
1e-07
 43
1e-07
 40
0
 40
0
 40
0
 40
0
 40
1
 40
1
 40
1
 40
1
 10
-0.169422164020304
 20
1.36667212309707
 30
0
 10
-0.4941889016205607
 20
1.447209035848747
 30
0
 10
-0.7220494352594571
 20
1.546079554755279
 30
0
 10
-0.8530037649369788
 20
1.663283679816663
 30
0
  0
SPLINE
  5
103
100
AcDbEntity
  8
text
  6
ByLayer
 62
  256
370
   -1
100
AcDbSpline
210
0
220
0
230
0
 70
    8
 71
    3
 72
    8
 73
    4
 74
    0
 42
1e-07
 43
1e-07
 40
0
 40
0
 40
0
 40
0
 40
1
 40
1
 40
1
 40
1
 10
-0.8530037649369788
 20
1.663283679816663
 30
0
 10
-1.037321983958094
 20
1.828613521034539
 30
0
 10
-1.129481093468655
 20
2.029955802913733
 30
0
 10
-1.129481093468655
 20
2.267310525454247
 30
0
  0
SPLINE
  5
104
100
AcDbEntity
  8
text
  6
ByLayer
 62
  256
370
   -1
100
AcDbSpline
210
0
220
0
230
0
 70
    8
 71
    3
 72
    8
 73
    4
 74
    0
 42
1e-07
 43
1e-07
 40
0
 40
0
 40
0
 40
0
 40
1
 40
1
 40
1
 40
1
 10
-1.129481093468655
 20
2.267310525454247
 30
0
 10
-1.129481093468655
 20
2.419872319528563
 30
0
 10
-1.086184318219026
 20
2.562694385333113
 30
0
 10
-0.9995907677197593
 20
2.695776722867901
 30
0
  0
SPLINE
  5
105
100
AcDbEntity
  8
text
  6
ByLayer
 62
  256
370
   -1
100
AcDbSpline
210
0
220
0
230
0
 70
    8
 71
    3
 72
    8
 73
    4
 74
    0
 42
1e-07
 43
1e-07
 40
0
 40
0
 40
0
 40
0
 40
1
 40
1
 40
1
 40
1
 10
-0.9995907677197593
 20
2.695776722867901
 30
0
 10
-0.9129972172205001
 20
2.828859060402685
 30
0
 10
-0.7881813717466031
 20
2.93018497299067
 30
0
 10
-0.6251432312980896
 20
2.999754460631852
 30
0
  0
SPLINE
  5
106
100
AcDbEntity
  8
text
  6
ByLayer
 62
  256
370
   -1
100
AcDbSpline
210
0
220
0
230
0
 70
    8
 71
    3
 72
    8
 73
    4
 74
    0
 42
1e-07
 43
1e-07
 40
0
 40
0
 40
0
 40
0
 40
1
 40
1
 40
1
 40
1
 10
-0.6251432312980896
 20
2.999754460631852
 30
0
 10
-0.462105090849569
 20
3.069323948273038
 30
0
 10
-0.2651825175969904
 20
3.104108692093632
 30
0
 10
-0.0343755115403539
 20
3.104108692093632
 30
0
  0
SPLINE
  5
107
100
AcDbEntity
  8
text
  6
ByLayer
 62
  256
370
   -1
100
AcDbSpline
210
0
220
0
230
0
 70
    8
 71
    3
 72
    8
 73
    4
 74
    0
 42
1e-07
 43
1e-07
 40
0
 40
0
 40
0
 40
0
 40
1
 40
1
 40
1
 40
1
 10
-0.0343755115403539
 20
3.104108692093632
 30
0
 10
0.3421181862825335
 20
3.104108692093632
 30
0
 10
0.625470617122275
 20
3.021607464396791
 30
0
 10
0.8156817809788777
 20
2.856605009003108
 30
0
  0
SPLINE
  5
108
100
AcDbEntity
  8
text
  6
ByLayer
 62
  256
370
   -1
100
AcDbSpline
210
0
220
0
230
0
 70
    8
 71
    3
 72
    8
 73
    4
 74
    0
 42
1e-07
 43
1e-07
 40
0
 40
0
 40
0
 40
0
 40
1
 40
1
 40
1
 40
1
 10
0.8156817809788777
 20
2.856605009003108
 30
0
 10
1.005892944835487
 20
2.691602553609428
 30
0
 10
1.105745621214595
 20
2.471271893926993
 30
0
 10
1.115239810116222
 20
2.195613029955801
 30
0
  0
LINE
  5
109
100
AcDbEntity
  8
text
  6
ByLayer
 62
  256
370
   -1
100
AcDbLine
 10
1.115239810116222
 20
2.195613029955801
 11
0.5097397282697642
 21
2.169094778196104
  0
SPLINE
  5
10A
100
AcDbEntity
  8
text
  6
ByLayer
 62
  256
370
   -1
100
AcDbSpline
210
0
220
0
230
0
 70
    8
 71
    3
 72
    8
 73
    4
 74
    0
 42
1e-07
 43
1e-07
 40
0
 40
0
 40
0
 40
0
 40
1
 40
1
 40
1
 40
1
 10
0.5097397282697642
 20
2.169094778196104
 30
0
 10
0.4838762481584524
 20
2.323293501391388
 30
0
 10
0.4283025045015521
 20
2.434113602880995
 30
0
 10
0.3430184972990631
 20
2.50155508266492
 30
0
  0
SPLINE
  5
10B
100
AcDbEntity
  8
text
  6
ByLayer
 62
  256
370
   -1
100
AcDbSpline
210
0
220
0
230
0
 70
    8
 71
    3
 72
    8
 73
    4
 74
    0
 42
1e-07
 43
1e-07
 40
0
 40
0
 40
0
 40
0
 40
1
 40
1
 40
1
 40
1
 10
0.3430184972990631
 20
2.50155508266492
 30
0
 10
0.2577344900965741
 20
2.568996562448845
 30
0
 10
0.1298084792928407
 20
2.602717302340807
 30
0
 10
-0.0407595351121302
 20
2.602717302340807
 30
0
  0
SPLINE
  5
10C
100
AcDbEntity
  8
text
  6
ByLayer
 62
  256
370
   -1
100
AcDbSpline
210
0
220
0
230
0
 70
    8
 71
    3
 72
    8
 73
    4
 74
    0
 42
1e-07
 43
1e-07
 40
0
 40
0
 40
0
 40
0
 40
1
 40
1
 40
1
 40
1
 10
-0.0407595351121302
 20
2.602717302340807
 30
0
 10
-0.2165657227042104
 20
2.602717302340807
 30
0
 10
-0.3543951546898043
 20
2.566541168767392
 30
0
 10
-0.4542478310689191
 20
2.494188901620559
 30
0
  0
SPLINE
  5
10D
100
AcDbEntity
  8
text
  6
ByLayer
 62
  256
370
   -1
100
AcDbSpline
210
0
220
0
230
0
 70
    8
 71
    3
 72
    8
 73
    4
 74
    0
 42
1e-07
 43
1e-07
 40
0
 40
0
 40
0
 40
0
 40
1
 40
1
 40
1
 40
1
 10
-0.4542478310689191
 20
2.494188901620559
 30
0
 10
-0.5184154526109026
 20
2.448027500409232
 30
0
 10
-0.5504992633819015
 20
2.385987886724504
 30
0
 10
-0.5504992633819015
 20
2.308070060566378
 30
0
  0
SPLINE
  5
10E
100
AcDbEntity
  8
text
  6
ByLayer
 62
  256
370
   -1
100
AcDbSpline
210
0
220
0
230
0
 70
    8
 71
    3
 72
    8
 73
    4
 74
    0
 42
1e-07
 43
1e-07
 40
0
 40
0
 40
0
 40
0
 40
1
 40
1
 40
1
 40
1
 10
-0.5504992633819015
 20
2.308070060566378
 30
0
 10
-0.5504992633819015
 20
2.23702733671632
 30
0
 10
-0.5203797675560651
 20
2.176297266328367
 30
0
 10
-0.4601407759044065
 20
2.125879849402519
 30
0
  0
SPLINE
  5
10F
100
AcDbEntity
  8
text
  6
ByLayer
 62
  256
370
   -1
100
AcDbSpline
210
0
220
0
230
0
 70
    8
 71
    3
 72
    8
 73
    4
 74
    0
 42
1e-07
 43
1e-07
 40
0
 40
0
 40
0
 40
0
 40
1
 40
1
 40
1
 40
1
 10
-0.4601407759044065
 20
2.125879849402519
 30
0
 10
-0.3838598788672485
 20
2.061712227860532
 30
0
 10
-0.1983958094614522
 20
1.994843673268946
 30
0
 10
0.0962514323129753
 20
1.925274185627762
 30
0
  0
SPLINE
  5
110
100
AcDbEntity
  8
text
  6
ByLayer
 62
  256
370
   -1
100
AcDbSpline
210
0
220
0
230
0
 70
    8
 71
    3
 72
    8
 73
    4
 74
    0
 42
1e-07
 43
1e-07
 40
0
 40
0
 40
0
 40
0
 40
1
 40
1
 40
1
 40
1
 10
0.0962514323129753
 20
1.925274185627762
 30
0
 10
0.3908986740874099
 20
1.855704697986576
 30
0
 10
0.6088557865444386
 20
1.783761663119986
 30
0
 10
0.7501227696840687
 20
1.70944508102799
 30
0
  0
SPLINE
  5
111
100
AcDbEntity
  8
text
  6
ByLayer
 62
  256
370
   -1
100
AcDbSpline
210
0
220
0
230
0
 70
    8
 71
    3
 72
    8
 73
    4
 74
    0
 42
1e-07
 43
1e-07
 40
0
 40
0
 40
0
 40
0
 40
1
 40
1
 40
1
 40
1
 10
0.7501227696840687
 20
1.70944508102799
 30
0
 10
0.8913897528236987
 20
1.635128498935995
 30
0
 10
1.001882468489114
 20
1.533557046979865
 30
0
 10
1.081600916680301
 20
1.404730725159601
 30
0
  0
SPLINE
  5
112
100
AcDbEntity
  8
text
  6
ByLayer
 62
  256
370
   -1
100
AcDbSpline
210
0
220
0
230
0
 70
    8
 71
    3
 72
    8
 73
    4
 74
    0
 42
1e-07
 43
1e-07
 40
0
 40
0
 40
0
 40
0
 40
1
 40
1
 40
1
 40
1
 10
1.081600916680301
 20
1.404730725159601
 30
0
 10
1.161319364871495
 20
1.275904403339334
 30
0
 10
1.201178588967096
 20
1.116549353412996
 30
0
 10
1.201178588967096
 20
0.9266655753805857
 30
0
  0
SPLINE
  5
113
100
AcDbEntity
  8
text
  6
ByLayer
 62
  256
370
   -1
100
AcDbSpline
210
0
220
0
230
0
 70
    8
 71
    3
 72
    8
 73
    4
 74
    0
 42
1e-07
 43
1e-07
 40
0
 40
0
 40
0
 40
0
 40
1
 40
1
 40
1
 40
1
 10
1.201178588967096
 20
0.9266655753805857
 30
0
 10
1.201178588967096
 20
0.754788017678834
 30
0
 10
1.153462105090846
 20
0.5938778850875757
 30
0
 10
1.058029137338352
 20
0.443935177606809
 30
0
  0
SPLINE
  5
114
100
AcDbEntity
  8
text
  6
ByLayer
 62
  256
370
   -1
100
AcDbSpline
210
0
220
0
230
0
 70
    8
 71
    3
 72
    8
 73
    4
 74
    0
 42
1e-07
 43
1e-07
 40
0
 40
0
 40
0
 40
0
 40
1
 40
1
 40
1
 40
1
 10
1.058029137338352
 20
0.443935177606809
 30
0
 10
0.9625961695858507
 20
0.2939924701260423
 30
0
 10
0.8275495171059077
 20
0.182517596988049
 30
0
 10
0.6528891798985086
 20
0.1095105581928308
 30
0
  0
SPLINE
  5
115
100
AcDbEntity
  8
text
  6
ByLayer
 62
  256
370
   -1
100
AcDbSpline
210
0
220
0
230
0
 70
    8
 71
    3
 72
    8
 73
    4
 74
    0
 42
1e-07
 43
1e-07
 40
0
 40
0
 40
0
 40
0
 40
1
 40
1
 40
1
 40
1
 10
0.6528891798985086
 20
0.1095105581928308
 30
0
 10
0.4782288426911094
 20
0.0365035193976091
 30
0
 10
0.2605991160582732
 20
0
 30
0
 10
0
 20
0
 30
0
  0
SPLINE
  5
116
100
AcDbEntity
  8
text
  6
ByLayer
 62
  256
370
   -1
100
AcDbSpline
210
0
220
0
230
0
 70
    8
 71
    3
 72
    8
 73
    4
 74
    0
 42
1e-07
 43
1e-07
 40
0
 40
0
 40
0
 40
0
 40
1
 40
1
 40
1
 40
1
 10
0
 20
0
 30
0
 10
-0.379112784416435
 20
0
 30
0
 10
-0.6703224750368335
 20
0.0876575544278921
 30
0
 10
-0.8736290718611883
 20
0.26297266328368
 30
0
  0
SPLINE
  5
117
100
AcDbEntity
  8
text
  6
ByLayer
 62
  256
370
   -1
100
AcDbSpline
210
0
220
0
230
0
 70
    8
 71
    3
 72
    8
 73
    4
 74
    0
 42
1e-07
 43
1e-07
 40
0
 40
0
 40
0
 40
0
 40
1
 40
1
 40
1
 40
1
 10
-0.8736290718611883
 20
0.26297266328368
 30
0
 10
-1.07693566868555
 20
0.438287772139466
 30
0
 10
-1.198395809461452
 20
0.6937305614666887
 30
0
 10
-1.238009494188901
 20
1.029301031265346
 30
0
  0
LINE
  5
118
100
AcDbEntity
  8
text
  6
ByLayer
 62
  256
370
   -1
100
AcDbLine
 10
1.712882632182023
 20
0.0530365035193974
 11
1.712882632182023
 21
3.053036503519397
  0
LINE
  5
119
100
AcDbEntity
  8
text
  6
ByLayer
 62
  256
370
   -1
100
AcDbLine
 10
1.712882632182023
 20
3.053036503519397
 11
3.93697822884269
 21
3.053036503519397
  0
LINE
  5
11A
100
AcDbEntity
  8
text
  6
ByLayer
 62
  256
370
   -1
100
AcDbLine
 10
3.93697822884269
 20
3.053036503519397
 11
3.93697822884269
 21
2.545261090194794
  0
LINE
  5
11B
100
AcDbEntity
  8
text
  6
ByLayer
 62
  256
370
   -1
100
AcDbLine
 10
3.93697822884269
 20
2.545261090194794
 11
2.318382714028481
 21
2.545261090194794
  0
LINE
  5
11C
100
AcDbEntity
  8
text
  6
ByLayer
 62
  256
370
   -1
100
AcDbLine
 10
2.318382714028481
 20
2.545261090194794
 11
2.318382714028481
 21
1.880340481257161
  0
LINE
  5
11D
100
AcDbEntity
  8
text
  6
ByLayer
 62
  256
370
   -1
100
AcDbLine
 10
2.318382714028481
 20
1.880340481257161
 11
3.824521198232112
 21
1.880340481257161
  0
LINE
  5
11E
100
AcDbEntity
  8
text
  6
ByLayer
 62
  256
370
   -1
100
AcDbLine
 10
3.824521198232112
 20
1.880340481257161
 11
3.824521198232112
 21
1.375020461614012
  0
LINE
  5
11F
100
AcDbEntity
  8
text
  6
ByLayer
 62
  256
370
   -1
100
AcDbLine
 10
3.824521198232112
 20
1.375020461614012
 11
2.318382714028481
 21
1.375020461614012
  0
LINE
  5
120
100
AcDbEntity
  8
text
  6
ByLayer
 62
  256
370
   -1
100
AcDbLine
 10
2.318382714028481
 20
1.375020461614012
 11
2.318382714028481
 21
0.558356523162546
  0
LINE
  5
121
100
AcDbEntity
  8
text
  6
ByLayer
 62
  256
370
   -1
100
AcDbLine
 10
2.318382714028481
 20
0.558356523162546
 11
3.994434440988698
 21
0.558356523162546
  0
LINE
  5
122
100
AcDbEntity
  8
text
  6
ByLayer
 62
  256
370
   -1
100
AcDbLine
 10
3.994434440988698
 20
0.558356523162546
 11
3.994434440988698
 21
0.0530365035193974
  0
LINE
  5
123
100
AcDbEntity
  8
text
  6
ByLayer
 62
  256
370
   -1
100
AcDbLine
 10
3.994434440988698
 20
0.0530365035193974
 11
1.712882632182023
 21
0.0530365035193974
  0
LINE
  5
124
100
AcDbEntity
  8
text
  6
ByLayer
 62
  256
370
   -1
100
AcDbLine
 10
5.185300376493693
 20
0.0530365035193974
 11
5.185300376493693
 21
2.545261090194794
  0
LINE
  5
125
100
AcDbEntity
  8
text
  6
ByLayer
 62
  256
370
   -1
100
AcDbLine
 10
5.185300376493693
 20
2.545261090194794
 11
4.29497462759862
 21
2.545261090194794
  0
LINE
  5
126
100
AcDbEntity
  8
text
  6
ByLayer
 62
  256
370
   -1
100
AcDbLine
 10
4.29497462759862
 20
2.545261090194794
 11
4.29497462759862
 21
3.053036503519397
  0
LINE
  5
127
100
AcDbEntity
  8
text
  6
ByLayer
 62
  256
370
   -1
100
AcDbLine
 10
4.29497462759862
 20
3.053036503519397
 11
6.679161892290061
 21
3.053036503519397
  0
LINE
  5
128
100
AcDbEntity
  8
text
  6
ByLayer
 62
  256
370
   -1
100
AcDbLine
 10
6.679161892290061
 20
3.053036503519397
 11
6.679161892290061
 21
2.545261090194794
  0
LINE
  5
129
100
AcDbEntity
  8
text
  6
ByLayer
 62
  256
370
   -1
100
AcDbLine
 10
6.679161892290061
 20
2.545261090194794
 11
5.790800458340151
 21
2.545261090194794
  0
LINE
  5
12A
100
AcDbEntity
  8
text
  6
ByLayer
 62
  256
370
   -1
100
AcDbLine
 10
5.790800458340151
 20
2.545261090194794
 11
5.790800458340151
 21
0.0530365035193974
  0
LINE
  5
12B
100
AcDbEntity
  8
text
  6
ByLayer
 62
  256
370
   -1
100
AcDbLine
 10
5.790800458340151
 20
0.0530365035193974
 11
5.185300376493693
 21
0.0530365035193974
  0
ENDBLK
  5
5B
330
59
100
AcDbEntity
  8
0
100
AcDbBlockEnd
  0
BLOCK
  5
5D
330
5C
100
AcDbEntity
  8
0
100
AcDbBlockBegin
  2
ethernet
 70
    0
 10
0
 20
0
  3
ethernet
  1

  0
LINE
  5
12C
100
AcDbEntity
  8
text
  6
ByLayer
 62
  256
370
   -1
100
AcDbLine
 10
-11.76477328531675
 20
0
 11
-11.76477328531675
 21
3
  0
LINE
  5
12D
100
AcDbEntity
  8
text
  6
ByLayer
 62
  256
370
   -1
100
AcDbLine
 10
-11.76477328531675
 20
3
 11
-9.540677688656089
 21
3
  0
LINE
  5
12E
100
AcDbEntity
  8
text
  6
ByLayer
 62
  256
370
   -1
100
AcDbLine
 10
-9.540677688656089
 20
3
 11
-9.540677688656089
 21
2.492224586675398
  0
LINE
  5
12F
100
AcDbEntity
  8
text
  6
ByLayer
 62
  256
370
   -1
100
AcDbLine
 10
-9.540677688656089
 20
2.492224586675398
 11
-11.15927320347029
 21
2.492224586675398
  0
LINE
  5
130
100
AcDbEntity
  8
text
  6
ByLayer
 62
  256
370
   -1
100
AcDbLine
 10
-11.15927320347029
 20
2.492224586675398
 11
-11.15927320347029
 21
1.827303977737763
  0
LINE
  5
131
100
AcDbEntity
  8
text
  6
ByLayer
 62
  256
370
   -1
100
AcDbLine
 10
-11.15927320347029
 20
1.827303977737763
 11
-9.65313471926666
 21
1.827303977737763
  0
LINE
  5
132
100
AcDbEntity
  8
text
  6
ByLayer
 62
  256
370
   -1
100
AcDbLine
 10
-9.65313471926666
 20
1.827303977737763
 11
-9.65313471926666
 21
1.321983958094613
  0
LINE
  5
133
100
AcDbEntity
  8
text
  6
ByLayer
 62
  256
370
   -1
100
AcDbLine
 10
-9.65313471926666
 20
1.321983958094613
 11
-11.15927320347029
 21
1.321983958094613
  0
LINE
  5
134
100
AcDbEntity
  8
text
  6
ByLayer
 62
  256
370
   -1
100
AcDbLine
 10
-11.15927320347029
 20
1.321983958094613
 11
-11.15927320347029
 21
0.5053200196431504
  0
LINE
  5
135
100
AcDbEntity
  8
text
  6
ByLayer
 62
  256
370
   -1
100
AcDbLine
 10
-11.15927320347029
 20
0.5053200196431504
 11
-9.483221476510067
 21
0.5053200196431504
  0
LINE
  5
136
100
AcDbEntity
  8
text
  6
ByLayer
 62
  256
370
   -1
100
AcDbLine
 10
-9.483221476510067
 20
0.5053200196431504
 11
-9.483221476510067
 21
0
  0
LINE
  5
137
100
AcDbEntity
  8
text
  6
ByLayer
 62
  256
370
   -1
100
AcDbLine
 10
-9.483221476510067
 20
0
 11
-11.76477328531675
 21
0
  0
LINE
  5
138
100
AcDbEntity
  8
text
  6
ByLayer
 62
  256
370
   -1
100
AcDbLine
 10
-8.29235554100508
 20
0
 11
-8.29235554100508
 21
2.492224586675398
  0
LINE
  5
139
100
AcDbEntity
  8
text
  6
ByLayer
 62
  256
370
   -1
100
AcDbLine
 10
-8.29235554100508
 20
2.492224586675398
 11
-9.182681289900145
 21
2.492224586675398
  0
LINE
  5
13A
100
AcDbEntity
  8
text
  6
ByLayer
 62
  256
370
   -1
100
AcDbLine
 10
-9.182681289900145
 20
2.492224586675398
 11
-9.182681289900145
 21
3
  0
LINE
  5
13B
100
AcDbEntity
  8
text
  6
ByLayer
 62
  256
370
   -1
100
AcDbLine
 10
-9.182681289900145
 20
3
 11
-6.798494025208711
 21
3
  0
LINE
  5
13C
100
AcDbEntity
  8
text
  6
ByLayer
 62
  256
370
   -1
100
AcDbLine
 10
-6.798494025208711
 20
3
 11
-6.798494025208711
 21
2.492224586675398
  0
LINE
  5
13D
100
AcDbEntity
  8
text
  6
ByLayer
 62
  256
370
   -1
100
AcDbLine
 10
-6.798494025208711
 20
2.492224586675398
 11
-7.686855459158622
 21
2.492224586675398
  0
LINE
  5
13E
100
AcDbEntity
  8
text
  6
ByLayer
 62
  256
370
   -1
100
AcDbLine
 10
-7.686855459158622
 20
2.492224586675398
 11
-7.686855459158622
 21
0
  0
LINE
  5
13F
100
AcDbEntity
  8
text
  6
ByLayer
 62
  256
370
   -1
100
AcDbLine
 10
-7.686855459158622
 20
0
 11
-8.29235554100508
 21
0
  0
LINE
  5
140
100
AcDbEntity
  8
text
  6
ByLayer
 62
  256
370
   -1
100
AcDbLine
 10
-6.419872319528565
 20
0
 11
-6.419872319528565
 21
3
  0
LINE
  5
141
100
AcDbEntity
  8
text
  6
ByLayer
 62
  256
370
   -1
100
AcDbLine
 10
-6.419872319528565
 20
3
 11
-5.814372237682107
 21
3
  0
LINE
  5
142
100
AcDbEntity
  8
text
  6
ByLayer
 62
  256
370
   -1
100
AcDbLine
 10
-5.814372237682107
 20
3
 11
-5.814372237682107
 21
1.818955639220825
  0
LINE
  5
143
100
AcDbEntity
  8
text
  6
ByLayer
 62
  256
370
   -1
100
AcDbLine
 10
-5.814372237682107
 20
1.818955639220825
 11
-4.627434932067445
 21
1.818955639220825
  0
LINE
  5
144
100
AcDbEntity
  8
text
  6
ByLayer
 62
  256
370
   -1
100
AcDbLine
 10
-4.627434932067445
 20
1.818955639220825
 11
-4.627434932067445
 21
3
  0
LINE
  5
145
100
AcDbEntity
  8
text
  6
ByLayer
 62
  256
370
   -1
100
AcDbLine
 10
-4.627434932067445
 20
3
 11
-4.021443771484698
 21
3
  0
LINE
  5
146
100
AcDbEntity
  8
text
  6
ByLayer
 62
  256
370
   -1
100
AcDbLine
 10
-4.021443771484698
 20
3
 11
-4.021443771484698
 21
0
  0
LINE
  5
147
100
AcDbEntity
  8
text
  6
ByLayer
 62
  256
370
   -1
100
AcDbLine
 10
-4.021443771484698
 20
0
 11
-4.627434932067445
 21
0
  0
LINE
  5
148
100
AcDbEntity
  8
text
  6
ByLayer
 62
  256
370
   -1
100
AcDbLine
 10
-4.627434932067445
 20
0
 11
-4.627434932067445
 21
1.311671304632512
  0
LINE
  5
149
100
AcDbEntity
  8
text
  6
ByLayer
 62
  256
370
   -1
100
AcDbLine
 10
-4.627434932067445
 20
1.311671304632512
 11
-5.814372237682107
 21
1.311671304632512
  0
LINE
  5
14A
100
AcDbEntity
  8
text
  6
ByLayer
 62
  256
370
   -1
100
AcDbLine
 10
-5.814372237682107
 20
1.311671304632512
 11
-5.814372237682107
 21
0
  0
LINE
  5
14B
100
AcDbEntity
  8
text
  6
ByLayer
 62
  256
370
   -1
100
AcDbLine
 10
-5.814372237682107
 20
0
 11
-6.419872319528565
 21
0
  0
LINE
  5
14C
100
AcDbEntity
  8
text
  6
ByLayer
 62
  256
370
   -1
100
AcDbLine
 10
-3.404648878703554
 20
0
 11
-3.404648878703554
 21
3
  0
LINE
  5
14D
100
AcDbEntity
  8
text
  6
ByLayer
 62
  256
370
   -1
100
AcDbLine
 10
-3.404648878703554
 20
3
 11
-1.180553282042894
 21
3
  0
LINE
  5
14E
100
AcDbEntity
  8
text
  6
ByLayer
 62
  256
370
   -1
100
AcDbLine
 10
-1.180553282042894
 20
3
 11
-1.180553282042894
 21
2.492224586675398
  0
LINE
  5
14F
100
AcDbEntity
  8
text
  6
ByLayer
 62
  256
370
   -1
100
AcDbLine
 10
-1.180553282042894
 20
2.492224586675398
 11
-2.799148796857096
 21
2.492224586675398
  0
LINE
  5
150
100
AcDbEntity
  8
text
  6
ByLayer
 62
  256
370
   -1
100
AcDbLine
 10
-2.799148796857096
 20
2.492224586675398
 11
-2.799148796857096
 21
1.827303977737763
  0
LINE
  5
151
100
AcDbEntity
  8
text
  6
ByLayer
 62
  256
370
   -1
100
AcDbLine
 10
-2.799148796857096
 20
1.827303977737763
 11
-1.293010312653465
 21
1.827303977737763
  0
LINE
  5
152
100
AcDbEntity
  8
text
  6
ByLayer
 62
  256
370
   -1
100
AcDbLine
 10
-1.293010312653465
 20
1.827303977737763
 11
-1.293010312653465
 21
1.321983958094613
  0
LINE
  5
153
100
AcDbEntity
  8
text
  6
ByLayer
 62
  256
370
   -1
100
AcDbLine
 10
-1.293010312653465
 20
1.321983958094613
 11
-2.799148796857096
 21
1.321983958094613
  0
LINE
  5
154
100
AcDbEntity
  8
text
  6
ByLayer
 62
  256
370
   -1
100
AcDbLine
 10
-2.799148796857096
 20
1.321983958094613
 11
-2.799148796857096
 21
0.5053200196431504
  0
LINE
  5
155
100
AcDbEntity
  8
text
  6
ByLayer
 62
  256
370
   -1
100
AcDbLine
 10
-2.799148796857096
 20
0.5053200196431504
 11
-1.123097069896872
 21
0.5053200196431504
  0
LINE
  5
156
100
AcDbEntity
  8
text
  6
ByLayer
 62
  256
370
   -1
100
AcDbLine
 10
-1.123097069896872
 20
0.5053200196431504
 11
-1.123097069896872
 21
0
  0
LINE
  5
157
100
AcDbEntity
  8
text
  6
ByLayer
 62
  256
370
   -1
100
AcDbLine
 10
-1.123097069896872
 20
0
 11
-3.404648878703554
 21
0
  0
LINE
  5
158
100
AcDbEntity
  8
text
  6
ByLayer
 62
  256
370
   -1
100
AcDbLine
 10
-0.6055000818464578
 20
0
 11
-0.6055000818464578
 21
3
  0
LINE
  5
159
100
AcDbEntity
  8
text
  6
ByLayer
 62
  256
370
   -1
100
AcDbLine
 10
-0.6055000818464578
 20
3
 11
0.6693403175642487
 21
3
  0
SPLINE
  5
15A
100
AcDbEntity
  8
text
  6
ByLayer
 62
  256
370
   -1
100
AcDbSpline
210
0
220
0
230
0
 70
    8
 71
    3
 72
    8
 73
    4
 74
    0
 42
1e-07
 43
1e-07
 40
0
 40
0
 40
0
 40
0
 40
1
 40
1
 40
1
 40
1
 10
0.6693403175642487
 20
3
 30
0
 10
0.989851039449988
 20
3
 30
0
 10
1.22278605336389
 20
2.973072515960055
 30
0
 10
1.368145359305942
 20
2.91921754788018
 30
0
  0
SPLINE
  5
15B
100
AcDbEntity
  8
text
  6
ByLayer
 62
  256
370
   -1
100
AcDbSpline
210
0
220
0
230
0
 70
    8
 71
    3
 72
    8
 73
    4
 74
    0
 42
1e-07
 43
1e-07
 40
0
 40
0
 40
0
 40
0
 40
1
 40
1
 40
1
 40
1
 10
1.368145359305942
 20
2.91921754788018
 30
0
 10
1.513504665247993
 20
2.865362579800291
 30
0
 10
1.629808479292848
 20
2.769520379767556
 30
0
 10
1.717056801440492
 20
2.631690947781962
 30
0
  0
SPLINE
  5
15C
100
AcDbEntity
  8
text
  6
ByLayer
 62
  256
370
   -1
100
AcDbSpline
210
0
220
0
230
0
 70
    8
 71
    3
 72
    8
 73
    4
 74
    0
 42
1e-07
 43
1e-07
 40
0
 40
0
 40
0
 40
0
 40
1
 40
1
 40
1
 40
1
 10
1.717056801440492
 20
2.631690947781962
 30
0
 10
1.804305123588151
 20
2.493861515796368
 30
0
 10
1.847929284661973
 20
2.336225241447046
 30
0
 10
1.847929284661973
 20
2.158782124733996
 30
0
  0
SPLINE
  5
15D
100
AcDbEntity
  8
text
  6
ByLayer
 62
  256
370
   -1
100
AcDbSpline
210
0
220
0
230
0
 70
    8
 71
    3
 72
    8
 73
    4
 74
    0
 42
1e-07
 43
1e-07
 40
0
 40
0
 40
0
 40
0
 40
1
 40
1
 40
1
 40
1
 10
1.847929284661973
 20
2.158782124733996
 30
0
 10
1.847929284661973
 20
1.933868063512847
 30
0
 10
1.78179734817482
 20
1.748076608282858
 30
0
 10
1.649533475200528
 20
1.601407759044037
 30
0
  0
SPLINE
  5
15E
100
AcDbEntity
  8
text
  6
ByLayer
 62
  256
370
   -1
100
AcDbSpline
210
0
220
0
230
0
 70
    8
 71
    3
 72
    8
 73
    4
 74
    0
 42
1e-07
 43
1e-07
 40
0
 40
0
 40
0
 40
0
 40
1
 40
1
 40
1
 40
1
 10
1.649533475200528
 20
1.601407759044037
 30
0
 10
1.517269602226222
 20
1.454738909805208
 30
0
 10
1.319528564413162
 20
1.362252414470454
 30
0
 10
1.056310361761334
 20
1.323948273039775
 30
0
  0
SPLINE
  5
15F
100
AcDbEntity
  8
text
  6
ByLayer
 62
  256
370
   -1
100
AcDbSpline
210
0
220
0
230
0
 70
    8
 71
    3
 72
    8
 73
    4
 74
    0
 42
1e-07
 43
1e-07
 40
0
 40
0
 40
0
 40
0
 40
1
 40
1
 40
1
 40
1
 10
1.056310361761334
 20
1.323948273039775
 30
0
 10
1.18726469143887
 20
1.247667376002617
 30
0
 10
1.295383859878868
 20
1.163774758552954
 30
0
 10
1.380667867081357
 20
1.072270420690785
 30
0
  0
SPLINE
  5
160
100
AcDbEntity
  8
text
  6
ByLayer
 62
  256
370
   -1
100
AcDbSpline
210
0
220
0
230
0
 70
    8
 71
    3
 72
    8
 73
    4
 74
    0
 42
1e-07
 43
1e-07
 40
0
 40
0
 40
0
 40
0
 40
1
 40
1
 40
1
 40
1
 10
1.380667867081357
 20
1.072270420690785
 30
0
 10
1.465951874283846
 20
0.980766082828616
 30
0
 10
1.58078245211982
 20
0.8184645604845286
 30
0
 10
1.725159600589294
 20
0.5853658536585371
 30
0
  0
LINE
  5
161
100
AcDbEntity
  8
text
  6
ByLayer
 62
  256
370
   -1
100
AcDbLine
 10
1.725159600589294
 20
0.5853658536585371
 11
2.091504337862162
 21
0
  0
LINE
  5
162
100
AcDbEntity
  8
text
  6
ByLayer
 62
  256
370
   -1
100
AcDbLine
 10
2.091504337862162
 20
0
 11
1.367163201833364
 21
0
  0
LINE
  5
163
100
AcDbEntity
  8
text
  6
ByLayer
 62
  256
370
   -1
100
AcDbLine
 10
1.367163201833364
 20
0
 11
0.9291209690620406
 21
0.6526436405303642
  0
SPLINE
  5
164
100
AcDbEntity
  8
text
  6
ByLayer
 62
  256
370
   -1
100
AcDbSpline
210
0
220
0
230
0
 70
    8
 71
    3
 72
    8
 73
    4
 74
    0
 42
1e-07
 43
1e-07
 40
0
 40
0
 40
0
 40
0
 40
1
 40
1
 40
1
 40
1
 10
0.9291209690620406
 20
0.6526436405303642
 30
0
 10
0.7736127025699773
 20
0.8860697331805554
 30
0
 10
0.6672123097069829
 20
1.033147814699625
 30
0
 10
0.6099197904730715
 20
1.093877885087572
 30
0
  0
SPLINE
  5
165
100
AcDbEntity
  8
text
  6
ByLayer
 62
  256
370
   -1
100
AcDbSpline
210
0
220
0
230
0
 70
    8
 71
    3
 72
    8
 73
    4
 74
    0
 42
1e-07
 43
1e-07
 40
0
 40
0
 40
0
 40
0
 40
1
 40
1
 40
1
 40
1
 10
0.6099197904730715
 20
1.093877885087572
 30
0
 10
0.5526272712391602
 20
1.154607955475527
 30
0
 10
0.4919790473072538
 20
1.196185955148145
 30
0
 10
0.4279751186773666
 20
1.218611884105421
 30
0
  0
SPLINE
  5
166
100
AcDbEntity
  8
text
  6
ByLayer
 62
  256
370
   -1
100
AcDbSpline
210
0
220
0
230
0
 70
    8
 71
    3
 72
    8
 73
    4
 74
    0
 42
1e-07
 43
1e-07
 40
0
 40
0
 40
0
 40
0
 40
1
 40
1
 40
1
 40
1
 10
0.4279751186773666
 20
1.218611884105421
 30
0
 10
0.3639711900474794
 20
1.241037813062697
 30
0
 10
0.2622360451792503
 20
1.252250777541335
 30
0
 10
0.1227696840726793
 20
1.252250777541335
 30
0
  0
LINE
  5
167
100
AcDbEntity
  8
text
  6
ByLayer
 62
  256
370
   -1
100
AcDbLine
 10
0.1227696840726793
 20
1.252250777541335
 11
0
 21
1.252250777541335
  0
LINE
  5
168
100
AcDbEntity
  8
text
  6
ByLayer
 62
  256
370
   -1
100
AcDbLine
 10
0
 20
1.252250777541335
 11
0
 21
0
  0
LINE
  5
169
100
AcDbEntity
  8
text
  6
ByLayer
 62
  256
370
   -1
100
AcDbLine
 10
0
 20
0
 11
-0.6055000818464578
 21
0
  0
LINE
  5
16A
100
AcDbEntity
  8
text
  6
ByLayer
 62
  256
370
   -1
100
AcDbLine
 10
0
 20
1.731052545424781
 11
0.4483548862334175
 21
1.731052545424781
  0
SPLINE
  5
16B
100
AcDbEntity
  8
text
  6
ByLayer
 62
  256
370
   -1
100
AcDbSpline
210
0
220
0
230
0
 70
    8
 71
    3
 72
    8
 73
    4
 74
    0
 42
1e-07
 43
1e-07
 40
0
 40
0
 40
0
 40
0
 40
1
 40
1
 40
1
 40
1
 10
0.4483548862334175
 20
1.731052545424781
 30
0
 10
0.7390734981175342
 20
1.731052545424781
 30
0
 10
0.9205270911769503
 20
1.743329513832052
 30
0
 10
0.9927156654116942
 20
1.767883450646586
 30
0
  0
SPLINE
  5
16C
100
AcDbEntity
  8
text
  6
ByLayer
 62
  256
370
   -1
100
AcDbSpline
210
0
220
0
230
0
 70
    8
 71
    3
 72
    8
 73
    4
 74
    0
 42
1e-07
 43
1e-07
 40
0
 40
0
 40
0
 40
0
 40
1
 40
1
 40
1
 40
1
 10
0.9927156654116942
 20
1.767883450646586
 30
0
 10
1.064904239646424
 20
1.792437387461121
 30
0
 10
1.121460140775909
 20
1.834752005238173
 30
0
 10
1.162383368800135
 20
1.894827303977735
 30
0
  0
SPLINE
  5
16D
100
AcDbEntity
  8
text
  6
ByLayer
 62
  256
370
   -1
100
AcDbSpline
210
0
220
0
230
0
 70
    8
 71
    3
 72
    8
 73
    4
 74
    0
 42
1e-07
 43
1e-07
 40
0
 40
0
 40
0
 40
0
 40
1
 40
1
 40
1
 40
1
 10
1.162383368800135
 20
1.894827303977735
 30
0
 10
1.203306596824362
 20
1.954902602717304
 30
0
 10
1.223768210836468
 20
2.029955802913733
 30
0
 10
1.223768210836468
 20
2.119986904567028
 30
0
  0
SPLINE
  5
16E
100
AcDbEntity
  8
text
  6
ByLayer
 62
  256
370
   -1
100
AcDbSpline
210
0
220
0
230
0
 70
    8
 71
    3
 72
    8
 73
    4
 74
    0
 42
1e-07
 43
1e-07
 40
0
 40
0
 40
0
 40
0
 40
1
 40
1
 40
1
 40
1
 10
1.223768210836468
 20
2.119986904567028
 30
0
 10
1.223768210836468
 20
2.220821738418728
 30
0
 10
1.196840726796538
 20
2.302340808642988
 30
0
 10
1.142985758716648
 20
2.364544115239809
 30
0
  0
SPLINE
  5
16F
100
AcDbEntity
  8
text
  6
ByLayer
 62
  256
370
   -1
100
AcDbSpline
210
0
220
0
230
0
 70
    8
 71
    3
 72
    8
 73
    4
 74
    0
 42
1e-07
 43
1e-07
 40
0
 40
0
 40
0
 40
0
 40
1
 40
1
 40
1
 40
1
 10
1.142985758716648
 20
2.364544115239809
 30
0
 10
1.089130790636759
 20
2.426747421836637
 30
0
 10
1.013095432967745
 20
2.466033720739894
 30
0
 10
0.9148796857096073
 20
2.482403011949586
 30
0
  0
SPLINE
  5
170
100
AcDbEntity
  8
text
  6
ByLayer
 62
  256
370
   -1
100
AcDbSpline
210
0
220
0
230
0
 70
    8
 71
    3
 72
    8
 73
    4
 74
    0
 42
1e-07
 43
1e-07
 40
0
 40
0
 40
0
 40
0
 40
1
 40
1
 40
1
 40
1
 10
0.9148796857096073
 20
2.482403011949586
 30
0
 10
0.8657718120805384
 20
2.488950728433458
 30
0
 10
0.7184481911933176
 20
2.492224586675398
 30
0
 10
0.472908823047959
 20
2.492224586675398
 30
0
  0
LINE
  5
171
100
AcDbEntity
  8
text
  6
ByLayer
 62
  256
370
   -1
100
AcDbLine
 10
0.472908823047959
 20
2.492224586675398
 11
0
 21
2.492224586675398
  0
LINE
  5
172
100
AcDbEntity
  8
text
  6
ByLayer
 62
  256
370
   -1
100
AcDbLine
 10
0
 20
2.492224586675398
 11
0
 21
1.731052545424781
  0
LINE
  5
173
100
AcDbEntity
  8
text
  6
ByLayer
 62
  256
370
   -1
100
AcDbLine
 10
2.415616303814048
 20
0
 11
2.415616303814048
 21
3
  0
LINE
  5
174
100
AcDbEntity
  8
text
  6
ByLayer
 62
  256
370
   -1
100
AcDbLine
 10
2.415616303814048
 20
3
 11
3.004910787362903
 21
3
  0
LINE
  5
175
100
AcDbEntity
  8
text
  6
ByLayer
 62
  256
370
   -1
100
AcDbLine
 10
3.004910787362903
 20
3
 11
4.233098706825999
 21
0.9963987559338676
  0
LINE
  5
176
100
AcDbEntity
  8
text
  6
ByLayer
 62
  256
370
   -1
100
AcDbLine
 10
4.233098706825999
 20
0.9963987559338676
 11
4.233098706825999
 21
3
  0
LINE
  5
177
100
AcDbEntity
  8
text
  6
ByLayer
 62
  256
370
   -1
100
AcDbLine
 10
4.233098706825999
 20
3
 11
4.795874938615157
 21
3
  0
LINE
  5
178
100
AcDbEntity
  8
text
  6
ByLayer
 62
  256
370
   -1
100
AcDbLine
 10
4.795874938615157
 20
3
 11
4.795874938615157
 21
0
  0
LINE
  5
179
100
AcDbEntity
  8
text
  6
ByLayer
 62
  256
370
   -1
100
AcDbLine
 10
4.795874938615157
 20
0
 11
4.187919463087255
 21
0
  0
LINE
  5
17A
100
AcDbEntity
  8
text
  6
ByLayer
 62
  256
370
   -1
100
AcDbLine
 10
4.187919463087255
 20
0
 11
2.978392535603206
 21
1.956457685382226
  0
LINE
  5
17B
100
AcDbEntity
  8
text
  6
ByLayer
 62
  256
370
   -1
100
AcDbLine
 10
2.978392535603206
 20
1.956457685382226
 11
2.978392535603206
 21
0
  0
LINE
  5
17C
100
AcDbEntity
  8
text
  6
ByLayer
 62
  256
370
   -1
100
AcDbLine
 10
2.978392535603206
 20
0
 11
2.415616303814048
 21
0
  0
LINE
  5
17D
100
AcDbEntity
  8
text
  6
ByLayer
 62
  256
370
   -1
100
AcDbLine
 10
5.426911114748734
 20
0
 11
5.426911114748734
 21
3
  0
LINE
  5
17E
100
AcDbEntity
  8
text
  6
ByLayer
 62
  256
370
   -1
100
AcDbLine
 10
5.426911114748734
 20
3
 11
7.651006711409394
 21
3
  0
LINE
  5
17F
100
AcDbEntity
  8
text
  6
ByLayer
 62
  256
370
   -1
100
AcDbLine
 10
7.651006711409394
 20
3
 11
7.651006711409394
 21
2.492224586675398
  0
LINE
  5
180
100
AcDbEntity
  8
text
  6
ByLayer
 62
  256
370
   -1
100
AcDbLine
 10
7.651006711409394
 20
2.492224586675398
 11
6.032411196595191
 21
2.492224586675398
  0
LINE
  5
181
100
AcDbEntity
  8
text
  6
ByLayer
 62
  256
370
   -1
100
AcDbLine
 10
6.032411196595191
 20
2.492224586675398
 11
6.032411196595191
 21
1.827303977737763
  0
LINE
  5
182
100
AcDbEntity
  8
text
  6
ByLayer
 62
  256
370
   -1
100
AcDbLine
 10
6.032411196595191
 20
1.827303977737763
 11
7.538549680798823
 21
1.827303977737763
  0
LINE
  5
183
100
AcDbEntity
  8
text
  6
ByLayer
 62
  256
370
   -1
100
AcDbLine
 10
7.538549680798823
 20
1.827303977737763
 11
7.538549680798823
 21
1.321983958094613
  0
LINE
  5
184
100
AcDbEntity
  8
text
  6
ByLayer
 62
  256
370
   -1
100
AcDbLine
 10
7.538549680798823
 20
1.321983958094613
 11
6.032411196595191
 21
1.321983958094613
  0
LINE
  5
185
100
AcDbEntity
  8
text
  6
ByLayer
 62
  256
370
   -1
100
AcDbLine
 10
6.032411196595191
 20
1.321983958094613
 11
6.032411196595191
 21
0.5053200196431504
  0
LINE
  5
186
100
AcDbEntity
  8
text
  6
ByLayer
 62
  256
370
   -1
100
AcDbLine
 10
6.032411196595191
 20
0.5053200196431504
 11
7.708462923555416
 21
0.5053200196431504
  0
LINE
  5
187
100
AcDbEntity
  8
text
  6
ByLayer
 62
  256
370
   -1
100
AcDbLine
 10
7.708462923555416
 20
0.5053200196431504
 11
7.708462923555416
 21
0
  0
LINE
  5
188
100
AcDbEntity
  8
text
  6
ByLayer
 62
  256
370
   -1
100
AcDbLine
 10
7.708462923555416
 20
0
 11
5.426911114748734
 21
0
  0
LINE
  5
189
100
AcDbEntity
  8
text
  6
ByLayer
 62
  256
370
   -1
100
AcDbLine
 10
8.899328859060404
 20
0
 11
8.899328859060404
 21
2.492224586675398
  0
LINE
  5
18A
100
AcDbEntity
  8
text
  6
ByLayer
 62
  256
370
   -1
100
AcDbLine
 10
8.899328859060404
 20
2.492224586675398
 11
8.009003110165324
 21
2.492224586675398
  0
LINE
  5
18B
100
AcDbEntity
  8
text
  6
ByLayer
 62
  256
370
   -1
100
AcDbLine
 10
8.009003110165324
 20
2.492224586675398
 11
8.009003110165324
 21
3
  0
LINE
  5
18C
100
AcDbEntity
  8
text
  6
ByLayer
 62
  256
370
   -1
100
AcDbLine
 10
8.009003110165324
 20
3
 11
10.39319037485677
 21
3
  0
LINE
  5
18D
100
AcDbEntity
  8
text
  6
ByLayer
 62
  256
370
   -1
100
AcDbLine
 10
10.39319037485677
 20
3
 11
10.39319037485677
 21
2.492224586675398
  0
LINE
  5
18E
100
AcDbEntity
  8
text
  6
ByLayer
 62
  256
370
   -1
100
AcDbLine
 10
10.39319037485677
 20
2.492224586675398
 11
9.504828940906862
 21
2.492224586675398
  0
LINE
  5
18F
100
AcDbEntity
  8
text
  6
ByLayer
 62
  256
370
   -1
100
AcDbLine
 10
9.504828940906862
 20
2.492224586675398
 11
9.504828940906862
 21
0
  0
LINE
  5
190
100
AcDbEntity
  8
text
  6
ByLayer
 62
  256
370
   -1
100
AcDbLine
 10
9.504828940906862
 20
0
 11
8.899328859060404
 21
0
  0
ENDBLK
  5
5E
330
5C
100
AcDbEntity
  8
0
100
AcDbBlockEnd
  0
BLOCK
  5
60
330
5F
100
AcDbEntity
  8
0
100
AcDbBlockBegin
  2
RPi2B_slim_box-clean
 70
    0
 10
0
 20
0
  3
RPi2B_slim_box-clean
  1

  0
ARC
  5
191
100
AcDbEntity
  8
0
  6
ByLayer
 62
  256
370
   -3
100
AcDbCircle
 10
1
 20
90.20000000000002
 40
1
100
AcDbArc
 50
90
 51
180
  0
LINE
  5
192
100
AcDbEntity
  8
0
  6
ByLayer
 62
  256
370
   -3
100
AcDbLine
 10
0
 20
90.20000000000002
 11
0
 21
35.99999999999999
  0
ARC
  5
193
100
AcDbEntity
  8
0
  6
ByLayer
 62
  256
370
   -3
100
AcDbCircle
 10
84.39999999999999
 20
90.20000000000002
 40
1
100
AcDbArc
 50
0
 51
90
  0
LINE
  5
194
100
AcDbEntity
  8
0
  6
ByLayer
 62
  256
370
   -3
100
AcDbLine
 10
84.40000000000001
 20
91.20000000000002
 11
65.7
 21
91.20000000000002
  0
ARC
  5
195
100
AcDbEntity
  8
0
  6
ByLayer
 62
  256
370
   -3
100
AcDbCircle
 10
84.39999999999999
 20
35.99999999999999
 40
1
100
AcDbArc
 50
270
 51
0
  0
LINE
  5
196
100
AcDbEntity
  8
0
  6
ByLayer
 62
  256
370
   -3
100
AcDbLine
 10
85.40000000000001
 20
35.99999999999999
 11
85.40000000000001
 21
90.20000000000002
  0
ARC
  5
197
100
AcDbEntity
  8
0
  6
ByLayer
 62
  256
370
   -3
100
AcDbCircle
 10
1
 20
35.99999999999999
 40
1
100
AcDbArc
 50
180
 51
270
  0
LINE
  5
198
100
AcDbEntity
  8
0
  6
ByLayer
 62
  256
370
   -3
100
AcDbLine
 10
1
 20
34.99999999999999
 11
19.69999999999999
 21
34.99999999999999
  0
LINE
  5
199
100
AcDbEntity
  8
0
  6
ByLayer
 62
  256
370
   -3
100
AcDbLine
 10
65.7
 20
91.20000000000002
 11
65.7
 21
93.20000000000002
  0
LINE
  5
19A
100
AcDbEntity
  8
0
  6
ByLayer
 62
  256
370
   -3
100
AcDbLine
 10
31.69999999999999
 20
91.20000000000002
 11
31.69999999999999
 21
93.20000000000002
  0
LINE
  5
19B
100
AcDbEntity
  8
0
  6
ByLayer
 62
  256
370
   -3
100
AcDbLine
 10
19.69999999999999
 20
34.99999999999999
 11
19.69999999999999
 21
32.99999999999999
  0
LINE
  5
19C
100
AcDbEntity
  8
0
  6
ByLayer
 62
  256
370
   -3
100
AcDbLine
 10
53.70000000000002
 20
34.99999999999999
 11
53.70000000000002
 21
32.99999999999999
  0
LINE
  5
19D
100
AcDbEntity
  8
0
  6
ByLayer
 62
  256
370
   -3
100
AcDbLine
 10
19.69999999999999
 20
91.20000000000002
 11
1
 21
91.20000000000002
  0
LINE
  5
19E
100
AcDbEntity
  8
0
  6
ByLayer
 62
  256
370
   -3
100
AcDbLine
 10
53.70000000000002
 20
91.20000000000002
 11
31.69999999999999
 21
91.20000000000002
  0
LINE
  5
19F
100
AcDbEntity
  8
0
  6
ByLayer
 62
  256
370
   -3
100
AcDbLine
 10
31.69999999999999
 20
34.99999999999999
 11
53.70000000000002
 21
34.99999999999999
  0
LINE
  5
1A0
100
AcDbEntity
  8
0
  6
ByLayer
 62
  256
370
   -3
100
AcDbLine
 10
65.7
 20
34.99999999999999
 11
84.40000000000001
 21
34.99999999999999
  0
ARC
  5
1A1
100
AcDbEntity
  8
0
  6
ByLayer
 62
  256
370
   -3
100
AcDbCircle
 10
30.69999999999999
 20
32.99999999999999
 40
1
100
AcDbArc
 50
270
 51
0
  0
LINE
  5
1A2
100
AcDbEntity
  8
0
  6
ByLayer
 62
  256
370
   -3
100
AcDbLine
 10
31.69999999999999
 20
32.99999999999999
 11
31.69999999999999
 21
34.99999999999999
  0
ARC
  5
1A3
100
AcDbEntity
  8
0
  6
ByLayer
 62
  256
370
   -3
100
AcDbCircle
 10
54.70000000000002
 20
32.99999999999999
 40
1
100
AcDbArc
 50
180
 51
270
  0
ARC
  5
1A4
100
AcDbEntity
  8
0
  6
ByLayer
 62
  256
370
   -3
100
AcDbCircle
 10
64.7
 20
32.99999999999999
 40
1
100
AcDbArc
 50
270
 51
0
  0
LINE
  5
1A5
100
AcDbEntity
  8
0
  6
ByLayer
 62
  256
370
   -3
100
AcDbLine
 10
54.70000000000002
 20
31.99999999999999
 11
64.7
 21
31.99999999999999
  0
LINE
  5
1A6
100
AcDbEntity
  8
0
  6
ByLayer
 62
  256
370
   -3
100
AcDbLine
 10
65.7
 20
32.99999999999999
 11
65.7
 21
34.99999999999999
  0
ARC
  5
1A7
100
AcDbEntity
  8
0
  6
ByLayer
 62
  256
370
   -3
100
AcDbCircle
 10
20.69999999999999
 20
93.20000000000002
 40
1
100
AcDbArc
 50
90
 51
180
  0
ARC
  5
1A8
100
AcDbEntity
  8
0
  6
ByLayer
 62
  256
370
   -3
100
AcDbCircle
 10
30.69999999999999
 20
93.20000000000002
 40
1
100
AcDbArc
 50
0
 51
90
  0
LINE
  5
1A9
100
AcDbEntity
  8
0
  6
ByLayer
 62
  256
370
   -3
100
AcDbLine
 10
30.69999999999999
 20
94.20000000000002
 11
20.69999999999999
 21
94.20000000000002
  0
LINE
  5
1AA
100
AcDbEntity
  8
0
  6
ByLayer
 62
  256
370
   -3
100
AcDbLine
 10
19.69999999999999
 20
93.20000000000002
 11
19.69999999999999
 21
91.20000000000002
  0
ARC
  5
1AB
100
AcDbEntity
  8
0
  6
ByLayer
 62
  256
370
   -3
100
AcDbCircle
 10
54.70000000000002
 20
93.20000000000002
 40
1
100
AcDbArc
 50
90
 51
180
  0
ARC
  5
1AC
100
AcDbEntity
  8
0
  6
ByLayer
 62
  256
370
   -3
100
AcDbCircle
 10
64.7
 20
93.20000000000002
 40
1
100
AcDbArc
 50
0
 51
90
  0
LINE
  5
1AD
100
AcDbEntity
  8
0
  6
ByLayer
 62
  256
370
   -3
100
AcDbLine
 10
64.7
 20
94.20000000000002
 11
54.70000000000002
 21
94.20000000000002
  0
LINE
  5
1AE
100
AcDbEntity
  8
0
  6
ByLayer
 62
  256
370
   -3
100
AcDbLine
 10
53.70000000000002
 20
93.20000000000002
 11
53.70000000000002
 21
91.20000000000002
  0
ARC
  5
1AF
100
AcDbEntity
  8
0
  6
ByLayer
 62
  256
370
   -3
100
AcDbCircle
 10
20.69999999999999
 20
32.99999999999999
 40
1
100
AcDbArc
 50
180
 51
270
  0
LINE
  5
1B0
100
AcDbEntity
  8
0
  6
ByLayer
 62
  256
370
   -3
100
AcDbLine
 10
20.69999999999999
 20
31.99999999999999
 11
30.69999999999999
 21
31.99999999999999
  0
ARC
  5
1B1
100
AcDbEntity
  8
0
  6
ByLayer
 62
  256
370
   -3
100
AcDbCircle
 10
171.8
 20
35.99999999999999
 40
1
100
AcDbArc
 50
270
 51
0
  0
LINE
  5
1B2
100
AcDbEntity
  8
0
  6
ByLayer
 62
  256
370
   -3
100
AcDbLine
 10
172.8
 20
35.99999999999999
 11
172.8
 21
55.25000000000002
  0
ARC
  5
1B3
100
AcDbEntity
  8
0
  6
ByLayer
 62
  256
370
   -3
100
AcDbCircle
 10
88.40000000000001
 20
35.99999999999999
 40
1
100
AcDbArc
 50
180
 51
270
  0
LINE
  5
1B4
100
AcDbEntity
  8
0
  6
ByLayer
 62
  256
370
   -3
100
AcDbLine
 10
88.40000000000001
 20
34.99999999999999
 11
91
 21
34.99999999999999
  0
ARC
  5
1B5
100
AcDbEntity
  8
0
  6
ByLayer
 62
  256
370
   -3
100
AcDbCircle
 10
142.1
 20
32.99999999999999
 40
1
100
AcDbArc
 50
180
 51
270
  0
LINE
  5
1B6
100
AcDbEntity
  8
0
  6
ByLayer
 62
  256
370
   -3
100
AcDbLine
 10
153.1
 20
91.20000000000002
 11
153.1
 21
93.20000000000002
  0
ARC
  5
1B7
100
AcDbEntity
  8
0
  6
ByLayer
 62
  256
370
   -3
100
AcDbCircle
 10
152.1
 20
32.99999999999999
 40
1
100
AcDbArc
 50
270
 51
0
  0
LINE
  5
1B8
100
AcDbEntity
  8
0
  6
ByLayer
 62
  256
370
   -3
100
AcDbLine
 10
142.1
 20
31.99999999999999
 11
152.1
 21
31.99999999999999
  0
LINE
  5
1B9
100
AcDbEntity
  8
0
  6
ByLayer
 62
  256
370
   -3
100
AcDbLine
 10
153.1
 20
32.99999999999999
 11
153.1
 21
34.99999999999999
  0
LINE
  5
1BA
100
AcDbEntity
  8
0
  6
ByLayer
 62
  256
370
   -3
100
AcDbLine
 10
141.1
 20
34.99999999999999
 11
141.1
 21
32.99999999999999
  0
ARC
  5
1BB
100
AcDbEntity
  8
0
  6
ByLayer
 62
  256
370
   -3
100
AcDbCircle
 10
142.1
 20
93.20000000000002
 40
1
100
AcDbArc
 50
90
 51
180
  0
LINE
  5
1BC
100
AcDbEntity
  8
0
  6
ByLayer
 62
  256
370
   -3
100
AcDbLine
 10
141.1
 20
91.20000000000002
 11
94
 21
91.20000000000002
  0
ARC
  5
1BD
100
AcDbEntity
  8
0
  6
ByLayer
 62
  256
370
   -3
100
AcDbCircle
 10
152.1
 20
93.20000000000002
 40
1
100
AcDbArc
 50
0
 51
90
  0
LINE
  5
1BE
100
AcDbEntity
  8
0
  6
ByLayer
 62
  256
370
   -3
100
AcDbLine
 10
94
 20
34.99999999999999
 11
141.1
 21
34.99999999999999
  0
LINE
  5
1BF
100
AcDbEntity
  8
0
  6
ByLayer
 62
  256
370
   -3
100
AcDbLine
 10
152.1
 20
94.20000000000002
 11
142.1
 21
94.20000000000002
  0
ARC
  5
1C0
100
AcDbEntity
  8
0
  6
ByLayer
 62
  256
370
   -3
100
AcDbCircle
 10
88.40000000000001
 20
90.20000000000002
 40
1
100
AcDbArc
 50
90
 51
180
  0
LINE
  5
1C1
100
AcDbEntity
  8
0
  6
ByLayer
 62
  256
370
   -3
100
AcDbLine
 10
141.1
 20
93.20000000000002
 11
141.1
 21
91.20000000000002
  0
LINE
  5
1C2
100
AcDbEntity
  8
0
  6
ByLayer
 62
  256
370
   -3
100
AcDbLine
 10
153.1
 20
34.99999999999999
 11
171.8
 21
34.99999999999999
  0
LINE
  5
1C3
100
AcDbEntity
  8
0
  6
ByLayer
 62
  256
370
   -3
100
AcDbLine
 10
87.40000000000001
 20
90.20000000000002
 11
87.40000000000001
 21
35.99999999999999
  0
LINE
  5
1C4
100
AcDbEntity
  8
0
  6
ByLayer
 62
  256
370
   -3
100
AcDbLine
 10
3.000000000000028
 20
27.00000000000008
 11
3.000000000000028
 21
27.00000000000008
  0
LINE
  5
1C5
100
AcDbEntity
  8
0
  6
ByLayer
 62
  256
370
   -3
100
AcDbLine
 10
6
 20
18.99999999999999
 11
6
 21
11.00000000000006
  0
LINE
  5
1C6
100
AcDbEntity
  8
0
  6
ByLayer
 62
  256
370
   -3
100
AcDbLine
 10
170.3
 20
26.99999999999994
 11
167.4
 21
26.99999999999994
  0
LINE
  5
1C7
100
AcDbEntity
  8
0
  6
ByLayer
 62
  256
370
   -3
100
AcDbLine
 10
94.40000000000001
 20
3
 11
94.40000000000001
 21
1.5
  0
LINE
  5
1C8
100
AcDbEntity
  8
0
  6
ByLayer
 62
  256
370
   -3
100
AcDbLine
 10
167.4
 20
26.99999999999994
 11
167.4
 21
18.00000000000004
  0
LINE
  5
1C9
100
AcDbEntity
  8
0
  6
ByLayer
 62
  256
370
   -3
100
AcDbLine
 10
167.4
 20
18.00000000000004
 11
170.3
 21
17.99999999999994
  0
LINE
  5
1CA
100
AcDbEntity
  8
0
  6
ByLayer
 62
  256
370
   -3
100
AcDbLine
 10
170.3
 20
17.99999999999994
 11
170.3
 21
26.99999999999994
  0
LINE
  5
1CB
100
AcDbEntity
  8
0
  6
ByLayer
 62
  256
370
   -3
100
AcDbLine
 10
170.3
 20
11.10000000000008
 11
167.4
 21
11.10000000000006
  0
ARC
  5
1CC
100
AcDbEntity
  8
0
  6
ByLayer
 62
  256
370
   -3
100
AcDbCircle
 10
94.40000000000001
 20
8
 40
3
100
AcDbArc
 50
0
 51
90
  0
LINE
  5
1CD
100
AcDbEntity
  8
0
  6
ByLayer
 62
  256
370
   -3
100
AcDbLine
 10
167.4
 20
11.10000000000006
 11
167.4
 21
3.100000000000016
  0
LINE
  5
1CE
100
AcDbEntity
  8
0
  6
ByLayer
 62
  256
370
   -3
100
AcDbLine
 10
167.4
 20
3.100000000000016
 11
170.3
 21
3.100000000000016
  0
LINE
  5
1CF
100
AcDbEntity
  8
0
  6
ByLayer
 62
  256
370
   -3
100
AcDbLine
 10
170.3
 20
3.100000000000016
 11
170.3
 21
11.10000000000008
  0
ARC
  5
1D0
100
AcDbEntity
  8
0
  6
ByLayer
 62
  256
370
   -3
100
AcDbCircle
 10
94.40000000000001
 20
4.5
 40
3
100
AcDbArc
 50
270
 51
0
  0
LINE
  5
1D1
100
AcDbEntity
  8
0
  6
ByLayer
 62
  256
370
   -3
100
AcDbLine
 10
94.40000000000001
 20
3
 11
91.40000000000001
 21
3
  0
LINE
  5
1D2
100
AcDbEntity
  8
0
  6
ByLayer
 62
  256
370
   -3
100
AcDbLine
 10
97.40000000000001
 20
4.5
 11
97.40000000000001
 21
5.5
  0
LINE
  5
1D3
100
AcDbEntity
  8
0
  6
ByLayer
 62
  256
370
   -3
100
AcDbLine
 10
111.2
 20
26.99999999999999
 11
108.3
 21
27.00000000000001
  0
LINE
  5
1D4
100
AcDbEntity
  8
0
  6
ByLayer
 62
  256
370
   -3
100
AcDbLine
 10
94.40000000000001
 20
11
 11
91.40000000000001
 21
11
  0
LINE
  5
1D5
100
AcDbEntity
  8
0
  6
ByLayer
 62
  256
370
   -3
100
AcDbLine
 10
108.3
 20
27.00000000000001
 11
108.3
 21
17.99999999999999
  0
LINE
  5
1D6
100
AcDbEntity
  8
0
  6
ByLayer
 62
  256
370
   -3
100
AcDbLine
 10
108.3
 20
17.99999999999999
 11
111.2
 21
17.99999999999999
  0
LINE
  5
1D7
100
AcDbEntity
  8
0
  6
ByLayer
 62
  256
370
   -3
100
AcDbLine
 10
111.2
 20
17.99999999999999
 11
111.2
 21
26.99999999999999
  0
LINE
  5
1D8
100
AcDbEntity
  8
0
  6
ByLayer
 62
  256
370
   -3
100
AcDbLine
 10
91.40000000000001
 20
-1.4210854715202e-14
 11
91.40000000000001
 21
0
  0
LINE
  5
1D9
100
AcDbEntity
  8
0
  6
ByLayer
 62
  256
370
   -3
100
AcDbLine
 10
91.40000000000001
 20
3
 11
91.40000000000001
 21
1
  0
LINE
  5
1DA
100
AcDbEntity
  8
0
  6
ByLayer
 62
  256
370
   -3
100
AcDbLine
 10
111.2
 20
11.1
 11
108.3
 21
11.10000000000001
  0
LINE
  5
1DB
100
AcDbEntity
  8
0
  6
ByLayer
 62
  256
370
   -3
100
AcDbLine
 10
97.40000000000001
 20
7
 11
91.40000000000001
 21
7
  0
LINE
  5
1DC
100
AcDbEntity
  8
0
  6
ByLayer
 62
  256
370
   -3
100
AcDbLine
 10
108.3
 20
11.10000000000001
 11
108.3
 21
3.099999999999987
  0
LINE
  5
1DD
100
AcDbEntity
  8
0
  6
ByLayer
 62
  256
370
   -3
100
AcDbLine
 10
97.40000000000001
 20
5.5
 11
91.40000000000001
 21
5.5
  0
LINE
  5
1DE
100
AcDbEntity
  8
0
  6
ByLayer
 62
  256
370
   -3
100
AcDbLine
 10
108.3
 20
3.099999999999987
 11
111.2
 21
3.099999999999987
  0
LINE
  5
1DF
100
AcDbEntity
  8
0
  6
ByLayer
 62
  256
370
   -3
100
AcDbLine
 10
111.2
 20
3.099999999999987
 11
111.2
 21
11.1
  0
ARC
  5
1E0
100
AcDbEntity
  8
0
  6
ByLayer
 62
  256
370
   -3
100
AcDbCircle
 10
107.2
 20
27.99999999999996
 40
2
100
AcDbArc
 50
90
 51
180
  0
ARC
  5
1E1
100
AcDbEntity
  8
0
  6
ByLayer
 62
  256
370
   -3
100
AcDbCircle
 10
94.739147926181
 20
-42.88837631279537
 40
50
100
AcDbArc
 50
93.82923164416465
 51
103.402064724163
  0
ARC
  5
1E2
100
AcDbEntity
  8
0
  6
ByLayer
 62
  256
370
   -3
100
AcDbCircle
 10
107.2
 20
1.999999999999993
 40
2
100
AcDbArc
 50
180
 51
270
  0
ARC
  5
1E3
100
AcDbEntity
  8
0
  6
ByLayer
 62
  256
370
   -3
100
AcDbCircle
 10
171.4
 20
2.000000000000014
 40
2
100
AcDbArc
 50
270
 51
0
  0
ARC
  5
1E4
100
AcDbEntity
  8
0
  6
ByLayer
 62
  256
370
   -3
100
AcDbCircle
 10
94.73914792618118
 20
-44.38837631279534
 40
50
100
AcDbArc
 50
93.82923164416502
 51
103.4020647241632
  0
ARC
  5
1E5
100
AcDbEntity
  8
0
  6
ByLayer
 62
  256
370
   -3
100
AcDbCircle
 10
171.4
 20
27.99999999999994
 40
2
100
AcDbArc
 50
0
 51
90
  0
LINE
  5
1E6
100
AcDbEntity
  8
0
  6
ByLayer
 62
  256
370
   -3
100
AcDbLine
 10
173.4
 20
2.000000000000028
 11
173.4
 21
27.99999999999999
  0
ARC
  5
1E7
100
AcDbEntity
  8
0
  6
ByLayer
 62
  256
370
   -3
100
AcDbCircle
 10
71.87283509680749
 20
54.46165724696919
 40
50
100
AcDbArc
 50
274.1964839032309
 51
283.0348280905872
  0
LINE
  5
1E8
100
AcDbEntity
  8
0
  6
ByLayer
 62
  256
370
   -3
100
AcDbLine
 10
171.4
 20
29.99999999999994
 11
107.2
 21
29.99999999999999
  0
ARC
  5
1E9
100
AcDbEntity
  8
0
  6
ByLayer
 62
  256
370
   -3
100
AcDbCircle
 10
71.98145073822789
 20
52.98667517781006
 40
50
100
AcDbArc
 50
274.1979042630766
 51
282.9071047091695
  0
LINE
  5
1EA
100
AcDbEntity
  8
0
  6
ByLayer
 62
  256
370
   -3
100
AcDbLine
 10
105.2
 20
27.99999999999999
 11
105.2
 21
2
  0
LINE
  5
1EB
100
AcDbEntity
  8
0
  6
ByLayer
 62
  256
370
   -3
100
AcDbLine
 10
97.40000000000001
 20
7
 11
97.40000000000001
 21
8
  0
LINE
  5
1EC
100
AcDbEntity
  8
0
  6
ByLayer
 62
  256
370
   -3
100
AcDbLine
 10
107.2
 20
0
 11
171.4
 21
2.842170943040401e-14
  0
ARC
  5
1ED
100
AcDbEntity
  8
0
  6
ByLayer
 62
  256
370
   -3
100
AcDbCircle
 10
90.40000000000001
 20
1
 40
1
100
AcDbArc
 50
270
 51
0
  0
LINE
  5
1EE
100
AcDbEntity
  8
0
  6
ByLayer
 62
  256
370
   -3
100
AcDbLine
 10
3
 20
3.000000000000007
 11
3
 21
3.000000000000007
  0
LINE
  5
1EF
100
AcDbEntity
  8
0
  6
ByLayer
 62
  256
370
   -3
100
AcDbLine
 10
59.70000000000002
 20
24.00000000000004
 11
71.7
 21
24.00000000000001
  0
LINE
  5
1F0
100
AcDbEntity
  8
0
  6
ByLayer
 62
  256
370
   -3
100
AcDbLine
 10
71.7
 20
24.00000000000001
 11
71.7
 21
28.00000000000001
  0
ARC
  5
1F1
100
AcDbEntity
  8
0
  6
ByLayer
 62
  256
370
   -3
100
AcDbCircle
 10
3
 20
8.000000000000071
 40
3
100
AcDbArc
 50
90
 51
180
  0
LINE
  5
1F2
100
AcDbEntity
  8
0
  6
ByLayer
 62
  256
370
   -3
100
AcDbLine
 10
37.70000000000002
 20
6.000000000000014
 11
25.69999999999999
 21
6
  0
LINE
  5
1F3
100
AcDbEntity
  8
0
  6
ByLayer
 62
  256
370
   -3
100
AcDbLine
 10
25.69999999999999
 20
6
 11
25.69999999999999
 21
3.000000000000014
  0
ARC
  5
1F4
100
AcDbEntity
  8
0
  6
ByLayer
 62
  256
370
   -3
100
AcDbCircle
 10
3
 20
4.5
 40
3
100
AcDbArc
 50
180
 51
270
  0
LINE
  5
1F5
100
AcDbEntity
  8
0
  6
ByLayer
 62
  256
370
   -3
100
AcDbLine
 10
25.69999999999999
 20
3.000000000000014
 11
37.70000000000002
 21
3.000000000000014
  0
LINE
  5
1F6
100
AcDbEntity
  8
0
  6
ByLayer
 62
  256
370
   -3
100
AcDbLine
 10
37.70000000000002
 20
3.000000000000014
 11
37.70000000000002
 21
6.000000000000014
  0
LINE
  5
1F7
100
AcDbEntity
  8
0
  6
ByLayer
 62
  256
370
   -3
100
AcDbLine
 10
71.7
 20
6
 11
59.7
 21
5.999999999999993
  0
LINE
  5
1F8
100
AcDbEntity
  8
0
  6
ByLayer
 62
  256
370
   -3
100
AcDbLine
 10
0
 20
8.000000000000014
 11
0
 21
7
  0
LINE
  5
1F9
100
AcDbEntity
  8
0
  6
ByLayer
 62
  256
370
   -3
100
AcDbLine
 10
59.7
 20
5.999999999999993
 11
59.7
 21
3
  0
LINE
  5
1FA
100
AcDbEntity
  8
0
  6
ByLayer
 62
  256
370
   -3
100
AcDbLine
 10
59.7
 20
3
 11
71.7
 21
3
  0
LINE
  5
1FB
100
AcDbEntity
  8
0
  6
ByLayer
 62
  256
370
   -3
100
AcDbLine
 10
71.7
 20
3
 11
71.7
 21
6
  0
LINE
  5
1FC
100
AcDbEntity
  8
0
  6
ByLayer
 62
  256
370
   -3
100
AcDbLine
 10
3
 20
3.000000000000007
 11
3
 21
1.500000000000043
  0
LINE
  5
1FD
100
AcDbEntity
  8
0
  6
ByLayer
 62
  256
370
   -3
100
AcDbLine
 10
6
 20
2.999999999999964
 11
6
 21
1
  0
LINE
  5
1FE
100
AcDbEntity
  8
0
  6
ByLayer
 62
  256
370
   -3
100
AcDbLine
 10
6
 20
7.000000000000007
 11
0
 21
7
  0
LINE
  5
1FF
100
AcDbEntity
  8
0
  6
ByLayer
 62
  256
370
   -3
100
AcDbLine
 10
6
 20
5.499999999999972
 11
0
 21
5.499999999999979
  0
LINE
  5
200
100
AcDbEntity
  8
0
  6
ByLayer
 62
  256
370
   -3
100
AcDbLine
 10
6
 20
27.00000000000004
 11
3.000000000000028
 21
27.00000000000008
  0
LINE
  5
201
100
AcDbEntity
  8
0
  6
ByLayer
 62
  256
370
   -3
100
AcDbLine
 10
6
 20
2.999999999999964
 11
3
 21
3.000000000000007
  0
LINE
  5
202
100
AcDbEntity
  8
0
  6
ByLayer
 62
  256
370
   -3
100
AcDbLine
 10
6
 20
11.00000000000006
 11
3
 21
10.99999999999994
  0
LINE
  5
203
100
AcDbEntity
  8
0
  6
ByLayer
 62
  256
370
   -3
100
AcDbLine
 10
94.40000000000001
 20
26.99999999999999
 11
94.40000000000001
 21
26.99999999999999
  0
ARC
  5
204
100
AcDbEntity
  8
0
  6
ByLayer
 62
  256
370
   -3
100
AcDbCircle
 10
25.5277681362405
 20
54.46151758942855
 40
50
100
AcDbArc
 50
256.9644623717125
 51
265.6751792971554
  0
ARC
  5
205
100
AcDbEntity
  8
0
  6
ByLayer
 62
  256
370
   -3
100
AcDbCircle
 10
25.41796385402148
 20
52.98680932678371
 40
50
100
AcDbArc
 50
257.0935835065762
 51
265.6751201250954
  0
ARC
  5
206
100
AcDbEntity
  8
0
  6
ByLayer
 62
  256
370
   -3
100
AcDbCircle
 10
2.660852073818944
 20
-42.88837631279534
 40
50
100
AcDbArc
 50
76.59793527583655
 51
86.17076835583518
  0
LINE
  5
207
100
AcDbEntity
  8
0
  6
ByLayer
 62
  256
370
   -3
100
AcDbLine
 10
3
 20
19.00000000000011
 11
3
 21
19.00000000000011
  0
ARC
  5
208
100
AcDbEntity
  8
0
  6
ByLayer
 62
  256
370
   -3
100
AcDbCircle
 10
2.660852073818916
 20
-44.38837631279532
 40
50
100
AcDbArc
 50
76.59793527583655
 51
86.17076835583478
  0
LINE
  5
209
100
AcDbEntity
  8
0
  6
ByLayer
 62
  256
370
   -3
100
AcDbLine
 10
94.40000000000001
 20
26.99999999999999
 11
91.40000000000001
 21
26.99999999999999
  0
ARC
  5
20A
100
AcDbEntity
  8
0
  6
ByLayer
 62
  256
370
   -3
100
AcDbCircle
 10
21.75846337183143
 20
3.862354034571055
 40
0.7415366281685447
100
AcDbArc
 50
261.3843518154983
 51
90.09506874157877
  0
LINE
  5
20B
100
AcDbEntity
  8
0
  6
ByLayer
 62
  256
370
   -3
100
AcDbLine
 10
0
 20
5.499999999999979
 11
0
 21
4.500000000000021
  0
ARC
  5
20C
100
AcDbEntity
  8
0
  6
ByLayer
 62
  256
370
   -3
100
AcDbCircle
 10
90.40000000000002
 20
28.99999999999999
 40
1
100
AcDbArc
 50
0
 51
90
  0
LINE
  5
20D
100
AcDbEntity
  8
0
  6
ByLayer
 62
  256
370
   -3
100
AcDbLine
 10
90.40000000000002
 20
29.99999999999999
 11
73.7
 21
30.00000000000001
  0
LINE
  5
20E
100
AcDbEntity
  8
0
  6
ByLayer
 62
  256
370
   -3
100
AcDbLine
 10
91.40000000000001
 20
28.99999999999999
 11
91.40000000000001
 21
26.99999999999999
  0
LINE
  5
20F
100
AcDbEntity
  8
0
  6
ByLayer
 62
  256
370
   -3
100
AcDbLine
 10
91.40000000000001
 20
18.99999999999999
 11
91.40000000000001
 21
11
  0
ARC
  5
210
100
AcDbEntity
  8
0
  6
ByLayer
 62
  256
370
   -3
100
AcDbCircle
 10
75.64153662816859
 20
3.86235403457102
 40
0.7415366281685868
100
AcDbArc
 50
98.51919741614992
 51
278.5220807801184
  0
ARC
  5
211
100
AcDbEntity
  8
0
  6
ByLayer
 62
  256
370
   -3
100
AcDbCircle
 10
7
 20
1
 40
1
100
AcDbArc
 50
180
 51
270
  0
LINE
  5
212
100
AcDbEntity
  8
0
  6
ByLayer
 62
  256
370
   -3
100
AcDbLine
 10
7
 20
0
 11
82.00000000000001
 21
0
  0
LINE
  5
213
100
AcDbEntity
  8
0
  6
ByLayer
 62
  256
370
   -3
100
AcDbLine
 10
6
 20
29.00000000000009
 11
6
 21
27.00000000000004
  0
ARC
  5
214
100
AcDbEntity
  8
0
  6
ByLayer
 62
  256
370
   -3
100
AcDbCircle
 10
7
 20
29.00000000000008
 40
1
100
AcDbArc
 50
89.99999999999969
 51
180
  0
LINE
  5
215
100
AcDbEntity
  8
0
  6
ByLayer
 62
  256
370
   -3
100
AcDbLine
 10
3.099999999999994
 20
99.20000000000002
 11
6
 21
99.20000000000002
  0
LINE
  5
216
100
AcDbEntity
  8
0
  6
ByLayer
 62
  256
370
   -3
100
AcDbLine
 10
6
 20
99.20000000000002
 11
6
 21
108.2
  0
LINE
  5
217
100
AcDbEntity
  8
0
  6
ByLayer
 62
  256
370
   -3
100
AcDbLine
 10
6
 20
108.2
 11
3.099999999999994
 21
108.2
  0
LINE
  5
218
100
AcDbEntity
  8
0
  6
ByLayer
 62
  256
370
   -3
100
AcDbLine
 10
3.099999999999994
 20
108.2
 11
3.099999999999994
 21
99.20000000000002
  0
LINE
  5
219
100
AcDbEntity
  8
0
  6
ByLayer
 62
  256
370
   -3
100
AcDbLine
 10
3.099999999999994
 20
115.1
 11
6
 21
115.1
  0
LINE
  5
21A
100
AcDbEntity
  8
0
  6
ByLayer
 62
  256
370
   -3
100
AcDbLine
 10
6
 20
115.1
 11
6
 21
123.1
  0
LINE
  5
21B
100
AcDbEntity
  8
0
  6
ByLayer
 62
  256
370
   -3
100
AcDbLine
 10
6
 20
123.1
 11
3.099999999999994
 21
123.1
  0
LINE
  5
21C
100
AcDbEntity
  8
0
  6
ByLayer
 62
  256
370
   -3
100
AcDbLine
 10
3.099999999999994
 20
123.1
 11
3.099999999999994
 21
115.1
  0
LINE
  5
21D
100
AcDbEntity
  8
0
  6
ByLayer
 62
  256
370
   -3
100
AcDbLine
 10
62.2
 20
99.20000000000002
 11
65.09999999999999
 21
99.20000000000002
  0
LINE
  5
21E
100
AcDbEntity
  8
0
  6
ByLayer
 62
  256
370
   -3
100
AcDbLine
 10
65.09999999999999
 20
99.20000000000002
 11
65.09999999999999
 21
108.2
  0
LINE
  5
21F
100
AcDbEntity
  8
0
  6
ByLayer
 62
  256
370
   -3
100
AcDbLine
 10
65.09999999999999
 20
108.2
 11
62.2
 21
108.2
  0
LINE
  5
220
100
AcDbEntity
  8
0
  6
ByLayer
 62
  256
370
   -3
100
AcDbLine
 10
62.2
 20
108.2
 11
62.2
 21
99.20000000000002
  0
LINE
  5
221
100
AcDbEntity
  8
0
  6
ByLayer
 62
  256
370
   -3
100
AcDbLine
 10
62.2
 20
115.1
 11
65.09999999999999
 21
115.1
  0
LINE
  5
222
100
AcDbEntity
  8
0
  6
ByLayer
 62
  256
370
   -3
100
AcDbLine
 10
65.09999999999999
 20
115.1
 11
65.09999999999999
 21
123.1
  0
LINE
  5
223
100
AcDbEntity
  8
0
  6
ByLayer
 62
  256
370
   -3
100
AcDbLine
 10
65.09999999999999
 20
123.1
 11
62.2
 21
123.1
  0
LINE
  5
224
100
AcDbEntity
  8
0
  6
ByLayer
 62
  256
370
   -3
100
AcDbLine
 10
62.2
 20
123.1
 11
62.2
 21
115.1
  0
ARC
  5
225
100
AcDbEntity
  8
0
  6
ByLayer
 62
  256
370
   -3
100
AcDbCircle
 10
66.2
 20
98.20000000000002
 40
2
100
AcDbArc
 50
270
 51
0
  0
ARC
  5
226
100
AcDbEntity
  8
0
  6
ByLayer
 62
  256
370
   -3
100
AcDbCircle
 10
66.2
 20
124.2
 40
2
100
AcDbArc
 50
0
 51
90
  0
ARC
  5
227
100
AcDbEntity
  8
0
  6
ByLayer
 62
  256
370
   -3
100
AcDbCircle
 10
2
 20
124.2
 40
2
100
AcDbArc
 50
90
 51
180
  0
ARC
  5
228
100
AcDbEntity
  8
0
  6
ByLayer
 62
  256
370
   -3
100
AcDbCircle
 10
2
 20
98.20000000000002
 40
2
100
AcDbArc
 50
180
 51
270
  0
LINE
  5
229
100
AcDbEntity
  8
0
  6
ByLayer
 62
  256
370
   -3
100
AcDbLine
 10
0
 20
124.2
 11
0
 21
98.20000000000002
  0
LINE
  5
22A
100
AcDbEntity
  8
0
  6
ByLayer
 62
  256
370
   -3
100
AcDbLine
 10
2
 20
96.20000000000002
 11
66.2
 21
96.20000000000002
  0
LINE
  5
22B
100
AcDbEntity
  8
0
  6
ByLayer
 62
  256
370
   -3
100
AcDbLine
 10
68.2
 20
98.20000000000002
 11
68.2
 21
124.2
  0
LINE
  5
22C
100
AcDbEntity
  8
0
  6
ByLayer
 62
  256
370
   -3
100
AcDbLine
 10
66.2
 20
126.2
 11
2
 21
126.2
  0
LINE
  5
22D
100
AcDbEntity
  8
0
  6
ByLayer
 62
  256
370
   -3
100
AcDbLine
 10
146.6
 20
102.2
 11
134.6
 21
102.2
  0
LINE
  5
22E
100
AcDbEntity
  8
0
  6
ByLayer
 62
  256
370
   -3
100
AcDbLine
 10
134.6
 20
102.2
 11
134.6
 21
98.20000000000002
  0
LINE
  5
22F
100
AcDbEntity
  8
0
  6
ByLayer
 62
  256
370
   -3
100
AcDbLine
 10
134.6
 20
120.2
 11
146.6
 21
120.2
  0
LINE
  5
230
100
AcDbEntity
  8
0
  6
ByLayer
 62
  256
370
   -3
100
AcDbLine
 10
146.6
 20
120.2
 11
146.6
 21
123.2
  0
LINE
  5
231
100
AcDbEntity
  8
0
  6
ByLayer
 62
  256
370
   -3
100
AcDbLine
 10
146.6
 20
123.2
 11
134.6
 21
123.2
  0
LINE
  5
232
100
AcDbEntity
  8
0
  6
ByLayer
 62
  256
370
   -3
100
AcDbLine
 10
134.6
 20
123.2
 11
134.6
 21
120.2
  0
LINE
  5
233
100
AcDbEntity
  8
0
  6
ByLayer
 62
  256
370
   -3
100
AcDbLine
 10
100.6
 20
120.2
 11
112.6
 21
120.2
  0
LINE
  5
234
100
AcDbEntity
  8
0
  6
ByLayer
 62
  256
370
   -3
100
AcDbLine
 10
112.6
 20
120.2
 11
112.6
 21
123.2
  0
LINE
  5
235
100
AcDbEntity
  8
0
  6
ByLayer
 62
  256
370
   -3
100
AcDbLine
 10
112.6
 20
123.2
 11
100.6
 21
123.2
  0
LINE
  5
236
100
AcDbEntity
  8
0
  6
ByLayer
 62
  256
370
   -3
100
AcDbLine
 10
100.6
 20
123.2
 11
100.6
 21
120.2
  0
LINE
  5
237
100
AcDbEntity
  8
0
  6
ByLayer
 62
  256
370
   -3
100
AcDbLine
 10
166.3
 20
99.20000000000002
 11
169.3
 21
99.20000000000002
  0
LINE
  5
238
100
AcDbEntity
  8
0
  6
ByLayer
 62
  256
370
   -3
100
AcDbLine
 10
166.3
 20
123.2
 11
169.3
 21
123.2
  0
LINE
  5
239
100
AcDbEntity
  8
0
  6
ByLayer
 62
  256
370
   -3
100
AcDbLine
 10
166.3
 20
115.2
 11
169.3
 21
115.2
  0
LINE
  5
23A
100
AcDbEntity
  8
0
  6
ByLayer
 62
  256
370
   -3
100
AcDbLine
 10
77.90000000000001
 20
99.20000000000002
 11
77.90000000000001
 21
99.20000000000002
  0
LINE
  5
23B
100
AcDbEntity
  8
0
  6
ByLayer
 62
  256
370
   -3
100
AcDbLine
 10
169.3
 20
107.2
 11
169.3
 21
107.2
  0
LINE
  5
23C
100
AcDbEntity
  8
0
  6
ByLayer
 62
  256
370
   -3
100
AcDbLine
 10
77.90000000000001
 20
99.20000000000002
 11
80.90000000000001
 21
99.20000000000002
  0
ARC
  5
23D
100
AcDbEntity
  8
0
  6
ByLayer
 62
  256
370
   -3
100
AcDbCircle
 10
81.90000000000001
 20
97.20000000000002
 40
1
100
AcDbArc
 50
180
 51
270
  0
LINE
  5
23E
100
AcDbEntity
  8
0
  6
ByLayer
 62
  256
370
   -3
100
AcDbLine
 10
81.89999999999999
 20
96.20000000000002
 11
132.6
 21
96.20000000000002
  0
LINE
  5
23F
100
AcDbEntity
  8
0
  6
ByLayer
 62
  256
370
   -3
100
AcDbLine
 10
80.90000000000001
 20
97.20000000000002
 11
80.90000000000001
 21
99.20000000000002
  0
LINE
  5
240
100
AcDbEntity
  8
0
  6
ByLayer
 62
  256
370
   -3
100
AcDbLine
 10
169.3
 20
99.20000000000002
 11
169.3
 21
99.20000000000002
  0
LINE
  5
241
100
AcDbEntity
  8
0
  6
ByLayer
 62
  256
370
   -3
100
AcDbLine
 10
166.3
 20
107.2
 11
166.3
 21
115.2
  0
LINE
  5
242
100
AcDbEntity
  8
0
  6
ByLayer
 62
  256
370
   -3
100
AcDbLine
 10
77.90000000000001
 20
123.2
 11
77.90000000000001
 21
124.7
  0
ARC
  5
243
100
AcDbEntity
  8
0
  6
ByLayer
 62
  256
370
   -3
100
AcDbCircle
 10
77.90000000000001
 20
118.2
 40
3
100
AcDbArc
 50
180
 51
270
  0
ARC
  5
244
100
AcDbEntity
  8
0
  6
ByLayer
 62
  256
370
   -3
100
AcDbCircle
 10
77.90000000000001
 20
121.7
 40
3
100
AcDbArc
 50
90
 51
180
  0
LINE
  5
245
100
AcDbEntity
  8
0
  6
ByLayer
 62
  256
370
   -3
100
AcDbLine
 10
77.90000000000001
 20
123.2
 11
80.90000000000001
 21
123.2
  0
LINE
  5
246
100
AcDbEntity
  8
0
  6
ByLayer
 62
  256
370
   -3
100
AcDbLine
 10
74.90000000000001
 20
121.7
 11
74.90000000000001
 21
120.7
  0
LINE
  5
247
100
AcDbEntity
  8
0
  6
ByLayer
 62
  256
370
   -3
100
AcDbLine
 10
77.90000000000001
 20
115.2
 11
80.90000000000001
 21
115.2
  0
LINE
  5
248
100
AcDbEntity
  8
0
  6
ByLayer
 62
  256
370
   -3
100
AcDbLine
 10
80.40000000000001
 20
126.2
 11
80.40000000000001
 21
126.2
  0
LINE
  5
249
100
AcDbEntity
  8
0
  6
ByLayer
 62
  256
370
   -3
100
AcDbLine
 10
80.90000000000001
 20
123.2
 11
80.90000000000001
 21
125.2
  0
LINE
  5
24A
100
AcDbEntity
  8
0
  6
ByLayer
 62
  256
370
   -3
100
AcDbLine
 10
74.90000000000001
 20
119.2
 11
80.90000000000001
 21
119.2
  0
LINE
  5
24B
100
AcDbEntity
  8
0
  6
ByLayer
 62
  256
370
   -3
100
AcDbLine
 10
74.90000000000001
 20
120.7
 11
80.90000000000001
 21
120.7
  0
ARC
  5
24C
100
AcDbEntity
  8
0
  6
ByLayer
 62
  256
370
   -3
100
AcDbCircle
 10
77.56085207381898
 20
169.0883763127954
 40
50
100
AcDbArc
 50
273.8292316441647
 51
283.4020647241631
  0
ARC
  5
24D
100
AcDbEntity
  8
0
  6
ByLayer
 62
  256
370
   -3
100
AcDbCircle
 10
77.56085207381882
 20
170.5883763127953
 40
50
100
AcDbArc
 50
273.829231644165
 51
283.4020647241632
  0
ARC
  5
24E
100
AcDbEntity
  8
0
  6
ByLayer
 62
  256
370
   -3
100
AcDbCircle
 10
100.4271649031926
 20
71.73834275303085
 40
50
100
AcDbArc
 50
94.19648390323084
 51
103.0348280905873
  0
ARC
  5
24F
100
AcDbEntity
  8
0
  6
ByLayer
 62
  256
370
   -3
100
AcDbCircle
 10
100.3185492617721
 20
73.21332482218995
 40
50
100
AcDbArc
 50
94.19790426307659
 51
102.9071047091695
  0
LINE
  5
250
100
AcDbEntity
  8
0
  6
ByLayer
 62
  256
370
   -3
100
AcDbLine
 10
74.90000000000001
 20
119.2
 11
74.90000000000001
 21
118.2
  0
ARC
  5
251
100
AcDbEntity
  8
0
  6
ByLayer
 62
  256
370
   -3
100
AcDbCircle
 10
81.90000000000001
 20
125.2
 40
1
100
AcDbArc
 50
90
 51
180
  0
LINE
  5
252
100
AcDbEntity
  8
0
  6
ByLayer
 62
  256
370
   -3
100
AcDbLine
 10
169.3
 20
123.2
 11
169.3
 21
123.2
  0
ARC
  5
253
100
AcDbEntity
  8
0
  6
ByLayer
 62
  256
370
   -3
100
AcDbCircle
 10
169.3
 20
118.2
 40
3
100
AcDbArc
 50
270
 51
0
  0
ARC
  5
254
100
AcDbEntity
  8
0
  6
ByLayer
 62
  256
370
   -3
100
AcDbCircle
 10
169.3
 20
121.7
 40
3
100
AcDbArc
 50
0
 51
90
  0
LINE
  5
255
100
AcDbEntity
  8
0
  6
ByLayer
 62
  256
370
   -3
100
AcDbLine
 10
172.3
 20
118.2
 11
172.3
 21
119.2
  0
LINE
  5
256
100
AcDbEntity
  8
0
  6
ByLayer
 62
  256
370
   -3
100
AcDbLine
 10
169.3
 20
123.2
 11
169.3
 21
124.7
  0
LINE
  5
257
100
AcDbEntity
  8
0
  6
ByLayer
 62
  256
370
   -3
100
AcDbLine
 10
166.3
 20
123.2
 11
166.3
 21
125.2
  0
LINE
  5
258
100
AcDbEntity
  8
0
  6
ByLayer
 62
  256
370
   -3
100
AcDbLine
 10
166.3
 20
119.2
 11
172.3
 21
119.2
  0
LINE
  5
259
100
AcDbEntity
  8
0
  6
ByLayer
 62
  256
370
   -3
100
AcDbLine
 10
166.3
 20
120.7
 11
172.3
 21
120.7
  0
ARC
  5
25A
100
AcDbEntity
  8
0
  6
ByLayer
 62
  256
370
   -3
100
AcDbCircle
 10
146.7722318637595
 20
71.73848241057152
 40
50
100
AcDbArc
 50
76.96446237171254
 51
85.80424125995906
  0
ARC
  5
25B
100
AcDbEntity
  8
0
  6
ByLayer
 62
  256
370
   -3
100
AcDbCircle
 10
146.8820361459785
 20
73.21319067321633
 40
50
100
AcDbArc
 50
77.09358350657607
 51
85.67512012509562
  0
ARC
  5
25C
100
AcDbEntity
  8
0
  6
ByLayer
 62
  256
370
   -3
100
AcDbCircle
 10
169.6391479261811
 20
169.0883763127953
 40
50
100
AcDbArc
 50
256.5979352758366
 51
266.1707683558352
  0
ARC
  5
25D
100
AcDbEntity
  8
0
  6
ByLayer
 62
  256
370
   -3
100
AcDbCircle
 10
169.6391479261811
 20
170.5883763127953
 40
50
100
AcDbArc
 50
256.5979352758366
 51
266.1707683558348
  0
ARC
  5
25E
100
AcDbEntity
  8
0
  6
ByLayer
 62
  256
370
   -3
100
AcDbCircle
 10
150.5415366281686
 20
122.337645965429
 40
0.7415366281685447
100
AcDbArc
 50
81.38435181549828
 51
261.3843518155396
  0
LINE
  5
25F
100
AcDbEntity
  8
0
  6
ByLayer
 62
  256
370
   -3
100
AcDbLine
 10
172.3
 20
120.7
 11
172.3
 21
121.7
  0
ARC
  5
260
100
AcDbEntity
  8
0
  6
ByLayer
 62
  256
370
   -3
100
AcDbCircle
 10
96.6584633718314
 20
122.337645965429
 40
0.7415366281685868
100
AcDbArc
 50
278.5191974163502
 51
98.52208078011843
  0
ARC
  5
261
100
AcDbEntity
  8
0
  6
ByLayer
 62
  256
370
   -3
100
AcDbCircle
 10
165.3
 20
97.20000000000002
 40
1
100
AcDbArc
 50
270
 51
0
  0
LINE
  5
262
100
AcDbEntity
  8
0
  6
ByLayer
 62
  256
370
   -3
100
AcDbLine
 10
166.3
 20
97.20000000000002
 11
166.3
 21
99.20000000000002
  0
ARC
  5
263
100
AcDbEntity
  8
0
  6
ByLayer
 62
  256
370
   -3
100
AcDbCircle
 10
165.3
 20
125.2
 40
1
100
AcDbArc
 50
0
 51
90
  0
LINE
  5
264
100
AcDbEntity
  8
0
  6
ByLayer
 62
  256
370
   -3
100
AcDbLine
 10
165.3
 20
126.2
 11
81.90000000000001
 21
126.2
  0
LINE
  5
265
100
AcDbEntity
  8
connector cutout
  6
ByLayer
 62
  256
370
   -1
100
AcDbLine
 10
113.55
 20
10
 11
129.55
 21
10
  0
LINE
  5
266
100
AcDbEntity
  8
connector cutout
  6
ByLayer
 62
  256
370
   -1
100
AcDbLine
 10
129.55
 20
10
 11
129.55
 21
23.99999999999999
  0
LINE
  5
267
100
AcDbEntity
  8
connector cutout
  6
ByLayer
 62
  256
370
   -1
100
AcDbLine
 10
129.55
 20
23.99999999999999
 11
113.55
 21
23.99999999999999
  0
LINE
  5
268
100
AcDbEntity
  8
connector cutout
  6
ByLayer
 62
  256
370
   -1
100
AcDbLine
 10
113.55
 20
23.99999999999999
 11
113.55
 21
10
  0
LINE
  5
269
100
AcDbEntity
  8
connector cutout
  6
ByLayer
 62
  256
370
   -1
100
AcDbLine
 10
12.55000000000001
 20
10
 11
21.05000000000001
 21
10
  0
LINE
  5
26A
100
AcDbEntity
  8
connector cutout
  6
ByLayer
 62
  256
370
   -1
100
AcDbLine
 10
21.05000000000001
 20
10
 11
21.05000000000001
 21
13.5
  0
LINE
  5
26B
100
AcDbEntity
  8
connector cutout
  6
ByLayer
 62
  256
370
   -1
100
AcDbLine
 10
21.05000000000001
 20
13.5
 11
12.55000000000001
 21
13.5
  0
LINE
  5
26C
100
AcDbEntity
  8
connector cutout
  6
ByLayer
 62
  256
370
   -1
100
AcDbLine
 10
12.55000000000001
 20
13.5
 11
12.55000000000001
 21
10
  0
LINE
  5
26D
100
AcDbEntity
  8
connector cutout
  6
ByLayer
 62
  256
370
   -1
100
AcDbLine
 10
30.44999999999999
 20
10
 11
45.95000000000002
 21
10
  0
LINE
  5
26E
100
AcDbEntity
  8
connector cutout
  6
ByLayer
 62
  256
370
   -1
100
AcDbLine
 10
45.95000000000002
 20
10
 11
45.95000000000002
 21
17
  0
LINE
  5
26F
100
AcDbEntity
  8
connector cutout
  6
ByLayer
 62
  256
370
   -1
100
AcDbLine
 10
45.95000000000002
 20
17
 11
30.44999999999999
 21
17
  0
LINE
  5
270
100
AcDbEntity
  8
connector cutout
  6
ByLayer
 62
  256
370
   -1
100
AcDbLine
 10
30.44999999999999
 20
17
 11
30.44999999999999
 21
10
  0
CIRCLE
  5
271
100
AcDbEntity
  8
connector cutout
  6
ByLayer
 62
  256
370
   -1
100
AcDbCircle
 10
59.7
 20
13.25
 40
3.25
  0
LINE
  5
272
100
AcDbEntity
  8
connector cutout
  6
ByLayer
 62
  256
370
   -1
100
AcDbLine
 10
27.44999999999999
 20
117.8
 11
40.95000000000002
 21
117.8
  0
LINE
  5
273
100
AcDbEntity
  8
connector cutout
  6
ByLayer
 62
  256
370
   -1
100
AcDbLine
 10
40.95000000000002
 20
117.8
 11
40.95000000000002
 21
119.3
  0
LINE
  5
274
100
AcDbEntity
  8
connector cutout
  6
ByLayer
 62
  256
370
   -1
100
AcDbLine
 10
40.95000000000002
 20
119.3
 11
27.44999999999999
 21
119.3
  0
LINE
  5
275
100
AcDbEntity
  8
connector cutout
  6
ByLayer
 62
  256
370
   -1
100
AcDbLine
 10
27.44999999999999
 20
119.3
 11
27.44999999999999
 21
117.8
  0
CIRCLE
  5
276
100
AcDbEntity
  8
connector cutout
  6
ByLayer
 62
  256
370
   -1
100
AcDbCircle
 10
3.699999999999989
 20
38.6
 40
1.35
  0
CIRCLE
  5
277
100
AcDbEntity
  8
connector cutout
  6
ByLayer
 62
  256
370
   -1
100
AcDbCircle
 10
61.7
 20
38.6
 40
1.35
  0
CIRCLE
  5
278
100
AcDbEntity
  8
connector cutout
  6
ByLayer
 62
  256
370
   -1
100
AcDbCircle
 10
61.7
 20
87.59999999999999
 40
1.35
  0
CIRCLE
  5
279
100
AcDbEntity
  8
connector cutout
  6
ByLayer
 62
  256
370
   -1
100
AcDbCircle
 10
3.699999999999989
 20
87.59999999999999
 40
1.35
  0
LINE
  5
27A
100
AcDbEntity
  8
connector cutout
  6
ByLayer
 62
  256
370
   -1
100
AcDbLine
 10
132.45
 20
10.5
 11
148.15
 21
10.5
  0
LINE
  5
27B
100
AcDbEntity
  8
connector cutout
  6
ByLayer
 62
  256
370
   -1
100
AcDbLine
 10
148.15
 20
10.5
 11
148.15
 21
26.99999999999999
  0
LINE
  5
27C
100
AcDbEntity
  8
connector cutout
  6
ByLayer
 62
  256
370
   -1
100
AcDbLine
 10
148.15
 20
26.99999999999999
 11
132.45
 21
26.99999999999999
  0
LINE
  5
27D
100
AcDbEntity
  8
connector cutout
  6
ByLayer
 62
  256
370
   -1
100
AcDbLine
 10
132.45
 20
26.99999999999999
 11
132.45
 21
10.5
  0
LINE
  5
27E
100
AcDbEntity
  8
connector cutout
  6
ByLayer
 62
  256
370
   -1
100
AcDbLine
 10
150.45
 20
10.5
 11
166.15
 21
10.5
  0
LINE
  5
27F
100
AcDbEntity
  8
connector cutout
  6
ByLayer
 62
  256
370
   -1
100
AcDbLine
 10
166.15
 20
10.5
 11
166.15
 21
26.99999999999999
  0
LINE
  5
280
100
AcDbEntity
  8
connector cutout
  6
ByLayer
 62
  256
370
   -1
100
AcDbLine
 10
166.15
 20
26.99999999999999
 11
150.45
 21
26.99999999999999
  0
LINE
  5
281
100
AcDbEntity
  8
connector cutout
  6
ByLayer
 62
  256
370
   -1
100
AcDbLine
 10
150.45
 20
26.99999999999999
 11
150.45
 21
10.5
  0
ARC
  5
282
100
AcDbEntity
  8
0
  6
ByLayer
 62
  256
370
   -3
100
AcDbCircle
 10
95.90000000000001
 20
26.99999999999999
 40
1.5
100
AcDbArc
 50
0
 51
180
  0
ARC
  5
283
100
AcDbEntity
  8
0
  6
ByLayer
 62
  256
370
   -3
100
AcDbCircle
 10
91.40000000000002
 20
24.99999999999999
 40
6
100
AcDbArc
 50
270
 51
0
  0
LINE
  5
284
100
AcDbEntity
  8
0
  6
ByLayer
 62
  256
370
   -3
100
AcDbLine
 10
97.40000000000001
 20
25.00000000000002
 11
97.40000000000001
 21
26.99999999999999
  0
ARC
  5
285
100
AcDbEntity
  8
0
  6
ByLayer
 62
  256
370
   -1
100
AcDbCircle
 10
1.5
 20
27.00000000000008
 40
1.5
100
AcDbArc
 50
0
 51
180
  0
LINE
  5
286
100
AcDbEntity
  8
0
  6
ByLayer
 62
  256
370
   -3
100
AcDbLine
 10
0
 20
27.00000000000009
 11
0
 21
25.00000000000004
  0
ARC
  5
287
100
AcDbEntity
  8
0
  6
ByLayer
 62
  256
370
   -1
100
AcDbCircle
 10
6
 20
25.00000000000002
 40
6
100
AcDbArc
 50
180
 51
269.9999999999983
  0
ARC
  5
288
100
AcDbEntity
  8
0
  6
ByLayer
 62
  256
370
   -1
100
AcDbCircle
 10
76.40000000000001
 20
99.20000000000002
 40
1.5
100
AcDbArc
 50
180
 51
0
  0
ARC
  5
289
100
AcDbEntity
  8
0
  6
ByLayer
 62
  256
370
   -1
100
AcDbCircle
 10
80.90000000000001
 20
101.2
 40
6
100
AcDbArc
 50
90
 51
180
  0
LINE
  5
28A
100
AcDbEntity
  8
0
  6
ByLayer
 62
  256
370
   -3
100
AcDbLine
 10
74.90000000000001
 20
101.2
 11
74.90000000000001
 21
99.20000000000002
  0
ARC
  5
28B
100
AcDbEntity
  8
0
  6
ByLayer
 62
  256
370
   -1
100
AcDbCircle
 10
170.8
 20
99.20000000000002
 40
1.5
100
AcDbArc
 50
180
 51
0
  0
LINE
  5
28C
100
AcDbEntity
  8
0
  6
ByLayer
 62
  256
370
   -3
100
AcDbLine
 10
172.3
 20
99.20000000000002
 11
172.3
 21
101.2
  0
ARC
  5
28D
100
AcDbEntity
  8
0
  6
ByLayer
 62
  256
370
   -1
100
AcDbCircle
 10
166.3
 20
101.2
 40
6
100
AcDbArc
 50
0
 51
90
  0
ARC
  5
28E
100
AcDbEntity
  8
0
  6
ByLayer
 62
  256
370
   -1
100
AcDbCircle
 10
132.6
 20
98.20000000000002
 40
2
100
AcDbArc
 50
270
 51
0
  0
LINE
  5
28F
100
AcDbEntity
  8
0
  6
ByLayer
 62
  256
370
   -3
100
AcDbLine
 10
146.6
 20
98.20000000000002
 11
146.6
 21
102.2
  0
LINE
  5
290
100
AcDbEntity
  8
0
  6
ByLayer
 62
  256
370
   -3
100
AcDbLine
 10
148.6
 20
96.20000000000002
 11
165.3
 21
96.20000000000002
  0
ARC
  5
291
100
AcDbEntity
  8
0
  6
ByLayer
 62
  256
370
   -1
100
AcDbCircle
 10
148.6
 20
98.20000000000002
 40
2
100
AcDbArc
 50
180
 51
270
  0
LINE
  5
292
100
AcDbEntity
  8
0
  6
ByLayer
 62
  256
370
   -3
100
AcDbLine
 10
57.70000000000002
 20
30.00000000000002
 11
7.000000000000028
 21
30.00000000000008
  0
LINE
  5
293
100
AcDbEntity
  8
0
  6
ByLayer
 62
  256
370
   -3
100
AcDbLine
 10
59.7
 20
28.00000000000004
 11
59.70000000000002
 21
24.00000000000004
  0
ARC
  5
294
100
AcDbEntity
  8
0
  6
ByLayer
 62
  256
370
   -1
100
AcDbCircle
 10
57.70000000000002
 20
28.00000000000004
 40
2
100
AcDbArc
 50
0
 51
90
  0
ARC
  5
295
100
AcDbEntity
  8
0
  6
ByLayer
 62
  256
370
   -1
100
AcDbCircle
 10
73.7
 20
28.00000000000001
 40
2
100
AcDbArc
 50
90
 51
180
  0
CIRCLE
  5
296
100
AcDbEntity
  8
0
  6
ByLayer
 62
  256
370
   -1
100
AcDbCircle
 10
11.09999999999999
 20
25.50000000000004
 40
2.1
  0
CIRCLE
  5
297
100
AcDbEntity
  8
0
  6
ByLayer
 62
  256
370
   -1
100
AcDbCircle
 10
86
 20
100.7
 40
2.1
  0
LINE
  5
298
100
AcDbEntity
  8
0
  6
ByLayer
 62
  256
370
   -1
100
AcDbLine
 10
94
 20
91.20000000000002
 11
94
 21
93.70000000000002
  0
LINE
  5
299
100
AcDbEntity
  8
0
  6
ByLayer
 62
  256
370
   -1
100
AcDbLine
 10
94
 20
34.99999999999999
 11
93.99999999999999
 21
34.99999999999999
  0
LINE
  5
29A
100
AcDbEntity
  8
0
  6
ByLayer
 62
  256
370
   -1
100
AcDbLine
 10
91
 20
34.99999999999999
 11
91
 21
32.49999999999999
  0
ARC
  5
29B
100
AcDbEntity
  8
0
  6
ByLayer
 62
  256
370
   -1
100
AcDbCircle
 10
91.5
 20
32.49999999999999
 40
0.5
100
AcDbArc
 50
180
 51
270
  0
LINE
  5
29C
100
AcDbEntity
  8
0
  6
ByLayer
 62
  256
370
   -1
100
AcDbLine
 10
91.5
 20
31.99999999999999
 11
93.5
 21
31.99999999999999
  0
ARC
  5
29D
100
AcDbEntity
  8
0
  6
ByLayer
 62
  256
370
   -1
100
AcDbCircle
 10
93.5
 20
32.49999999999999
 40
0.5
100
AcDbArc
 50
270
 51
0
  0
LINE
  5
29E
100
AcDbEntity
  8
0
  6
ByLayer
 62
  256
370
   -1
100
AcDbLine
 10
94
 20
32.49999999999999
 11
94
 21
34.99999999999999
  0
ARC
  5
29F
100
AcDbEntity
  8
0
  6
ByLayer
 62
  256
370
   -1
100
AcDbCircle
 10
91.5
 20
93.70000000000002
 40
0.5
100
AcDbArc
 50
90
 51
180
  0
ARC
  5
2A0
100
AcDbEntity
  8
0
  6
ByLayer
 62
  256
370
   -1
100
AcDbCircle
 10
93.5
 20
93.70000000000002
 40
0.5
100
AcDbArc
 50
0
 51
90
  0
LINE
  5
2A1
100
AcDbEntity
  8
0
  6
ByLayer
 62
  256
370
   -1
100
AcDbLine
 10
93.5
 20
94.20000000000002
 11
91.5
 21
94.20000000000002
  0
LINE
  5
2A2
100
AcDbEntity
  8
0
  6
ByLayer
 62
  256
370
   -1
100
AcDbLine
 10
91
 20
93.70000000000002
 11
91
 21
91.20000000000002
  0
LINE
  5
2A3
100
AcDbEntity
  8
0
  6
ByLayer
 62
  256
370
   -3
100
AcDbLine
 10
91
 20
91.20000000000002
 11
88.40000000000001
 21
91.20000000000002
  0
LINE
  5
2A4
100
AcDbEntity
  8
0
  6
ByLayer
 62
  256
370
   -1
100
AcDbLine
 10
94
 20
91.20000000000002
 11
94
 21
91.20000000000002
  0
CIRCLE
  5
2A5
100
AcDbEntity
  8
connector cutout
  6
ByLayer
 62
  256
370
   -1
100
AcDbCircle
 10
141.1
 20
63.09999999999999
 40
8
  0
LINE
  5
2A6
100
AcDbEntity
  8
0
  6
ByLayer
 62
  256
370
   -3
100
AcDbLine
 10
80.90000000000001
 20
107.2
 11
80.90000000000001
 21
115.2
  0
LINE
  5
2A7
100
AcDbEntity
  8
0
  6
ByLayer
 62
  256
370
   -1
100
AcDbLine
 10
157.3
 20
74.25000000000003
 11
171.65
 21
74.25000000000003
  0
LINE
  5
2A8
100
AcDbEntity
  8
0
  6
ByLayer
 62
  256
370
   -1
100
AcDbLine
 10
157.3
 20
89.95000000000002
 11
157.3
 21
74.25000000000003
  0
LINE
  5
2A9
100
AcDbEntity
  8
0
  6
ByLayer
 62
  256
370
   -1
100
AcDbLine
 10
157.3
 20
56.25000000000002
 11
171.8
 21
56.25000000000002
  0
LINE
  5
2AA
100
AcDbEntity
  8
0
  6
ByLayer
 62
  256
370
   -1
100
AcDbLine
 10
157.3
 20
71.95000000000002
 11
157.3
 21
56.25000000000002
  0
ARC
  5
2AB
100
AcDbEntity
  8
0
  6
ByLayer
 62
  256
370
   -1
100
AcDbCircle
 10
171.65
 20
73.10000000000002
 40
1.150000000000006
100
AcDbArc
 50
270
 51
90
  0
LINE
  5
2AC
100
AcDbEntity
  8
0
  6
ByLayer
 62
  256
370
   -1
100
AcDbLine
 10
171.65
 20
71.95000000000002
 11
157.3
 21
71.95000000000002
  0
ARC
  5
2AD
100
AcDbEntity
  8
0
  6
ByLayer
 62
  256
370
   -1
100
AcDbCircle
 10
171.8
 20
55.25000000000002
 40
1
100
AcDbArc
 50
0
 51
90
  0
ARC
  5
2AE
100
AcDbEntity
  8
0
  6
ByLayer
 62
  256
370
   -1
100
AcDbCircle
 10
172.175
 20
90.57500000000002
 40
0.625
100
AcDbArc
 50
270
 51
90
  0
LINE
  5
2AF
100
AcDbEntity
  8
0
  6
ByLayer
 62
  256
370
   -1
100
AcDbLine
 10
172.175
 20
89.95000000000002
 11
157.3
 21
89.95000000000002
  0
LINE
  5
2B0
100
AcDbEntity
  8
0
  6
ByLayer
 62
  256
370
   -3
100
AcDbLine
 10
172.175
 20
91.20000000000002
 11
153.1
 21
91.20000000000002
  0
ARC
  5
2B1
100
AcDbEntity
  8
0
  6
ByLayer
 62
  256
370
   -1
100
AcDbCircle
 10
83
 20
0.5
 40
0.5
100
AcDbArc
 50
0
 51
180
  0
ARC
  5
2B2
100
AcDbEntity
  8
0
  6
ByLayer
 62
  256
370
   -1
100
AcDbCircle
 10
84
 20
0.5
 40
0.5
100
AcDbArc
 50
180
 51
0
  0
ARC
  5
2B3
100
AcDbEntity
  8
0
  6
ByLayer
 62
  256
370
   -1
100
AcDbCircle
 10
85
 20
0.5
 40
0.5
100
AcDbArc
 50
0
 51
180
  0
ARC
  5
2B4
100
AcDbEntity
  8
0
  6
ByLayer
 62
  256
370
   -1
100
AcDbCircle
 10
86
 20
0.5
 40
0.5
100
AcDbArc
 50
180
 51
0
  0
ARC
  5
2B5
100
AcDbEntity
  8
0
  6
ByLayer
 62
  256
370
   -1
100
AcDbCircle
 10
87
 20
0.5
 40
0.5
100
AcDbArc
 50
0
 51
180
  0
ARC
  5
2B6
100
AcDbEntity
  8
0
  6
ByLayer
 62
  256
370
   -1
100
AcDbCircle
 10
88
 20
0.5
 40
0.5
100
AcDbArc
 50
180
 51
0
  0
ARC
  5
2B7
100
AcDbEntity
  8
0
  6
ByLayer
 62
  256
370
   -1
100
AcDbCircle
 10
89
 20
0.5
 40
0.5
100
AcDbArc
 50
0
 51
180
  0
ARC
  5
2B8
100
AcDbEntity
  8
0
  6
ByLayer
 62
  256
370
   -1
100
AcDbCircle
 10
90
 20
0.5
 40
0.5
100
AcDbArc
 50
180
 51
270
  0
LINE
  5
2B9
100
AcDbEntity
  8
0
  6
ByLayer
 62
  256
370
   -3
100
AcDbLine
 10
90
 20
0
 11
90.40000000000001
 21
0
  0
LINE
  5
2BA
100
AcDbEntity
  8
0
  6
ByLayer
 62
  256
370
   -3
100
AcDbLine
 10
82.00000000000001
 20
0
 11
80
 21
0
  0
ARC
  5
2BB
100
AcDbEntity
  8
0
  6
ByLayer
 62
  256
370
   -1
100
AcDbCircle
 10
82
 20
0.5
 40
0.5
100
AcDbArc
 50
270
 51
0
  0
ENDBLK
  5
61
330
5F
100
AcDbEntity
  8
0
100
AcDbBlockEnd
  0
ENDSEC
  0
SECTION
  2
ENTITIES
  0
CIRCLE
  5
2BC
100
AcDbEntity
  8
0
  6
CONTINUOUS
 62
    7
370
   -1
100
AcDbCircle
 10
-50
 20
-50
 40
2.250000000000021
  0
CIRCLE
  5
2BD
100
AcDbEntity
  8
0
  6
CONTINUOUS
 62
    7
370
   -1
100
AcDbCircle
 10
50
 20
50
 40
2.250000000000014
  0
CIRCLE
  5
2BE
100
AcDbEntity
  8
0
  6
CONTINUOUS
 62
    7
370
   -1
100
AcDbCircle
 10
-50
 20
50
 40
2.250000000000028
  0
CIRCLE
  5
2BF
100
AcDbEntity
  8
0
  6
CONTINUOUS
 62
    7
370
   -1
100
AcDbCircle
 10
50
 20
-50
 40
2.250000000000021
  0
LWPOLYLINE
  5
2C0
100
AcDbEntity
  8
0
  6
ByLayer
 62
  256
370
   -1
100
AcDbPolyline
 90
    8
 70
    1
 43
0
 10
-50
 20
-60
 10
50
 20
-60
 42
0.414213562373095
 10
60
 20
-50
 10
60
 20
50
 42
0.414213562373095
 10
50
 20
60
 10
-50
 20
60
 42
0.414213562373095
 10
-60
 20
50
 10
-60
 20
-50
 42
0.414213562373095
  0
LWPOLYLINE
  5
2C1
100
AcDbEntity
  8
0
  6
ByLayer
 62
  256
370
   -1
100
AcDbPolyline
 90
    8
 70
    1
 43
0
 10
-24
 20
-34
 10
24
 20
-34
 42
0.414213562373095
 10
34
 20
-24
 10
34
 20
24
 42
0.414213562373095
 10
24
 20
34
 10
-24
 20
34
 42
0.414213562373095
 10
-34
 20
24
 10
-34
 20
-24
 42
0.414213562373095
  0
CIRCLE
  5
2C2
100
AcDbEntity
  8
0
  6
CONTINUOUS
 62
    7
370
   -1
100
AcDbCircle
 10
70.91250067285296
 20
-50
 40
2.250000000000021
  0
CIRCLE
  5
2C3
100
AcDbEntity
  8
0
  6
CONTINUOUS
 62
    7
370
   -1
100
AcDbCircle
 10
170.912500672853
 20
50.00000000000001
 40
2.250000000000014
  0
CIRCLE
  5
2C4
100
AcDbEntity
  8
0
  6
CONTINUOUS
 62
    7
370
   -1
100
AcDbCircle
 10
70.91250067285296
 20
50.00000000000001
 40
2.250000000000028
  0
CIRCLE
  5
2C5
100
AcDbEntity
  8
0
  6
CONTINUOUS
 62
    7
370
   -1
100
AcDbCircle
 10
170.912500672853
 20
-50
 40
2.250000000000021
  0
CIRCLE
  5
2C6
100
AcDbEntity
  8
0
  6
CONTINUOUS
 62
    7
370
   -1
100
AcDbCircle
 10
91.91250067285294
 20
24.50000000000001
 40
1.249999999999989
  0
CIRCLE
  5
2C7
100
AcDbEntity
  8
0
  6
CONTINUOUS
 62
    7
370
   -1
100
AcDbCircle
 10
149.912500672853
 20
24.50000000000001
 40
1.250000000000004
  0
CIRCLE
  5
2C8
100
AcDbEntity
  8
0
  6
CONTINUOUS
 62
    7
370
   -1
100
AcDbCircle
 10
149.912500672853
 20
-24.5
 40
1.25
  0
CIRCLE
  5
2C9
100
AcDbEntity
  8
0
  6
CONTINUOUS
 62
    7
370
   -1
100
AcDbCircle
 10
91.91250067285294
 20
-24.5
 40
1.250000000000007
  0
LWPOLYLINE
  5
2CA
100
AcDbEntity
  8
0
  6
ByLayer
 62
  256
370
   -1
100
AcDbPolyline
 90
    8
 70
    1
 43
0
 10
70.91250067285296
 20
-60
 10
170.912500672853
 20
-60
 42
0.414213562373095
 10
180.912500672853
 20
-50
 10
180.912500672853
 20
50.00000000000001
 42
0.414213562373095
 10
170.912500672853
 20
60.00000000000001
 10
70.91250067285296
 20
60.00000000000001
 42
0.414213562373095
 10
60.91250067285296
 20
50.00000000000001
 10
60.91250067285296
 20
-50
 42
0.414213562373095
  0
DIMENSION
  5
2CB
100
AcDbEntity
  8
medidas
  6
ByLayer
 62
  256
370
   -1
100
AcDbDimension
  2
*D1
 10
60.00000000000001
 20
80
 30
0
 11
3.552713678800501e-15
 21
80
 31
0
 70
   32
 71
    5
  3
Standard
 53
0
210
0
220
0
230
1
100
AcDbAlignedDimension
 13
-60
 23
20
 33
0
 14
60
 24
20
 34
0
100
AcDbRotatedDimension
  0
DIMENSION
  5
2CC
100
AcDbEntity
  8
medidas
  6
ByLayer
 62
  256
370
   -1
100
AcDbDimension
  2
*D2
 10
-80
 20
60.00000000000001
 30
0
 11
-80
 21
3.552713678800501e-15
 31
0
 70
   32
 71
    5
  3
Standard
 53
0
210
0
220
0
230
1
100
AcDbAlignedDimension
 13
-40
 23
-60
 33
0
 14
-40
 24
60
 34
0
 50
90
100
AcDbRotatedDimension
  0
ENDSEC
  0
SECTION
  2
OBJECTS
  0
DICTIONARY
  5
C
330
0
100
AcDbDictionary
281
    1
  3
ACAD_GROUP
350
D
  0
DICTIONARY
  5
D
330
C
100
AcDbDictionary
281
    1
  0
ENDSEC
  0
EOF
