999
dxflib 3.17.0.0
  0
SECTION
  2
HEADER
  9
$ACADVER
  1
AC1015
  9
$HANDSEED
  5
FFFF
  9
$ANGBASE
 50
0.0
  9
$ANGDIR
 70
0
  9
$ATTMODE
 70
1
  9
$AUNITS
 70
0
  9
$AUPREC
 70
2
  9
$CECOLOR
 62
256
  9
$CELTSCALE
 40
1.0
  9
$CHAMFERA
 40
0.0
  9
$CHAMFERB
 40
0.0
  9
$CHAMFERC
 40
0.0
  9
$CHAMFERD
 40
0.0
  9
$CMLJUST
 70
0
  9
$CMLSCALE
 40
20.0
  9
$DIMADEC
 70
0
  9
$DIMALT
 70
0
  9
$DIMALTD
 70
3
  9
$DIMALTF
 40
0.0393700787
  9
$DIMALTRND
 40
0.0
  9
$DIMALTTD
 70
3
  9
$DIMALTTZ
 70
0
  9
$DIMALTU
 70
2
  9
$DIMALTZ
 70
0
  9
$DIMAPOST
  1

  9
$DIMASZ
 40
3.302
  9
$DIMATFIT
 70
3
  9
$DIMAUNIT
 70
0
  9
$DIMAZIN
 70
0
  9
$DIMBLK
  1

  9
$DIMBLK1
  1

  9
$DIMBLK2
  1

  9
$DIMCEN
 40
2.5
  9
$DIMCLRD
 70
0
  9
$DIMCLRE
 70
0
  9
$DIMCLRT
 70
0
  9
$DIMDEC
 70
4
  9
$DIMDLE
 40
0.0
  9
$DIMDLI
 40
3.75
  9
$DIMDSEP
 70
0
  9
$DIMEXE
 40
1.0
  9
$DIMEXO
 40
1.0
  9
$DIMFRAC
 70
0
  9
$DIMGAP
 40
1.524
  9
$DIMJUST
 70
0
  9
$DIMLDRBLK
  1
STANDARD
  9
$DIMLFAC
 40
1.0
  9
$DIMLIM
 70
0
  9
$DIMLUNIT
 70
2
  9
$DIMLWD
 70
-2
  9
$DIMLWE
 70
-2
  9
$DIMPOST
  1

  9
$DIMRND
 40
0.0
  9
$DIMSAH
 70
0
  9
$DIMSCALE
 40
1.0
  9
$DIMSD1
 70
0
  9
$DIMSD2
 70
0
  9
$DIMSE1
 70
0
  9
$DIMSE2
 70
0
  9
$DIMSOXD
 70
0
  9
$DIMTAD
 70
1
  9
$DIMTDEC
 70
2
  9
$DIMTFAC
 40
1.0
  9
$DIMTIH
 70
1
  9
$DIMTIX
 70
0
  9
$DIMTM
 40
0.0
  9
$DIMTOFL
 70
1
  9
$DIMTOH
 70
1
  9
$DIMTOL
 70
0
  9
$DIMTOLJ
 70
0
  9
$DIMTP
 40
0.0
  9
$DIMTSZ
 40
0.0
  9
$DIMTVP
 40
0.0
  9
$DIMTXSTY
  7
standard
  9
$DIMTXT
 40
3.5
  9
$DIMTZIN
 70
8
  9
$DIMUPT
 70
0
  9
$DIMZIN
 70
0
  9
$DISPSILH
 70
0
  9
$DWGCODEPAGE
  3
ANSI_1252
  9
$ELEVATION
 40
0.0
  9
$EXTMAX
 10
347.413340436527676
 20
81.75
 30
0.0
  9
$EXTMIN
 10
-89.1388888888888857
 20
-71.882662460329982
 30
0.0
  9
$FILLETRAD
 40
10.0
  9
$FILLMODE
 70
1
  9
$INSBASE
 10
0.0
 20
0.0
 30
0.0
  9
$INSUNITS
 70
4
  9
$LIMCHECK
 70
0
  9
$LIMMAX
 10
420.0
 20
297.0
  9
$LIMMIN
 10
0.0
 20
0.0
  9
$LTSCALE
 40
1.0
  9
$LUNITS
 70
2
  9
$LUPREC
 70
2
  9
$MAXACTVP
 70
64
  9
$MEASUREMENT
 70
1
  9
$MIRRTEXT
 70
1
  9
$ORTHOMODE
 70
0
  9
$PDMODE
 70
0
  9
$PDSIZE
 40
-1.0
  9
$PELEVATION
 40
0.0
  9
$PEXTMAX
 10
-100000000000000000000.0
 20
-100000000000000000000.0
 30
-100000000000000000000.0
  9
$PEXTMIN
 10
100000000000000000000.0
 20
100000000000000000000.0
 30
100000000000000000000.0
  9
$PINSBASE
 10
0.0
 20
0.0
 30
0.0
  9
$PLIMCHECK
 70
0
  9
$PLIMMAX
 10
297.0
 20
210.0
  9
$PLIMMIN
 10
0.0
 20
0.0
  9
$PLINEGEN
 70
0
  9
$PLINEWID
 40
0.0
  9
$PROXYGRAPHICS
 70
1
  9
$PSLTSCALE
 70
1
  9
$PUCSNAME
  2

  9
$PUCSORG
 10
0.0
 20
0.0
 30
0.0
  9
$PUCSXDIR
 10
1.0
 20
0.0
 30
0.0
  9
$PUCSYDIR
 10
0.0
 20
1.0
 30
0.0
  9
$QTEXTMODE
 70
0
  9
$REGENMODE
 70
1
  9
$SHADEDGE
 70
3
  9
$SHADEDIF
 70
70
  9
$SKETCHINC
 40
1.0
  9
$SKPOLY
 70
0
  9
$SPLFRAME
 70
0
  9
$SPLINESEGS
 70
8
  9
$SPLINETYPE
 70
6
  9
$SURFTAB1
 70
6
  9
$SURFTAB2
 70
6
  9
$SURFTYPE
 70
6
  9
$SURFU
 70
6
  9
$SURFV
 70
6
  9
$TEXTSIZE
 40
3.5
  9
$TEXTSTYLE
  7
STANDARD
  9
$THICKNESS
 40
0.0
  9
$TILEMODE
 70
1
  9
$TRACEWID
 40
1.0
  9
$TREEDEPTH
 70
3020
  9
$UCSNAME
  2

  9
$UCSORG
 10
0.0
 20
0.0
 30
0.0
  9
$UCSXDIR
 10
1.0
 20
0.0
 30
0.0
  9
$UCSYDIR
 10
0.0
 20
1.0
 30
0.0
  9
$UNITMODE
 70
0
  9
$USERI1
 70
0
  9
$USERI2
 70
0
  9
$USERI3
 70
0
  9
$USERI4
 70
0
  9
$USERI5
 70
0
  9
$USERR1
 40
0.0
  9
$USERR2
 40
0.0
  9
$USERR3
 40
0.0
  9
$USERR4
 40
0.0
  9
$USERR5
 40
0.0
  9
$USRTIMER
 70
1
  9
$VISRETAIN
 70
1
  0
ENDSEC
  0
SECTION
  2
TABLES
  0
TABLE
  2
VPORT
  5
8
100
AcDbSymbolTable
 70
1
  0
VPORT
  5
30
100
AcDbSymbolTableRecord
100
AcDbViewportTableRecord
  2
*Active
 70
0
 10
0.0
 20
0.0
 11
1.0
 21
1.0
 12
286.3055555555554861
 22
148.5
 13
0.0
 23
0.0
 14
10.0
 24
10.0
 15
10.0
 25
10.0
 16
0.0
 26
0.0
 36
1.0
 17
0.0
 27
0.0
 37
0.0
 40
297.0
 41
1.92798353909465
 42
50.0
 43
0.0
 44
0.0
 50
0.0
 51
0.0
 71
0
 72
100
 73
1
 74
3
 75
1
 76
1
 77
0
 78
0
281
0
 65
1
110
0.0
120
0.0
130
0.0
111
1.0
121
0.0
131
0.0
112
0.0
122
1.0
132
0.0
 79
0
146
0.0
  0
ENDTAB
  0
TABLE
  2
LTYPE
  5
5
100
AcDbSymbolTable
 70
47
  0
LTYPE
  5
16
100
AcDbSymbolTableRecord
100
AcDbLinetypeTableRecord
  2
Continuous
 70
0
  3
Solid line
 72
65
 73
0
 40
0.0
  0
LTYPE
  5
31
100
AcDbSymbolTableRecord
100
AcDbLinetypeTableRecord
  2
ACAD_ISO05W100
 70
0
  3
ISO long-dash double-dot ____ .. ____ .. ____ . 
 72
65
 73
6
 40
33.0
 49
24.0
 74
0
 49
-3.0
 74
0
 49
0.0
 74
0
 49
-3.0
 74
0
 49
0.0
 74
0
 49
-3.0
 74
0
  0
LTYPE
  5
32
100
AcDbSymbolTableRecord
100
AcDbLinetypeTableRecord
  2
DOT2
 70
0
  3
Dot (.5x) .....................................
 72
65
 73
2
 40
3.1749999999999998
 49
0.1
 74
0
 49
-3.0749999999999997
 74
0
  0
LTYPE
  5
33
100
AcDbSymbolTableRecord
100
AcDbLinetypeTableRecord
  2
DASHDOT
 70
0
  3
Dash dot __ . __ . __ . __ . __ . __ . __ . __
 72
65
 73
4
 40
25.4000000000000021
 49
12.6999999999999993
 74
0
 49
-6.2999999999999998
 74
0
 49
0.1
 74
0
 49
-6.2999999999999998
 74
0
  0
LTYPE
  5
34
100
AcDbSymbolTableRecord
100
AcDbLinetypeTableRecord
  2
ACAD_ISO12W100
 70
0
  3
ISO dash double-dot __ . . __ . . __ . . __ . . 
 72
65
 73
6
 40
21.0
 49
12.0
 74
0
 49
-3.0
 74
0
 49
0.0
 74
0
 49
-3.0
 74
0
 49
0.0
 74
0
 49
-3.0
 74
0
  0
LTYPE
  5
15
100
AcDbSymbolTableRecord
100
AcDbLinetypeTableRecord
  2
ByLayer
 70
0
  3

 72
65
 73
0
 40
0.0
  0
LTYPE
  5
35
100
AcDbSymbolTableRecord
100
AcDbLinetypeTableRecord
  2
DASHDOTX2
 70
0
  3
Dash dot (2x) ____  .  ____  .  ____  .  ___
 72
65
 73
4
 40
50.7999999999999972
 49
25.3999999999999986
 74
0
 49
-12.6499999999999986
 74
0
 49
0.1
 74
0
 49
-12.6499999999999986
 74
0
  0
LTYPE
  5
36
100
AcDbSymbolTableRecord
100
AcDbLinetypeTableRecord
  2
ACAD_ISO04W100
 70
0
  3
ISO long-dash dot ____ . ____ . ____ . ____ . _
 72
65
 73
4
 40
30.0
 49
24.0
 74
0
 49
-3.0
 74
0
 49
0.0
 74
0
 49
-3.0
 74
0
  0
LTYPE
  5
37
100
AcDbSymbolTableRecord
100
AcDbLinetypeTableRecord
  2
DASHDOT2
 70
0
  3
Dash dot (.5x) _._._._._._._._._._._._._._._.
 72
65
 73
4
 40
12.6999999999999993
 49
6.3499999999999996
 74
0
 49
-3.125
 74
0
 49
0.1
 74
0
 49
-3.125
 74
0
  0
LTYPE
  5
38
100
AcDbSymbolTableRecord
100
AcDbLinetypeTableRecord
  2
ACAD_ISO11W100
 70
0
  3
ISO double-dash dot __ __ . __ __ . __ __ . __ _
 72
65
 73
6
 40
33.0
 49
12.0
 74
0
 49
-3.0
 74
0
 49
12.0
 74
0
 49
-3.0
 74
0
 49
0.0
 74
0
 49
-3.0
 74
0
  0
LTYPE
  5
39
100
AcDbSymbolTableRecord
100
AcDbLinetypeTableRecord
  2
PHANTOM
 70
0
  3
Phantom ______  __  __  ______  __  __  ______ 
 72
65
 73
6
 40
63.5000000000000071
 49
31.75
 74
0
 49
-6.3499999999999996
 74
0
 49
6.3499999999999996
 74
0
 49
-6.3499999999999996
 74
0
 49
6.3499999999999996
 74
0
 49
-6.3499999999999996
 74
0
  0
LTYPE
  5
3A
100
AcDbSymbolTableRecord
100
AcDbLinetypeTableRecord
  2
ACAD_ISO03W100
 70
0
  3
ISO dash space __    __    __    __    __    __
 72
65
 73
2
 40
30.0
 49
12.0
 74
0
 49
-18.0
 74
0
  0
LTYPE
  5
3B
100
AcDbSymbolTableRecord
100
AcDbLinetypeTableRecord
  2
PHANTOM2
 70
0
  3
Phantom (.5x) ___ _ _ ___ _ _ ___ _ _ ___ _ _
 72
65
 73
6
 40
31.7500000000000036
 49
15.875
 74
0
 49
-3.1749999999999998
 74
0
 49
3.1749999999999998
 74
0
 49
-3.1749999999999998
 74
0
 49
3.1749999999999998
 74
0
 49
-3.1749999999999998
 74
0
  0
LTYPE
  5
3C
100
AcDbSymbolTableRecord
100
AcDbLinetypeTableRecord
  2
DOTX2
 70
0
  3
Dot (2x) .  .  .  .  .  .  .  .  .  .  .  .  .
 72
65
 73
2
 40
12.6999999999999993
 49
0.1
 74
0
 49
-12.5999999999999996
 74
0
  0
LTYPE
  5
3D
100
AcDbSymbolTableRecord
100
AcDbLinetypeTableRecord
  2
BORDERTINY
 70
0
  3
Border (.15x) __.__.__.__.__.__.__.__.__.__.__.
 72
65
 73
6
 40
6.6674999999999995
 49
1.905
 74
0
 49
-0.9525
 74
0
 49
1.905
 74
0
 49
-0.9025
 74
0
 49
0.1
 74
0
 49
-0.9025
 74
0
  0
LTYPE
  5
3E
100
AcDbSymbolTableRecord
100
AcDbLinetypeTableRecord
  2
PHANTOMX2
 70
0
  3
Phantom (2x) ____________    ____    ____   _
 72
65
 73
6
 40
127.0000000000000142
 49
63.5
 74
0
 49
-12.6999999999999993
 74
0
 49
12.6999999999999993
 74
0
 49
-12.6999999999999993
 74
0
 49
12.6999999999999993
 74
0
 49
-12.6999999999999993
 74
0
  0
LTYPE
  5
3F
100
AcDbSymbolTableRecord
100
AcDbLinetypeTableRecord
  2
BORDER2
 70
0
  3
Border (.5x) __.__.__.__.__.__.__.__.__.__.__.
 72
65
 73
6
 40
22.2250000000000014
 49
6.3499999999999996
 74
0
 49
-3.1749999999999998
 74
0
 49
6.3499999999999996
 74
0
 49
-3.125
 74
0
 49
0.1
 74
0
 49
-3.125
 74
0
  0
LTYPE
  5
40
100
AcDbSymbolTableRecord
100
AcDbLinetypeTableRecord
  2
ACAD_ISO10W100
 70
0
  3
ISO dash dot __ . __ . __ . __ . __ . __ . __ . 
 72
65
 73
4
 40
18.0
 49
12.0
 74
0
 49
-3.0
 74
0
 49
0.0
 74
0
 49
-3.0
 74
0
  0
LTYPE
  5
41
100
AcDbSymbolTableRecord
100
AcDbLinetypeTableRecord
  2
HIDDENX2
 70
0
  3
Hidden (2x) ____ ____ ____ ____ ____ ____ ____ 
 72
65
 73
2
 40
19.0499999999999972
 49
12.6999999999999993
 74
0
 49
-6.3499999999999996
 74
0
  0
LTYPE
  5
42
100
AcDbSymbolTableRecord
100
AcDbLinetypeTableRecord
  2
ACAD_ISO02W100
 70
0
  3
ISO dash __ __ __ __ __ __ __ __ __ __ __ __ __
 72
65
 73
2
 40
15.0
 49
12.0
 74
0
 49
-3.0
 74
0
  0
LTYPE
  5
43
100
AcDbSymbolTableRecord
100
AcDbLinetypeTableRecord
  2
DIVIDE2
 70
0
  3
Divide (.5x) __..__..__..__..__..__..__..__.._
 72
65
 73
6
 40
15.8749999999999982
 49
6.3499999999999996
 74
0
 49
-3.125
 74
0
 49
0.1
 74
0
 49
-3.0750000000000002
 74
0
 49
0.1
 74
0
 49
-3.125
 74
0
  0
LTYPE
  5
44
100
AcDbSymbolTableRecord
100
AcDbLinetypeTableRecord
  2
DASHEDTINY
 70
0
  3
Dashed (.15x) _ _ _ _ _ _ _ _ _ _ _ _ _ _ _ _ _
 72
65
 73
2
 40
2.8574999999999999
 49
1.905
 74
0
 49
-0.9525
 74
0
  0
LTYPE
  5
45
100
AcDbSymbolTableRecord
100
AcDbLinetypeTableRecord
  2
HIDDEN2
 70
0
  3
Hidden (.5x) _ _ _ _ _ _ _ _ _ _ _ _ _ _ _ _ _ 
 72
65
 73
2
 40
4.7624999999999993
 49
3.1749999999999998
 74
0
 49
-1.5874999999999999
 74
0
  0
LTYPE
  5
46
100
AcDbSymbolTableRecord
100
AcDbLinetypeTableRecord
  2
DIVIDETINY
 70
0
  3
Divide (.15x) __..__..__..__..__..__..__..__.._
 72
65
 73
6
 40
4.7625000000000002
 49
1.905
 74
0
 49
-0.9025
 74
0
 49
0.1
 74
0
 49
-0.8524999999999999
 74
0
 49
0.1
 74
0
 49
-0.9025
 74
0
  0
LTYPE
  5
47
100
AcDbSymbolTableRecord
100
AcDbLinetypeTableRecord
  2
CENTER
 70
0
  3
Center ____ _ ____ _ ____ _ ____ _ ____ _ ____
 72
65
 73
4
 40
50.8000000000000043
 49
31.75
 74
0
 49
-6.3499999999999996
 74
0
 49
6.3499999999999996
 74
0
 49
-6.3499999999999996
 74
0
  0
LTYPE
  5
48
100
AcDbSymbolTableRecord
100
AcDbLinetypeTableRecord
  2
DIVIDEX2
 70
0
  3
Divide (2x) ________  .  .  ________  .  .  _
 72
65
 73
6
 40
63.5
 49
25.3999999999999986
 74
0
 49
-12.6499999999999986
 74
0
 49
0.1
 74
0
 49
-12.5999999999999979
 74
0
 49
0.1
 74
0
 49
-12.6499999999999986
 74
0
  0
LTYPE
  5
49
100
AcDbSymbolTableRecord
100
AcDbLinetypeTableRecord
  2
CENTERTINY
 70
0
  3
Center (.15x) ___ _ ___ _ ___ _ ___ _ ___ _ ___
 72
65
 73
4
 40
7.6199999999999992
 49
4.7625000000000002
 74
0
 49
-0.9525
 74
0
 49
0.9525
 74
0
 49
-0.9525
 74
0
  0
LTYPE
  5
4A
100
AcDbSymbolTableRecord
100
AcDbLinetypeTableRecord
  2
DIVIDE
 70
0
  3
Divide ____ . . ____ . . ____ . . ____ . . ____
 72
65
 73
6
 40
31.7500000000000036
 49
12.6999999999999993
 74
0
 49
-6.2999999999999998
 74
0
 49
0.1
 74
0
 49
-6.25
 74
0
 49
0.1
 74
0
 49
-6.2999999999999998
 74
0
  0
LTYPE
  5
4B
100
AcDbSymbolTableRecord
100
AcDbLinetypeTableRecord
  2
ACAD_ISO09W100
 70
0
  3
ISO long-dash double-short-dash ____ __ __ ____
 72
65
 73
6
 40
45.0
 49
24.0
 74
0
 49
-3.0
 74
0
 49
6.0
 74
0
 49
-3.0
 74
0
 49
6.0
 74
0
 49
-3.0
 74
0
  0
LTYPE
  5
4C
100
AcDbSymbolTableRecord
100
AcDbLinetypeTableRecord
  2
DASHED
 70
0
  3
Dashed _ _ _ _ _ _ _ _ _ _ _ _ _ _ _ _ _
 72
65
 73
2
 40
19.0499999999999972
 49
12.6999999999999993
 74
0
 49
-6.3499999999999996
 74
0
  0
LTYPE
  5
4D
100
AcDbSymbolTableRecord
100
AcDbLinetypeTableRecord
  2
BORDERX2
 70
0
  3
Border (2x) ____  ____  .  ____  ____  .  ___
 72
65
 73
6
 40
88.8999999999999773
 49
25.3999999999999986
 74
0
 49
-12.6999999999999993
 74
0
 49
25.3999999999999986
 74
0
 49
-12.6499999999999986
 74
0
 49
0.1
 74
0
 49
-12.6499999999999986
 74
0
  0
LTYPE
  5
4E
100
AcDbSymbolTableRecord
100
AcDbLinetypeTableRecord
  2
DOTTINY
 70
0
  3
Dot (.15x) .....................................
 72
65
 73
2
 40
0.9525
 49
0.1
 74
0
 49
-0.8525
 74
0
  0
LTYPE
  5
4F
100
AcDbSymbolTableRecord
100
AcDbLinetypeTableRecord
  2
ACAD_ISO08W100
 70
0
  3
ISO long-dash short-dash ____ __ ____ __ ____ _
 72
65
 73
4
 40
36.0
 49
24.0
 74
0
 49
-3.0
 74
0
 49
6.0
 74
0
 49
-3.0
 74
0
  0
LTYPE
  5
50
100
AcDbSymbolTableRecord
100
AcDbLinetypeTableRecord
  2
DOT
 70
0
  3
Dot . . . . . . . . . . . . . . . . . . . . . .
 72
65
 73
2
 40
6.3499999999999996
 49
0.1
 74
0
 49
-6.25
 74
0
  0
LTYPE
  5
14
100
AcDbSymbolTableRecord
100
AcDbLinetypeTableRecord
  2
ByBlock
 70
0
  3

 72
65
 73
0
 40
0.0
  0
LTYPE
  5
51
100
AcDbSymbolTableRecord
100
AcDbLinetypeTableRecord
  2
ACAD_ISO15W100
 70
0
  3
ISO double-dash triple-dot __ __ . . . __ __ . .
 72
65
 73
10
 40
39.0
 49
12.0
 74
0
 49
-3.0
 74
0
 49
12.0
 74
0
 49
-3.0
 74
0
 49
0.0
 74
0
 49
-3.0
 74
0
 49
0.0
 74
0
 49
-3.0
 74
0
 49
0.0
 74
0
 49
-3.0
 74
0
  0
LTYPE
  5
52
100
AcDbSymbolTableRecord
100
AcDbLinetypeTableRecord
  2
ACAD_ISO07W100
 70
0
  3
ISO dot . . . . . . . . . . . . . . . . . . . . 
 72
65
 73
2
 40
3.0
 49
0.0
 74
0
 49
-3.0
 74
0
  0
LTYPE
  5
53
100
AcDbSymbolTableRecord
100
AcDbLinetypeTableRecord
  2
BORDER
 70
0
  3
Border __ __ . __ __ . __ __ . __ __ . __ __ .
 72
65
 73
6
 40
44.4499999999999957
 49
12.6999999999999993
 74
0
 49
-6.3499999999999996
 74
0
 49
12.6999999999999993
 74
0
 49
-6.2999999999999998
 74
0
 49
0.1
 74
0
 49
-6.2999999999999998
 74
0
  0
LTYPE
  5
54
100
AcDbSymbolTableRecord
100
AcDbLinetypeTableRecord
  2
DASHED2
 70
0
  3
Dashed (.5x) _ _ _ _ _ _ _ _ _ _ _ _ _ _ _ _ _
 72
65
 73
2
 40
9.5249999999999986
 49
6.3499999999999996
 74
0
 49
-3.1749999999999998
 74
0
  0
LTYPE
  5
55
100
AcDbSymbolTableRecord
100
AcDbLinetypeTableRecord
  2
DASHDOTTINY
 70
0
  3
Dash dot (.15x) _._._._._._._._._._._._._._._.
 72
65
 73
4
 40
3.8100000000000001
 49
1.905
 74
0
 49
-0.9025
 74
0
 49
0.1
 74
0
 49
-0.9025
 74
0
  0
LTYPE
  5
56
100
AcDbSymbolTableRecord
100
AcDbLinetypeTableRecord
  2
ACAD_ISO14W100
 70
0
  3
ISO dash triple-dot __ . . . __ . . . __ . . . _
 72
65
 73
8
 40
24.0
 49
12.0
 74
0
 49
-3.0
 74
0
 49
0.0
 74
0
 49
-3.0
 74
0
 49
0.0
 74
0
 49
-3.0
 74
0
 49
0.0
 74
0
 49
-3.0
 74
0
  0
LTYPE
  5
57
100
AcDbSymbolTableRecord
100
AcDbLinetypeTableRecord
  2
DASHEDX2
 70
0
  3
Dashed (2x) ____  ____  ____  ____  ____  ___
 72
65
 73
2
 40
38.0999999999999943
 49
25.3999999999999986
 74
0
 49
-12.6999999999999993
 74
0
  0
LTYPE
  5
58
100
AcDbSymbolTableRecord
100
AcDbLinetypeTableRecord
  2
ACAD_ISO06W100
 70
0
  3
ISO long-dash triple-dot ____ ... ____ ... ____
 72
65
 73
8
 40
36.0
 49
24.0
 74
0
 49
-3.0
 74
0
 49
0.0
 74
0
 49
-3.0
 74
0
 49
0.0
 74
0
 49
-3.0
 74
0
 49
0.0
 74
0
 49
-3.0
 74
0
  0
LTYPE
  5
59
100
AcDbSymbolTableRecord
100
AcDbLinetypeTableRecord
  2
HIDDEN
 70
0
  3
Hidden __ __ __ __ __ __ __ __ __ __ __ __ __ __
 72
65
 73
2
 40
9.5249999999999986
 49
6.3499999999999996
 74
0
 49
-3.1749999999999998
 74
0
  0
LTYPE
  5
5A
100
AcDbSymbolTableRecord
100
AcDbLinetypeTableRecord
  2
CENTER2
 70
0
  3
Center (.5x) ___ _ ___ _ ___ _ ___ _ ___ _ ___
 72
65
 73
4
 40
28.5750000000000028
 49
19.0500000000000007
 74
0
 49
-3.1749999999999998
 74
0
 49
3.1749999999999998
 74
0
 49
-3.1749999999999998
 74
0
  0
LTYPE
  5
5B
100
AcDbSymbolTableRecord
100
AcDbLinetypeTableRecord
  2
CENTERX2
 70
0
  3
Center (2x) ________  __  ________  __  _____
 72
65
 73
4
 40
101.6000000000000085
 49
63.5
 74
0
 49
-12.6999999999999993
 74
0
 49
12.6999999999999993
 74
0
 49
-12.6999999999999993
 74
0
  0
LTYPE
  5
5C
100
AcDbSymbolTableRecord
100
AcDbLinetypeTableRecord
  2
ACAD_ISO13W100
 70
0
  3
ISO double-dash double-dot __ __ . . __ __ . . _
 72
65
 73
8
 40
36.0
 49
12.0
 74
0
 49
-3.0
 74
0
 49
12.0
 74
0
 49
-3.0
 74
0
 49
0.0
 74
0
 49
-3.0
 74
0
 49
0.0
 74
0
 49
-3.0
 74
0
  0
ENDTAB
  0
TABLE
  2
LAYER
  5
2
100
AcDbSymbolTable
 70
4
  0
LAYER
  5
5D
100
AcDbSymbolTableRecord
100
AcDbLayerTableRecord
  2
text
 70
0
 62
2
420
16776960
  6
Continuous
370
-3
390
F
  0
LAYER
  5
10
100
AcDbSymbolTableRecord
100
AcDbLayerTableRecord
  2
0
 70
0
 62
7
420
16777215
  6
Continuous
370
-3
390
F
  0
LAYER
  5
5E
100
AcDbSymbolTableRecord
100
AcDbLayerTableRecord
  2
connector cutout
 70
0
 62
1
420
16711680
  6
Continuous
370
13
390
F
  0
LAYER
  5
5F
100
AcDbSymbolTableRecord
100
AcDbLayerTableRecord
  2
medidas
 70
0
 62
4
420
65535
  6
Continuous
370
0
390
F
  0
ENDTAB
  0
TABLE
  2
STYLE
  5
3
100
AcDbSymbolTable
 70
1
  0
STYLE
  5
60
100
AcDbSymbolTableRecord
100
AcDbTextStyleTableRecord
  2
Standard
 70
0
 40
0.0
 41
1.0
 50
0.0
 71
0
 42
2.5
  3

  4

1001
ACAD
1000
txt
1071
0
  0
ENDTAB
  0
TABLE
  2
VIEW
  5
6
100
AcDbSymbolTable
 70
0
  0
ENDTAB
  0
TABLE
  2
UCS
  5
7
100
AcDbSymbolTable
 70
0
  0
ENDTAB
  0
TABLE
  2
APPID
  5
9
100
AcDbSymbolTable
 70
1
  0
APPID
  5
12
100
AcDbSymbolTableRecord
100
AcDbRegAppTableRecord
  2
ACAD
 70
0
  0
APPID
  5
61
100
AcDbSymbolTableRecord
100
AcDbRegAppTableRecord
  2
QCAD
 70
0
  0
ENDTAB
  0
TABLE
  2
DIMSTYLE
  5
A
100
AcDbSymbolTable
 70
1
100
AcDbDimStyleTable
 71
0
  0
DIMSTYLE
105
27
100
AcDbSymbolTableRecord
100
AcDbDimStyleTableRecord
  2
Standard
 41
3.302
 42
1.0
 43
3.75
 44
1.0
 70
0
 73
0
 74
0
 77
1
 78
8
140
3.5
141
2.5
143
0.03937007874016
147
1.524
171
3
172
1
271
2
272
2
274
3
278
44
283
0
284
8
340
60
  0
ENDTAB
  0
TABLE
  2
BLOCK_RECORD
  5
1
100
AcDbSymbolTable
 70
1
  0
BLOCK_RECORD
  5
1F
100
AcDbSymbolTableRecord
100
AcDbBlockTableRecord
  2
*Model_Space
340
22
  0
BLOCK_RECORD
  5
1B
100
AcDbSymbolTableRecord
100
AcDbBlockTableRecord
  2
*Paper_Space
340
1E
  0
BLOCK_RECORD
  5
23
100
AcDbSymbolTableRecord
100
AcDbBlockTableRecord
  2
*Paper_Space0
340
26
  0
BLOCK_RECORD
  5
62
100
AcDbSymbolTableRecord
100
AcDbBlockTableRecord
  2
RPi2B_slim_box-clean
340
0
  0
BLOCK_RECORD
  5
63
100
AcDbSymbolTableRecord
100
AcDbBlockTableRecord
  2
pi
340
0
  0
BLOCK_RECORD
  5
64
100
AcDbSymbolTableRecord
100
AcDbBlockTableRecord
  2
block 1
340
0
  0
BLOCK_RECORD
  5
65
100
AcDbSymbolTableRecord
100
AcDbBlockTableRecord
  2
ethernet
340
0
  0
BLOCK_RECORD
  5
66
100
AcDbSymbolTableRecord
100
AcDbBlockTableRecord
  2
reset
340
0
  0
ENDTAB
  0
ENDSEC
  0
SECTION
  2
BLOCKS
  0
BLOCK
  5
20
100
AcDbEntity
  8
0
100
AcDbBlockBegin
  2
*Model_Space
 70
0
 10
0.0
 20
0.0
 30
0.0
  3
*Model_Space
  1

  0
ENDBLK
  5
21
100
AcDbEntity
  8
0
100
AcDbBlockEnd
  0
BLOCK
  5
1C
100
AcDbEntity
 67
1
  8
0
100
AcDbBlockBegin
  2
*Paper_Space
 70
0
 10
0.0
 20
0.0
 30
0.0
  3
*Paper_Space
  1

  0
ENDBLK
  5
1D
100
AcDbEntity
 67
1
  8
0
100
AcDbBlockEnd
  0
BLOCK
  5
24
100
AcDbEntity
  8
0
100
AcDbBlockBegin
  2
*Paper_Space0
 70
0
 10
0.0
 20
0.0
 30
0.0
  3
*Paper_Space0
  1

  0
ENDBLK
  5
25
100
AcDbEntity
  8
0
100
AcDbBlockEnd
  0
BLOCK
  5
67
100
AcDbEntity
  8
0
100
AcDbBlockBegin
  2
RPi2B_slim_box-clean
 70
0
 10
0.0
 20
0.0
 30
0.0
  3
RPi2B_slim_box-clean
  1

  0
ARC
  5
68
100
AcDbEntity
  8
0
 62
256
370
-3
 48
1.0
  6
ByLayer
100
AcDbCircle
 10
1.0
 20
90.2000000000000171
 30
0.0
 40
1.0
100
AcDbArc
 50
90.0
 51
180.0
  0
LINE
  5
69
100
AcDbEntity
  8
0
 62
256
370
-3
 48
1.0
  6
ByLayer
100
AcDbLine
 10
0.0
 20
90.2000000000000171
 30
0.0
 11
0.0
 21
35.9999999999999929
 31
0.0
  0
ARC
  5
6A
100
AcDbEntity
  8
0
 62
256
370
-3
 48
1.0
  6
ByLayer
100
AcDbCircle
 10
84.3999999999999915
 20
90.2000000000000171
 30
0.0
 40
1.0
100
AcDbArc
 50
0.0
 51
90.0
  0
LINE
  5
6B
100
AcDbEntity
  8
0
 62
256
370
-3
 48
1.0
  6
ByLayer
100
AcDbLine
 10
84.4000000000000057
 20
91.2000000000000171
 30
0.0
 11
65.7000000000000028
 21
91.2000000000000171
 31
0.0
  0
ARC
  5
6C
100
AcDbEntity
  8
0
 62
256
370
-3
 48
1.0
  6
ByLayer
100
AcDbCircle
 10
84.3999999999999915
 20
35.9999999999999929
 30
0.0
 40
1.0
100
AcDbArc
 50
270.0
 51
0.0
  0
LINE
  5
6D
100
AcDbEntity
  8
0
 62
256
370
-3
 48
1.0
  6
ByLayer
100
AcDbLine
 10
85.4000000000000057
 20
35.9999999999999929
 30
0.0
 11
85.4000000000000057
 21
90.2000000000000171
 31
0.0
  0
ARC
  5
6E
100
AcDbEntity
  8
0
 62
256
370
-3
 48
1.0
  6
ByLayer
100
AcDbCircle
 10
1.0
 20
35.9999999999999929
 30
0.0
 40
1.0
100
AcDbArc
 50
180.0
 51
270.0
  0
LINE
  5
6F
100
AcDbEntity
  8
0
 62
256
370
-3
 48
1.0
  6
ByLayer
100
AcDbLine
 10
1.0
 20
34.9999999999999929
 30
0.0
 11
19.6999999999999886
 21
34.9999999999999929
 31
0.0
  0
LINE
  5
70
100
AcDbEntity
  8
0
 62
256
370
-3
 48
1.0
  6
ByLayer
100
AcDbLine
 10
65.7000000000000028
 20
91.2000000000000171
 30
0.0
 11
65.7000000000000028
 21
93.2000000000000171
 31
0.0
  0
LINE
  5
71
100
AcDbEntity
  8
0
 62
256
370
-3
 48
1.0
  6
ByLayer
100
AcDbLine
 10
31.6999999999999886
 20
91.2000000000000171
 30
0.0
 11
31.6999999999999886
 21
93.2000000000000171
 31
0.0
  0
LINE
  5
72
100
AcDbEntity
  8
0
 62
256
370
-3
 48
1.0
  6
ByLayer
100
AcDbLine
 10
19.6999999999999886
 20
34.9999999999999929
 30
0.0
 11
19.6999999999999886
 21
32.9999999999999929
 31
0.0
  0
LINE
  5
73
100
AcDbEntity
  8
0
 62
256
370
-3
 48
1.0
  6
ByLayer
100
AcDbLine
 10
53.7000000000000171
 20
34.9999999999999929
 30
0.0
 11
53.7000000000000171
 21
32.9999999999999929
 31
0.0
  0
LINE
  5
74
100
AcDbEntity
  8
0
 62
256
370
-3
 48
1.0
  6
ByLayer
100
AcDbLine
 10
19.6999999999999886
 20
91.2000000000000171
 30
0.0
 11
1.0
 21
91.2000000000000171
 31
0.0
  0
LINE
  5
75
100
AcDbEntity
  8
0
 62
256
370
-3
 48
1.0
  6
ByLayer
100
AcDbLine
 10
53.7000000000000171
 20
91.2000000000000171
 30
0.0
 11
31.6999999999999886
 21
91.2000000000000171
 31
0.0
  0
LINE
  5
76
100
AcDbEntity
  8
0
 62
256
370
-3
 48
1.0
  6
ByLayer
100
AcDbLine
 10
31.6999999999999886
 20
34.9999999999999929
 30
0.0
 11
53.7000000000000171
 21
34.9999999999999929
 31
0.0
  0
LINE
  5
77
100
AcDbEntity
  8
0
 62
256
370
-3
 48
1.0
  6
ByLayer
100
AcDbLine
 10
65.7000000000000028
 20
34.9999999999999929
 30
0.0
 11
84.4000000000000057
 21
34.9999999999999929
 31
0.0
  0
ARC
  5
78
100
AcDbEntity
  8
0
 62
256
370
-3
 48
1.0
  6
ByLayer
100
AcDbCircle
 10
30.6999999999999886
 20
32.9999999999999929
 30
0.0
 40
1.0
100
AcDbArc
 50
270.0
 51
0.0
  0
LINE
  5
79
100
AcDbEntity
  8
0
 62
256
370
-3
 48
1.0
  6
ByLayer
100
AcDbLine
 10
31.6999999999999886
 20
32.9999999999999929
 30
0.0
 11
31.6999999999999886
 21
34.9999999999999929
 31
0.0
  0
ARC
  5
7A
100
AcDbEntity
  8
0
 62
256
370
-3
 48
1.0
  6
ByLayer
100
AcDbCircle
 10
54.7000000000000171
 20
32.9999999999999929
 30
0.0
 40
1.0
100
AcDbArc
 50
180.0
 51
270.0
  0
ARC
  5
7B
100
AcDbEntity
  8
0
 62
256
370
-3
 48
1.0
  6
ByLayer
100
AcDbCircle
 10
64.7000000000000028
 20
32.9999999999999929
 30
0.0
 40
1.0
100
AcDbArc
 50
270.0
 51
0.0
  0
LINE
  5
7C
100
AcDbEntity
  8
0
 62
256
370
-3
 48
1.0
  6
ByLayer
100
AcDbLine
 10
54.7000000000000171
 20
31.9999999999999893
 30
0.0
 11
64.7000000000000028
 21
31.9999999999999893
 31
0.0
  0
LINE
  5
7D
100
AcDbEntity
  8
0
 62
256
370
-3
 48
1.0
  6
ByLayer
100
AcDbLine
 10
65.7000000000000028
 20
32.9999999999999929
 30
0.0
 11
65.7000000000000028
 21
34.9999999999999929
 31
0.0
  0
ARC
  5
7E
100
AcDbEntity
  8
0
 62
256
370
-3
 48
1.0
  6
ByLayer
100
AcDbCircle
 10
20.6999999999999886
 20
93.2000000000000171
 30
0.0
 40
1.0
100
AcDbArc
 50
90.0
 51
180.0
  0
ARC
  5
7F
100
AcDbEntity
  8
0
 62
256
370
-3
 48
1.0
  6
ByLayer
100
AcDbCircle
 10
30.6999999999999886
 20
93.2000000000000171
 30
0.0
 40
1.0
100
AcDbArc
 50
0.0
 51
90.0
  0
LINE
  5
80
100
AcDbEntity
  8
0
 62
256
370
-3
 48
1.0
  6
ByLayer
100
AcDbLine
 10
30.6999999999999886
 20
94.2000000000000171
 30
0.0
 11
20.6999999999999886
 21
94.2000000000000171
 31
0.0
  0
LINE
  5
81
100
AcDbEntity
  8
0
 62
256
370
-3
 48
1.0
  6
ByLayer
100
AcDbLine
 10
19.6999999999999886
 20
93.2000000000000171
 30
0.0
 11
19.6999999999999886
 21
91.2000000000000171
 31
0.0
  0
ARC
  5
82
100
AcDbEntity
  8
0
 62
256
370
-3
 48
1.0
  6
ByLayer
100
AcDbCircle
 10
54.7000000000000171
 20
93.2000000000000171
 30
0.0
 40
1.0
100
AcDbArc
 50
90.0
 51
180.0
  0
ARC
  5
83
100
AcDbEntity
  8
0
 62
256
370
-3
 48
1.0
  6
ByLayer
100
AcDbCircle
 10
64.7000000000000028
 20
93.2000000000000171
 30
0.0
 40
1.0
100
AcDbArc
 50
0.0
 51
90.0
  0
LINE
  5
84
100
AcDbEntity
  8
0
 62
256
370
-3
 48
1.0
  6
ByLayer
100
AcDbLine
 10
64.7000000000000028
 20
94.2000000000000171
 30
0.0
 11
54.7000000000000171
 21
94.2000000000000171
 31
0.0
  0
LINE
  5
85
100
AcDbEntity
  8
0
 62
256
370
-3
 48
1.0
  6
ByLayer
100
AcDbLine
 10
53.7000000000000171
 20
93.2000000000000171
 30
0.0
 11
53.7000000000000171
 21
91.2000000000000171
 31
0.0
  0
ARC
  5
86
100
AcDbEntity
  8
0
 62
256
370
-3
 48
1.0
  6
ByLayer
100
AcDbCircle
 10
20.6999999999999886
 20
32.9999999999999929
 30
0.0
 40
1.0
100
AcDbArc
 50
180.0
 51
270.0
  0
LINE
  5
87
100
AcDbEntity
  8
0
 62
256
370
-3
 48
1.0
  6
ByLayer
100
AcDbLine
 10
20.6999999999999886
 20
31.9999999999999893
 30
0.0
 11
30.6999999999999886
 21
31.9999999999999893
 31
0.0
  0
ARC
  5
88
100
AcDbEntity
  8
0
 62
256
370
-3
 48
1.0
  6
ByLayer
100
AcDbCircle
 10
171.8000000000000114
 20
35.9999999999999929
 30
0.0
 40
1.0
100
AcDbArc
 50
270.0
 51
0.0
  0
LINE
  5
89
100
AcDbEntity
  8
0
 62
256
370
-3
 48
1.0
  6
ByLayer
100
AcDbLine
 10
172.8000000000000114
 20
35.9999999999999929
 30
0.0
 11
172.8000000000000114
 21
55.2500000000000213
 31
0.0
  0
ARC
  5
8A
100
AcDbEntity
  8
0
 62
256
370
-3
 48
1.0
  6
ByLayer
100
AcDbCircle
 10
88.4000000000000057
 20
35.9999999999999929
 30
0.0
 40
1.0
100
AcDbArc
 50
180.0
 51
270.0
  0
LINE
  5
8B
100
AcDbEntity
  8
0
 62
256
370
-3
 48
1.0
  6
ByLayer
100
AcDbLine
 10
88.4000000000000057
 20
34.9999999999999929
 30
0.0
 11
91.0
 21
34.9999999999999929
 31
0.0
  0
ARC
  5
8C
100
AcDbEntity
  8
0
 62
256
370
-3
 48
1.0
  6
ByLayer
100
AcDbCircle
 10
142.0999999999999943
 20
32.9999999999999929
 30
0.0
 40
1.0
100
AcDbArc
 50
180.0
 51
270.0
  0
LINE
  5
8D
100
AcDbEntity
  8
0
 62
256
370
-3
 48
1.0
  6
ByLayer
100
AcDbLine
 10
153.0999999999999943
 20
91.2000000000000171
 30
0.0
 11
153.0999999999999943
 21
93.2000000000000171
 31
0.0
  0
ARC
  5
8E
100
AcDbEntity
  8
0
 62
256
370
-3
 48
1.0
  6
ByLayer
100
AcDbCircle
 10
152.0999999999999943
 20
32.9999999999999929
 30
0.0
 40
1.0
100
AcDbArc
 50
270.0
 51
0.0
  0
LINE
  5
8F
100
AcDbEntity
  8
0
 62
256
370
-3
 48
1.0
  6
ByLayer
100
AcDbLine
 10
142.0999999999999943
 20
31.9999999999999893
 30
0.0
 11
152.0999999999999943
 21
31.9999999999999893
 31
0.0
  0
LINE
  5
90
100
AcDbEntity
  8
0
 62
256
370
-3
 48
1.0
  6
ByLayer
100
AcDbLine
 10
153.0999999999999943
 20
32.9999999999999929
 30
0.0
 11
153.0999999999999943
 21
34.9999999999999929
 31
0.0
  0
LINE
  5
91
100
AcDbEntity
  8
0
 62
256
370
-3
 48
1.0
  6
ByLayer
100
AcDbLine
 10
141.0999999999999943
 20
34.9999999999999929
 30
0.0
 11
141.0999999999999943
 21
32.9999999999999929
 31
0.0
  0
ARC
  5
92
100
AcDbEntity
  8
0
 62
256
370
-3
 48
1.0
  6
ByLayer
100
AcDbCircle
 10
142.0999999999999943
 20
93.2000000000000171
 30
0.0
 40
1.0
100
AcDbArc
 50
90.0
 51
180.0
  0
LINE
  5
93
100
AcDbEntity
  8
0
 62
256
370
-3
 48
1.0
  6
ByLayer
100
AcDbLine
 10
141.0999999999999943
 20
91.2000000000000171
 30
0.0
 11
94.0
 21
91.2000000000000171
 31
0.0
  0
ARC
  5
94
100
AcDbEntity
  8
0
 62
256
370
-3
 48
1.0
  6
ByLayer
100
AcDbCircle
 10
152.0999999999999943
 20
93.2000000000000171
 30
0.0
 40
1.0
100
AcDbArc
 50
0.0
 51
90.0
  0
LINE
  5
95
100
AcDbEntity
  8
0
 62
256
370
-3
 48
1.0
  6
ByLayer
100
AcDbLine
 10
94.0
 20
34.9999999999999929
 30
0.0
 11
141.0999999999999943
 21
34.9999999999999929
 31
0.0
  0
LINE
  5
96
100
AcDbEntity
  8
0
 62
256
370
-3
 48
1.0
  6
ByLayer
100
AcDbLine
 10
152.0999999999999943
 20
94.2000000000000171
 30
0.0
 11
142.0999999999999943
 21
94.2000000000000171
 31
0.0
  0
ARC
  5
97
100
AcDbEntity
  8
0
 62
256
370
-3
 48
1.0
  6
ByLayer
100
AcDbCircle
 10
88.4000000000000057
 20
90.2000000000000171
 30
0.0
 40
1.0
100
AcDbArc
 50
90.0
 51
180.0
  0
LINE
  5
98
100
AcDbEntity
  8
0
 62
256
370
-3
 48
1.0
  6
ByLayer
100
AcDbLine
 10
141.0999999999999943
 20
93.2000000000000171
 30
0.0
 11
141.0999999999999943
 21
91.2000000000000171
 31
0.0
  0
LINE
  5
99
100
AcDbEntity
  8
0
 62
256
370
-3
 48
1.0
  6
ByLayer
100
AcDbLine
 10
153.0999999999999943
 20
34.9999999999999929
 30
0.0
 11
171.8000000000000114
 21
34.9999999999999929
 31
0.0
  0
LINE
  5
9A
100
AcDbEntity
  8
0
 62
256
370
-3
 48
1.0
  6
ByLayer
100
AcDbLine
 10
87.4000000000000057
 20
90.2000000000000171
 30
0.0
 11
87.4000000000000057
 21
35.9999999999999929
 31
0.0
  0
LINE
  5
9B
100
AcDbEntity
  8
0
 62
256
370
-3
 48
1.0
  6
ByLayer
100
AcDbLine
 10
3.000000000000028
 20
27.0000000000000817
 30
0.0
 11
3.000000000000028
 21
27.0000000000000817
 31
0.0
  0
LINE
  5
9C
100
AcDbEntity
  8
0
 62
256
370
-3
 48
1.0
  6
ByLayer
100
AcDbLine
 10
6.0
 20
18.9999999999999893
 30
0.0
 11
6.0
 21
11.0000000000000604
 31
0.0
  0
LINE
  5
9D
100
AcDbEntity
  8
0
 62
256
370
-3
 48
1.0
  6
ByLayer
100
AcDbLine
 10
170.3000000000000114
 20
26.9999999999999396
 30
0.0
 11
167.4000000000000057
 21
26.9999999999999396
 31
0.0
  0
LINE
  5
9E
100
AcDbEntity
  8
0
 62
256
370
-3
 48
1.0
  6
ByLayer
100
AcDbLine
 10
94.4000000000000057
 20
3.0
 30
0.0
 11
94.4000000000000057
 21
1.5
 31
0.0
  0
LINE
  5
9F
100
AcDbEntity
  8
0
 62
256
370
-3
 48
1.0
  6
ByLayer
100
AcDbLine
 10
167.4000000000000057
 20
26.9999999999999396
 30
0.0
 11
167.4000000000000057
 21
18.0000000000000391
 31
0.0
  0
LINE
  5
A0
100
AcDbEntity
  8
0
 62
256
370
-3
 48
1.0
  6
ByLayer
100
AcDbLine
 10
167.4000000000000057
 20
18.0000000000000391
 30
0.0
 11
170.3000000000000114
 21
17.9999999999999396
 31
0.0
  0
LINE
  5
A1
100
AcDbEntity
  8
0
 62
256
370
-3
 48
1.0
  6
ByLayer
100
AcDbLine
 10
170.3000000000000114
 20
17.9999999999999396
 30
0.0
 11
170.3000000000000114
 21
26.9999999999999396
 31
0.0
  0
LINE
  5
A2
100
AcDbEntity
  8
0
 62
256
370
-3
 48
1.0
  6
ByLayer
100
AcDbLine
 10
170.3000000000000114
 20
11.1000000000000796
 30
0.0
 11
167.4000000000000057
 21
11.10000000000006
 31
0.0
  0
ARC
  5
A3
100
AcDbEntity
  8
0
 62
256
370
-3
 48
1.0
  6
ByLayer
100
AcDbCircle
 10
94.4000000000000057
 20
8.0
 30
0.0
 40
3.0
100
AcDbArc
 50
0.0
 51
90.0
  0
LINE
  5
A4
100
AcDbEntity
  8
0
 62
256
370
-3
 48
1.0
  6
ByLayer
100
AcDbLine
 10
167.4000000000000057
 20
11.10000000000006
 30
0.0
 11
167.4000000000000057
 21
3.1000000000000161
 31
0.0
  0
LINE
  5
A5
100
AcDbEntity
  8
0
 62
256
370
-3
 48
1.0
  6
ByLayer
100
AcDbLine
 10
167.4000000000000057
 20
3.1000000000000161
 30
0.0
 11
170.3000000000000114
 21
3.1000000000000161
 31
0.0
  0
LINE
  5
A6
100
AcDbEntity
  8
0
 62
256
370
-3
 48
1.0
  6
ByLayer
100
AcDbLine
 10
170.3000000000000114
 20
3.1000000000000161
 30
0.0
 11
170.3000000000000114
 21
11.1000000000000796
 31
0.0
  0
ARC
  5
A7
100
AcDbEntity
  8
0
 62
256
370
-3
 48
1.0
  6
ByLayer
100
AcDbCircle
 10
94.4000000000000057
 20
4.5
 30
0.0
 40
3.0
100
AcDbArc
 50
270.0
 51
0.0
  0
LINE
  5
A8
100
AcDbEntity
  8
0
 62
256
370
-3
 48
1.0
  6
ByLayer
100
AcDbLine
 10
94.4000000000000057
 20
3.0
 30
0.0
 11
91.4000000000000057
 21
3.0
 31
0.0
  0
LINE
  5
A9
100
AcDbEntity
  8
0
 62
256
370
-3
 48
1.0
  6
ByLayer
100
AcDbLine
 10
97.4000000000000057
 20
4.5
 30
0.0
 11
97.4000000000000057
 21
5.5
 31
0.0
  0
LINE
  5
AA
100
AcDbEntity
  8
0
 62
256
370
-3
 48
1.0
  6
ByLayer
100
AcDbLine
 10
111.2000000000000028
 20
26.9999999999999893
 30
0.0
 11
108.2999999999999972
 21
27.0000000000000107
 31
0.0
  0
LINE
  5
AB
100
AcDbEntity
  8
0
 62
256
370
-3
 48
1.0
  6
ByLayer
100
AcDbLine
 10
94.4000000000000057
 20
11.0
 30
0.0
 11
91.4000000000000057
 21
11.0
 31
0.0
  0
LINE
  5
AC
100
AcDbEntity
  8
0
 62
256
370
-3
 48
1.0
  6
ByLayer
100
AcDbLine
 10
108.2999999999999972
 20
27.0000000000000107
 30
0.0
 11
108.2999999999999972
 21
17.9999999999999893
 31
0.0
  0
LINE
  5
AD
100
AcDbEntity
  8
0
 62
256
370
-3
 48
1.0
  6
ByLayer
100
AcDbLine
 10
108.2999999999999972
 20
17.9999999999999893
 30
0.0
 11
111.2000000000000028
 21
17.9999999999999893
 31
0.0
  0
LINE
  5
AE
100
AcDbEntity
  8
0
 62
256
370
-3
 48
1.0
  6
ByLayer
100
AcDbLine
 10
111.2000000000000028
 20
17.9999999999999893
 30
0.0
 11
111.2000000000000028
 21
26.9999999999999893
 31
0.0
  0
LINE
  5
AF
100
AcDbEntity
  8
0
 62
256
370
-3
 48
1.0
  6
ByLayer
100
AcDbLine
 10
91.4000000000000057
 20
-0.0000000000000142
 30
0.0
 11
91.4000000000000057
 21
0.0
 31
0.0
  0
LINE
  5
B0
100
AcDbEntity
  8
0
 62
256
370
-3
 48
1.0
  6
ByLayer
100
AcDbLine
 10
91.4000000000000057
 20
3.0
 30
0.0
 11
91.4000000000000057
 21
1.0
 31
0.0
  0
LINE
  5
B1
100
AcDbEntity
  8
0
 62
256
370
-3
 48
1.0
  6
ByLayer
100
AcDbLine
 10
111.2000000000000028
 20
11.0999999999999996
 30
0.0
 11
108.2999999999999972
 21
11.1000000000000103
 31
0.0
  0
LINE
  5
B2
100
AcDbEntity
  8
0
 62
256
370
-3
 48
1.0
  6
ByLayer
100
AcDbLine
 10
97.4000000000000057
 20
7.0
 30
0.0
 11
91.4000000000000057
 21
7.0
 31
0.0
  0
LINE
  5
B3
100
AcDbEntity
  8
0
 62
256
370
-3
 48
1.0
  6
ByLayer
100
AcDbLine
 10
108.2999999999999972
 20
11.1000000000000103
 30
0.0
 11
108.2999999999999972
 21
3.0999999999999872
 31
0.0
  0
LINE
  5
B4
100
AcDbEntity
  8
0
 62
256
370
-3
 48
1.0
  6
ByLayer
100
AcDbLine
 10
97.4000000000000057
 20
5.5
 30
0.0
 11
91.4000000000000057
 21
5.5
 31
0.0
  0
LINE
  5
B5
100
AcDbEntity
  8
0
 62
256
370
-3
 48
1.0
  6
ByLayer
100
AcDbLine
 10
108.2999999999999972
 20
3.0999999999999872
 30
0.0
 11
111.2000000000000028
 21
3.0999999999999872
 31
0.0
  0
LINE
  5
B6
100
AcDbEntity
  8
0
 62
256
370
-3
 48
1.0
  6
ByLayer
100
AcDbLine
 10
111.2000000000000028
 20
3.0999999999999872
 30
0.0
 11
111.2000000000000028
 21
11.0999999999999996
 31
0.0
  0
ARC
  5
B7
100
AcDbEntity
  8
0
 62
256
370
-3
 48
1.0
  6
ByLayer
100
AcDbCircle
 10
107.2000000000000028
 20
27.9999999999999609
 30
0.0
 40
2.0
100
AcDbArc
 50
90.0
 51
180.0
  0
ARC
  5
B8
100
AcDbEntity
  8
0
 62
256
370
-3
 48
1.0
  6
ByLayer
100
AcDbCircle
 10
94.7391479261810048
 20
-42.8883763127953728
 30
0.0
 40
50.0
100
AcDbArc
 50
93.8292316441646506
 51
103.4020647241629973
  0
ARC
  5
B9
100
AcDbEntity
  8
0
 62
256
370
-3
 48
1.0
  6
ByLayer
100
AcDbCircle
 10
107.2000000000000028
 20
1.9999999999999929
 30
0.0
 40
2.0
100
AcDbArc
 50
180.0
 51
270.0
  0
ARC
  5
BA
100
AcDbEntity
  8
0
 62
256
370
-3
 48
1.0
  6
ByLayer
100
AcDbCircle
 10
171.4000000000000057
 20
2.0000000000000142
 30
0.0
 40
2.0
100
AcDbArc
 50
270.0
 51
0.0
  0
ARC
  5
BB
100
AcDbEntity
  8
0
 62
256
370
-3
 48
1.0
  6
ByLayer
100
AcDbCircle
 10
94.7391479261811753
 20
-44.3883763127953372
 30
0.0
 40
50.0
100
AcDbArc
 50
93.82923164416502
 51
103.4020647241631963
  0
ARC
  5
BC
100
AcDbEntity
  8
0
 62
256
370
-3
 48
1.0
  6
ByLayer
100
AcDbCircle
 10
171.4000000000000057
 20
27.9999999999999396
 30
0.0
 40
2.0
100
AcDbArc
 50
0.0
 51
90.0
  0
LINE
  5
BD
100
AcDbEntity
  8
0
 62
256
370
-3
 48
1.0
  6
ByLayer
100
AcDbLine
 10
173.4000000000000057
 20
2.000000000000028
 30
0.0
 11
173.4000000000000057
 21
27.9999999999999893
 31
0.0
  0
ARC
  5
BE
100
AcDbEntity
  8
0
 62
256
370
-3
 48
1.0
  6
ByLayer
100
AcDbCircle
 10
71.8728350968074921
 20
54.4616572469691889
 30
0.0
 40
50.0
100
AcDbArc
 50
274.1964839032308987
 51
283.0348280905872116
  0
LINE
  5
BF
100
AcDbEntity
  8
0
 62
256
370
-3
 48
1.0
  6
ByLayer
100
AcDbLine
 10
171.4000000000000057
 20
29.9999999999999396
 30
0.0
 11
107.2000000000000028
 21
29.9999999999999893
 31
0.0
  0
ARC
  5
C0
100
AcDbEntity
  8
0
 62
256
370
-3
 48
1.0
  6
ByLayer
100
AcDbCircle
 10
71.9814507382278919
 20
52.9866751778100635
 30
0.0
 40
50.0
100
AcDbArc
 50
274.197904263076623
 51
282.9071047091695164
  0
LINE
  5
C1
100
AcDbEntity
  8
0
 62
256
370
-3
 48
1.0
  6
ByLayer
100
AcDbLine
 10
105.2000000000000028
 20
27.9999999999999893
 30
0.0
 11
105.2000000000000028
 21
2.0
 31
0.0
  0
LINE
  5
C2
100
AcDbEntity
  8
0
 62
256
370
-3
 48
1.0
  6
ByLayer
100
AcDbLine
 10
97.4000000000000057
 20
7.0
 30
0.0
 11
97.4000000000000057
 21
8.0
 31
0.0
  0
LINE
  5
C3
100
AcDbEntity
  8
0
 62
256
370
-3
 48
1.0
  6
ByLayer
100
AcDbLine
 10
107.2000000000000028
 20
0.0
 30
0.0
 11
171.4000000000000057
 21
0.0000000000000284
 31
0.0
  0
ARC
  5
C4
100
AcDbEntity
  8
0
 62
256
370
-3
 48
1.0
  6
ByLayer
100
AcDbCircle
 10
90.4000000000000057
 20
1.0
 30
0.0
 40
1.0
100
AcDbArc
 50
270.0
 51
0.0
  0
LINE
  5
C5
100
AcDbEntity
  8
0
 62
256
370
-3
 48
1.0
  6
ByLayer
100
AcDbLine
 10
3.0
 20
3.0000000000000071
 30
0.0
 11
3.0
 21
3.0000000000000071
 31
0.0
  0
LINE
  5
C6
100
AcDbEntity
  8
0
 62
256
370
-3
 48
1.0
  6
ByLayer
100
AcDbLine
 10
59.7000000000000171
 20
24.0000000000000391
 30
0.0
 11
71.7000000000000028
 21
24.0000000000000107
 31
0.0
  0
LINE
  5
C7
100
AcDbEntity
  8
0
 62
256
370
-3
 48
1.0
  6
ByLayer
100
AcDbLine
 10
71.7000000000000028
 20
24.0000000000000107
 30
0.0
 11
71.7000000000000028
 21
28.0000000000000107
 31
0.0
  0
ARC
  5
C8
100
AcDbEntity
  8
0
 62
256
370
-3
 48
1.0
  6
ByLayer
100
AcDbCircle
 10
3.0
 20
8.0000000000000711
 30
0.0
 40
3.0
100
AcDbArc
 50
90.0
 51
180.0
  0
LINE
  5
C9
100
AcDbEntity
  8
0
 62
256
370
-3
 48
1.0
  6
ByLayer
100
AcDbLine
 10
37.7000000000000171
 20
6.0000000000000142
 30
0.0
 11
25.6999999999999886
 21
6.0
 31
0.0
  0
LINE
  5
CA
100
AcDbEntity
  8
0
 62
256
370
-3
 48
1.0
  6
ByLayer
100
AcDbLine
 10
25.6999999999999886
 20
6.0
 30
0.0
 11
25.6999999999999886
 21
3.0000000000000142
 31
0.0
  0
ARC
  5
CB
100
AcDbEntity
  8
0
 62
256
370
-3
 48
1.0
  6
ByLayer
100
AcDbCircle
 10
3.0
 20
4.5
 30
0.0
 40
3.0
100
AcDbArc
 50
180.0
 51
270.0
  0
LINE
  5
CC
100
AcDbEntity
  8
0
 62
256
370
-3
 48
1.0
  6
ByLayer
100
AcDbLine
 10
25.6999999999999886
 20
3.0000000000000142
 30
0.0
 11
37.7000000000000171
 21
3.0000000000000142
 31
0.0
  0
LINE
  5
CD
100
AcDbEntity
  8
0
 62
256
370
-3
 48
1.0
  6
ByLayer
100
AcDbLine
 10
37.7000000000000171
 20
3.0000000000000142
 30
0.0
 11
37.7000000000000171
 21
6.0000000000000142
 31
0.0
  0
LINE
  5
CE
100
AcDbEntity
  8
0
 62
256
370
-3
 48
1.0
  6
ByLayer
100
AcDbLine
 10
71.7000000000000028
 20
6.0
 30
0.0
 11
59.7000000000000028
 21
5.9999999999999929
 31
0.0
  0
LINE
  5
CF
100
AcDbEntity
  8
0
 62
256
370
-3
 48
1.0
  6
ByLayer
100
AcDbLine
 10
0.0
 20
8.0000000000000142
 30
0.0
 11
0.0
 21
7.0
 31
0.0
  0
LINE
  5
D0
100
AcDbEntity
  8
0
 62
256
370
-3
 48
1.0
  6
ByLayer
100
AcDbLine
 10
59.7000000000000028
 20
5.9999999999999929
 30
0.0
 11
59.7000000000000028
 21
3.0
 31
0.0
  0
LINE
  5
D1
100
AcDbEntity
  8
0
 62
256
370
-3
 48
1.0
  6
ByLayer
100
AcDbLine
 10
59.7000000000000028
 20
3.0
 30
0.0
 11
71.7000000000000028
 21
3.0
 31
0.0
  0
LINE
  5
D2
100
AcDbEntity
  8
0
 62
256
370
-3
 48
1.0
  6
ByLayer
100
AcDbLine
 10
71.7000000000000028
 20
3.0
 30
0.0
 11
71.7000000000000028
 21
6.0
 31
0.0
  0
LINE
  5
D3
100
AcDbEntity
  8
0
 62
256
370
-3
 48
1.0
  6
ByLayer
100
AcDbLine
 10
3.0
 20
3.0000000000000071
 30
0.0
 11
3.0
 21
1.5000000000000431
 31
0.0
  0
LINE
  5
D4
100
AcDbEntity
  8
0
 62
256
370
-3
 48
1.0
  6
ByLayer
100
AcDbLine
 10
6.0
 20
2.999999999999964
 30
0.0
 11
6.0
 21
1.0
 31
0.0
  0
LINE
  5
D5
100
AcDbEntity
  8
0
 62
256
370
-3
 48
1.0
  6
ByLayer
100
AcDbLine
 10
6.0
 20
7.0000000000000071
 30
0.0
 11
0.0
 21
7.0
 31
0.0
  0
LINE
  5
D6
100
AcDbEntity
  8
0
 62
256
370
-3
 48
1.0
  6
ByLayer
100
AcDbLine
 10
6.0
 20
5.4999999999999716
 30
0.0
 11
0.0
 21
5.4999999999999787
 31
0.0
  0
LINE
  5
D7
100
AcDbEntity
  8
0
 62
256
370
-3
 48
1.0
  6
ByLayer
100
AcDbLine
 10
6.0
 20
27.0000000000000391
 30
0.0
 11
3.000000000000028
 21
27.0000000000000817
 31
0.0
  0
LINE
  5
D8
100
AcDbEntity
  8
0
 62
256
370
-3
 48
1.0
  6
ByLayer
100
AcDbLine
 10
6.0
 20
2.999999999999964
 30
0.0
 11
3.0
 21
3.0000000000000071
 31
0.0
  0
LINE
  5
D9
100
AcDbEntity
  8
0
 62
256
370
-3
 48
1.0
  6
ByLayer
100
AcDbLine
 10
6.0
 20
11.0000000000000604
 30
0.0
 11
3.0
 21
10.9999999999999396
 31
0.0
  0
LINE
  5
DA
100
AcDbEntity
  8
0
 62
256
370
-3
 48
1.0
  6
ByLayer
100
AcDbLine
 10
94.4000000000000057
 20
26.9999999999999893
 30
0.0
 11
94.4000000000000057
 21
26.9999999999999893
 31
0.0
  0
ARC
  5
DB
100
AcDbEntity
  8
0
 62
256
370
-3
 48
1.0
  6
ByLayer
100
AcDbCircle
 10
25.5277681362404998
 20
54.4615175894285528
 30
0.0
 40
50.0
100
AcDbArc
 50
256.9644623717125
 51
265.6751792971554096
  0
ARC
  5
DC
100
AcDbEntity
  8
0
 62
256
370
-3
 48
1.0
  6
ByLayer
100
AcDbCircle
 10
25.4179638540214796
 20
52.9868093267837068
 30
0.0
 40
50.0
100
AcDbArc
 50
257.0935835065761808
 51
265.6751201250954182
  0
ARC
  5
DD
100
AcDbEntity
  8
0
 62
256
370
-3
 48
1.0
  6
ByLayer
100
AcDbCircle
 10
2.6608520738189441
 20
-42.8883763127953372
 30
0.0
 40
50.0
100
AcDbArc
 50
76.5979352758365479
 51
86.1707683558351789
  0
LINE
  5
DE
100
AcDbEntity
  8
0
 62
256
370
-3
 48
1.0
  6
ByLayer
100
AcDbLine
 10
3.0
 20
19.0000000000001101
 30
0.0
 11
3.0
 21
19.0000000000001101
 31
0.0
  0
ARC
  5
DF
100
AcDbEntity
  8
0
 62
256
370
-3
 48
1.0
  6
ByLayer
100
AcDbCircle
 10
2.6608520738189161
 20
-44.388376312795323
 30
0.0
 40
50.0
100
AcDbArc
 50
76.5979352758365479
 51
86.170768355834781
  0
LINE
  5
E0
100
AcDbEntity
  8
0
 62
256
370
-3
 48
1.0
  6
ByLayer
100
AcDbLine
 10
94.4000000000000057
 20
26.9999999999999893
 30
0.0
 11
91.4000000000000057
 21
26.9999999999999893
 31
0.0
  0
ARC
  5
E1
100
AcDbEntity
  8
0
 62
256
370
-3
 48
1.0
  6
ByLayer
100
AcDbCircle
 10
21.7584633718314286
 20
3.8623540345710552
 30
0.0
 40
0.7415366281685447
100
AcDbArc
 50
261.3843518154982917
 51
90.0950687415787712
  0
LINE
  5
E2
100
AcDbEntity
  8
0
 62
256
370
-3
 48
1.0
  6
ByLayer
100
AcDbLine
 10
0.0
 20
5.4999999999999787
 30
0.0
 11
0.0
 21
4.5000000000000213
 31
0.0
  0
ARC
  5
E3
100
AcDbEntity
  8
0
 62
256
370
-3
 48
1.0
  6
ByLayer
100
AcDbCircle
 10
90.4000000000000199
 20
28.9999999999999893
 30
0.0
 40
1.0
100
AcDbArc
 50
0.0
 51
90.0
  0
LINE
  5
E4
100
AcDbEntity
  8
0
 62
256
370
-3
 48
1.0
  6
ByLayer
100
AcDbLine
 10
90.4000000000000199
 20
29.9999999999999893
 30
0.0
 11
73.7000000000000028
 21
30.0000000000000107
 31
0.0
  0
LINE
  5
E5
100
AcDbEntity
  8
0
 62
256
370
-3
 48
1.0
  6
ByLayer
100
AcDbLine
 10
91.4000000000000057
 20
28.9999999999999893
 30
0.0
 11
91.4000000000000057
 21
26.9999999999999893
 31
0.0
  0
LINE
  5
E6
100
AcDbEntity
  8
0
 62
256
370
-3
 48
1.0
  6
ByLayer
100
AcDbLine
 10
91.4000000000000057
 20
18.9999999999999893
 30
0.0
 11
91.4000000000000057
 21
11.0
 31
0.0
  0
ARC
  5
E7
100
AcDbEntity
  8
0
 62
256
370
-3
 48
1.0
  6
ByLayer
100
AcDbCircle
 10
75.6415366281685948
 20
3.8623540345710201
 30
0.0
 40
0.7415366281685868
100
AcDbArc
 50
98.5191974161499218
 51
278.5220807801184151
  0
ARC
  5
E8
100
AcDbEntity
  8
0
 62
256
370
-3
 48
1.0
  6
ByLayer
100
AcDbCircle
 10
7.0
 20
1.0
 30
0.0
 40
1.0
100
AcDbArc
 50
180.0
 51
270.0
  0
LINE
  5
E9
100
AcDbEntity
  8
0
 62
256
370
-3
 48
1.0
  6
ByLayer
100
AcDbLine
 10
7.0
 20
0.0
 30
0.0
 11
82.0000000000000142
 21
0.0
 31
0.0
  0
LINE
  5
EA
100
AcDbEntity
  8
0
 62
256
370
-3
 48
1.0
  6
ByLayer
100
AcDbLine
 10
6.0
 20
29.0000000000000888
 30
0.0
 11
6.0
 21
27.0000000000000391
 31
0.0
  0
ARC
  5
EB
100
AcDbEntity
  8
0
 62
256
370
-3
 48
1.0
  6
ByLayer
100
AcDbCircle
 10
7.0
 20
29.0000000000000817
 30
0.0
 40
1.0
100
AcDbArc
 50
89.9999999999996874
 51
180.0
  0
LINE
  5
EC
100
AcDbEntity
  8
0
 62
256
370
-3
 48
1.0
  6
ByLayer
100
AcDbLine
 10
3.0999999999999939
 20
99.2000000000000171
 30
0.0
 11
6.0
 21
99.2000000000000171
 31
0.0
  0
LINE
  5
ED
100
AcDbEntity
  8
0
 62
256
370
-3
 48
1.0
  6
ByLayer
100
AcDbLine
 10
6.0
 20
99.2000000000000171
 30
0.0
 11
6.0
 21
108.2000000000000028
 31
0.0
  0
LINE
  5
EE
100
AcDbEntity
  8
0
 62
256
370
-3
 48
1.0
  6
ByLayer
100
AcDbLine
 10
6.0
 20
108.2000000000000028
 30
0.0
 11
3.0999999999999939
 21
108.2000000000000028
 31
0.0
  0
LINE
  5
EF
100
AcDbEntity
  8
0
 62
256
370
-3
 48
1.0
  6
ByLayer
100
AcDbLine
 10
3.0999999999999939
 20
108.2000000000000028
 30
0.0
 11
3.0999999999999939
 21
99.2000000000000171
 31
0.0
  0
LINE
  5
F0
100
AcDbEntity
  8
0
 62
256
370
-3
 48
1.0
  6
ByLayer
100
AcDbLine
 10
3.0999999999999939
 20
115.0999999999999943
 30
0.0
 11
6.0
 21
115.0999999999999943
 31
0.0
  0
LINE
  5
F1
100
AcDbEntity
  8
0
 62
256
370
-3
 48
1.0
  6
ByLayer
100
AcDbLine
 10
6.0
 20
115.0999999999999943
 30
0.0
 11
6.0
 21
123.0999999999999943
 31
0.0
  0
LINE
  5
F2
100
AcDbEntity
  8
0
 62
256
370
-3
 48
1.0
  6
ByLayer
100
AcDbLine
 10
6.0
 20
123.0999999999999943
 30
0.0
 11
3.0999999999999939
 21
123.0999999999999943
 31
0.0
  0
LINE
  5
F3
100
AcDbEntity
  8
0
 62
256
370
-3
 48
1.0
  6
ByLayer
100
AcDbLine
 10
3.0999999999999939
 20
123.0999999999999943
 30
0.0
 11
3.0999999999999939
 21
115.0999999999999943
 31
0.0
  0
LINE
  5
F4
100
AcDbEntity
  8
0
 62
256
370
-3
 48
1.0
  6
ByLayer
100
AcDbLine
 10
62.2000000000000028
 20
99.2000000000000171
 30
0.0
 11
65.0999999999999943
 21
99.2000000000000171
 31
0.0
  0
LINE
  5
F5
100
AcDbEntity
  8
0
 62
256
370
-3
 48
1.0
  6
ByLayer
100
AcDbLine
 10
65.0999999999999943
 20
99.2000000000000171
 30
0.0
 11
65.0999999999999943
 21
108.2000000000000028
 31
0.0
  0
LINE
  5
F6
100
AcDbEntity
  8
0
 62
256
370
-3
 48
1.0
  6
ByLayer
100
AcDbLine
 10
65.0999999999999943
 20
108.2000000000000028
 30
0.0
 11
62.2000000000000028
 21
108.2000000000000028
 31
0.0
  0
LINE
  5
F7
100
AcDbEntity
  8
0
 62
256
370
-3
 48
1.0
  6
ByLayer
100
AcDbLine
 10
62.2000000000000028
 20
108.2000000000000028
 30
0.0
 11
62.2000000000000028
 21
99.2000000000000171
 31
0.0
  0
LINE
  5
F8
100
AcDbEntity
  8
0
 62
256
370
-3
 48
1.0
  6
ByLayer
100
AcDbLine
 10
62.2000000000000028
 20
115.0999999999999943
 30
0.0
 11
65.0999999999999943
 21
115.0999999999999943
 31
0.0
  0
LINE
  5
F9
100
AcDbEntity
  8
0
 62
256
370
-3
 48
1.0
  6
ByLayer
100
AcDbLine
 10
65.0999999999999943
 20
115.0999999999999943
 30
0.0
 11
65.0999999999999943
 21
123.0999999999999943
 31
0.0
  0
LINE
  5
FA
100
AcDbEntity
  8
0
 62
256
370
-3
 48
1.0
  6
ByLayer
100
AcDbLine
 10
65.0999999999999943
 20
123.0999999999999943
 30
0.0
 11
62.2000000000000028
 21
123.0999999999999943
 31
0.0
  0
LINE
  5
FB
100
AcDbEntity
  8
0
 62
256
370
-3
 48
1.0
  6
ByLayer
100
AcDbLine
 10
62.2000000000000028
 20
123.0999999999999943
 30
0.0
 11
62.2000000000000028
 21
115.0999999999999943
 31
0.0
  0
ARC
  5
FC
100
AcDbEntity
  8
0
 62
256
370
-3
 48
1.0
  6
ByLayer
100
AcDbCircle
 10
66.2000000000000028
 20
98.2000000000000171
 30
0.0
 40
2.0
100
AcDbArc
 50
270.0
 51
0.0
  0
ARC
  5
FD
100
AcDbEntity
  8
0
 62
256
370
-3
 48
1.0
  6
ByLayer
100
AcDbCircle
 10
66.2000000000000028
 20
124.2000000000000028
 30
0.0
 40
2.0
100
AcDbArc
 50
0.0
 51
90.0
  0
ARC
  5
FE
100
AcDbEntity
  8
0
 62
256
370
-3
 48
1.0
  6
ByLayer
100
AcDbCircle
 10
2.0
 20
124.2000000000000028
 30
0.0
 40
2.0
100
AcDbArc
 50
90.0
 51
180.0
  0
ARC
  5
FF
100
AcDbEntity
  8
0
 62
256
370
-3
 48
1.0
  6
ByLayer
100
AcDbCircle
 10
2.0
 20
98.2000000000000171
 30
0.0
 40
2.0
100
AcDbArc
 50
180.0
 51
270.0
  0
LINE
  5
100
100
AcDbEntity
  8
0
 62
256
370
-3
 48
1.0
  6
ByLayer
100
AcDbLine
 10
0.0
 20
124.2000000000000028
 30
0.0
 11
0.0
 21
98.2000000000000171
 31
0.0
  0
LINE
  5
101
100
AcDbEntity
  8
0
 62
256
370
-3
 48
1.0
  6
ByLayer
100
AcDbLine
 10
2.0
 20
96.2000000000000171
 30
0.0
 11
66.2000000000000028
 21
96.2000000000000171
 31
0.0
  0
LINE
  5
102
100
AcDbEntity
  8
0
 62
256
370
-3
 48
1.0
  6
ByLayer
100
AcDbLine
 10
68.2000000000000028
 20
98.2000000000000171
 30
0.0
 11
68.2000000000000028
 21
124.2000000000000028
 31
0.0
  0
LINE
  5
103
100
AcDbEntity
  8
0
 62
256
370
-3
 48
1.0
  6
ByLayer
100
AcDbLine
 10
66.2000000000000028
 20
126.2000000000000028
 30
0.0
 11
2.0
 21
126.2000000000000028
 31
0.0
  0
LINE
  5
104
100
AcDbEntity
  8
0
 62
256
370
-3
 48
1.0
  6
ByLayer
100
AcDbLine
 10
146.5999999999999943
 20
102.2000000000000028
 30
0.0
 11
134.5999999999999943
 21
102.2000000000000028
 31
0.0
  0
LINE
  5
105
100
AcDbEntity
  8
0
 62
256
370
-3
 48
1.0
  6
ByLayer
100
AcDbLine
 10
134.5999999999999943
 20
102.2000000000000028
 30
0.0
 11
134.5999999999999943
 21
98.2000000000000171
 31
0.0
  0
LINE
  5
106
100
AcDbEntity
  8
0
 62
256
370
-3
 48
1.0
  6
ByLayer
100
AcDbLine
 10
134.5999999999999943
 20
120.2000000000000028
 30
0.0
 11
146.5999999999999943
 21
120.2000000000000028
 31
0.0
  0
LINE
  5
107
100
AcDbEntity
  8
0
 62
256
370
-3
 48
1.0
  6
ByLayer
100
AcDbLine
 10
146.5999999999999943
 20
120.2000000000000028
 30
0.0
 11
146.5999999999999943
 21
123.2000000000000028
 31
0.0
  0
LINE
  5
108
100
AcDbEntity
  8
0
 62
256
370
-3
 48
1.0
  6
ByLayer
100
AcDbLine
 10
146.5999999999999943
 20
123.2000000000000028
 30
0.0
 11
134.5999999999999943
 21
123.2000000000000028
 31
0.0
  0
LINE
  5
109
100
AcDbEntity
  8
0
 62
256
370
-3
 48
1.0
  6
ByLayer
100
AcDbLine
 10
134.5999999999999943
 20
123.2000000000000028
 30
0.0
 11
134.5999999999999943
 21
120.2000000000000028
 31
0.0
  0
LINE
  5
10A
100
AcDbEntity
  8
0
 62
256
370
-3
 48
1.0
  6
ByLayer
100
AcDbLine
 10
100.5999999999999943
 20
120.2000000000000028
 30
0.0
 11
112.5999999999999943
 21
120.2000000000000028
 31
0.0
  0
LINE
  5
10B
100
AcDbEntity
  8
0
 62
256
370
-3
 48
1.0
  6
ByLayer
100
AcDbLine
 10
112.5999999999999943
 20
120.2000000000000028
 30
0.0
 11
112.5999999999999943
 21
123.2000000000000028
 31
0.0
  0
LINE
  5
10C
100
AcDbEntity
  8
0
 62
256
370
-3
 48
1.0
  6
ByLayer
100
AcDbLine
 10
112.5999999999999943
 20
123.2000000000000028
 30
0.0
 11
100.5999999999999943
 21
123.2000000000000028
 31
0.0
  0
LINE
  5
10D
100
AcDbEntity
  8
0
 62
256
370
-3
 48
1.0
  6
ByLayer
100
AcDbLine
 10
100.5999999999999943
 20
123.2000000000000028
 30
0.0
 11
100.5999999999999943
 21
120.2000000000000028
 31
0.0
  0
LINE
  5
10E
100
AcDbEntity
  8
0
 62
256
370
-3
 48
1.0
  6
ByLayer
100
AcDbLine
 10
166.3000000000000114
 20
99.2000000000000171
 30
0.0
 11
169.3000000000000114
 21
99.2000000000000171
 31
0.0
  0
LINE
  5
10F
100
AcDbEntity
  8
0
 62
256
370
-3
 48
1.0
  6
ByLayer
100
AcDbLine
 10
166.3000000000000114
 20
123.2000000000000028
 30
0.0
 11
169.3000000000000114
 21
123.2000000000000028
 31
0.0
  0
LINE
  5
110
100
AcDbEntity
  8
0
 62
256
370
-3
 48
1.0
  6
ByLayer
100
AcDbLine
 10
166.3000000000000114
 20
115.2000000000000028
 30
0.0
 11
169.3000000000000114
 21
115.2000000000000028
 31
0.0
  0
LINE
  5
111
100
AcDbEntity
  8
0
 62
256
370
-3
 48
1.0
  6
ByLayer
100
AcDbLine
 10
77.9000000000000057
 20
99.2000000000000171
 30
0.0
 11
77.9000000000000057
 21
99.2000000000000171
 31
0.0
  0
LINE
  5
112
100
AcDbEntity
  8
0
 62
256
370
-3
 48
1.0
  6
ByLayer
100
AcDbLine
 10
169.3000000000000114
 20
107.2000000000000028
 30
0.0
 11
169.3000000000000114
 21
107.2000000000000028
 31
0.0
  0
LINE
  5
113
100
AcDbEntity
  8
0
 62
256
370
-3
 48
1.0
  6
ByLayer
100
AcDbLine
 10
77.9000000000000057
 20
99.2000000000000171
 30
0.0
 11
80.9000000000000057
 21
99.2000000000000171
 31
0.0
  0
ARC
  5
114
100
AcDbEntity
  8
0
 62
256
370
-3
 48
1.0
  6
ByLayer
100
AcDbCircle
 10
81.9000000000000057
 20
97.2000000000000171
 30
0.0
 40
1.0
100
AcDbArc
 50
180.0
 51
270.0
  0
LINE
  5
115
100
AcDbEntity
  8
0
 62
256
370
-3
 48
1.0
  6
ByLayer
100
AcDbLine
 10
81.8999999999999915
 20
96.2000000000000171
 30
0.0
 11
132.5999999999999943
 21
96.2000000000000171
 31
0.0
  0
LINE
  5
116
100
AcDbEntity
  8
0
 62
256
370
-3
 48
1.0
  6
ByLayer
100
AcDbLine
 10
80.9000000000000057
 20
97.2000000000000171
 30
0.0
 11
80.9000000000000057
 21
99.2000000000000171
 31
0.0
  0
LINE
  5
117
100
AcDbEntity
  8
0
 62
256
370
-3
 48
1.0
  6
ByLayer
100
AcDbLine
 10
169.3000000000000114
 20
99.2000000000000171
 30
0.0
 11
169.3000000000000114
 21
99.2000000000000171
 31
0.0
  0
LINE
  5
118
100
AcDbEntity
  8
0
 62
256
370
-3
 48
1.0
  6
ByLayer
100
AcDbLine
 10
166.3000000000000114
 20
107.2000000000000028
 30
0.0
 11
166.3000000000000114
 21
115.2000000000000028
 31
0.0
  0
LINE
  5
119
100
AcDbEntity
  8
0
 62
256
370
-3
 48
1.0
  6
ByLayer
100
AcDbLine
 10
77.9000000000000057
 20
123.2000000000000028
 30
0.0
 11
77.9000000000000057
 21
124.7000000000000028
 31
0.0
  0
ARC
  5
11A
100
AcDbEntity
  8
0
 62
256
370
-3
 48
1.0
  6
ByLayer
100
AcDbCircle
 10
77.9000000000000057
 20
118.2000000000000028
 30
0.0
 40
3.0
100
AcDbArc
 50
180.0
 51
270.0
  0
ARC
  5
11B
100
AcDbEntity
  8
0
 62
256
370
-3
 48
1.0
  6
ByLayer
100
AcDbCircle
 10
77.9000000000000057
 20
121.7000000000000028
 30
0.0
 40
3.0
100
AcDbArc
 50
90.0
 51
180.0
  0
LINE
  5
11C
100
AcDbEntity
  8
0
 62
256
370
-3
 48
1.0
  6
ByLayer
100
AcDbLine
 10
77.9000000000000057
 20
123.2000000000000028
 30
0.0
 11
80.9000000000000057
 21
123.2000000000000028
 31
0.0
  0
LINE
  5
11D
100
AcDbEntity
  8
0
 62
256
370
-3
 48
1.0
  6
ByLayer
100
AcDbLine
 10
74.9000000000000057
 20
121.7000000000000028
 30
0.0
 11
74.9000000000000057
 21
120.7000000000000028
 31
0.0
  0
LINE
  5
11E
100
AcDbEntity
  8
0
 62
256
370
-3
 48
1.0
  6
ByLayer
100
AcDbLine
 10
77.9000000000000057
 20
115.2000000000000028
 30
0.0
 11
80.9000000000000057
 21
115.2000000000000028
 31
0.0
  0
LINE
  5
11F
100
AcDbEntity
  8
0
 62
256
370
-3
 48
1.0
  6
ByLayer
100
AcDbLine
 10
80.4000000000000057
 20
126.2000000000000028
 30
0.0
 11
80.4000000000000057
 21
126.2000000000000028
 31
0.0
  0
LINE
  5
120
100
AcDbEntity
  8
0
 62
256
370
-3
 48
1.0
  6
ByLayer
100
AcDbLine
 10
80.9000000000000057
 20
123.2000000000000028
 30
0.0
 11
80.9000000000000057
 21
125.2000000000000028
 31
0.0
  0
LINE
  5
121
100
AcDbEntity
  8
0
 62
256
370
-3
 48
1.0
  6
ByLayer
100
AcDbLine
 10
74.9000000000000057
 20
119.2000000000000028
 30
0.0
 11
80.9000000000000057
 21
119.2000000000000028
 31
0.0
  0
LINE
  5
122
100
AcDbEntity
  8
0
 62
256
370
-3
 48
1.0
  6
ByLayer
100
AcDbLine
 10
74.9000000000000057
 20
120.7000000000000028
 30
0.0
 11
80.9000000000000057
 21
120.7000000000000028
 31
0.0
  0
ARC
  5
123
100
AcDbEntity
  8
0
 62
256
370
-3
 48
1.0
  6
ByLayer
100
AcDbCircle
 10
77.5608520738189782
 20
169.0883763127953898
 30
0.0
 40
50.0
100
AcDbArc
 50
273.829231644164679
 51
283.4020647241630968
  0
ARC
  5
124
100
AcDbEntity
  8
0
 62
256
370
-3
 48
1.0
  6
ByLayer
100
AcDbCircle
 10
77.5608520738188219
 20
170.5883763127953046
 30
0.0
 40
50.0
100
AcDbArc
 50
273.82923164416502
 51
283.4020647241632673
  0
ARC
  5
125
100
AcDbEntity
  8
0
 62
256
370
-3
 48
1.0
  6
ByLayer
100
AcDbCircle
 10
100.4271649031926046
 20
71.7383427530308495
 30
0.0
 40
50.0
100
AcDbArc
 50
94.1964839032308419
 51
103.0348280905872969
  0
ARC
  5
126
100
AcDbEntity
  8
0
 62
256
370
-3
 48
1.0
  6
ByLayer
100
AcDbCircle
 10
100.3185492617721053
 20
73.2133248221899464
 30
0.0
 40
50.0
100
AcDbArc
 50
94.1979042630765946
 51
102.9071047091695021
  0
LINE
  5
127
100
AcDbEntity
  8
0
 62
256
370
-3
 48
1.0
  6
ByLayer
100
AcDbLine
 10
74.9000000000000057
 20
119.2000000000000028
 30
0.0
 11
74.9000000000000057
 21
118.2000000000000028
 31
0.0
  0
ARC
  5
128
100
AcDbEntity
  8
0
 62
256
370
-3
 48
1.0
  6
ByLayer
100
AcDbCircle
 10
81.9000000000000057
 20
125.2000000000000028
 30
0.0
 40
1.0
100
AcDbArc
 50
90.0
 51
180.0
  0
LINE
  5
129
100
AcDbEntity
  8
0
 62
256
370
-3
 48
1.0
  6
ByLayer
100
AcDbLine
 10
169.3000000000000114
 20
123.2000000000000028
 30
0.0
 11
169.3000000000000114
 21
123.2000000000000028
 31
0.0
  0
ARC
  5
12A
100
AcDbEntity
  8
0
 62
256
370
-3
 48
1.0
  6
ByLayer
100
AcDbCircle
 10
169.3000000000000114
 20
118.2000000000000028
 30
0.0
 40
3.0
100
AcDbArc
 50
270.0
 51
0.0
  0
ARC
  5
12B
100
AcDbEntity
  8
0
 62
256
370
-3
 48
1.0
  6
ByLayer
100
AcDbCircle
 10
169.3000000000000114
 20
121.7000000000000028
 30
0.0
 40
3.0
100
AcDbArc
 50
0.0
 51
90.0
  0
LINE
  5
12C
100
AcDbEntity
  8
0
 62
256
370
-3
 48
1.0
  6
ByLayer
100
AcDbLine
 10
172.3000000000000114
 20
118.2000000000000028
 30
0.0
 11
172.3000000000000114
 21
119.2000000000000028
 31
0.0
  0
LINE
  5
12D
100
AcDbEntity
  8
0
 62
256
370
-3
 48
1.0
  6
ByLayer
100
AcDbLine
 10
169.3000000000000114
 20
123.2000000000000028
 30
0.0
 11
169.3000000000000114
 21
124.7000000000000028
 31
0.0
  0
LINE
  5
12E
100
AcDbEntity
  8
0
 62
256
370
-3
 48
1.0
  6
ByLayer
100
AcDbLine
 10
166.3000000000000114
 20
123.2000000000000028
 30
0.0
 11
166.3000000000000114
 21
125.2000000000000028
 31
0.0
  0
LINE
  5
12F
100
AcDbEntity
  8
0
 62
256
370
-3
 48
1.0
  6
ByLayer
100
AcDbLine
 10
166.3000000000000114
 20
119.2000000000000028
 30
0.0
 11
172.3000000000000114
 21
119.2000000000000028
 31
0.0
  0
LINE
  5
130
100
AcDbEntity
  8
0
 62
256
370
-3
 48
1.0
  6
ByLayer
100
AcDbLine
 10
166.3000000000000114
 20
120.7000000000000028
 30
0.0
 11
172.3000000000000114
 21
120.7000000000000028
 31
0.0
  0
ARC
  5
131
100
AcDbEntity
  8
0
 62
256
370
-3
 48
1.0
  6
ByLayer
100
AcDbCircle
 10
146.7722318637594867
 20
71.7384824105715211
 30
0.0
 40
50.0
100
AcDbArc
 50
76.9644623717125427
 51
85.8042412599590563
  0
ARC
  5
132
100
AcDbEntity
  8
0
 62
256
370
-3
 48
1.0
  6
ByLayer
100
AcDbCircle
 10
146.8820361459785033
 20
73.2131906732163316
 30
0.0
 40
50.0
100
AcDbArc
 50
77.0935835065760671
 51
85.6751201250956171
  0
ARC
  5
133
100
AcDbEntity
  8
0
 62
256
370
-3
 48
1.0
  6
ByLayer
100
AcDbCircle
 10
169.6391479261810957
 20
169.0883763127953046
 30
0.0
 40
50.0
100
AcDbArc
 50
256.597935275836619
 51
266.1707683558351505
  0
ARC
  5
134
100
AcDbEntity
  8
0
 62
256
370
-3
 48
1.0
  6
ByLayer
100
AcDbCircle
 10
169.6391479261810957
 20
170.5883763127953046
 30
0.0
 40
50.0
100
AcDbArc
 50
256.597935275836619
 51
266.1707683558348663
  0
ARC
  5
135
100
AcDbEntity
  8
0
 62
256
370
-3
 48
1.0
  6
ByLayer
100
AcDbCircle
 10
150.5415366281685863
 20
122.3376459654290045
 30
0.0
 40
0.7415366281685447
100
AcDbArc
 50
81.3843518154982775
 51
261.3843518155396168
  0
LINE
  5
136
100
AcDbEntity
  8
0
 62
256
370
-3
 48
1.0
  6
ByLayer
100
AcDbLine
 10
172.3000000000000114
 20
120.7000000000000028
 30
0.0
 11
172.3000000000000114
 21
121.7000000000000028
 31
0.0
  0
ARC
  5
137
100
AcDbEntity
  8
0
 62
256
370
-3
 48
1.0
  6
ByLayer
100
AcDbCircle
 10
96.6584633718314024
 20
122.3376459654290045
 30
0.0
 40
0.7415366281685868
100
AcDbArc
 50
278.5191974163502096
 51
98.5220807801184293
  0
ARC
  5
138
100
AcDbEntity
  8
0
 62
256
370
-3
 48
1.0
  6
ByLayer
100
AcDbCircle
 10
165.3000000000000114
 20
97.2000000000000171
 30
0.0
 40
1.0
100
AcDbArc
 50
270.0
 51
0.0
  0
LINE
  5
139
100
AcDbEntity
  8
0
 62
256
370
-3
 48
1.0
  6
ByLayer
100
AcDbLine
 10
166.3000000000000114
 20
97.2000000000000171
 30
0.0
 11
166.3000000000000114
 21
99.2000000000000171
 31
0.0
  0
ARC
  5
13A
100
AcDbEntity
  8
0
 62
256
370
-3
 48
1.0
  6
ByLayer
100
AcDbCircle
 10
165.3000000000000114
 20
125.2000000000000028
 30
0.0
 40
1.0
100
AcDbArc
 50
0.0
 51
90.0
  0
LINE
  5
13B
100
AcDbEntity
  8
0
 62
256
370
-3
 48
1.0
  6
ByLayer
100
AcDbLine
 10
165.3000000000000114
 20
126.2000000000000028
 30
0.0
 11
81.9000000000000057
 21
126.2000000000000028
 31
0.0
  0
LINE
  5
13C
100
AcDbEntity
  8
connector cutout
 62
256
370
-1
 48
1.0
  6
ByLayer
100
AcDbLine
 10
113.5499999999999972
 20
10.0
 30
0.0
 11
129.5500000000000114
 21
10.0
 31
0.0
  0
LINE
  5
13D
100
AcDbEntity
  8
connector cutout
 62
256
370
-1
 48
1.0
  6
ByLayer
100
AcDbLine
 10
129.5500000000000114
 20
10.0
 30
0.0
 11
129.5500000000000114
 21
23.9999999999999893
 31
0.0
  0
LINE
  5
13E
100
AcDbEntity
  8
connector cutout
 62
256
370
-1
 48
1.0
  6
ByLayer
100
AcDbLine
 10
129.5500000000000114
 20
23.9999999999999893
 30
0.0
 11
113.5499999999999972
 21
23.9999999999999893
 31
0.0
  0
LINE
  5
13F
100
AcDbEntity
  8
connector cutout
 62
256
370
-1
 48
1.0
  6
ByLayer
100
AcDbLine
 10
113.5499999999999972
 20
23.9999999999999893
 30
0.0
 11
113.5499999999999972
 21
10.0
 31
0.0
  0
LINE
  5
140
100
AcDbEntity
  8
connector cutout
 62
256
370
-1
 48
1.0
  6
ByLayer
100
AcDbLine
 10
12.5500000000000096
 20
10.0
 30
0.0
 11
21.0500000000000114
 21
10.0
 31
0.0
  0
LINE
  5
141
100
AcDbEntity
  8
connector cutout
 62
256
370
-1
 48
1.0
  6
ByLayer
100
AcDbLine
 10
21.0500000000000114
 20
10.0
 30
0.0
 11
21.0500000000000114
 21
13.5
 31
0.0
  0
LINE
  5
142
100
AcDbEntity
  8
connector cutout
 62
256
370
-1
 48
1.0
  6
ByLayer
100
AcDbLine
 10
21.0500000000000114
 20
13.5
 30
0.0
 11
12.5500000000000096
 21
13.5
 31
0.0
  0
LINE
  5
143
100
AcDbEntity
  8
connector cutout
 62
256
370
-1
 48
1.0
  6
ByLayer
100
AcDbLine
 10
12.5500000000000096
 20
13.5
 30
0.0
 11
12.5500000000000096
 21
10.0
 31
0.0
  0
LINE
  5
144
100
AcDbEntity
  8
connector cutout
 62
256
370
-1
 48
1.0
  6
ByLayer
100
AcDbLine
 10
30.4499999999999886
 20
10.0
 30
0.0
 11
45.9500000000000171
 21
10.0
 31
0.0
  0
LINE
  5
145
100
AcDbEntity
  8
connector cutout
 62
256
370
-1
 48
1.0
  6
ByLayer
100
AcDbLine
 10
45.9500000000000171
 20
10.0
 30
0.0
 11
45.9500000000000171
 21
17.0
 31
0.0
  0
LINE
  5
146
100
AcDbEntity
  8
connector cutout
 62
256
370
-1
 48
1.0
  6
ByLayer
100
AcDbLine
 10
45.9500000000000171
 20
17.0
 30
0.0
 11
30.4499999999999886
 21
17.0
 31
0.0
  0
LINE
  5
147
100
AcDbEntity
  8
connector cutout
 62
256
370
-1
 48
1.0
  6
ByLayer
100
AcDbLine
 10
30.4499999999999886
 20
17.0
 30
0.0
 11
30.4499999999999886
 21
10.0
 31
0.0
  0
CIRCLE
  5
148
100
AcDbEntity
  8
connector cutout
 62
256
370
-1
 48
1.0
  6
ByLayer
100
AcDbCircle
 10
59.7000000000000028
 20
13.25
 30
0.0
 40
3.25
  0
LINE
  5
149
100
AcDbEntity
  8
connector cutout
 62
256
370
-1
 48
1.0
  6
ByLayer
100
AcDbLine
 10
27.4499999999999886
 20
117.7999999999999972
 30
0.0
 11
40.9500000000000171
 21
117.7999999999999972
 31
0.0
  0
LINE
  5
14A
100
AcDbEntity
  8
connector cutout
 62
256
370
-1
 48
1.0
  6
ByLayer
100
AcDbLine
 10
40.9500000000000171
 20
117.7999999999999972
 30
0.0
 11
40.9500000000000171
 21
119.2999999999999972
 31
0.0
  0
LINE
  5
14B
100
AcDbEntity
  8
connector cutout
 62
256
370
-1
 48
1.0
  6
ByLayer
100
AcDbLine
 10
40.9500000000000171
 20
119.2999999999999972
 30
0.0
 11
27.4499999999999886
 21
119.2999999999999972
 31
0.0
  0
LINE
  5
14C
100
AcDbEntity
  8
connector cutout
 62
256
370
-1
 48
1.0
  6
ByLayer
100
AcDbLine
 10
27.4499999999999886
 20
119.2999999999999972
 30
0.0
 11
27.4499999999999886
 21
117.7999999999999972
 31
0.0
  0
CIRCLE
  5
14D
100
AcDbEntity
  8
connector cutout
 62
256
370
-1
 48
1.0
  6
ByLayer
100
AcDbCircle
 10
3.6999999999999891
 20
38.6000000000000014
 30
0.0
 40
1.3500000000000001
  0
CIRCLE
  5
14E
100
AcDbEntity
  8
connector cutout
 62
256
370
-1
 48
1.0
  6
ByLayer
100
AcDbCircle
 10
61.7000000000000028
 20
38.6000000000000014
 30
0.0
 40
1.3500000000000001
  0
CIRCLE
  5
14F
100
AcDbEntity
  8
connector cutout
 62
256
370
-1
 48
1.0
  6
ByLayer
100
AcDbCircle
 10
61.7000000000000028
 20
87.5999999999999943
 30
0.0
 40
1.3500000000000001
  0
CIRCLE
  5
150
100
AcDbEntity
  8
connector cutout
 62
256
370
-1
 48
1.0
  6
ByLayer
100
AcDbCircle
 10
3.6999999999999891
 20
87.5999999999999943
 30
0.0
 40
1.3500000000000001
  0
LINE
  5
151
100
AcDbEntity
  8
connector cutout
 62
256
370
-1
 48
1.0
  6
ByLayer
100
AcDbLine
 10
132.4499999999999886
 20
10.5
 30
0.0
 11
148.1500000000000057
 21
10.5
 31
0.0
  0
LINE
  5
152
100
AcDbEntity
  8
connector cutout
 62
256
370
-1
 48
1.0
  6
ByLayer
100
AcDbLine
 10
148.1500000000000057
 20
10.5
 30
0.0
 11
148.1500000000000057
 21
26.9999999999999893
 31
0.0
  0
LINE
  5
153
100
AcDbEntity
  8
connector cutout
 62
256
370
-1
 48
1.0
  6
ByLayer
100
AcDbLine
 10
148.1500000000000057
 20
26.9999999999999893
 30
0.0
 11
132.4499999999999886
 21
26.9999999999999893
 31
0.0
  0
LINE
  5
154
100
AcDbEntity
  8
connector cutout
 62
256
370
-1
 48
1.0
  6
ByLayer
100
AcDbLine
 10
132.4499999999999886
 20
26.9999999999999893
 30
0.0
 11
132.4499999999999886
 21
10.5
 31
0.0
  0
LINE
  5
155
100
AcDbEntity
  8
connector cutout
 62
256
370
-1
 48
1.0
  6
ByLayer
100
AcDbLine
 10
150.4499999999999886
 20
10.5
 30
0.0
 11
166.1500000000000057
 21
10.5
 31
0.0
  0
LINE
  5
156
100
AcDbEntity
  8
connector cutout
 62
256
370
-1
 48
1.0
  6
ByLayer
100
AcDbLine
 10
166.1500000000000057
 20
10.5
 30
0.0
 11
166.1500000000000057
 21
26.9999999999999893
 31
0.0
  0
LINE
  5
157
100
AcDbEntity
  8
connector cutout
 62
256
370
-1
 48
1.0
  6
ByLayer
100
AcDbLine
 10
166.1500000000000057
 20
26.9999999999999893
 30
0.0
 11
150.4499999999999886
 21
26.9999999999999893
 31
0.0
  0
LINE
  5
158
100
AcDbEntity
  8
connector cutout
 62
256
370
-1
 48
1.0
  6
ByLayer
100
AcDbLine
 10
150.4499999999999886
 20
26.9999999999999893
 30
0.0
 11
150.4499999999999886
 21
10.5
 31
0.0
  0
ARC
  5
159
100
AcDbEntity
  8
0
 62
256
370
-3
 48
1.0
  6
ByLayer
100
AcDbCircle
 10
95.9000000000000057
 20
26.9999999999999893
 30
0.0
 40
1.5
100
AcDbArc
 50
0.0
 51
180.0
  0
ARC
  5
15A
100
AcDbEntity
  8
0
 62
256
370
-3
 48
1.0
  6
ByLayer
100
AcDbCircle
 10
91.4000000000000199
 20
24.9999999999999893
 30
0.0
 40
6.0
100
AcDbArc
 50
270.0
 51
0.0
  0
LINE
  5
15B
100
AcDbEntity
  8
0
 62
256
370
-3
 48
1.0
  6
ByLayer
100
AcDbLine
 10
97.4000000000000057
 20
25.0000000000000213
 30
0.0
 11
97.4000000000000057
 21
26.9999999999999893
 31
0.0
  0
ARC
  5
15C
100
AcDbEntity
  8
0
 62
256
370
-1
 48
1.0
  6
ByLayer
100
AcDbCircle
 10
1.5
 20
27.0000000000000817
 30
0.0
 40
1.5
100
AcDbArc
 50
0.0
 51
180.0
  0
LINE
  5
15D
100
AcDbEntity
  8
0
 62
256
370
-3
 48
1.0
  6
ByLayer
100
AcDbLine
 10
0.0
 20
27.0000000000000888
 30
0.0
 11
0.0
 21
25.0000000000000391
 31
0.0
  0
ARC
  5
15E
100
AcDbEntity
  8
0
 62
256
370
-1
 48
1.0
  6
ByLayer
100
AcDbCircle
 10
6.0
 20
25.0000000000000213
 30
0.0
 40
6.0
100
AcDbArc
 50
180.0
 51
269.9999999999982947
  0
ARC
  5
15F
100
AcDbEntity
  8
0
 62
256
370
-1
 48
1.0
  6
ByLayer
100
AcDbCircle
 10
76.4000000000000057
 20
99.2000000000000171
 30
0.0
 40
1.5
100
AcDbArc
 50
180.0
 51
0.0
  0
ARC
  5
160
100
AcDbEntity
  8
0
 62
256
370
-1
 48
1.0
  6
ByLayer
100
AcDbCircle
 10
80.9000000000000057
 20
101.2000000000000028
 30
0.0
 40
6.0
100
AcDbArc
 50
90.0
 51
180.0
  0
LINE
  5
161
100
AcDbEntity
  8
0
 62
256
370
-3
 48
1.0
  6
ByLayer
100
AcDbLine
 10
74.9000000000000057
 20
101.2000000000000028
 30
0.0
 11
74.9000000000000057
 21
99.2000000000000171
 31
0.0
  0
ARC
  5
162
100
AcDbEntity
  8
0
 62
256
370
-1
 48
1.0
  6
ByLayer
100
AcDbCircle
 10
170.8000000000000114
 20
99.2000000000000171
 30
0.0
 40
1.5
100
AcDbArc
 50
180.0
 51
0.0
  0
LINE
  5
163
100
AcDbEntity
  8
0
 62
256
370
-3
 48
1.0
  6
ByLayer
100
AcDbLine
 10
172.3000000000000114
 20
99.2000000000000171
 30
0.0
 11
172.3000000000000114
 21
101.2000000000000028
 31
0.0
  0
ARC
  5
164
100
AcDbEntity
  8
0
 62
256
370
-1
 48
1.0
  6
ByLayer
100
AcDbCircle
 10
166.3000000000000114
 20
101.2000000000000028
 30
0.0
 40
6.0
100
AcDbArc
 50
0.0
 51
90.0
  0
ARC
  5
165
100
AcDbEntity
  8
0
 62
256
370
-1
 48
1.0
  6
ByLayer
100
AcDbCircle
 10
132.5999999999999943
 20
98.2000000000000171
 30
0.0
 40
2.0
100
AcDbArc
 50
270.0
 51
0.0
  0
LINE
  5
166
100
AcDbEntity
  8
0
 62
256
370
-3
 48
1.0
  6
ByLayer
100
AcDbLine
 10
146.5999999999999943
 20
98.2000000000000171
 30
0.0
 11
146.5999999999999943
 21
102.2000000000000028
 31
0.0
  0
LINE
  5
167
100
AcDbEntity
  8
0
 62
256
370
-3
 48
1.0
  6
ByLayer
100
AcDbLine
 10
148.5999999999999943
 20
96.2000000000000171
 30
0.0
 11
165.3000000000000114
 21
96.2000000000000171
 31
0.0
  0
ARC
  5
168
100
AcDbEntity
  8
0
 62
256
370
-1
 48
1.0
  6
ByLayer
100
AcDbCircle
 10
148.5999999999999943
 20
98.2000000000000171
 30
0.0
 40
2.0
100
AcDbArc
 50
180.0
 51
270.0
  0
LINE
  5
169
100
AcDbEntity
  8
0
 62
256
370
-3
 48
1.0
  6
ByLayer
100
AcDbLine
 10
57.7000000000000171
 20
30.0000000000000213
 30
0.0
 11
7.0000000000000284
 21
30.0000000000000817
 31
0.0
  0
LINE
  5
16A
100
AcDbEntity
  8
0
 62
256
370
-3
 48
1.0
  6
ByLayer
100
AcDbLine
 10
59.7000000000000028
 20
28.0000000000000391
 30
0.0
 11
59.7000000000000171
 21
24.0000000000000391
 31
0.0
  0
ARC
  5
16B
100
AcDbEntity
  8
0
 62
256
370
-1
 48
1.0
  6
ByLayer
100
AcDbCircle
 10
57.7000000000000171
 20
28.0000000000000391
 30
0.0
 40
2.0
100
AcDbArc
 50
0.0
 51
90.0
  0
ARC
  5
16C
100
AcDbEntity
  8
0
 62
256
370
-1
 48
1.0
  6
ByLayer
100
AcDbCircle
 10
73.7000000000000028
 20
28.0000000000000107
 30
0.0
 40
2.0
100
AcDbArc
 50
90.0
 51
180.0
  0
CIRCLE
  5
16D
100
AcDbEntity
  8
0
 62
256
370
-1
 48
1.0
  6
ByLayer
100
AcDbCircle
 10
11.0999999999999908
 20
25.5000000000000391
 30
0.0
 40
2.1000000000000001
  0
CIRCLE
  5
16E
100
AcDbEntity
  8
0
 62
256
370
-1
 48
1.0
  6
ByLayer
100
AcDbCircle
 10
86.0
 20
100.7000000000000028
 30
0.0
 40
2.1000000000000001
  0
LINE
  5
16F
100
AcDbEntity
  8
0
 62
256
370
-1
 48
1.0
  6
ByLayer
100
AcDbLine
 10
94.0
 20
91.2000000000000171
 30
0.0
 11
94.0
 21
93.7000000000000171
 31
0.0
  0
LINE
  5
170
100
AcDbEntity
  8
0
 62
256
370
-1
 48
1.0
  6
ByLayer
100
AcDbLine
 10
94.0
 20
34.9999999999999929
 30
0.0
 11
93.9999999999999858
 21
34.9999999999999929
 31
0.0
  0
LINE
  5
171
100
AcDbEntity
  8
0
 62
256
370
-1
 48
1.0
  6
ByLayer
100
AcDbLine
 10
91.0
 20
34.9999999999999929
 30
0.0
 11
91.0
 21
32.4999999999999929
 31
0.0
  0
ARC
  5
172
100
AcDbEntity
  8
0
 62
256
370
-1
 48
1.0
  6
ByLayer
100
AcDbCircle
 10
91.5
 20
32.4999999999999929
 30
0.0
 40
0.5
100
AcDbArc
 50
180.0
 51
270.0
  0
LINE
  5
173
100
AcDbEntity
  8
0
 62
256
370
-1
 48
1.0
  6
ByLayer
100
AcDbLine
 10
91.5
 20
31.9999999999999893
 30
0.0
 11
93.5
 21
31.9999999999999893
 31
0.0
  0
ARC
  5
174
100
AcDbEntity
  8
0
 62
256
370
-1
 48
1.0
  6
ByLayer
100
AcDbCircle
 10
93.5
 20
32.4999999999999929
 30
0.0
 40
0.5
100
AcDbArc
 50
270.0
 51
0.0
  0
LINE
  5
175
100
AcDbEntity
  8
0
 62
256
370
-1
 48
1.0
  6
ByLayer
100
AcDbLine
 10
94.0
 20
32.4999999999999929
 30
0.0
 11
94.0
 21
34.9999999999999929
 31
0.0
  0
ARC
  5
176
100
AcDbEntity
  8
0
 62
256
370
-1
 48
1.0
  6
ByLayer
100
AcDbCircle
 10
91.5
 20
93.7000000000000171
 30
0.0
 40
0.5
100
AcDbArc
 50
90.0
 51
180.0
  0
ARC
  5
177
100
AcDbEntity
  8
0
 62
256
370
-1
 48
1.0
  6
ByLayer
100
AcDbCircle
 10
93.5
 20
93.7000000000000171
 30
0.0
 40
0.5
100
AcDbArc
 50
0.0
 51
90.0
  0
LINE
  5
178
100
AcDbEntity
  8
0
 62
256
370
-1
 48
1.0
  6
ByLayer
100
AcDbLine
 10
93.5
 20
94.2000000000000171
 30
0.0
 11
91.5
 21
94.2000000000000171
 31
0.0
  0
LINE
  5
179
100
AcDbEntity
  8
0
 62
256
370
-1
 48
1.0
  6
ByLayer
100
AcDbLine
 10
91.0
 20
93.7000000000000171
 30
0.0
 11
91.0
 21
91.2000000000000171
 31
0.0
  0
LINE
  5
17A
100
AcDbEntity
  8
0
 62
256
370
-3
 48
1.0
  6
ByLayer
100
AcDbLine
 10
91.0
 20
91.2000000000000171
 30
0.0
 11
88.4000000000000057
 21
91.2000000000000171
 31
0.0
  0
LINE
  5
17B
100
AcDbEntity
  8
0
 62
256
370
-1
 48
1.0
  6
ByLayer
100
AcDbLine
 10
94.0
 20
91.2000000000000171
 30
0.0
 11
94.0
 21
91.2000000000000171
 31
0.0
  0
CIRCLE
  5
17C
100
AcDbEntity
  8
connector cutout
 62
256
370
-1
 48
1.0
  6
ByLayer
100
AcDbCircle
 10
141.0999999999999943
 20
63.0999999999999872
 30
0.0
 40
8.0
  0
LINE
  5
17D
100
AcDbEntity
  8
0
 62
256
370
-3
 48
1.0
  6
ByLayer
100
AcDbLine
 10
80.9000000000000057
 20
107.2000000000000028
 30
0.0
 11
80.9000000000000057
 21
115.2000000000000028
 31
0.0
  0
LINE
  5
17E
100
AcDbEntity
  8
0
 62
256
370
-1
 48
1.0
  6
ByLayer
100
AcDbLine
 10
157.3000000000000114
 20
74.2500000000000284
 30
0.0
 11
171.6500000000000057
 21
74.2500000000000284
 31
0.0
  0
LINE
  5
17F
100
AcDbEntity
  8
0
 62
256
370
-1
 48
1.0
  6
ByLayer
100
AcDbLine
 10
157.3000000000000114
 20
89.9500000000000171
 30
0.0
 11
157.3000000000000114
 21
74.2500000000000284
 31
0.0
  0
LINE
  5
180
100
AcDbEntity
  8
0
 62
256
370
-1
 48
1.0
  6
ByLayer
100
AcDbLine
 10
157.3000000000000114
 20
56.2500000000000213
 30
0.0
 11
171.8000000000000114
 21
56.2500000000000213
 31
0.0
  0
LINE
  5
181
100
AcDbEntity
  8
0
 62
256
370
-1
 48
1.0
  6
ByLayer
100
AcDbLine
 10
157.3000000000000114
 20
71.9500000000000171
 30
0.0
 11
157.3000000000000114
 21
56.2500000000000213
 31
0.0
  0
ARC
  5
182
100
AcDbEntity
  8
0
 62
256
370
-1
 48
1.0
  6
ByLayer
100
AcDbCircle
 10
171.6500000000000057
 20
73.1000000000000227
 30
0.0
 40
1.1500000000000059
100
AcDbArc
 50
270.0
 51
90.0
  0
LINE
  5
183
100
AcDbEntity
  8
0
 62
256
370
-1
 48
1.0
  6
ByLayer
100
AcDbLine
 10
171.6500000000000057
 20
71.9500000000000171
 30
0.0
 11
157.3000000000000114
 21
71.9500000000000171
 31
0.0
  0
ARC
  5
184
100
AcDbEntity
  8
0
 62
256
370
-1
 48
1.0
  6
ByLayer
100
AcDbCircle
 10
171.8000000000000114
 20
55.2500000000000213
 30
0.0
 40
1.0
100
AcDbArc
 50
0.0
 51
90.0
  0
ARC
  5
185
100
AcDbEntity
  8
0
 62
256
370
-1
 48
1.0
  6
ByLayer
100
AcDbCircle
 10
172.1750000000000114
 20
90.5750000000000171
 30
0.0
 40
0.625
100
AcDbArc
 50
270.0
 51
90.0
  0
LINE
  5
186
100
AcDbEntity
  8
0
 62
256
370
-1
 48
1.0
  6
ByLayer
100
AcDbLine
 10
172.1750000000000114
 20
89.9500000000000171
 30
0.0
 11
157.3000000000000114
 21
89.9500000000000171
 31
0.0
  0
LINE
  5
187
100
AcDbEntity
  8
0
 62
256
370
-3
 48
1.0
  6
ByLayer
100
AcDbLine
 10
172.1750000000000114
 20
91.2000000000000171
 30
0.0
 11
153.0999999999999943
 21
91.2000000000000171
 31
0.0
  0
ARC
  5
188
100
AcDbEntity
  8
0
 62
256
370
-1
 48
1.0
  6
ByLayer
100
AcDbCircle
 10
83.0
 20
0.5
 30
0.0
 40
0.5
100
AcDbArc
 50
0.0
 51
180.0
  0
ARC
  5
189
100
AcDbEntity
  8
0
 62
256
370
-1
 48
1.0
  6
ByLayer
100
AcDbCircle
 10
84.0
 20
0.5
 30
0.0
 40
0.5
100
AcDbArc
 50
180.0
 51
0.0
  0
ARC
  5
18A
100
AcDbEntity
  8
0
 62
256
370
-1
 48
1.0
  6
ByLayer
100
AcDbCircle
 10
85.0
 20
0.5
 30
0.0
 40
0.5
100
AcDbArc
 50
0.0
 51
180.0
  0
ARC
  5
18B
100
AcDbEntity
  8
0
 62
256
370
-1
 48
1.0
  6
ByLayer
100
AcDbCircle
 10
86.0
 20
0.5
 30
0.0
 40
0.5
100
AcDbArc
 50
180.0
 51
0.0
  0
ARC
  5
18C
100
AcDbEntity
  8
0
 62
256
370
-1
 48
1.0
  6
ByLayer
100
AcDbCircle
 10
87.0
 20
0.5
 30
0.0
 40
0.5
100
AcDbArc
 50
0.0
 51
180.0
  0
ARC
  5
18D
100
AcDbEntity
  8
0
 62
256
370
-1
 48
1.0
  6
ByLayer
100
AcDbCircle
 10
88.0
 20
0.5
 30
0.0
 40
0.5
100
AcDbArc
 50
180.0
 51
0.0
  0
ARC
  5
18E
100
AcDbEntity
  8
0
 62
256
370
-1
 48
1.0
  6
ByLayer
100
AcDbCircle
 10
89.0
 20
0.5
 30
0.0
 40
0.5
100
AcDbArc
 50
0.0
 51
180.0
  0
ARC
  5
18F
100
AcDbEntity
  8
0
 62
256
370
-1
 48
1.0
  6
ByLayer
100
AcDbCircle
 10
90.0
 20
0.5
 30
0.0
 40
0.5
100
AcDbArc
 50
180.0
 51
270.0
  0
LINE
  5
190
100
AcDbEntity
  8
0
 62
256
370
-3
 48
1.0
  6
ByLayer
100
AcDbLine
 10
90.0
 20
0.0
 30
0.0
 11
90.4000000000000057
 21
0.0
 31
0.0
  0
LINE
  5
191
100
AcDbEntity
  8
0
 62
256
370
-3
 48
1.0
  6
ByLayer
100
AcDbLine
 10
82.0000000000000142
 20
0.0
 30
0.0
 11
80.0
 21
0.0
 31
0.0
  0
ARC
  5
192
100
AcDbEntity
  8
0
 62
256
370
-1
 48
1.0
  6
ByLayer
100
AcDbCircle
 10
82.0
 20
0.5
 30
0.0
 40
0.5
100
AcDbArc
 50
270.0
 51
0.0
  0
ENDBLK
  5
193
100
AcDbEntity
  8
0
100
AcDbBlockEnd
  0
BLOCK
  5
194
100
AcDbEntity
  8
0
100
AcDbBlockBegin
  2
pi
 70
0
 10
0.0
 20
0.0
 30
0.0
  3
pi
  1

  0
CIRCLE
  5
195
100
AcDbEntity
  8
0
 62
7
420
16777215
370
-1
 48
1.0
  6
Continuous
100
AcDbCircle
 10
-1.995297648084446
 20
8.7779771806795068
 30
0.0
 40
1.2499999999999889
  0
CIRCLE
  5
196
100
AcDbEntity
  8
0
 62
7
420
16777215
370
-1
 48
1.0
  6
Continuous
100
AcDbCircle
 10
56.0047023519156397
 20
8.7779771806795068
 30
0.0
 40
1.250000000000004
  0
CIRCLE
  5
197
100
AcDbEntity
  8
0
 62
7
420
16777215
370
-1
 48
1.0
  6
Continuous
100
AcDbCircle
 10
56.0047023519156397
 20
-40.2220228193205074
 30
0.0
 40
1.25
  0
CIRCLE
  5
198
100
AcDbEntity
  8
0
 62
7
420
16777215
370
-1
 48
1.0
  6
Continuous
100
AcDbCircle
 10
-1.995297648084446
 20
-40.2220228193205074
 30
0.0
 40
1.2500000000000071
  0
ENDBLK
  5
199
100
AcDbEntity
  8
0
100
AcDbBlockEnd
  0
BLOCK
  5
19A
100
AcDbEntity
  8
0
100
AcDbBlockBegin
  2
block 1
 70
0
 10
0.0
 20
0.0
 30
0.0
  3
block 1
  1

  0
LINE
  5
19B
100
AcDbEntity
  8
0
 62
256
370
-1
 48
1.0
  6
ByLayer
100
AcDbLine
 10
-2.8999999999999999
 20
-24.8999999999999915
 30
0.0
 11
0.0
 21
-24.8999999999999915
 31
0.0
  0
LINE
  5
19C
100
AcDbEntity
  8
0
 62
256
370
-1
 48
1.0
  6
ByLayer
100
AcDbLine
 10
0.0
 20
-24.8999999999999915
 30
0.0
 11
0.0
 21
-15.8999999999999897
 31
0.0
  0
LINE
  5
19D
100
AcDbEntity
  8
0
 62
256
370
-1
 48
1.0
  6
ByLayer
100
AcDbLine
 10
0.0
 20
-15.8999999999999897
 30
0.0
 11
-2.8999999999999999
 21
-15.8999999999999897
 31
0.0
  0
LINE
  5
19E
100
AcDbEntity
  8
0
 62
256
370
-1
 48
1.0
  6
ByLayer
100
AcDbLine
 10
-2.8999999999999999
 20
-15.8999999999999897
 30
0.0
 11
-2.8999999999999999
 21
-24.8999999999999915
 31
0.0
  0
LINE
  5
19F
100
AcDbEntity
  8
0
 62
256
370
-1
 48
1.0
  6
ByLayer
100
AcDbLine
 10
-2.8999999999999999
 20
0.0
 30
0.0
 11
0.0
 21
0.0
 31
0.0
  0
LINE
  5
1A0
100
AcDbEntity
  8
0
 62
256
370
-1
 48
1.0
  6
ByLayer
100
AcDbLine
 10
0.0
 20
0.0
 30
0.0
 11
0.0
 21
8.0
 31
0.0
  0
LINE
  5
1A1
100
AcDbEntity
  8
0
 62
256
370
-1
 48
1.0
  6
ByLayer
100
AcDbLine
 10
0.0
 20
8.0
 30
0.0
 11
-2.8999999999999999
 21
8.0
 31
0.0
  0
LINE
  5
1A2
100
AcDbEntity
  8
0
 62
256
370
-1
 48
1.0
  6
ByLayer
100
AcDbLine
 10
-2.8999999999999999
 20
8.0
 30
0.0
 11
-2.8999999999999999
 21
0.0
 31
0.0
  0
LINE
  5
1A3
100
AcDbEntity
  8
0
 62
256
370
-1
 48
1.0
  6
ByLayer
100
AcDbLine
 10
55.2000000000000028
 20
-24.8999999999999915
 30
0.0
 11
58.0999999999999872
 21
-24.8999999999999915
 31
0.0
  0
LINE
  5
1A4
100
AcDbEntity
  8
0
 62
256
370
-1
 48
1.0
  6
ByLayer
100
AcDbLine
 10
58.0999999999999872
 20
-24.8999999999999915
 30
0.0
 11
58.0999999999999872
 21
-15.8999999999999897
 31
0.0
  0
LINE
  5
1A5
100
AcDbEntity
  8
0
 62
256
370
-1
 48
1.0
  6
ByLayer
100
AcDbLine
 10
58.0999999999999872
 20
-15.8999999999999897
 30
0.0
 11
55.2000000000000028
 21
-15.8999999999999897
 31
0.0
  0
LINE
  5
1A6
100
AcDbEntity
  8
0
 62
256
370
-1
 48
1.0
  6
ByLayer
100
AcDbLine
 10
55.2000000000000028
 20
-15.8999999999999897
 30
0.0
 11
55.2000000000000028
 21
-24.8999999999999915
 31
0.0
  0
LINE
  5
1A7
100
AcDbEntity
  8
0
 62
256
370
-1
 48
1.0
  6
ByLayer
100
AcDbLine
 10
55.2000000000000028
 20
0.0
 30
0.0
 11
58.0999999999999872
 21
0.0
 31
0.0
  0
LINE
  5
1A8
100
AcDbEntity
  8
0
 62
256
370
-1
 48
1.0
  6
ByLayer
100
AcDbLine
 10
58.0999999999999872
 20
0.0
 30
0.0
 11
58.0999999999999872
 21
8.0
 31
0.0
  0
LINE
  5
1A9
100
AcDbEntity
  8
0
 62
256
370
-1
 48
1.0
  6
ByLayer
100
AcDbLine
 10
58.0999999999999872
 20
8.0
 30
0.0
 11
55.2000000000000028
 21
8.0
 31
0.0
  0
LINE
  5
1AA
100
AcDbEntity
  8
0
 62
256
370
-1
 48
1.0
  6
ByLayer
100
AcDbLine
 10
55.2000000000000028
 20
8.0
 30
0.0
 11
55.2000000000000028
 21
0.0
 31
0.0
  0
ARC
  5
1AB
100
AcDbEntity
  8
0
 62
256
370
-1
 48
1.0
  6
ByLayer
100
AcDbCircle
 10
59.2000000000000028
 20
-25.8999999999999915
 30
0.0
 40
2.0
100
AcDbArc
 50
270.0
 51
0.0
  0
ARC
  5
1AC
100
AcDbEntity
  8
0
 62
256
370
-1
 48
1.0
  6
ByLayer
100
AcDbCircle
 10
59.2000000000000028
 20
9.0999999999999943
 30
0.0
 40
2.0
100
AcDbArc
 50
0.0
 51
90.0
  0
ARC
  5
1AD
100
AcDbEntity
  8
0
 62
256
370
-1
 48
1.0
  6
ByLayer
100
AcDbCircle
 10
-4.0
 20
9.0999999999999943
 30
0.0
 40
2.0
100
AcDbArc
 50
90.0
 51
180.0
  0
ARC
  5
1AE
100
AcDbEntity
  8
0
 62
256
370
-1
 48
1.0
  6
ByLayer
100
AcDbCircle
 10
-4.0
 20
-25.8999999999999915
 30
0.0
 40
2.0
100
AcDbArc
 50
180.0
 51
270.0
  0
LINE
  5
1AF
100
AcDbEntity
  8
0
 62
256
370
-1
 48
1.0
  6
ByLayer
100
AcDbLine
 10
-6.0
 20
9.0999999999999943
 30
0.0
 11
-6.0
 21
-25.8999999999999915
 31
0.0
  0
LINE
  5
1B0
100
AcDbEntity
  8
0
 62
256
370
-1
 48
1.0
  6
ByLayer
100
AcDbLine
 10
-4.0
 20
-27.8999999999999915
 30
0.0
 11
59.2000000000000171
 21
-27.8999999999999915
 31
0.0
  0
LINE
  5
1B1
100
AcDbEntity
  8
0
 62
256
370
-1
 48
1.0
  6
ByLayer
100
AcDbLine
 10
61.2000000000000028
 20
-25.8999999999999915
 30
0.0
 11
61.2000000000000028
 21
9.0999999999999943
 31
0.0
  0
LINE
  5
1B2
100
AcDbEntity
  8
0
 62
256
370
-1
 48
1.0
  6
ByLayer
100
AcDbLine
 10
59.2000000000000028
 20
11.0999999999999908
 30
0.0
 11
-4.0
 21
11.0999999999999908
 31
0.0
  0
LINE
  5
1B3
100
AcDbEntity
  8
0
 62
256
370
-1
 48
1.0
  6
ByLayer
100
AcDbLine
 10
133.5
 20
-24.8999999999999915
 30
0.0
 11
145.5
 21
-24.8999999999999915
 31
0.0
  0
LINE
  5
1B4
100
AcDbEntity
  8
0
 62
256
370
-1
 48
1.0
  6
ByLayer
100
AcDbLine
 10
145.5
 20
-24.8999999999999915
 30
0.0
 11
145.5
 21
-21.8999999999999915
 31
0.0
  0
LINE
  5
1B5
100
AcDbEntity
  8
0
 62
256
370
-1
 48
1.0
  6
ByLayer
100
AcDbLine
 10
145.5
 20
-21.8999999999999915
 30
0.0
 11
133.5
 21
-21.8999999999999915
 31
0.0
  0
LINE
  5
1B6
100
AcDbEntity
  8
0
 62
256
370
-1
 48
1.0
  6
ByLayer
100
AcDbLine
 10
133.5
 20
-21.8999999999999915
 30
0.0
 11
133.5
 21
-24.8999999999999915
 31
0.0
  0
LINE
  5
1B7
100
AcDbEntity
  8
0
 62
256
370
-1
 48
1.0
  6
ByLayer
100
AcDbLine
 10
97.5
 20
-24.8999999999999915
 30
0.0
 11
109.5
 21
-24.8999999999999915
 31
0.0
  0
LINE
  5
1B8
100
AcDbEntity
  8
0
 62
256
370
-1
 48
1.0
  6
ByLayer
100
AcDbLine
 10
109.5
 20
-24.8999999999999915
 30
0.0
 11
109.5
 21
-21.8999999999999915
 31
0.0
  0
LINE
  5
1B9
100
AcDbEntity
  8
0
 62
256
370
-1
 48
1.0
  6
ByLayer
100
AcDbLine
 10
109.5
 20
-21.8999999999999915
 30
0.0
 11
97.5
 21
-21.8999999999999915
 31
0.0
  0
LINE
  5
1BA
100
AcDbEntity
  8
0
 62
256
370
-1
 48
1.0
  6
ByLayer
100
AcDbLine
 10
97.5
 20
-21.8999999999999915
 30
0.0
 11
97.5
 21
-24.8999999999999915
 31
0.0
  0
LINE
  5
1BB
100
AcDbEntity
  8
0
 62
256
370
-1
 48
1.0
  6
ByLayer
100
AcDbLine
 10
133.5
 20
5.0999999999999943
 30
0.0
 11
145.5
 21
5.0999999999999943
 31
0.0
  0
LINE
  5
1BC
100
AcDbEntity
  8
0
 62
256
370
-1
 48
1.0
  6
ByLayer
100
AcDbLine
 10
145.5
 20
5.0999999999999943
 30
0.0
 11
145.5
 21
8.0999999999999943
 31
0.0
  0
LINE
  5
1BD
100
AcDbEntity
  8
0
 62
256
370
-1
 48
1.0
  6
ByLayer
100
AcDbLine
 10
145.5
 20
8.0999999999999943
 30
0.0
 11
133.5
 21
8.0999999999999943
 31
0.0
  0
LINE
  5
1BE
100
AcDbEntity
  8
0
 62
256
370
-1
 48
1.0
  6
ByLayer
100
AcDbLine
 10
133.5
 20
8.0999999999999943
 30
0.0
 11
133.5
 21
5.0999999999999943
 31
0.0
  0
LINE
  5
1BF
100
AcDbEntity
  8
0
 62
256
370
-1
 48
1.0
  6
ByLayer
100
AcDbLine
 10
97.5
 20
5.0999999999999943
 30
0.0
 11
109.5
 21
5.0999999999999943
 31
0.0
  0
LINE
  5
1C0
100
AcDbEntity
  8
0
 62
256
370
-1
 48
1.0
  6
ByLayer
100
AcDbLine
 10
109.5
 20
5.0999999999999943
 30
0.0
 11
109.5
 21
8.0999999999999943
 31
0.0
  0
LINE
  5
1C1
100
AcDbEntity
  8
0
 62
256
370
-1
 48
1.0
  6
ByLayer
100
AcDbLine
 10
109.5
 20
8.0999999999999943
 30
0.0
 11
97.5
 21
8.0999999999999943
 31
0.0
  0
LINE
  5
1C2
100
AcDbEntity
  8
0
 62
256
370
-1
 48
1.0
  6
ByLayer
100
AcDbLine
 10
97.5
 20
8.0999999999999943
 30
0.0
 11
97.5
 21
5.0999999999999943
 31
0.0
  0
LINE
  5
1C3
100
AcDbEntity
  8
0
 62
256
370
-1
 48
1.0
  6
ByLayer
100
AcDbLine
 10
165.0
 20
-24.8999999999999915
 30
0.0
 11
168.0
 21
-24.8999999999999915
 31
0.0
  0
LINE
  5
1C4
100
AcDbEntity
  8
0
 62
256
370
-1
 48
1.0
  6
ByLayer
100
AcDbLine
 10
165.0
 20
-16.8999999999999915
 30
0.0
 11
168.0
 21
-16.8999999999999915
 31
0.0
  0
LINE
  5
1C5
100
AcDbEntity
  8
0
 62
256
370
-1
 48
1.0
  6
ByLayer
100
AcDbLine
 10
165.0
 20
8.0999999999999943
 30
0.0
 11
168.0
 21
8.0999999999999943
 31
0.0
  0
LINE
  5
1C6
100
AcDbEntity
  8
0
 62
256
370
-1
 48
1.0
  6
ByLayer
100
AcDbLine
 10
165.0
 20
0.0999999999999943
 30
0.0
 11
168.0
 21
0.0999999999999943
 31
0.0
  0
LINE
  5
1C7
100
AcDbEntity
  8
0
 62
256
370
-1
 48
1.0
  6
ByLayer
100
AcDbLine
 10
75.0
 20
-24.8999999999999915
 30
0.0
 11
75.0
 21
-24.8999999999999915
 31
0.0
  0
LINE
  5
1C8
100
AcDbEntity
  8
0
 62
256
370
-1
 48
1.0
  6
ByLayer
100
AcDbLine
 10
168.0
 20
-16.8999999999999915
 30
0.0
 11
168.0
 21
-16.8999999999999915
 31
0.0
  0
LINE
  5
1C9
100
AcDbEntity
  8
0
 62
256
370
-1
 48
1.0
  6
ByLayer
100
AcDbLine
 10
75.0
 20
-24.8999999999999915
 30
0.0
 11
75.0
 21
-25.8494897427831916
 31
0.0
  0
LINE
  5
1CA
100
AcDbEntity
  8
0
 62
256
370
-1
 48
1.0
  6
ByLayer
100
AcDbLine
 10
75.0
 20
-24.8999999999999915
 30
0.0
 11
78.0
 21
-24.8999999999999915
 31
0.0
  0
ARC
  5
1CB
100
AcDbEntity
  8
0
 62
256
370
-1
 48
1.0
  6
ByLayer
100
AcDbCircle
 10
75.0
 20
-23.3999999999999915
 30
0.0
 40
3.0
100
AcDbArc
 50
180.0
 51
258.4905700378631082
  0
ARC
  5
1CC
100
AcDbEntity
  8
0
 62
256
370
-1
 48
1.0
  6
ByLayer
100
AcDbCircle
 10
79.0
 20
-26.8999999999999915
 30
0.0
 40
1.0
100
AcDbArc
 50
180.0
 51
270.0
  0
LINE
  5
1CD
100
AcDbEntity
  8
0
 62
256
370
-1
 48
1.0
  6
ByLayer
100
AcDbLine
 10
79.0
 20
-27.8999999999999915
 30
0.0
 11
164.0
 21
-27.8999999999999915
 31
0.0
  0
LINE
  5
1CE
100
AcDbEntity
  8
0
 62
256
370
-1
 48
1.0
  6
ByLayer
100
AcDbLine
 10
78.0
 20
-26.8999999999999915
 30
0.0
 11
78.0
 21
-24.8999999999999915
 31
0.0
  0
LINE
  5
1CF
100
AcDbEntity
  8
0
 62
256
370
-1
 48
1.0
  6
ByLayer
100
AcDbLine
 10
78.0
 20
-16.8999999999999915
 30
0.0
 11
78.0
 21
0.0999999999999943
 31
0.0
  0
ARC
  5
1D0
100
AcDbEntity
  8
0
 62
256
370
-1
 48
1.0
  6
ByLayer
100
AcDbCircle
 10
75.0
 20
-19.8999999999999915
 30
0.0
 40
3.0
100
AcDbArc
 50
90.0
 51
180.0
  0
LINE
  5
1D1
100
AcDbEntity
  8
0
 62
256
370
-1
 48
1.0
  6
ByLayer
100
AcDbLine
 10
72.0
 20
-19.8999999999999915
 30
0.0
 11
72.0
 21
-23.3999999999999915
 31
0.0
  0
LINE
  5
1D2
100
AcDbEntity
  8
0
 62
256
370
-1
 48
1.0
  6
ByLayer
100
AcDbLine
 10
75.0
 20
-16.8999999999999915
 30
0.0
 11
78.0
 21
-16.8999999999999915
 31
0.0
  0
LINE
  5
1D3
100
AcDbEntity
  8
0
 62
256
370
-1
 48
1.0
  6
ByLayer
100
AcDbLine
 10
168.0
 20
-24.8999999999999915
 30
0.0
 11
168.0
 21
-25.8494897427831916
 31
0.0
  0
LINE
  5
1D4
100
AcDbEntity
  8
0
 62
256
370
-1
 48
1.0
  6
ByLayer
100
AcDbLine
 10
168.0
 20
-24.8999999999999915
 30
0.0
 11
168.0
 21
-24.8999999999999915
 31
0.0
  0
ARC
  5
1D5
100
AcDbEntity
  8
0
 62
256
370
-1
 48
1.0
  6
ByLayer
100
AcDbCircle
 10
168.0
 20
-19.8999999999999915
 30
0.0
 40
3.0
100
AcDbArc
 50
0.0
 51
90.0
  0
LINE
  5
1D6
100
AcDbEntity
  8
0
 62
256
370
-1
 48
1.0
  6
ByLayer
100
AcDbLine
 10
171.0
 20
-23.3999999999999915
 30
0.0
 11
171.0
 21
-19.8999999999999915
 31
0.0
  0
LINE
  5
1D7
100
AcDbEntity
  8
0
 62
256
370
-1
 48
1.0
  6
ByLayer
100
AcDbLine
 10
165.0
 20
-16.8999999999999915
 30
0.0
 11
165.0
 21
0.0999999999999943
 31
0.0
  0
LINE
  5
1D8
100
AcDbEntity
  8
0
 62
256
370
-1
 48
1.0
  6
ByLayer
100
AcDbLine
 10
75.0
 20
8.0999999999999943
 30
0.0
 11
75.0
 21
9.5999999999999943
 31
0.0
  0
ARC
  5
1D9
100
AcDbEntity
  8
0
 62
256
370
-1
 48
1.0
  6
ByLayer
100
AcDbCircle
 10
75.0
 20
3.0999999999999939
 30
0.0
 40
3.0
100
AcDbArc
 50
180.0
 51
270.0
  0
ARC
  5
1DA
100
AcDbEntity
  8
0
 62
256
370
-1
 48
1.0
  6
ByLayer
100
AcDbCircle
 10
75.0
 20
6.5999999999999943
 30
0.0
 40
3.0
100
AcDbArc
 50
90.0
 51
180.0
  0
LINE
  5
1DB
100
AcDbEntity
  8
0
 62
256
370
-1
 48
1.0
  6
ByLayer
100
AcDbLine
 10
75.0
 20
8.0999999999999943
 30
0.0
 11
78.0
 21
8.0999999999999943
 31
0.0
  0
LINE
  5
1DC
100
AcDbEntity
  8
0
 62
256
370
-1
 48
1.0
  6
ByLayer
100
AcDbLine
 10
72.0
 20
6.5999999999999943
 30
0.0
 11
72.0
 21
5.5999999999999943
 31
0.0
  0
LINE
  5
1DD
100
AcDbEntity
  8
0
 62
256
370
-1
 48
1.0
  6
ByLayer
100
AcDbLine
 10
75.0
 20
0.0999999999999943
 30
0.0
 11
78.0
 21
0.0999999999999943
 31
0.0
  0
LINE
  5
1DE
100
AcDbEntity
  8
0
 62
256
370
-1
 48
1.0
  6
ByLayer
100
AcDbLine
 10
78.0
 20
11.0999999999999908
 30
0.0
 11
78.0
 21
11.0999999999999908
 31
0.0
  0
LINE
  5
1DF
100
AcDbEntity
  8
0
 62
256
370
-1
 48
1.0
  6
ByLayer
100
AcDbLine
 10
78.0
 20
8.0999999999999943
 30
0.0
 11
78.0
 21
10.0999999999999908
 31
0.0
  0
LINE
  5
1E0
100
AcDbEntity
  8
0
 62
256
370
-1
 48
1.0
  6
ByLayer
100
AcDbLine
 10
72.0
 20
4.0999999999999943
 30
0.0
 11
78.0
 21
4.0999999999999943
 31
0.0
  0
LINE
  5
1E1
100
AcDbEntity
  8
0
 62
256
370
-1
 48
1.0
  6
ByLayer
100
AcDbLine
 10
72.0
 20
5.5999999999999943
 30
0.0
 11
78.0
 21
5.5999999999999943
 31
0.0
  0
ARC
  5
1E2
100
AcDbEntity
  8
0
 62
256
370
-1
 48
1.0
  6
ByLayer
100
AcDbCircle
 10
74.6608520738189725
 20
53.9883763127954026
 30
0.0
 40
50.0
100
AcDbArc
 50
273.829231644164679
 51
283.4020647241630968
  0
ARC
  5
1E3
100
AcDbEntity
  8
0
 62
256
370
-1
 48
1.0
  6
ByLayer
100
AcDbCircle
 10
74.6608520738188162
 20
55.4883763127953102
 30
0.0
 40
50.0
100
AcDbArc
 50
273.82923164416502
 51
283.4020647241632673
  0
ARC
  5
1E4
100
AcDbEntity
  8
0
 62
256
370
-1
 48
1.0
  6
ByLayer
100
AcDbCircle
 10
97.5271649031925989
 20
-43.3616572469691377
 30
0.0
 40
50.0
100
AcDbArc
 50
94.1964839032308419
 51
103.0348280905872969
  0
ARC
  5
1E5
100
AcDbEntity
  8
0
 62
256
370
-1
 48
1.0
  6
ByLayer
100
AcDbCircle
 10
97.4185492617720996
 20
-41.8866751778100621
 30
0.0
 40
50.0
100
AcDbArc
 50
94.1979042630765946
 51
102.9071047091695021
  0
LINE
  5
1E6
100
AcDbEntity
  8
0
 62
256
370
-1
 48
1.0
  6
ByLayer
100
AcDbLine
 10
72.0
 20
4.0999999999999943
 30
0.0
 11
72.0
 21
3.0999999999999939
 31
0.0
  0
ARC
  5
1E7
100
AcDbEntity
  8
0
 62
256
370
-1
 48
1.0
  6
ByLayer
100
AcDbCircle
 10
79.0
 20
10.0999999999999908
 30
0.0
 40
1.0
100
AcDbArc
 50
90.0
 51
180.0
  0
LINE
  5
1E8
100
AcDbEntity
  8
0
 62
256
370
-1
 48
1.0
  6
ByLayer
100
AcDbLine
 10
168.0
 20
8.0999999999999943
 30
0.0
 11
168.0
 21
8.0999999999999943
 31
0.0
  0
ARC
  5
1E9
100
AcDbEntity
  8
0
 62
256
370
-1
 48
1.0
  6
ByLayer
100
AcDbCircle
 10
168.0
 20
3.0999999999999939
 30
0.0
 40
3.0
100
AcDbArc
 50
270.0
 51
0.0
  0
ARC
  5
1EA
100
AcDbEntity
  8
0
 62
256
370
-1
 48
1.0
  6
ByLayer
100
AcDbCircle
 10
168.0
 20
6.5999999999999943
 30
0.0
 40
3.0
100
AcDbArc
 50
0.0
 51
90.0
  0
LINE
  5
1EB
100
AcDbEntity
  8
0
 62
256
370
-1
 48
1.0
  6
ByLayer
100
AcDbLine
 10
171.0
 20
3.0999999999999939
 30
0.0
 11
171.0
 21
4.0999999999999943
 31
0.0
  0
LINE
  5
1EC
100
AcDbEntity
  8
0
 62
256
370
-1
 48
1.0
  6
ByLayer
100
AcDbLine
 10
168.0
 20
8.0999999999999943
 30
0.0
 11
168.0
 21
9.5999999999999943
 31
0.0
  0
LINE
  5
1ED
100
AcDbEntity
  8
0
 62
256
370
-1
 48
1.0
  6
ByLayer
100
AcDbLine
 10
165.0
 20
8.0999999999999943
 30
0.0
 11
165.0
 21
10.0999999999999908
 31
0.0
  0
LINE
  5
1EE
100
AcDbEntity
  8
0
 62
256
370
-1
 48
1.0
  6
ByLayer
100
AcDbLine
 10
165.0
 20
4.0999999999999943
 30
0.0
 11
171.0
 21
4.0999999999999943
 31
0.0
  0
LINE
  5
1EF
100
AcDbEntity
  8
0
 62
256
370
-1
 48
1.0
  6
ByLayer
100
AcDbLine
 10
165.0
 20
5.5999999999999943
 30
0.0
 11
171.0
 21
5.5999999999999943
 31
0.0
  0
ARC
  5
1F0
100
AcDbEntity
  8
0
 62
256
370
-1
 48
1.0
  6
ByLayer
100
AcDbCircle
 10
145.4722318637595038
 20
-43.3615175894284874
 30
0.0
 40
50.0
100
AcDbArc
 50
76.9644623717125427
 51
85.8042412599590563
  0
ARC
  5
1F1
100
AcDbEntity
  8
0
 62
256
370
-1
 48
1.0
  6
ByLayer
100
AcDbCircle
 10
145.582036145978492
 20
-41.886809326783677
 30
0.0
 40
50.0
100
AcDbArc
 50
77.0935835065760671
 51
85.6751201250956171
  0
ARC
  5
1F2
100
AcDbEntity
  8
0
 62
256
370
-1
 48
1.0
  6
ByLayer
100
AcDbCircle
 10
168.3391479261811128
 20
53.9883763127953102
 30
0.0
 40
50.0
100
AcDbArc
 50
256.597935275836619
 51
266.1707683558351505
  0
ARC
  5
1F3
100
AcDbEntity
  8
0
 62
256
370
-1
 48
1.0
  6
ByLayer
100
AcDbCircle
 10
168.3391479261811128
 20
55.4883763127953102
 30
0.0
 40
50.0
100
AcDbArc
 50
256.597935275836619
 51
266.1707683558348663
  0
ARC
  5
1F4
100
AcDbEntity
  8
0
 62
256
370
-1
 48
1.0
  6
ByLayer
100
AcDbCircle
 10
149.2415366281686033
 20
7.2376459654290102
 30
0.0
 40
0.7415366281685447
100
AcDbArc
 50
81.3843518154982775
 51
261.3843518155396168
  0
LINE
  5
1F5
100
AcDbEntity
  8
0
 62
256
370
-1
 48
1.0
  6
ByLayer
100
AcDbLine
 10
171.0
 20
5.5999999999999943
 30
0.0
 11
171.0
 21
6.5999999999999943
 31
0.0
  0
ARC
  5
1F6
100
AcDbEntity
  8
0
 62
256
370
-1
 48
1.0
  6
ByLayer
100
AcDbCircle
 10
93.7584633718314109
 20
7.2376459654290102
 30
0.0
 40
0.7415366281685868
100
AcDbArc
 50
278.5191974163502096
 51
98.5220807801184293
  0
ARC
  5
1F7
100
AcDbEntity
  8
0
 62
256
370
-1
 48
1.0
  6
ByLayer
100
AcDbCircle
 10
168.5000192682394129
 20
-25.8495053308461991
 30
0.0
 40
0.5000192684823564
100
AcDbArc
 50
179.998213808607602
 51
280.7595040611738
  0
ARC
  5
1F8
100
AcDbEntity
  8
0
 62
256
370
-1
 48
1.0
  6
ByLayer
100
AcDbCircle
 10
168.0
 20
-23.3999999999999915
 30
0.0
 40
3.0
100
AcDbArc
 50
281.4076830966835132
 51
0.0
  0
ARC
  5
1F9
100
AcDbEntity
  8
0
 62
256
370
-1
 48
1.0
  6
ByLayer
100
AcDbCircle
 10
164.0
 20
-26.8999999999999915
 30
0.0
 40
1.0
100
AcDbArc
 50
270.0
 51
0.0
  0
LINE
  5
1FA
100
AcDbEntity
  8
0
 62
256
370
-1
 48
1.0
  6
ByLayer
100
AcDbLine
 10
165.0
 20
-26.8999999999999915
 30
0.0
 11
165.0
 21
-24.8999999999999915
 31
0.0
  0
ARC
  5
1FB
100
AcDbEntity
  8
0
 62
256
370
-1
 48
1.0
  6
ByLayer
100
AcDbCircle
 10
164.0
 20
10.0999999999999908
 30
0.0
 40
1.0
100
AcDbArc
 50
0.0
 51
90.0
  0
LINE
  5
1FC
100
AcDbEntity
  8
0
 62
256
370
-1
 48
1.0
  6
ByLayer
100
AcDbLine
 10
164.0
 20
11.0999999999999908
 30
0.0
 11
79.0
 21
11.0999999999999908
 31
0.0
  0
ARC
  5
1FD
100
AcDbEntity
  8
0
 62
256
370
-1
 48
1.0
  6
ByLayer
100
AcDbCircle
 10
74.4999991325950504
 20
-25.8494904496281883
 30
0.0
 40
0.5000008674054547
100
AcDbArc
 50
258.6282965166951726
 51
0.000081005078916
  0
ENDBLK
  5
1FE
100
AcDbEntity
  8
0
100
AcDbBlockEnd
  0
BLOCK
  5
1FF
100
AcDbEntity
  8
0
100
AcDbBlockBegin
  2
ethernet
 70
0
 10
0.0
 20
0.0
 30
0.0
  3
ethernet
  1

  0
LINE
  5
200
100
AcDbEntity
  8
text
 62
256
370
-1
 48
1.0
  6
ByLayer
100
AcDbLine
 10
-11.7647732853167497
 20
0.0
 30
0.0
 11
-11.7647732853167497
 21
3.0
 31
0.0
  0
LINE
  5
201
100
AcDbEntity
  8
text
 62
256
370
-1
 48
1.0
  6
ByLayer
100
AcDbLine
 10
-11.7647732853167497
 20
3.0
 30
0.0
 11
-9.5406776886560891
 21
3.0
 31
0.0
  0
LINE
  5
202
100
AcDbEntity
  8
text
 62
256
370
-1
 48
1.0
  6
ByLayer
100
AcDbLine
 10
-9.5406776886560891
 20
3.0
 30
0.0
 11
-9.5406776886560891
 21
2.4922245866753978
 31
0.0
  0
LINE
  5
203
100
AcDbEntity
  8
text
 62
256
370
-1
 48
1.0
  6
ByLayer
100
AcDbLine
 10
-9.5406776886560891
 20
2.4922245866753978
 30
0.0
 11
-11.1592732034702902
 21
2.4922245866753978
 31
0.0
  0
LINE
  5
204
100
AcDbEntity
  8
text
 62
256
370
-1
 48
1.0
  6
ByLayer
100
AcDbLine
 10
-11.1592732034702902
 20
2.4922245866753978
 30
0.0
 11
-11.1592732034702902
 21
1.8273039777377631
 31
0.0
  0
LINE
  5
205
100
AcDbEntity
  8
text
 62
256
370
-1
 48
1.0
  6
ByLayer
100
AcDbLine
 10
-11.1592732034702902
 20
1.8273039777377631
 30
0.0
 11
-9.6531347192666601
 21
1.8273039777377631
 31
0.0
  0
LINE
  5
206
100
AcDbEntity
  8
text
 62
256
370
-1
 48
1.0
  6
ByLayer
100
AcDbLine
 10
-9.6531347192666601
 20
1.8273039777377631
 30
0.0
 11
-9.6531347192666601
 21
1.3219839580946131
 31
0.0
  0
LINE
  5
207
100
AcDbEntity
  8
text
 62
256
370
-1
 48
1.0
  6
ByLayer
100
AcDbLine
 10
-9.6531347192666601
 20
1.3219839580946131
 30
0.0
 11
-11.1592732034702902
 21
1.3219839580946131
 31
0.0
  0
LINE
  5
208
100
AcDbEntity
  8
text
 62
256
370
-1
 48
1.0
  6
ByLayer
100
AcDbLine
 10
-11.1592732034702902
 20
1.3219839580946131
 30
0.0
 11
-11.1592732034702902
 21
0.5053200196431504
 31
0.0
  0
LINE
  5
209
100
AcDbEntity
  8
text
 62
256
370
-1
 48
1.0
  6
ByLayer
100
AcDbLine
 10
-11.1592732034702902
 20
0.5053200196431504
 30
0.0
 11
-9.4832214765100673
 21
0.5053200196431504
 31
0.0
  0
LINE
  5
20A
100
AcDbEntity
  8
text
 62
256
370
-1
 48
1.0
  6
ByLayer
100
AcDbLine
 10
-9.4832214765100673
 20
0.5053200196431504
 30
0.0
 11
-9.4832214765100673
 21
0.0
 31
0.0
  0
LINE
  5
20B
100
AcDbEntity
  8
text
 62
256
370
-1
 48
1.0
  6
ByLayer
100
AcDbLine
 10
-9.4832214765100673
 20
0.0
 30
0.0
 11
-11.7647732853167497
 21
0.0
 31
0.0
  0
LINE
  5
20C
100
AcDbEntity
  8
text
 62
256
370
-1
 48
1.0
  6
ByLayer
100
AcDbLine
 10
-8.2923555410050795
 20
0.0
 30
0.0
 11
-8.2923555410050795
 21
2.4922245866753978
 31
0.0
  0
LINE
  5
20D
100
AcDbEntity
  8
text
 62
256
370
-1
 48
1.0
  6
ByLayer
100
AcDbLine
 10
-8.2923555410050795
 20
2.4922245866753978
 30
0.0
 11
-9.1826812899001453
 21
2.4922245866753978
 31
0.0
  0
LINE
  5
20E
100
AcDbEntity
  8
text
 62
256
370
-1
 48
1.0
  6
ByLayer
100
AcDbLine
 10
-9.1826812899001453
 20
2.4922245866753978
 30
0.0
 11
-9.1826812899001453
 21
3.0
 31
0.0
  0
LINE
  5
20F
100
AcDbEntity
  8
text
 62
256
370
-1
 48
1.0
  6
ByLayer
100
AcDbLine
 10
-9.1826812899001453
 20
3.0
 30
0.0
 11
-6.7984940252087114
 21
3.0
 31
0.0
  0
LINE
  5
210
100
AcDbEntity
  8
text
 62
256
370
-1
 48
1.0
  6
ByLayer
100
AcDbLine
 10
-6.7984940252087114
 20
3.0
 30
0.0
 11
-6.7984940252087114
 21
2.4922245866753978
 31
0.0
  0
LINE
  5
211
100
AcDbEntity
  8
text
 62
256
370
-1
 48
1.0
  6
ByLayer
100
AcDbLine
 10
-6.7984940252087114
 20
2.4922245866753978
 30
0.0
 11
-7.6868554591586218
 21
2.4922245866753978
 31
0.0
  0
LINE
  5
212
100
AcDbEntity
  8
text
 62
256
370
-1
 48
1.0
  6
ByLayer
100
AcDbLine
 10
-7.6868554591586218
 20
2.4922245866753978
 30
0.0
 11
-7.6868554591586218
 21
0.0
 31
0.0
  0
LINE
  5
213
100
AcDbEntity
  8
text
 62
256
370
-1
 48
1.0
  6
ByLayer
100
AcDbLine
 10
-7.6868554591586218
 20
0.0
 30
0.0
 11
-8.2923555410050795
 21
0.0
 31
0.0
  0
LINE
  5
214
100
AcDbEntity
  8
text
 62
256
370
-1
 48
1.0
  6
ByLayer
100
AcDbLine
 10
-6.4198723195285652
 20
0.0
 30
0.0
 11
-6.4198723195285652
 21
3.0
 31
0.0
  0
LINE
  5
215
100
AcDbEntity
  8
text
 62
256
370
-1
 48
1.0
  6
ByLayer
100
AcDbLine
 10
-6.4198723195285652
 20
3.0
 30
0.0
 11
-5.8143722376821074
 21
3.0
 31
0.0
  0
LINE
  5
216
100
AcDbEntity
  8
text
 62
256
370
-1
 48
1.0
  6
ByLayer
100
AcDbLine
 10
-5.8143722376821074
 20
3.0
 30
0.0
 11
-5.8143722376821074
 21
1.818955639220825
 31
0.0
  0
LINE
  5
217
100
AcDbEntity
  8
text
 62
256
370
-1
 48
1.0
  6
ByLayer
100
AcDbLine
 10
-5.8143722376821074
 20
1.818955639220825
 30
0.0
 11
-4.6274349320674446
 21
1.818955639220825
 31
0.0
  0
LINE
  5
218
100
AcDbEntity
  8
text
 62
256
370
-1
 48
1.0
  6
ByLayer
100
AcDbLine
 10
-4.6274349320674446
 20
1.818955639220825
 30
0.0
 11
-4.6274349320674446
 21
3.0
 31
0.0
  0
LINE
  5
219
100
AcDbEntity
  8
text
 62
256
370
-1
 48
1.0
  6
ByLayer
100
AcDbLine
 10
-4.6274349320674446
 20
3.0
 30
0.0
 11
-4.021443771484698
 21
3.0
 31
0.0
  0
LINE
  5
21A
100
AcDbEntity
  8
text
 62
256
370
-1
 48
1.0
  6
ByLayer
100
AcDbLine
 10
-4.021443771484698
 20
3.0
 30
0.0
 11
-4.021443771484698
 21
0.0
 31
0.0
  0
LINE
  5
21B
100
AcDbEntity
  8
text
 62
256
370
-1
 48
1.0
  6
ByLayer
100
AcDbLine
 10
-4.021443771484698
 20
0.0
 30
0.0
 11
-4.6274349320674446
 21
0.0
 31
0.0
  0
LINE
  5
21C
100
AcDbEntity
  8
text
 62
256
370
-1
 48
1.0
  6
ByLayer
100
AcDbLine
 10
-4.6274349320674446
 20
0.0
 30
0.0
 11
-4.6274349320674446
 21
1.3116713046325119
 31
0.0
  0
LINE
  5
21D
100
AcDbEntity
  8
text
 62
256
370
-1
 48
1.0
  6
ByLayer
100
AcDbLine
 10
-4.6274349320674446
 20
1.3116713046325119
 30
0.0
 11
-5.8143722376821074
 21
1.3116713046325119
 31
0.0
  0
LINE
  5
21E
100
AcDbEntity
  8
text
 62
256
370
-1
 48
1.0
  6
ByLayer
100
AcDbLine
 10
-5.8143722376821074
 20
1.3116713046325119
 30
0.0
 11
-5.8143722376821074
 21
0.0
 31
0.0
  0
LINE
  5
21F
100
AcDbEntity
  8
text
 62
256
370
-1
 48
1.0
  6
ByLayer
100
AcDbLine
 10
-5.8143722376821074
 20
0.0
 30
0.0
 11
-6.4198723195285652
 21
0.0
 31
0.0
  0
LINE
  5
220
100
AcDbEntity
  8
text
 62
256
370
-1
 48
1.0
  6
ByLayer
100
AcDbLine
 10
-3.4046488787035538
 20
0.0
 30
0.0
 11
-3.4046488787035538
 21
3.0
 31
0.0
  0
LINE
  5
221
100
AcDbEntity
  8
text
 62
256
370
-1
 48
1.0
  6
ByLayer
100
AcDbLine
 10
-3.4046488787035538
 20
3.0
 30
0.0
 11
-1.1805532820428939
 21
3.0
 31
0.0
  0
LINE
  5
222
100
AcDbEntity
  8
text
 62
256
370
-1
 48
1.0
  6
ByLayer
100
AcDbLine
 10
-1.1805532820428939
 20
3.0
 30
0.0
 11
-1.1805532820428939
 21
2.4922245866753978
 31
0.0
  0
LINE
  5
223
100
AcDbEntity
  8
text
 62
256
370
-1
 48
1.0
  6
ByLayer
100
AcDbLine
 10
-1.1805532820428939
 20
2.4922245866753978
 30
0.0
 11
-2.7991487968570961
 21
2.4922245866753978
 31
0.0
  0
LINE
  5
224
100
AcDbEntity
  8
text
 62
256
370
-1
 48
1.0
  6
ByLayer
100
AcDbLine
 10
-2.7991487968570961
 20
2.4922245866753978
 30
0.0
 11
-2.7991487968570961
 21
1.8273039777377631
 31
0.0
  0
LINE
  5
225
100
AcDbEntity
  8
text
 62
256
370
-1
 48
1.0
  6
ByLayer
100
AcDbLine
 10
-2.7991487968570961
 20
1.8273039777377631
 30
0.0
 11
-1.2930103126534651
 21
1.8273039777377631
 31
0.0
  0
LINE
  5
226
100
AcDbEntity
  8
text
 62
256
370
-1
 48
1.0
  6
ByLayer
100
AcDbLine
 10
-1.2930103126534651
 20
1.8273039777377631
 30
0.0
 11
-1.2930103126534651
 21
1.3219839580946131
 31
0.0
  0
LINE
  5
227
100
AcDbEntity
  8
text
 62
256
370
-1
 48
1.0
  6
ByLayer
100
AcDbLine
 10
-1.2930103126534651
 20
1.3219839580946131
 30
0.0
 11
-2.7991487968570961
 21
1.3219839580946131
 31
0.0
  0
LINE
  5
228
100
AcDbEntity
  8
text
 62
256
370
-1
 48
1.0
  6
ByLayer
100
AcDbLine
 10
-2.7991487968570961
 20
1.3219839580946131
 30
0.0
 11
-2.7991487968570961
 21
0.5053200196431504
 31
0.0
  0
LINE
  5
229
100
AcDbEntity
  8
text
 62
256
370
-1
 48
1.0
  6
ByLayer
100
AcDbLine
 10
-2.7991487968570961
 20
0.5053200196431504
 30
0.0
 11
-1.1230970698968721
 21
0.5053200196431504
 31
0.0
  0
LINE
  5
22A
100
AcDbEntity
  8
text
 62
256
370
-1
 48
1.0
  6
ByLayer
100
AcDbLine
 10
-1.1230970698968721
 20
0.5053200196431504
 30
0.0
 11
-1.1230970698968721
 21
0.0
 31
0.0
  0
LINE
  5
22B
100
AcDbEntity
  8
text
 62
256
370
-1
 48
1.0
  6
ByLayer
100
AcDbLine
 10
-1.1230970698968721
 20
0.0
 30
0.0
 11
-3.4046488787035538
 21
0.0
 31
0.0
  0
LINE
  5
22C
100
AcDbEntity
  8
text
 62
256
370
-1
 48
1.0
  6
ByLayer
100
AcDbLine
 10
-0.6055000818464578
 20
0.0
 30
0.0
 11
-0.6055000818464578
 21
3.0
 31
0.0
  0
LINE
  5
22D
100
AcDbEntity
  8
text
 62
256
370
-1
 48
1.0
  6
ByLayer
100
AcDbLine
 10
-0.6055000818464578
 20
3.0
 30
0.0
 11
0.6693403175642487
 21
3.0
 31
0.0
  0
SPLINE
  5
22E
100
AcDbEntity
  8
text
 62
256
370
-1
 48
1.0
  6
ByLayer
100
AcDbSpline
 70
8
 71
3
 72
8
 73
4
 74
0
 40
0.0
 40
0.0
 40
0.0
 40
0.0
 40
1.0
 40
1.0
 40
1.0
 40
1.0
 10
0.6693403175642487
 20
3.0
 30
0.0
 10
0.989851039449988
 20
3.0
 30
0.0
 10
1.2227860533638899
 20
2.9730725159600548
 30
0.0
 10
1.3681453593059421
 20
2.9192175478801801
 30
0.0
  0
SPLINE
  5
22F
100
AcDbEntity
  8
text
 62
256
370
-1
 48
1.0
  6
ByLayer
100
AcDbSpline
 70
8
 71
3
 72
8
 73
4
 74
0
 40
0.0
 40
0.0
 40
0.0
 40
0.0
 40
1.0
 40
1.0
 40
1.0
 40
1.0
 10
1.3681453593059421
 20
2.9192175478801801
 30
0.0
 10
1.5135046652479931
 20
2.8653625798002911
 30
0.0
 10
1.629808479292848
 20
2.7695203797675561
 30
0.0
 10
1.7170568014404921
 20
2.6316909477819621
 30
0.0
  0
SPLINE
  5
230
100
AcDbEntity
  8
text
 62
256
370
-1
 48
1.0
  6
ByLayer
100
AcDbSpline
 70
8
 71
3
 72
8
 73
4
 74
0
 40
0.0
 40
0.0
 40
0.0
 40
0.0
 40
1.0
 40
1.0
 40
1.0
 40
1.0
 10
1.7170568014404921
 20
2.6316909477819621
 30
0.0
 10
1.8043051235881511
 20
2.4938615157963682
 30
0.0
 10
1.847929284661973
 20
2.3362252414470461
 30
0.0
 10
1.847929284661973
 20
2.158782124733996
 30
0.0
  0
SPLINE
  5
231
100
AcDbEntity
  8
text
 62
256
370
-1
 48
1.0
  6
ByLayer
100
AcDbSpline
 70
8
 71
3
 72
8
 73
4
 74
0
 40
0.0
 40
0.0
 40
0.0
 40
0.0
 40
1.0
 40
1.0
 40
1.0
 40
1.0
 10
1.847929284661973
 20
2.158782124733996
 30
0.0
 10
1.847929284661973
 20
1.9338680635128469
 30
0.0
 10
1.7817973481748199
 20
1.748076608282858
 30
0.0
 10
1.649533475200528
 20
1.601407759044037
 30
0.0
  0
SPLINE
  5
232
100
AcDbEntity
  8
text
 62
256
370
-1
 48
1.0
  6
ByLayer
100
AcDbSpline
 70
8
 71
3
 72
8
 73
4
 74
0
 40
0.0
 40
0.0
 40
0.0
 40
0.0
 40
1.0
 40
1.0
 40
1.0
 40
1.0
 10
1.649533475200528
 20
1.601407759044037
 30
0.0
 10
1.517269602226222
 20
1.4547389098052079
 30
0.0
 10
1.319528564413162
 20
1.362252414470454
 30
0.0
 10
1.0563103617613341
 20
1.3239482730397749
 30
0.0
  0
SPLINE
  5
233
100
AcDbEntity
  8
text
 62
256
370
-1
 48
1.0
  6
ByLayer
100
AcDbSpline
 70
8
 71
3
 72
8
 73
4
 74
0
 40
0.0
 40
0.0
 40
0.0
 40
0.0
 40
1.0
 40
1.0
 40
1.0
 40
1.0
 10
1.0563103617613341
 20
1.3239482730397749
 30
0.0
 10
1.18726469143887
 20
1.2476673760026169
 30
0.0
 10
1.2953838598788681
 20
1.1637747585529541
 30
0.0
 10
1.380667867081357
 20
1.0722704206907849
 30
0.0
  0
SPLINE
  5
234
100
AcDbEntity
  8
text
 62
256
370
-1
 48
1.0
  6
ByLayer
100
AcDbSpline
 70
8
 71
3
 72
8
 73
4
 74
0
 40
0.0
 40
0.0
 40
0.0
 40
0.0
 40
1.0
 40
1.0
 40
1.0
 40
1.0
 10
1.380667867081357
 20
1.0722704206907849
 30
0.0
 10
1.465951874283846
 20
0.980766082828616
 30
0.0
 10
1.5807824521198199
 20
0.8184645604845286
 30
0.0
 10
1.725159600589294
 20
0.5853658536585371
 30
0.0
  0
LINE
  5
235
100
AcDbEntity
  8
text
 62
256
370
-1
 48
1.0
  6
ByLayer
100
AcDbLine
 10
1.725159600589294
 20
0.5853658536585371
 30
0.0
 11
2.0915043378621618
 21
0.0
 31
0.0
  0
LINE
  5
236
100
AcDbEntity
  8
text
 62
256
370
-1
 48
1.0
  6
ByLayer
100
AcDbLine
 10
2.0915043378621618
 20
0.0
 30
0.0
 11
1.3671632018333639
 21
0.0
 31
0.0
  0
LINE
  5
237
100
AcDbEntity
  8
text
 62
256
370
-1
 48
1.0
  6
ByLayer
100
AcDbLine
 10
1.3671632018333639
 20
0.0
 30
0.0
 11
0.9291209690620406
 21
0.6526436405303642
 31
0.0
  0
SPLINE
  5
238
100
AcDbEntity
  8
text
 62
256
370
-1
 48
1.0
  6
ByLayer
100
AcDbSpline
 70
8
 71
3
 72
8
 73
4
 74
0
 40
0.0
 40
0.0
 40
0.0
 40
0.0
 40
1.0
 40
1.0
 40
1.0
 40
1.0
 10
0.9291209690620406
 20
0.6526436405303642
 30
0.0
 10
0.7736127025699773
 20
0.8860697331805554
 30
0.0
 10
0.6672123097069829
 20
1.0331478146996249
 30
0.0
 10
0.6099197904730715
 20
1.0938778850875721
 30
0.0
  0
SPLINE
  5
239
100
AcDbEntity
  8
text
 62
256
370
-1
 48
1.0
  6
ByLayer
100
AcDbSpline
 70
8
 71
3
 72
8
 73
4
 74
0
 40
0.0
 40
0.0
 40
0.0
 40
0.0
 40
1.0
 40
1.0
 40
1.0
 40
1.0
 10
0.6099197904730715
 20
1.0938778850875721
 30
0.0
 10
0.5526272712391602
 20
1.1546079554755271
 30
0.0
 10
0.4919790473072538
 20
1.1961859551481451
 30
0.0
 10
0.4279751186773666
 20
1.218611884105421
 30
0.0
  0
SPLINE
  5
23A
100
AcDbEntity
  8
text
 62
256
370
-1
 48
1.0
  6
ByLayer
100
AcDbSpline
 70
8
 71
3
 72
8
 73
4
 74
0
 40
0.0
 40
0.0
 40
0.0
 40
0.0
 40
1.0
 40
1.0
 40
1.0
 40
1.0
 10
0.4279751186773666
 20
1.218611884105421
 30
0.0
 10
0.3639711900474794
 20
1.2410378130626969
 30
0.0
 10
0.2622360451792503
 20
1.252250777541335
 30
0.0
 10
0.1227696840726793
 20
1.252250777541335
 30
0.0
  0
LINE
  5
23B
100
AcDbEntity
  8
text
 62
256
370
-1
 48
1.0
  6
ByLayer
100
AcDbLine
 10
0.1227696840726793
 20
1.252250777541335
 30
0.0
 11
0.0
 21
1.252250777541335
 31
0.0
  0
LINE
  5
23C
100
AcDbEntity
  8
text
 62
256
370
-1
 48
1.0
  6
ByLayer
100
AcDbLine
 10
0.0
 20
1.252250777541335
 30
0.0
 11
0.0
 21
0.0
 31
0.0
  0
LINE
  5
23D
100
AcDbEntity
  8
text
 62
256
370
-1
 48
1.0
  6
ByLayer
100
AcDbLine
 10
0.0
 20
0.0
 30
0.0
 11
-0.6055000818464578
 21
0.0
 31
0.0
  0
LINE
  5
23E
100
AcDbEntity
  8
text
 62
256
370
-1
 48
1.0
  6
ByLayer
100
AcDbLine
 10
0.0
 20
1.7310525454247809
 30
0.0
 11
0.4483548862334175
 21
1.7310525454247809
 31
0.0
  0
SPLINE
  5
23F
100
AcDbEntity
  8
text
 62
256
370
-1
 48
1.0
  6
ByLayer
100
AcDbSpline
 70
8
 71
3
 72
8
 73
4
 74
0
 40
0.0
 40
0.0
 40
0.0
 40
0.0
 40
1.0
 40
1.0
 40
1.0
 40
1.0
 10
0.4483548862334175
 20
1.7310525454247809
 30
0.0
 10
0.7390734981175342
 20
1.7310525454247809
 30
0.0
 10
0.9205270911769503
 20
1.7433295138320519
 30
0.0
 10
0.9927156654116942
 20
1.7678834506465859
 30
0.0
  0
SPLINE
  5
240
100
AcDbEntity
  8
text
 62
256
370
-1
 48
1.0
  6
ByLayer
100
AcDbSpline
 70
8
 71
3
 72
8
 73
4
 74
0
 40
0.0
 40
0.0
 40
0.0
 40
0.0
 40
1.0
 40
1.0
 40
1.0
 40
1.0
 10
0.9927156654116942
 20
1.7678834506465859
 30
0.0
 10
1.0649042396464239
 20
1.792437387461121
 30
0.0
 10
1.1214601407759091
 20
1.8347520052381729
 30
0.0
 10
1.162383368800135
 20
1.894827303977735
 30
0.0
  0
SPLINE
  5
241
100
AcDbEntity
  8
text
 62
256
370
-1
 48
1.0
  6
ByLayer
100
AcDbSpline
 70
8
 71
3
 72
8
 73
4
 74
0
 40
0.0
 40
0.0
 40
0.0
 40
0.0
 40
1.0
 40
1.0
 40
1.0
 40
1.0
 10
1.162383368800135
 20
1.894827303977735
 30
0.0
 10
1.2033065968243619
 20
1.954902602717304
 30
0.0
 10
1.223768210836468
 20
2.029955802913733
 30
0.0
 10
1.223768210836468
 20
2.1199869045670279
 30
0.0
  0
SPLINE
  5
242
100
AcDbEntity
  8
text
 62
256
370
-1
 48
1.0
  6
ByLayer
100
AcDbSpline
 70
8
 71
3
 72
8
 73
4
 74
0
 40
0.0
 40
0.0
 40
0.0
 40
0.0
 40
1.0
 40
1.0
 40
1.0
 40
1.0
 10
1.223768210836468
 20
2.1199869045670279
 30
0.0
 10
1.223768210836468
 20
2.2208217384187279
 30
0.0
 10
1.196840726796538
 20
2.3023408086429882
 30
0.0
 10
1.1429857587166481
 20
2.3645441152398088
 30
0.0
  0
SPLINE
  5
243
100
AcDbEntity
  8
text
 62
256
370
-1
 48
1.0
  6
ByLayer
100
AcDbSpline
 70
8
 71
3
 72
8
 73
4
 74
0
 40
0.0
 40
0.0
 40
0.0
 40
0.0
 40
1.0
 40
1.0
 40
1.0
 40
1.0
 10
1.1429857587166481
 20
2.3645441152398088
 30
0.0
 10
1.0891307906367591
 20
2.4267474218366369
 30
0.0
 10
1.0130954329677451
 20
2.4660337207398939
 30
0.0
 10
0.9148796857096073
 20
2.4824030119495859
 30
0.0
  0
SPLINE
  5
244
100
AcDbEntity
  8
text
 62
256
370
-1
 48
1.0
  6
ByLayer
100
AcDbSpline
 70
8
 71
3
 72
8
 73
4
 74
0
 40
0.0
 40
0.0
 40
0.0
 40
0.0
 40
1.0
 40
1.0
 40
1.0
 40
1.0
 10
0.9148796857096073
 20
2.4824030119495859
 30
0.0
 10
0.8657718120805384
 20
2.488950728433458
 30
0.0
 10
0.7184481911933176
 20
2.4922245866753978
 30
0.0
 10
0.472908823047959
 20
2.4922245866753978
 30
0.0
  0
LINE
  5
245
100
AcDbEntity
  8
text
 62
256
370
-1
 48
1.0
  6
ByLayer
100
AcDbLine
 10
0.472908823047959
 20
2.4922245866753978
 30
0.0
 11
0.0
 21
2.4922245866753978
 31
0.0
  0
LINE
  5
246
100
AcDbEntity
  8
text
 62
256
370
-1
 48
1.0
  6
ByLayer
100
AcDbLine
 10
0.0
 20
2.4922245866753978
 30
0.0
 11
0.0
 21
1.7310525454247809
 31
0.0
  0
LINE
  5
247
100
AcDbEntity
  8
text
 62
256
370
-1
 48
1.0
  6
ByLayer
100
AcDbLine
 10
2.4156163038140481
 20
0.0
 30
0.0
 11
2.4156163038140481
 21
3.0
 31
0.0
  0
LINE
  5
248
100
AcDbEntity
  8
text
 62
256
370
-1
 48
1.0
  6
ByLayer
100
AcDbLine
 10
2.4156163038140481
 20
3.0
 30
0.0
 11
3.0049107873629031
 21
3.0
 31
0.0
  0
LINE
  5
249
100
AcDbEntity
  8
text
 62
256
370
-1
 48
1.0
  6
ByLayer
100
AcDbLine
 10
3.0049107873629031
 20
3.0
 30
0.0
 11
4.2330987068259986
 21
0.9963987559338676
 31
0.0
  0
LINE
  5
24A
100
AcDbEntity
  8
text
 62
256
370
-1
 48
1.0
  6
ByLayer
100
AcDbLine
 10
4.2330987068259986
 20
0.9963987559338676
 30
0.0
 11
4.2330987068259986
 21
3.0
 31
0.0
  0
LINE
  5
24B
100
AcDbEntity
  8
text
 62
256
370
-1
 48
1.0
  6
ByLayer
100
AcDbLine
 10
4.2330987068259986
 20
3.0
 30
0.0
 11
4.7958749386151567
 21
3.0
 31
0.0
  0
LINE
  5
24C
100
AcDbEntity
  8
text
 62
256
370
-1
 48
1.0
  6
ByLayer
100
AcDbLine
 10
4.7958749386151567
 20
3.0
 30
0.0
 11
4.7958749386151567
 21
0.0
 31
0.0
  0
LINE
  5
24D
100
AcDbEntity
  8
text
 62
256
370
-1
 48
1.0
  6
ByLayer
100
AcDbLine
 10
4.7958749386151567
 20
0.0
 30
0.0
 11
4.1879194630872547
 21
0.0
 31
0.0
  0
LINE
  5
24E
100
AcDbEntity
  8
text
 62
256
370
-1
 48
1.0
  6
ByLayer
100
AcDbLine
 10
4.1879194630872547
 20
0.0
 30
0.0
 11
2.9783925356032062
 21
1.956457685382226
 31
0.0
  0
LINE
  5
24F
100
AcDbEntity
  8
text
 62
256
370
-1
 48
1.0
  6
ByLayer
100
AcDbLine
 10
2.9783925356032062
 20
1.956457685382226
 30
0.0
 11
2.9783925356032062
 21
0.0
 31
0.0
  0
LINE
  5
250
100
AcDbEntity
  8
text
 62
256
370
-1
 48
1.0
  6
ByLayer
100
AcDbLine
 10
2.9783925356032062
 20
0.0
 30
0.0
 11
2.4156163038140481
 21
0.0
 31
0.0
  0
LINE
  5
251
100
AcDbEntity
  8
text
 62
256
370
-1
 48
1.0
  6
ByLayer
100
AcDbLine
 10
5.4269111147487337
 20
0.0
 30
0.0
 11
5.4269111147487337
 21
3.0
 31
0.0
  0
LINE
  5
252
100
AcDbEntity
  8
text
 62
256
370
-1
 48
1.0
  6
ByLayer
100
AcDbLine
 10
5.4269111147487337
 20
3.0
 30
0.0
 11
7.6510067114093943
 21
3.0
 31
0.0
  0
LINE
  5
253
100
AcDbEntity
  8
text
 62
256
370
-1
 48
1.0
  6
ByLayer
100
AcDbLine
 10
7.6510067114093943
 20
3.0
 30
0.0
 11
7.6510067114093943
 21
2.4922245866753978
 31
0.0
  0
LINE
  5
254
100
AcDbEntity
  8
text
 62
256
370
-1
 48
1.0
  6
ByLayer
100
AcDbLine
 10
7.6510067114093943
 20
2.4922245866753978
 30
0.0
 11
6.0324111965951914
 21
2.4922245866753978
 31
0.0
  0
LINE
  5
255
100
AcDbEntity
  8
text
 62
256
370
-1
 48
1.0
  6
ByLayer
100
AcDbLine
 10
6.0324111965951914
 20
2.4922245866753978
 30
0.0
 11
6.0324111965951914
 21
1.8273039777377631
 31
0.0
  0
LINE
  5
256
100
AcDbEntity
  8
text
 62
256
370
-1
 48
1.0
  6
ByLayer
100
AcDbLine
 10
6.0324111965951914
 20
1.8273039777377631
 30
0.0
 11
7.5385496807988233
 21
1.8273039777377631
 31
0.0
  0
LINE
  5
257
100
AcDbEntity
  8
text
 62
256
370
-1
 48
1.0
  6
ByLayer
100
AcDbLine
 10
7.5385496807988233
 20
1.8273039777377631
 30
0.0
 11
7.5385496807988233
 21
1.3219839580946131
 31
0.0
  0
LINE
  5
258
100
AcDbEntity
  8
text
 62
256
370
-1
 48
1.0
  6
ByLayer
100
AcDbLine
 10
7.5385496807988233
 20
1.3219839580946131
 30
0.0
 11
6.0324111965951914
 21
1.3219839580946131
 31
0.0
  0
LINE
  5
259
100
AcDbEntity
  8
text
 62
256
370
-1
 48
1.0
  6
ByLayer
100
AcDbLine
 10
6.0324111965951914
 20
1.3219839580946131
 30
0.0
 11
6.0324111965951914
 21
0.5053200196431504
 31
0.0
  0
LINE
  5
25A
100
AcDbEntity
  8
text
 62
256
370
-1
 48
1.0
  6
ByLayer
100
AcDbLine
 10
6.0324111965951914
 20
0.5053200196431504
 30
0.0
 11
7.7084629235554161
 21
0.5053200196431504
 31
0.0
  0
LINE
  5
25B
100
AcDbEntity
  8
text
 62
256
370
-1
 48
1.0
  6
ByLayer
100
AcDbLine
 10
7.7084629235554161
 20
0.5053200196431504
 30
0.0
 11
7.7084629235554161
 21
0.0
 31
0.0
  0
LINE
  5
25C
100
AcDbEntity
  8
text
 62
256
370
-1
 48
1.0
  6
ByLayer
100
AcDbLine
 10
7.7084629235554161
 20
0.0
 30
0.0
 11
5.4269111147487337
 21
0.0
 31
0.0
  0
LINE
  5
25D
100
AcDbEntity
  8
text
 62
256
370
-1
 48
1.0
  6
ByLayer
100
AcDbLine
 10
8.8993288590604038
 20
0.0
 30
0.0
 11
8.8993288590604038
 21
2.4922245866753978
 31
0.0
  0
LINE
  5
25E
100
AcDbEntity
  8
text
 62
256
370
-1
 48
1.0
  6
ByLayer
100
AcDbLine
 10
8.8993288590604038
 20
2.4922245866753978
 30
0.0
 11
8.0090031101653238
 21
2.4922245866753978
 31
0.0
  0
LINE
  5
25F
100
AcDbEntity
  8
text
 62
256
370
-1
 48
1.0
  6
ByLayer
100
AcDbLine
 10
8.0090031101653238
 20
2.4922245866753978
 30
0.0
 11
8.0090031101653238
 21
3.0
 31
0.0
  0
LINE
  5
260
100
AcDbEntity
  8
text
 62
256
370
-1
 48
1.0
  6
ByLayer
100
AcDbLine
 10
8.0090031101653238
 20
3.0
 30
0.0
 11
10.3931903748567702
 21
3.0
 31
0.0
  0
LINE
  5
261
100
AcDbEntity
  8
text
 62
256
370
-1
 48
1.0
  6
ByLayer
100
AcDbLine
 10
10.3931903748567702
 20
3.0
 30
0.0
 11
10.3931903748567702
 21
2.4922245866753978
 31
0.0
  0
LINE
  5
262
100
AcDbEntity
  8
text
 62
256
370
-1
 48
1.0
  6
ByLayer
100
AcDbLine
 10
10.3931903748567702
 20
2.4922245866753978
 30
0.0
 11
9.5048289409068616
 21
2.4922245866753978
 31
0.0
  0
LINE
  5
263
100
AcDbEntity
  8
text
 62
256
370
-1
 48
1.0
  6
ByLayer
100
AcDbLine
 10
9.5048289409068616
 20
2.4922245866753978
 30
0.0
 11
9.5048289409068616
 21
0.0
 31
0.0
  0
LINE
  5
264
100
AcDbEntity
  8
text
 62
256
370
-1
 48
1.0
  6
ByLayer
100
AcDbLine
 10
9.5048289409068616
 20
0.0
 30
0.0
 11
8.8993288590604038
 21
0.0
 31
0.0
  0
ENDBLK
  5
265
100
AcDbEntity
  8
0
100
AcDbBlockEnd
  0
BLOCK
  5
266
100
AcDbEntity
  8
0
100
AcDbBlockBegin
  2
reset
 70
0
 10
0.0
 20
0.0
 30
0.0
  3
reset
  1

  0
LINE
  5
267
100
AcDbEntity
  8
text
 62
256
370
-1
 48
1.0
  6
ByLayer
100
AcDbLine
 10
-6.8967097724668562
 20
0.0530365035193974
 30
0.0
 11
-6.8967097724668562
 21
3.0530365035193969
 31
0.0
  0
LINE
  5
268
100
AcDbEntity
  8
text
 62
256
370
-1
 48
1.0
  6
ByLayer
100
AcDbLine
 10
-6.8967097724668562
 20
3.0530365035193969
 30
0.0
 11
-5.6218693730561498
 21
3.0530365035193969
 31
0.0
  0
SPLINE
  5
269
100
AcDbEntity
  8
text
 62
256
370
-1
 48
1.0
  6
ByLayer
100
AcDbSpline
 70
8
 71
3
 72
8
 73
4
 74
0
 40
0.0
 40
0.0
 40
0.0
 40
0.0
 40
1.0
 40
1.0
 40
1.0
 40
1.0
 10
-5.6218693730561498
 20
3.0530365035193969
 30
0.0
 10
-5.3013586511704096
 20
3.0530365035193969
 30
0.0
 10
-5.0684236372565081
 20
3.0261090194794562
 30
0.0
 10
-4.9230643313144569
 20
2.9722540513995739
 30
0.0
  0
SPLINE
  5
26A
100
AcDbEntity
  8
text
 62
256
370
-1
 48
1.0
  6
ByLayer
100
AcDbSpline
 70
8
 71
3
 72
8
 73
4
 74
0
 40
0.0
 40
0.0
 40
0.0
 40
0.0
 40
1.0
 40
1.0
 40
1.0
 40
1.0
 10
-4.9230643313144569
 20
2.9722540513995739
 30
0.0
 10
-4.7777050253724056
 20
2.918399083319692
 30
0.0
 10
-4.6614012113275507
 20
2.822556883286953
 30
0.0
 10
-4.5741528891798993
 20
2.684727451301359
 30
0.0
  0
SPLINE
  5
26B
100
AcDbEntity
  8
text
 62
256
370
-1
 48
1.0
  6
ByLayer
100
AcDbSpline
 70
8
 71
3
 72
8
 73
4
 74
0
 40
0.0
 40
0.0
 40
0.0
 40
0.0
 40
1.0
 40
1.0
 40
1.0
 40
1.0
 10
-4.5741528891798993
 20
2.684727451301359
 30
0.0
 10
-4.4869045670322478
 20
2.546898019315762
 30
0.0
 10
-4.4432804059584257
 20
2.3892617449664439
 30
0.0
 10
-4.4432804059584257
 20
2.2118186282533969
 30
0.0
  0
SPLINE
  5
26C
100
AcDbEntity
  8
text
 62
256
370
-1
 48
1.0
  6
ByLayer
100
AcDbSpline
 70
8
 71
3
 72
8
 73
4
 74
0
 40
0.0
 40
0.0
 40
0.0
 40
0.0
 40
1.0
 40
1.0
 40
1.0
 40
1.0
 10
-4.4432804059584257
 20
2.2118186282533969
 30
0.0
 10
-4.4432804059584257
 20
1.986904567032248
 30
0.0
 10
-4.5094123424455717
 20
1.801113111802259
 30
0.0
 10
-4.6416762154198778
 20
1.6544442625634299
 30
0.0
  0
SPLINE
  5
26D
100
AcDbEntity
  8
text
 62
256
370
-1
 48
1.0
  6
ByLayer
100
AcDbSpline
 70
8
 71
3
 72
8
 73
4
 74
0
 40
0.0
 40
0.0
 40
0.0
 40
0.0
 40
1.0
 40
1.0
 40
1.0
 40
1.0
 10
-4.6416762154198778
 20
1.6544442625634299
 30
0.0
 10
-4.7739400883941769
 20
1.507775413324604
 30
0.0
 10
-4.9716811262072369
 20
1.41528891798985
 30
0.0
 10
-5.2348993288590648
 20
1.3769847765591749
 30
0.0
  0
SPLINE
  5
26E
100
AcDbEntity
  8
text
 62
256
370
-1
 48
1.0
  6
ByLayer
100
AcDbSpline
 70
8
 71
3
 72
8
 73
4
 74
0
 40
0.0
 40
0.0
 40
0.0
 40
0.0
 40
1.0
 40
1.0
 40
1.0
 40
1.0
 10
-5.2348993288590648
 20
1.3769847765591749
 30
0.0
 10
-5.103944999181536
 20
1.300703879522016
 30
0.0
 10
-4.9958258307415306
 20
1.216811262072351
 30
0.0
 10
-4.9105418235390417
 20
1.125306924210181
 30
0.0
  0
SPLINE
  5
26F
100
AcDbEntity
  8
text
 62
256
370
-1
 48
1.0
  6
ByLayer
100
AcDbSpline
 70
8
 71
3
 72
8
 73
4
 74
0
 40
0.0
 40
0.0
 40
0.0
 40
0.0
 40
1.0
 40
1.0
 40
1.0
 40
1.0
 10
-4.9105418235390417
 20
1.125306924210181
 30
0.0
 10
-4.8252578163365598
 20
1.033802586348012
 30
0.0
 10
-4.7104272385005794
 20
0.8715010640039278
 30
0.0
 10
-4.566050090031105
 20
0.6384023571779345
 30
0.0
  0
LINE
  5
270
100
AcDbEntity
  8
text
 62
256
370
-1
 48
1.0
  6
ByLayer
100
AcDbLine
 10
-4.566050090031105
 20
0.6384023571779345
 30
0.0
 11
-4.1997053527582304
 21
0.0530365035193974
 31
0.0
  0
LINE
  5
271
100
AcDbEntity
  8
text
 62
256
370
-1
 48
1.0
  6
ByLayer
100
AcDbLine
 10
-4.1997053527582304
 20
0.0530365035193974
 30
0.0
 11
-4.9240464887870417
 21
0.0530365035193974
 31
0.0
  0
LINE
  5
272
100
AcDbEntity
  8
text
 62
256
370
-1
 48
1.0
  6
ByLayer
100
AcDbLine
 10
-4.9240464887870417
 20
0.0530365035193974
 30
0.0
 11
-5.3620887215583579
 21
0.7056801440497615
 31
0.0
  0
SPLINE
  5
273
100
AcDbEntity
  8
text
 62
256
370
-1
 48
1.0
  6
ByLayer
100
AcDbSpline
 70
8
 71
3
 72
8
 73
4
 74
0
 40
0.0
 40
0.0
 40
0.0
 40
0.0
 40
1.0
 40
1.0
 40
1.0
 40
1.0
 10
-5.3620887215583579
 20
0.7056801440497615
 30
0.0
 10
-5.5175969880504212
 20
0.939106236699951
 30
0.0
 10
-5.6239973809134094
 20
1.0861843182190201
 30
0.0
 10
-5.6812899001473269
 20
1.146914388606973
 30
0.0
  0
SPLINE
  5
274
100
AcDbEntity
  8
text
 62
256
370
-1
 48
1.0
  6
ByLayer
100
AcDbSpline
 70
8
 71
3
 72
8
 73
4
 74
0
 40
0.0
 40
0.0
 40
0.0
 40
0.0
 40
1.0
 40
1.0
 40
1.0
 40
1.0
 10
-5.6812899001473269
 20
1.146914388606973
 30
0.0
 10
-5.7385824193812454
 20
1.207644458994924
 30
0.0
 10
-5.7992306433131517
 20
1.2492224586675389
 30
0.0
 10
-5.863234571943039
 20
1.271648387624815
 30
0.0
  0
SPLINE
  5
275
100
AcDbEntity
  8
text
 62
256
370
-1
 48
1.0
  6
ByLayer
100
AcDbSpline
 70
8
 71
3
 72
8
 73
4
 74
0
 40
0.0
 40
0.0
 40
0.0
 40
0.0
 40
1.0
 40
1.0
 40
1.0
 40
1.0
 10
-5.863234571943039
 20
1.271648387624815
 30
0.0
 10
-5.9272385005729262
 20
1.29407431658209
 30
0.0
 10
-6.0289736454411553
 20
1.3052872810607281
 30
0.0
 10
-6.1684400065477192
 20
1.3052872810607281
 30
0.0
  0
LINE
  5
276
100
AcDbEntity
  8
text
 62
256
370
-1
 48
1.0
  6
ByLayer
100
AcDbLine
 10
-6.1684400065477192
 20
1.3052872810607281
 30
0.0
 11
-6.2912096906203976
 21
1.3052872810607281
 31
0.0
  0
LINE
  5
277
100
AcDbEntity
  8
text
 62
256
370
-1
 48
1.0
  6
ByLayer
100
AcDbLine
 10
-6.2912096906203976
 20
1.3052872810607281
 30
0.0
 11
-6.2912096906203976
 21
0.0530365035193974
 31
0.0
  0
LINE
  5
278
100
AcDbEntity
  8
text
 62
256
370
-1
 48
1.0
  6
ByLayer
100
AcDbLine
 10
-6.2912096906203976
 20
0.0530365035193974
 30
0.0
 11
-6.8967097724668562
 21
0.0530365035193974
 31
0.0
  0
LINE
  5
279
100
AcDbEntity
  8
text
 62
256
370
-1
 48
1.0
  6
ByLayer
100
AcDbLine
 10
-6.2912096906203976
 20
1.7840890489441801
 30
0.0
 11
-5.8428548043869739
 21
1.7840890489441801
 31
0.0
  0
SPLINE
  5
27A
100
AcDbEntity
  8
text
 62
256
370
-1
 48
1.0
  6
ByLayer
100
AcDbSpline
 70
8
 71
3
 72
8
 73
4
 74
0
 40
0.0
 40
0.0
 40
0.0
 40
0.0
 40
1.0
 40
1.0
 40
1.0
 40
1.0
 10
-5.8428548043869739
 20
1.7840890489441801
 30
0.0
 10
-5.5521361925028714
 20
1.7840890489441801
 30
0.0
 10
-5.3706825994434482
 20
1.7963660173514491
 30
0.0
 10
-5.2984940252087114
 20
1.820919954165984
 30
0.0
  0
SPLINE
  5
27B
100
AcDbEntity
  8
text
 62
256
370
-1
 48
1.0
  6
ByLayer
100
AcDbSpline
 70
8
 71
3
 72
8
 73
4
 74
0
 40
0.0
 40
0.0
 40
0.0
 40
0.0
 40
1.0
 40
1.0
 40
1.0
 40
1.0
 10
-5.2984940252087114
 20
1.820919954165984
 30
0.0
 10
-5.2263054509739746
 20
1.8454738909805199
 30
0.0
 10
-5.1697495498444974
 20
1.8877885087575701
 30
0.0
 10
-5.1288263218202701
 20
1.9478638074971339
 30
0.0
  0
SPLINE
  5
27C
100
AcDbEntity
  8
text
 62
256
370
-1
 48
1.0
  6
ByLayer
100
AcDbSpline
 70
8
 71
3
 72
8
 73
4
 74
0
 40
0.0
 40
0.0
 40
0.0
 40
0.0
 40
1.0
 40
1.0
 40
1.0
 40
1.0
 10
-5.1288263218202701
 20
1.9478638074971339
 30
0.0
 10
-5.0879030937960437
 20
2.0079391062366998
 30
0.0
 10
-5.0674414797839296
 20
2.0829923064331299
 30
0.0
 10
-5.0674414797839296
 20
2.1730234080864288
 30
0.0
  0
SPLINE
  5
27D
100
AcDbEntity
  8
text
 62
256
370
-1
 48
1.0
  6
ByLayer
100
AcDbSpline
 70
8
 71
3
 72
8
 73
4
 74
0
 40
0.0
 40
0.0
 40
0.0
 40
0.0
 40
1.0
 40
1.0
 40
1.0
 40
1.0
 10
-5.0674414797839296
 20
2.1730234080864288
 30
0.0
 10
-5.0674414797839296
 20
2.273858241938123
 30
0.0
 10
-5.0943689638238681
 20
2.355377312162382
 30
0.0
 10
-5.1482239319037504
 20
2.417580618759207
 30
0.0
  0
SPLINE
  5
27E
100
AcDbEntity
  8
text
 62
256
370
-1
 48
1.0
  6
ByLayer
100
AcDbSpline
 70
8
 71
3
 72
8
 73
4
 74
0
 40
0.0
 40
0.0
 40
0.0
 40
0.0
 40
1.0
 40
1.0
 40
1.0
 40
1.0
 10
-5.1482239319037504
 20
2.417580618759207
 30
0.0
 10
-5.2020788999836327
 20
2.4797839253560312
 30
0.0
 10
-5.2781142576526463
 20
2.5190702242592899
 30
0.0
 10
-5.3763300049107912
 20
2.5354395154689802
 30
0.0
  0
SPLINE
  5
27F
100
AcDbEntity
  8
text
 62
256
370
-1
 48
1.0
  6
ByLayer
100
AcDbSpline
 70
8
 71
3
 72
8
 73
4
 74
0
 40
0.0
 40
0.0
 40
0.0
 40
0.0
 40
1.0
 40
1.0
 40
1.0
 40
1.0
 10
-5.3763300049107912
 20
2.5354395154689802
 30
0.0
 10
-5.42543787853986
 20
2.5419872319528558
 30
0.0
 10
-5.5727614994270809
 20
2.5452610901947939
 30
0.0
 10
-5.8183008675724386
 20
2.5452610901947939
 30
0.0
  0
LINE
  5
280
100
AcDbEntity
  8
text
 62
256
370
-1
 48
1.0
  6
ByLayer
100
AcDbLine
 10
-5.8183008675724386
 20
2.5452610901947939
 30
0.0
 11
-6.2912096906203976
 21
2.5452610901947939
 31
0.0
  0
LINE
  5
281
100
AcDbEntity
  8
text
 62
256
370
-1
 48
1.0
  6
ByLayer
100
AcDbLine
 10
-6.2912096906203976
 20
2.5452610901947939
 30
0.0
 11
-6.2912096906203976
 21
1.7840890489441801
 31
0.0
  0
LINE
  5
282
100
AcDbEntity
  8
text
 62
256
370
-1
 48
1.0
  6
ByLayer
100
AcDbLine
 10
-3.8814863316418449
 20
0.0530365035193974
 30
0.0
 11
-3.8814863316418449
 21
3.0530365035193969
 31
0.0
  0
LINE
  5
283
100
AcDbEntity
  8
text
 62
256
370
-1
 48
1.0
  6
ByLayer
100
AcDbLine
 10
-3.8814863316418449
 20
3.0530365035193969
 30
0.0
 11
-1.6573907349811781
 21
3.0530365035193969
 31
0.0
  0
LINE
  5
284
100
AcDbEntity
  8
text
 62
256
370
-1
 48
1.0
  6
ByLayer
100
AcDbLine
 10
-1.6573907349811781
 20
3.0530365035193969
 30
0.0
 11
-1.6573907349811781
 21
2.5452610901947939
 31
0.0
  0
LINE
  5
285
100
AcDbEntity
  8
text
 62
256
370
-1
 48
1.0
  6
ByLayer
100
AcDbLine
 10
-1.6573907349811781
 20
2.5452610901947939
 30
0.0
 11
-3.275986249795388
 21
2.5452610901947939
 31
0.0
  0
LINE
  5
286
100
AcDbEntity
  8
text
 62
256
370
-1
 48
1.0
  6
ByLayer
100
AcDbLine
 10
-3.275986249795388
 20
2.5452610901947939
 30
0.0
 11
-3.275986249795388
 21
1.8803404812571609
 31
0.0
  0
LINE
  5
287
100
AcDbEntity
  8
text
 62
256
370
-1
 48
1.0
  6
ByLayer
100
AcDbLine
 10
-3.275986249795388
 20
1.8803404812571609
 30
0.0
 11
-1.7698477655917559
 21
1.8803404812571609
 31
0.0
  0
LINE
  5
288
100
AcDbEntity
  8
text
 62
256
370
-1
 48
1.0
  6
ByLayer
100
AcDbLine
 10
-1.7698477655917559
 20
1.8803404812571609
 30
0.0
 11
-1.7698477655917559
 21
1.375020461614012
 31
0.0
  0
LINE
  5
289
100
AcDbEntity
  8
text
 62
256
370
-1
 48
1.0
  6
ByLayer
100
AcDbLine
 10
-1.7698477655917559
 20
1.375020461614012
 30
0.0
 11
-3.275986249795388
 21
1.375020461614012
 31
0.0
  0
LINE
  5
28A
100
AcDbEntity
  8
text
 62
256
370
-1
 48
1.0
  6
ByLayer
100
AcDbLine
 10
-3.275986249795388
 20
1.375020461614012
 30
0.0
 11
-3.275986249795388
 21
0.558356523162546
 31
0.0
  0
LINE
  5
28B
100
AcDbEntity
  8
text
 62
256
370
-1
 48
1.0
  6
ByLayer
100
AcDbLine
 10
-3.275986249795388
 20
0.558356523162546
 30
0.0
 11
-1.5999345228351629
 21
0.558356523162546
 31
0.0
  0
LINE
  5
28C
100
AcDbEntity
  8
text
 62
256
370
-1
 48
1.0
  6
ByLayer
100
AcDbLine
 10
-1.5999345228351629
 20
0.558356523162546
 30
0.0
 11
-1.5999345228351629
 21
0.0530365035193974
 31
0.0
  0
LINE
  5
28D
100
AcDbEntity
  8
text
 62
256
370
-1
 48
1.0
  6
ByLayer
100
AcDbLine
 10
-1.5999345228351629
 20
0.0530365035193974
 30
0.0
 11
-3.8814863316418449
 21
0.0530365035193974
 31
0.0
  0
LINE
  5
28E
100
AcDbEntity
  8
text
 62
256
370
-1
 48
1.0
  6
ByLayer
100
AcDbLine
 10
-1.238009494188901
 20
1.0293010312653459
 30
0.0
 11
-0.6487150106400463
 21
1.086266164675068
 31
0.0
  0
SPLINE
  5
28F
100
AcDbEntity
  8
text
 62
256
370
-1
 48
1.0
  6
ByLayer
100
AcDbSpline
 70
8
 71
3
 72
8
 73
4
 74
0
 40
0.0
 40
0.0
 40
0.0
 40
0.0
 40
1.0
 40
1.0
 40
1.0
 40
1.0
 10
-0.6487150106400463
 20
1.086266164675068
 30
0.0
 10
-0.6130299558029151
 20
0.8885251268620067
 30
0.0
 10
-0.5410050744802817
 20
0.7432476673760018
 30
0.0
 10
-0.4326403666721248
 20
0.6504337862170573
 30
0.0
  0
SPLINE
  5
290
100
AcDbEntity
  8
text
 62
256
370
-1
 48
1.0
  6
ByLayer
100
AcDbSpline
 70
8
 71
3
 72
8
 73
4
 74
0
 40
0.0
 40
0.0
 40
0.0
 40
0.0
 40
1.0
 40
1.0
 40
1.0
 40
1.0
 10
-0.4326403666721248
 20
0.6504337862170573
 30
0.0
 10
-0.324275658863975
 20
0.557619905058111
 30
0.0
 10
-0.177934195449339
 20
0.5112129644786378
 30
0.0
 10
0.0063840235717763
 20
0.5112129644786378
 30
0.0
  0
SPLINE
  5
291
100
AcDbEntity
  8
text
 62
256
370
-1
 48
1.0
  6
ByLayer
100
AcDbSpline
 70
8
 71
3
 72
8
 73
4
 74
0
 40
0.0
 40
0.0
 40
0.0
 40
0.0
 40
1.0
 40
1.0
 40
1.0
 40
1.0
 10
0.0063840235717763
 20
0.5112129644786378
 30
0.0
 10
0.2015059747912886
 20
0.5112129644786378
 30
0.0
 10
0.3485022098543098
 20
0.5525454247831068
 30
0.0
 10
0.4473727287608398
 20
0.6352103453920428
 30
0.0
  0
SPLINE
  5
292
100
AcDbEntity
  8
text
 62
256
370
-1
 48
1.0
  6
ByLayer
100
AcDbSpline
 70
8
 71
3
 72
8
 73
4
 74
0
 40
0.0
 40
0.0
 40
0.0
 40
0.0
 40
1.0
 40
1.0
 40
1.0
 40
1.0
 10
0.4473727287608398
 20
0.6352103453920428
 30
0.0
 10
0.5462432476673698
 20
0.7178752660009806
 30
0.0
 10
0.5956785071206383
 20
0.8143722376821074
 30
0.0
 10
0.5956785071206383
 20
0.9247012604354232
 30
0.0
  0
SPLINE
  5
293
100
AcDbEntity
  8
text
 62
256
370
-1
 48
1.0
  6
ByLayer
100
AcDbSpline
 70
8
 71
3
 72
8
 73
4
 74
0
 40
0.0
 40
0.0
 40
0.0
 40
0.0
 40
1.0
 40
1.0
 40
1.0
 40
1.0
 10
0.5956785071206383
 20
0.9247012604354232
 30
0.0
 10
0.5956785071206383
 20
0.9957439842854807
 30
0.0
 10
0.5748895072843325
 20
1.0561466688492369
 30
0.0
 10
0.5333115076117139
 20
1.105909314126698
 30
0.0
  0
SPLINE
  5
294
100
AcDbEntity
  8
text
 62
256
370
-1
 48
1.0
  6
ByLayer
100
AcDbSpline
 70
8
 71
3
 72
8
 73
4
 74
0
 40
0.0
 40
0.0
 40
0.0
 40
0.0
 40
1.0
 40
1.0
 40
1.0
 40
1.0
 10
0.5333115076117139
 20
1.105909314126698
 30
0.0
 10
0.4917335079391023
 20
1.155671959404158
 30
0.0
 10
0.4190538549680767
 20
1.1990505811098371
 30
0.0
 10
0.315272548698637
 20
1.236045179243739
 30
0.0
  0
SPLINE
  5
295
100
AcDbEntity
  8
text
 62
256
370
-1
 48
1.0
  6
ByLayer
100
AcDbSpline
 70
8
 71
3
 72
8
 73
4
 74
0
 40
0.0
 40
0.0
 40
0.0
 40
0.0
 40
1.0
 40
1.0
 40
1.0
 40
1.0
 10
0.315272548698637
 20
1.236045179243739
 30
0.0
 10
0.2442298248485812
 20
1.260599116058273
 30
0.0
 10
0.0826649206089343
 20
1.304141430676051
 30
0.0
 10
-0.169422164020304
 20
1.36667212309707
 30
0.0
  0
SPLINE
  5
296
100
AcDbEntity
  8
text
 62
256
370
-1
 48
1.0
  6
ByLayer
100
AcDbSpline
 70
8
 71
3
 72
8
 73
4
 74
0
 40
0.0
 40
0.0
 40
0.0
 40
0.0
 40
1.0
 40
1.0
 40
1.0
 40
1.0
 10
-0.169422164020304
 20
1.36667212309707
 30
0.0
 10
-0.4941889016205607
 20
1.447209035848747
 30
0.0
 10
-0.7220494352594571
 20
1.546079554755279
 30
0.0
 10
-0.8530037649369788
 20
1.663283679816663
 30
0.0
  0
SPLINE
  5
297
100
AcDbEntity
  8
text
 62
256
370
-1
 48
1.0
  6
ByLayer
100
AcDbSpline
 70
8
 71
3
 72
8
 73
4
 74
0
 40
0.0
 40
0.0
 40
0.0
 40
0.0
 40
1.0
 40
1.0
 40
1.0
 40
1.0
 10
-0.8530037649369788
 20
1.663283679816663
 30
0.0
 10
-1.0373219839580941
 20
1.8286135210345389
 30
0.0
 10
-1.129481093468655
 20
2.029955802913733
 30
0.0
 10
-1.129481093468655
 20
2.2673105254542469
 30
0.0
  0
SPLINE
  5
298
100
AcDbEntity
  8
text
 62
256
370
-1
 48
1.0
  6
ByLayer
100
AcDbSpline
 70
8
 71
3
 72
8
 73
4
 74
0
 40
0.0
 40
0.0
 40
0.0
 40
0.0
 40
1.0
 40
1.0
 40
1.0
 40
1.0
 10
-1.129481093468655
 20
2.2673105254542469
 30
0.0
 10
-1.129481093468655
 20
2.419872319528563
 30
0.0
 10
-1.0861843182190261
 20
2.562694385333113
 30
0.0
 10
-0.9995907677197593
 20
2.695776722867901
 30
0.0
  0
SPLINE
  5
299
100
AcDbEntity
  8
text
 62
256
370
-1
 48
1.0
  6
ByLayer
100
AcDbSpline
 70
8
 71
3
 72
8
 73
4
 74
0
 40
0.0
 40
0.0
 40
0.0
 40
0.0
 40
1.0
 40
1.0
 40
1.0
 40
1.0
 10
-0.9995907677197593
 20
2.695776722867901
 30
0.0
 10
-0.9129972172205001
 20
2.8288590604026851
 30
0.0
 10
-0.7881813717466031
 20
2.9301849729906699
 30
0.0
 10
-0.6251432312980896
 20
2.999754460631852
 30
0.0
  0
SPLINE
  5
29A
100
AcDbEntity
  8
text
 62
256
370
-1
 48
1.0
  6
ByLayer
100
AcDbSpline
 70
8
 71
3
 72
8
 73
4
 74
0
 40
0.0
 40
0.0
 40
0.0
 40
0.0
 40
1.0
 40
1.0
 40
1.0
 40
1.0
 10
-0.6251432312980896
 20
2.999754460631852
 30
0.0
 10
-0.462105090849569
 20
3.0693239482730381
 30
0.0
 10
-0.2651825175969904
 20
3.1041086920936318
 30
0.0
 10
-0.0343755115403539
 20
3.1041086920936318
 30
0.0
  0
SPLINE
  5
29B
100
AcDbEntity
  8
text
 62
256
370
-1
 48
1.0
  6
ByLayer
100
AcDbSpline
 70
8
 71
3
 72
8
 73
4
 74
0
 40
0.0
 40
0.0
 40
0.0
 40
0.0
 40
1.0
 40
1.0
 40
1.0
 40
1.0
 10
-0.0343755115403539
 20
3.1041086920936318
 30
0.0
 10
0.3421181862825335
 20
3.1041086920936318
 30
0.0
 10
0.625470617122275
 20
3.0216074643967912
 30
0.0
 10
0.8156817809788777
 20
2.8566050090031081
 30
0.0
  0
SPLINE
  5
29C
100
AcDbEntity
  8
text
 62
256
370
-1
 48
1.0
  6
ByLayer
100
AcDbSpline
 70
8
 71
3
 72
8
 73
4
 74
0
 40
0.0
 40
0.0
 40
0.0
 40
0.0
 40
1.0
 40
1.0
 40
1.0
 40
1.0
 10
0.8156817809788777
 20
2.8566050090031081
 30
0.0
 10
1.005892944835487
 20
2.6916025536094281
 30
0.0
 10
1.1057456212145951
 20
2.4712718939269931
 30
0.0
 10
1.115239810116222
 20
2.1956130299558012
 30
0.0
  0
LINE
  5
29D
100
AcDbEntity
  8
text
 62
256
370
-1
 48
1.0
  6
ByLayer
100
AcDbLine
 10
1.115239810116222
 20
2.1956130299558012
 30
0.0
 11
0.5097397282697642
 21
2.1690947781961039
 31
0.0
  0
SPLINE
  5
29E
100
AcDbEntity
  8
text
 62
256
370
-1
 48
1.0
  6
ByLayer
100
AcDbSpline
 70
8
 71
3
 72
8
 73
4
 74
0
 40
0.0
 40
0.0
 40
0.0
 40
0.0
 40
1.0
 40
1.0
 40
1.0
 40
1.0
 10
0.5097397282697642
 20
2.1690947781961039
 30
0.0
 10
0.4838762481584524
 20
2.323293501391388
 30
0.0
 10
0.4283025045015521
 20
2.4341136028809949
 30
0.0
 10
0.3430184972990631
 20
2.50155508266492
 30
0.0
  0
SPLINE
  5
29F
100
AcDbEntity
  8
text
 62
256
370
-1
 48
1.0
  6
ByLayer
100
AcDbSpline
 70
8
 71
3
 72
8
 73
4
 74
0
 40
0.0
 40
0.0
 40
0.0
 40
0.0
 40
1.0
 40
1.0
 40
1.0
 40
1.0
 10
0.3430184972990631
 20
2.50155508266492
 30
0.0
 10
0.2577344900965741
 20
2.5689965624488451
 30
0.0
 10
0.1298084792928407
 20
2.6027173023408068
 30
0.0
 10
-0.0407595351121302
 20
2.6027173023408068
 30
0.0
  0
SPLINE
  5
2A0
100
AcDbEntity
  8
text
 62
256
370
-1
 48
1.0
  6
ByLayer
100
AcDbSpline
 70
8
 71
3
 72
8
 73
4
 74
0
 40
0.0
 40
0.0
 40
0.0
 40
0.0
 40
1.0
 40
1.0
 40
1.0
 40
1.0
 10
-0.0407595351121302
 20
2.6027173023408068
 30
0.0
 10
-0.2165657227042104
 20
2.6027173023408068
 30
0.0
 10
-0.3543951546898043
 20
2.566541168767392
 30
0.0
 10
-0.4542478310689191
 20
2.494188901620559
 30
0.0
  0
SPLINE
  5
2A1
100
AcDbEntity
  8
text
 62
256
370
-1
 48
1.0
  6
ByLayer
100
AcDbSpline
 70
8
 71
3
 72
8
 73
4
 74
0
 40
0.0
 40
0.0
 40
0.0
 40
0.0
 40
1.0
 40
1.0
 40
1.0
 40
1.0
 10
-0.4542478310689191
 20
2.494188901620559
 30
0.0
 10
-0.5184154526109026
 20
2.448027500409232
 30
0.0
 10
-0.5504992633819015
 20
2.3859878867245041
 30
0.0
 10
-0.5504992633819015
 20
2.308070060566378
 30
0.0
  0
SPLINE
  5
2A2
100
AcDbEntity
  8
text
 62
256
370
-1
 48
1.0
  6
ByLayer
100
AcDbSpline
 70
8
 71
3
 72
8
 73
4
 74
0
 40
0.0
 40
0.0
 40
0.0
 40
0.0
 40
1.0
 40
1.0
 40
1.0
 40
1.0
 10
-0.5504992633819015
 20
2.308070060566378
 30
0.0
 10
-0.5504992633819015
 20
2.23702733671632
 30
0.0
 10
-0.5203797675560651
 20
2.1762972663283668
 30
0.0
 10
-0.4601407759044065
 20
2.1258798494025188
 30
0.0
  0
SPLINE
  5
2A3
100
AcDbEntity
  8
text
 62
256
370
-1
 48
1.0
  6
ByLayer
100
AcDbSpline
 70
8
 71
3
 72
8
 73
4
 74
0
 40
0.0
 40
0.0
 40
0.0
 40
0.0
 40
1.0
 40
1.0
 40
1.0
 40
1.0
 10
-0.4601407759044065
 20
2.1258798494025188
 30
0.0
 10
-0.3838598788672485
 20
2.0617122278605322
 30
0.0
 10
-0.1983958094614522
 20
1.9948436732689461
 30
0.0
 10
0.0962514323129753
 20
1.925274185627762
 30
0.0
  0
SPLINE
  5
2A4
100
AcDbEntity
  8
text
 62
256
370
-1
 48
1.0
  6
ByLayer
100
AcDbSpline
 70
8
 71
3
 72
8
 73
4
 74
0
 40
0.0
 40
0.0
 40
0.0
 40
0.0
 40
1.0
 40
1.0
 40
1.0
 40
1.0
 10
0.0962514323129753
 20
1.925274185627762
 30
0.0
 10
0.3908986740874099
 20
1.8557046979865759
 30
0.0
 10
0.6088557865444386
 20
1.783761663119986
 30
0.0
 10
0.7501227696840687
 20
1.70944508102799
 30
0.0
  0
SPLINE
  5
2A5
100
AcDbEntity
  8
text
 62
256
370
-1
 48
1.0
  6
ByLayer
100
AcDbSpline
 70
8
 71
3
 72
8
 73
4
 74
0
 40
0.0
 40
0.0
 40
0.0
 40
0.0
 40
1.0
 40
1.0
 40
1.0
 40
1.0
 10
0.7501227696840687
 20
1.70944508102799
 30
0.0
 10
0.8913897528236987
 20
1.6351284989359951
 30
0.0
 10
1.0018824684891141
 20
1.5335570469798649
 30
0.0
 10
1.0816009166803009
 20
1.4047307251596011
 30
0.0
  0
SPLINE
  5
2A6
100
AcDbEntity
  8
text
 62
256
370
-1
 48
1.0
  6
ByLayer
100
AcDbSpline
 70
8
 71
3
 72
8
 73
4
 74
0
 40
0.0
 40
0.0
 40
0.0
 40
0.0
 40
1.0
 40
1.0
 40
1.0
 40
1.0
 10
1.0816009166803009
 20
1.4047307251596011
 30
0.0
 10
1.161319364871495
 20
1.2759044033393341
 30
0.0
 10
1.2011785889670961
 20
1.116549353412996
 30
0.0
 10
1.2011785889670961
 20
0.9266655753805857
 30
0.0
  0
SPLINE
  5
2A7
100
AcDbEntity
  8
text
 62
256
370
-1
 48
1.0
  6
ByLayer
100
AcDbSpline
 70
8
 71
3
 72
8
 73
4
 74
0
 40
0.0
 40
0.0
 40
0.0
 40
0.0
 40
1.0
 40
1.0
 40
1.0
 40
1.0
 10
1.2011785889670961
 20
0.9266655753805857
 30
0.0
 10
1.2011785889670961
 20
0.754788017678834
 30
0.0
 10
1.153462105090846
 20
0.5938778850875757
 30
0.0
 10
1.0580291373383519
 20
0.443935177606809
 30
0.0
  0
SPLINE
  5
2A8
100
AcDbEntity
  8
text
 62
256
370
-1
 48
1.0
  6
ByLayer
100
AcDbSpline
 70
8
 71
3
 72
8
 73
4
 74
0
 40
0.0
 40
0.0
 40
0.0
 40
0.0
 40
1.0
 40
1.0
 40
1.0
 40
1.0
 10
1.0580291373383519
 20
0.443935177606809
 30
0.0
 10
0.9625961695858507
 20
0.2939924701260423
 30
0.0
 10
0.8275495171059077
 20
0.182517596988049
 30
0.0
 10
0.6528891798985086
 20
0.1095105581928308
 30
0.0
  0
SPLINE
  5
2A9
100
AcDbEntity
  8
text
 62
256
370
-1
 48
1.0
  6
ByLayer
100
AcDbSpline
 70
8
 71
3
 72
8
 73
4
 74
0
 40
0.0
 40
0.0
 40
0.0
 40
0.0
 40
1.0
 40
1.0
 40
1.0
 40
1.0
 10
0.6528891798985086
 20
0.1095105581928308
 30
0.0
 10
0.4782288426911094
 20
0.0365035193976091
 30
0.0
 10
0.2605991160582732
 20
0.0
 30
0.0
 10
0.0
 20
0.0
 30
0.0
  0
SPLINE
  5
2AA
100
AcDbEntity
  8
text
 62
256
370
-1
 48
1.0
  6
ByLayer
100
AcDbSpline
 70
8
 71
3
 72
8
 73
4
 74
0
 40
0.0
 40
0.0
 40
0.0
 40
0.0
 40
1.0
 40
1.0
 40
1.0
 40
1.0
 10
0.0
 20
0.0
 30
0.0
 10
-0.379112784416435
 20
0.0
 30
0.0
 10
-0.6703224750368335
 20
0.0876575544278921
 30
0.0
 10
-0.8736290718611883
 20
0.26297266328368
 30
0.0
  0
SPLINE
  5
2AB
100
AcDbEntity
  8
text
 62
256
370
-1
 48
1.0
  6
ByLayer
100
AcDbSpline
 70
8
 71
3
 72
8
 73
4
 74
0
 40
0.0
 40
0.0
 40
0.0
 40
0.0
 40
1.0
 40
1.0
 40
1.0
 40
1.0
 10
-0.8736290718611883
 20
0.26297266328368
 30
0.0
 10
-1.07693566868555
 20
0.438287772139466
 30
0.0
 10
-1.198395809461452
 20
0.6937305614666887
 30
0.0
 10
-1.238009494188901
 20
1.0293010312653459
 30
0.0
  0
LINE
  5
2AC
100
AcDbEntity
  8
text
 62
256
370
-1
 48
1.0
  6
ByLayer
100
AcDbLine
 10
1.712882632182023
 20
0.0530365035193974
 30
0.0
 11
1.712882632182023
 21
3.0530365035193969
 31
0.0
  0
LINE
  5
2AD
100
AcDbEntity
  8
text
 62
256
370
-1
 48
1.0
  6
ByLayer
100
AcDbLine
 10
1.712882632182023
 20
3.0530365035193969
 30
0.0
 11
3.93697822884269
 21
3.0530365035193969
 31
0.0
  0
LINE
  5
2AE
100
AcDbEntity
  8
text
 62
256
370
-1
 48
1.0
  6
ByLayer
100
AcDbLine
 10
3.93697822884269
 20
3.0530365035193969
 30
0.0
 11
3.93697822884269
 21
2.5452610901947939
 31
0.0
  0
LINE
  5
2AF
100
AcDbEntity
  8
text
 62
256
370
-1
 48
1.0
  6
ByLayer
100
AcDbLine
 10
3.93697822884269
 20
2.5452610901947939
 30
0.0
 11
2.318382714028481
 21
2.5452610901947939
 31
0.0
  0
LINE
  5
2B0
100
AcDbEntity
  8
text
 62
256
370
-1
 48
1.0
  6
ByLayer
100
AcDbLine
 10
2.318382714028481
 20
2.5452610901947939
 30
0.0
 11
2.318382714028481
 21
1.8803404812571609
 31
0.0
  0
LINE
  5
2B1
100
AcDbEntity
  8
text
 62
256
370
-1
 48
1.0
  6
ByLayer
100
AcDbLine
 10
2.318382714028481
 20
1.8803404812571609
 30
0.0
 11
3.8245211982321119
 21
1.8803404812571609
 31
0.0
  0
LINE
  5
2B2
100
AcDbEntity
  8
text
 62
256
370
-1
 48
1.0
  6
ByLayer
100
AcDbLine
 10
3.8245211982321119
 20
1.8803404812571609
 30
0.0
 11
3.8245211982321119
 21
1.375020461614012
 31
0.0
  0
LINE
  5
2B3
100
AcDbEntity
  8
text
 62
256
370
-1
 48
1.0
  6
ByLayer
100
AcDbLine
 10
3.8245211982321119
 20
1.375020461614012
 30
0.0
 11
2.318382714028481
 21
1.375020461614012
 31
0.0
  0
LINE
  5
2B4
100
AcDbEntity
  8
text
 62
256
370
-1
 48
1.0
  6
ByLayer
100
AcDbLine
 10
2.318382714028481
 20
1.375020461614012
 30
0.0
 11
2.318382714028481
 21
0.558356523162546
 31
0.0
  0
LINE
  5
2B5
100
AcDbEntity
  8
text
 62
256
370
-1
 48
1.0
  6
ByLayer
100
AcDbLine
 10
2.318382714028481
 20
0.558356523162546
 30
0.0
 11
3.994434440988698
 21
0.558356523162546
 31
0.0
  0
LINE
  5
2B6
100
AcDbEntity
  8
text
 62
256
370
-1
 48
1.0
  6
ByLayer
100
AcDbLine
 10
3.994434440988698
 20
0.558356523162546
 30
0.0
 11
3.994434440988698
 21
0.0530365035193974
 31
0.0
  0
LINE
  5
2B7
100
AcDbEntity
  8
text
 62
256
370
-1
 48
1.0
  6
ByLayer
100
AcDbLine
 10
3.994434440988698
 20
0.0530365035193974
 30
0.0
 11
1.712882632182023
 21
0.0530365035193974
 31
0.0
  0
LINE
  5
2B8
100
AcDbEntity
  8
text
 62
256
370
-1
 48
1.0
  6
ByLayer
100
AcDbLine
 10
5.1853003764936929
 20
0.0530365035193974
 30
0.0
 11
5.1853003764936929
 21
2.5452610901947939
 31
0.0
  0
LINE
  5
2B9
100
AcDbEntity
  8
text
 62
256
370
-1
 48
1.0
  6
ByLayer
100
AcDbLine
 10
5.1853003764936929
 20
2.5452610901947939
 30
0.0
 11
4.29497462759862
 21
2.5452610901947939
 31
0.0
  0
LINE
  5
2BA
100
AcDbEntity
  8
text
 62
256
370
-1
 48
1.0
  6
ByLayer
100
AcDbLine
 10
4.29497462759862
 20
2.5452610901947939
 30
0.0
 11
4.29497462759862
 21
3.0530365035193969
 31
0.0
  0
LINE
  5
2BB
100
AcDbEntity
  8
text
 62
256
370
-1
 48
1.0
  6
ByLayer
100
AcDbLine
 10
4.29497462759862
 20
3.0530365035193969
 30
0.0
 11
6.6791618922900611
 21
3.0530365035193969
 31
0.0
  0
LINE
  5
2BC
100
AcDbEntity
  8
text
 62
256
370
-1
 48
1.0
  6
ByLayer
100
AcDbLine
 10
6.6791618922900611
 20
3.0530365035193969
 30
0.0
 11
6.6791618922900611
 21
2.5452610901947939
 31
0.0
  0
LINE
  5
2BD
100
AcDbEntity
  8
text
 62
256
370
-1
 48
1.0
  6
ByLayer
100
AcDbLine
 10
6.6791618922900611
 20
2.5452610901947939
 30
0.0
 11
5.7908004583401507
 21
2.5452610901947939
 31
0.0
  0
LINE
  5
2BE
100
AcDbEntity
  8
text
 62
256
370
-1
 48
1.0
  6
ByLayer
100
AcDbLine
 10
5.7908004583401507
 20
2.5452610901947939
 30
0.0
 11
5.7908004583401507
 21
0.0530365035193974
 31
0.0
  0
LINE
  5
2BF
100
AcDbEntity
  8
text
 62
256
370
-1
 48
1.0
  6
ByLayer
100
AcDbLine
 10
5.7908004583401507
 20
0.0530365035193974
 30
0.0
 11
5.1853003764936929
 21
0.0530365035193974
 31
0.0
  0
ENDBLK
  5
2C0
100
AcDbEntity
  8
0
100
AcDbBlockEnd
  0
ENDSEC
  0
SECTION
  2
ENTITIES
  0
INSERT
  5
2C1
100
AcDbEntity
  8
0
 62
256
370
-1
 48
1.0
  6
ByLayer
100
AcDbBlockReference
  2
pi
 10
-26.7084056457353505
 20
14.9208970087906998
 30
0.0
  0
CIRCLE
  5
2C2
100
AcDbEntity
  8
0
 62
7
420
16777215
370
-1
 48
1.0
  6
Continuous
100
AcDbCircle
 10
-50.0
 20
-50.0
 30
0.0
 40
2.2500000000000209
  0
CIRCLE
  5
2C3
100
AcDbEntity
  8
0
 62
7
420
16777215
370
-1
 48
1.0
  6
Continuous
100
AcDbCircle
 10
-172.9856939922018455
 20
-50.084930984689997
 30
0.0
 40
2.2500000000000209
  0
CIRCLE
  5
2C4
100
AcDbEntity
  8
0
 62
7
420
16777215
370
-1
 48
1.0
  6
Continuous
100
AcDbCircle
 10
50.0
 20
50.0
 30
0.0
 40
2.2500000000000142
  0
CIRCLE
  5
2C5
100
AcDbEntity
  8
0
 62
7
420
16777215
370
-1
 48
1.0
  6
Continuous
100
AcDbCircle
 10
-72.9856939922018455
 20
49.915069015310003
 30
0.0
 40
2.2500000000000142
  0
CIRCLE
  5
2C6
100
AcDbEntity
  8
0
 62
7
420
16777215
370
-1
 48
1.0
  6
Continuous
100
AcDbCircle
 10
-50.0
 20
50.0
 30
0.0
 40
2.250000000000028
  0
CIRCLE
  5
2C7
100
AcDbEntity
  8
0
 62
7
420
16777215
370
-1
 48
1.0
  6
Continuous
100
AcDbCircle
 10
-172.9856939922018455
 20
49.915069015310003
 30
0.0
 40
2.250000000000028
  0
CIRCLE
  5
2C8
100
AcDbEntity
  8
0
 62
7
420
16777215
370
-1
 48
1.0
  6
Continuous
100
AcDbCircle
 10
50.0
 20
-50.0
 30
0.0
 40
2.2500000000000209
  0
CIRCLE
  5
2C9
100
AcDbEntity
  8
0
 62
7
420
16777215
370
-1
 48
1.0
  6
Continuous
100
AcDbCircle
 10
-72.9856939922018455
 20
-50.084930984689997
 30
0.0
 40
2.2500000000000209
  0
LWPOLYLINE
  5
2CA
100
AcDbEntity
  8
0
 62
256
370
-1
 48
1.0
  6
ByLayer
100
AcDbPolyline
 90
8
 70
1
 10
-50.0
 20
-60.0
 10
50.0
 20
-60.0
 42
0.414213562373095
 10
60.0
 20
-50.0
 10
60.0
 20
50.0
 42
0.414213562373095
 10
50.0
 20
60.0
 10
-50.0
 20
60.0
 42
0.414213562373095
 10
-60.0
 20
50.0
 10
-60.0
 20
-50.0
 42
0.414213562373095
  0
LWPOLYLINE
  5
2CB
100
AcDbEntity
  8
0
 62
256
370
-1
 48
1.0
  6
ByLayer
100
AcDbPolyline
 90
8
 70
1
 10
-172.9856939922018455
 20
-60.0849309846900042
 10
-72.9856939922018455
 20
-60.0849309846900042
 42
0.414213562373095
 10
-62.9856939922018455
 20
-50.084930984689997
 10
-62.9856939922018455
 20
49.915069015310003
 42
0.414213562373095
 10
-72.9856939922018455
 20
59.915069015310003
 10
-172.9856939922018455
 20
59.915069015310003
 42
0.414213562373095
 10
-182.9856939922018455
 20
49.915069015310003
 10
-182.9856939922018455
 20
-50.084930984689997
 42
0.414213562373095
  0
LWPOLYLINE
  5
2CC
100
AcDbEntity
  8
0
 62
256
370
-1
 48
1.0
  6
ByLayer
100
AcDbPolyline
 90
8
 70
1
 10
-146.9856939922018455
 20
-34.084930984689997
 10
-98.9856939922018455
 20
-34.084930984689997
 42
0.414213562373095
 10
-88.9856939922018455
 20
-24.084930984689997
 10
-88.9856939922018455
 20
23.915069015310003
 42
0.414213562373095
 10
-98.9856939922018455
 20
33.915069015310003
 10
-146.9856939922018455
 20
33.915069015310003
 42
0.4142135623730949
 10
-156.9856939922018455
 20
23.915069015310003
 10
-156.9856939922018455
 20
-24.084930984689997
 42
0.414213562373095
  0
DIMENSION
  5
2CD
100
AcDbEntity
  8
medidas
 62
256
370
-1
 48
1.0
  6
ByLayer
100
AcDbDimension
 10
-62.9856939922018455
 20
79.9150690153099958
 30
0.0
 11
-122.9856939922018455
 21
83.1890690153099968
 31
0.0
 70
0
 71
8
 72
2
 74
0
 75
0
 41
1.0
 42
0.0
  1

  3
Standard
100
AcDbAlignedDimension
 13
-182.9856939922018455
 23
19.9150690153100314
 33
0.0
 14
-62.9856939922018455
 24
19.9150690153099887
 34
0.0
 50
0.0
100
AcDbRotatedDimension
1001
ACAD
1000
DSTYLE
1002
{
1070
144
1040
1.0
1070
40
1040
1.0
1002
}
  0
DIMENSION
  5
2CE
100
AcDbEntity
  8
medidas
 62
256
370
-1
 48
1.0
  6
ByLayer
100
AcDbDimension
 10
-202.9856939922018455
 20
59.9150690153100101
 30
0.0
 11
-206.2596939922018464
 21
-0.0849309846899895
 31
0.0
 70
0
 71
8
 72
2
 74
0
 75
0
 41
1.0
 42
0.0
  1

  3
Standard
100
AcDbAlignedDimension
 13
-162.9856939922019023
 23
-60.0849309846899757
 33
0.0
 14
-162.9856939922018455
 24
59.9150690153099958
 34
0.0
 50
90.0
100
AcDbRotatedDimension
1001
ACAD
1000
DSTYLE
1002
{
1070
144
1040
1.0
1070
40
1040
1.0
1002
}
  0
CIRCLE
  5
2CF
100
AcDbEntity
  8
0
 62
256
370
-1
 48
1.0
  6
ByLayer
100
AcDbCircle
 10
-37.5
 20
37.5
 30
0.0
 40
2.0
  0
CIRCLE
  5
2D0
100
AcDbEntity
  8
0
 62
256
370
-1
 48
1.0
  6
ByLayer
100
AcDbCircle
 10
-160.4856939922018455
 20
37.415069015310003
 30
0.0
 40
2.0
  0
CIRCLE
  5
2D1
100
AcDbEntity
  8
0
 62
256
370
-1
 48
1.0
  6
ByLayer
100
AcDbCircle
 10
37.5
 20
37.5
 30
0.0
 40
2.0
  0
CIRCLE
  5
2D2
100
AcDbEntity
  8
0
 62
256
370
-1
 48
1.0
  6
ByLayer
100
AcDbCircle
 10
-85.4856939922018455
 20
37.415069015310003
 30
0.0
 40
2.0
  0
CIRCLE
  5
2D3
100
AcDbEntity
  8
0
 62
256
370
-1
 48
1.0
  6
ByLayer
100
AcDbCircle
 10
-37.5
 20
-37.5
 30
0.0
 40
2.0
  0
CIRCLE
  5
2D4
100
AcDbEntity
  8
0
 62
256
370
-1
 48
1.0
  6
ByLayer
100
AcDbCircle
 10
-160.4856939922018455
 20
-37.584930984689997
 30
0.0
 40
2.0
  0
CIRCLE
  5
2D5
100
AcDbEntity
  8
0
 62
256
370
-1
 48
1.0
  6
ByLayer
100
AcDbCircle
 10
37.5
 20
-37.5
 30
0.0
 40
2.0
  0
CIRCLE
  5
2D6
100
AcDbEntity
  8
0
 62
256
370
-1
 48
1.0
  6
ByLayer
100
AcDbCircle
 10
-85.4856939922018455
 20
-37.584930984689997
 30
0.0
 40
2.0
  0
ENDSEC
  0
SECTION
  2
OBJECTS
  0
DICTIONARY
  5
C
100
AcDbDictionary
280
0
281
1
  3
ACAD_GROUP
350
D
  3
ACAD_LAYOUT
350
1A
  3
ACAD_MLINESTYLE
350
17
  3
ACAD_PLOTSETTINGS
350
19
  3
ACAD_PLOTSTYLENAME
350
E
  3
AcDbVariableDictionary
350
2D7
  3
QCAD_OBJECTS
350
2D8
  0
DICTIONARY
  5
D
100
AcDbDictionary
280
0
281
1
  0
ACDBDICTIONARYWDFLT
  5
E
100
AcDbDictionary
281
1
  3
Normal
350
F
100
AcDbDictionaryWithDefault
340
F
  0
ACDBPLACEHOLDER
  5
F
  0
DICTIONARY
  5
17
100
AcDbDictionary
280
0
281
1
  3
Standard
350
18
  0
MLINESTYLE
  5
18
100
AcDbMlineStyle
  2
STANDARD
 70
0
  3

 62
256
 51
90.0
 52
90.0
 71
2
 49
0.5
 62
256
  6
BYLAYER
 49
-0.5
 62
256
  6
BYLAYER
  0
DICTIONARY
  5
19
100
AcDbDictionary
280
0
281
1
  0
DICTIONARY
  5
1A
100
AcDbDictionary
281
1
  3
Layout1
350
1E
  3
Layout2
350
26
  3
Model
350
22
  0
LAYOUT
  5
1E
100
AcDbPlotSettings
  1

  2
none_device
  4

  6

 40
0.0
 41
0.0
 42
0.0
 43
0.0
 44
0.0
 45
0.0
 46
0.0
 47
0.0
 48
0.0
 49
0.0
140
0.0
141
0.0
142
1.0
143
1.0
 70
688
 72
0
 73
0
 74
5
  7

 75
16
147
1.0
148
0.0
149
0.0
100
AcDbLayout
  1
Layout1
 70
1
 71
1
 10
0.0
 20
0.0
 11
420.0
 21
297.0
 12
0.0
 22
0.0
 32
0.0
 14
100000000000000000000.0
 24
100000000000000000000.0
 34
100000000000000000000.0
 15
-100000000000000000000.0
 25
-100000000000000000000.0
 35
-100000000000000000000.0
146
0.0
 13
0.0
 23
0.0
 33
0.0
 16
1.0
 26
0.0
 36
0.0
 17
0.0
 27
1.0
 37
0.0
 76
0
330
1B
  0
LAYOUT
  5
22
100
AcDbPlotSettings
  1

  2
none_device
  4

  6

 40
0.0
 41
0.0
 42
0.0
 43
0.0
 44
0.0
 45
0.0
 46
0.0
 47
0.0
 48
0.0
 49
0.0
140
0.0
141
0.0
142
1.0
143
1.0
 70
1712
 72
0
 73
0
 74
0
  7

 75
0
147
1.0
148
0.0
149
0.0
100
AcDbLayout
  1
Model
 70
1
 71
0
 10
0.0
 20
0.0
 11
12.0
 21
9.0
 12
0.0
 22
0.0
 32
0.0
 14
0.0
 24
0.0
 34
0.0
 15
0.0
 25
0.0
 35
0.0
146
0.0
 13
0.0
 23
0.0
 33
0.0
 16
1.0
 26
0.0
 36
0.0
 17
0.0
 27
1.0
 37
0.0
 76
0
330
1F
  0
LAYOUT
  5
26
100
AcDbPlotSettings
  1

  2
none_device
  4

  6

 40
0.0
 41
0.0
 42
0.0
 43
0.0
 44
0.0
 45
0.0
 46
0.0
 47
0.0
 48
0.0
 49
0.0
140
0.0
141
0.0
142
1.0
143
1.0
 70
688
 72
0
 73
0
 74
5
  7

 75
16
147
1.0
148
0.0
149
0.0
100
AcDbLayout
  1
Layout2
 70
1
 71
2
 10
0.0
 20
0.0
 11
12.0
 21
9.0
 12
0.0
 22
0.0
 32
0.0
 14
0.0
 24
0.0
 34
0.0
 15
0.0
 25
0.0
 35
0.0
146
0.0
 13
0.0
 23
0.0
 33
0.0
 16
1.0
 26
0.0
 36
0.0
 17
0.0
 27
1.0
 37
0.0
 76
0
330
23
  0
DICTIONARY
  5
2D7
100
AcDbDictionary
281
1
  3
DIMASSOC
350
2DA
  3
HIDETEXT
350
2D9
  0
DICTIONARYVAR
  5
2D9
100
DictionaryVariables
280
0
  1
2
  0
DICTIONARYVAR
  5
2DA
100
DictionaryVariables
280
0
  1
1
  0
DICTIONARY
  5
2D8
100
AcDbDictionary
281
1
  3
ColorSettings/BackgroundColor
350
2DB
  3
ColorSettings/ColorMode
350
2DC
  3
Grid/DisplayGrid00
350
2DD
  3
Grid/DisplayGrid01
350
2DE
  3
Grid/DisplayGrid02
350
2DF
  3
Grid/DisplayGrid03
350
2E0
  3
Grid/GridSpacingX00
350
2E1
  3
Grid/GridSpacingX01
350
2E2
  3
Grid/GridSpacingX02
350
2E3
  3
Grid/GridSpacingX03
350
2E4
  3
Grid/GridSpacingY00
350
2E5
  3
Grid/GridSpacingY01
350
2E6
  3
Grid/GridSpacingY02
350
2E7
  3
Grid/GridSpacingY03
350
2E8
  3
Grid/IsometricGrid00
350
2E9
  3
Grid/IsometricGrid01
350
2EA
  3
Grid/IsometricGrid02
350
2EB
  3
Grid/IsometricGrid03
350
2EC
  3
Grid/IsometricProjection00
350
2ED
  3
Grid/IsometricProjection01
350
2EE
  3
Grid/IsometricProjection02
350
2EF
  3
Grid/IsometricProjection03
350
2F0
  3
Grid/MetaGridSpacingX00
350
2F1
  3
Grid/MetaGridSpacingX01
350
2F2
  3
Grid/MetaGridSpacingX02
350
2F3
  3
Grid/MetaGridSpacingX03
350
2F4
  3
Grid/MetaGridSpacingY00
350
2F5
  3
Grid/MetaGridSpacingY01
350
2F6
  3
Grid/MetaGridSpacingY02
350
2F7
  3
Grid/MetaGridSpacingY03
350
2F8
  3
MultiPageSettings/Columns
350
2F9
  3
MultiPageSettings/GlueMarginsBottom
350
2FA
  3
MultiPageSettings/GlueMarginsLeft
350
2FB
  3
MultiPageSettings/GlueMarginsRight
350
2FC
  3
MultiPageSettings/GlueMarginsTop
350
2FD
  3
MultiPageSettings/PrintCropMarks
350
2FE
  3
MultiPageSettings/Rows
350
2FF
  3
PageSettings/OffsetX
350
300
  3
PageSettings/OffsetY
350
301
  3
PageSettings/PageOrientation
350
302
  3
PageSettings/PaperHeight
350
303
  3
PageSettings/PaperWidth
350
304
  3
PageSettings/Scale
350
305
  3
PageSettings/ShowPaperBorders
350
306
  3
QCADVersion
350
307
  3
UnitSettings/PaperUnit
350
308
  3
ViewportCenter
350
309
  3
ViewportHeight
350
30A
  3
ViewportWidth
350
30B
  0
XRECORD
  5
2DB
330
2D8
100
AcDbXrecord
280
1
1000
Blanca
  0
XRECORD
  5
2DC
330
2D8
100
AcDbXrecord
280
1
1000
FullColor
  0
XRECORD
  5
2DD
330
2D8
100
AcDbXrecord
280
1
290
1
  0
XRECORD
  5
2DE
330
2D8
100
AcDbXrecord
280
1
290
1
  0
XRECORD
  5
2DF
330
2D8
100
AcDbXrecord
280
1
290
1
  0
XRECORD
  5
2E0
330
2D8
100
AcDbXrecord
280
1
290
1
  0
XRECORD
  5
2E1
330
2D8
100
AcDbXrecord
280
1
1000
auto
  0
XRECORD
  5
2E2
330
2D8
100
AcDbXrecord
280
1
1000
auto
  0
XRECORD
  5
2E3
330
2D8
100
AcDbXrecord
280
1
1000
auto
  0
XRECORD
  5
2E4
330
2D8
100
AcDbXrecord
280
1
1000
auto
  0
XRECORD
  5
2E5
330
2D8
100
AcDbXrecord
280
1
1000
auto
  0
XRECORD
  5
2E6
330
2D8
100
AcDbXrecord
280
1
1000
auto
  0
XRECORD
  5
2E7
330
2D8
100
AcDbXrecord
280
1
1000
auto
  0
XRECORD
  5
2E8
330
2D8
100
AcDbXrecord
280
1
1000
auto
  0
XRECORD
  5
2E9
330
2D8
100
AcDbXrecord
280
1
290
0
  0
XRECORD
  5
2EA
330
2D8
100
AcDbXrecord
280
1
290
0
  0
XRECORD
  5
2EB
330
2D8
100
AcDbXrecord
280
1
290
0
  0
XRECORD
  5
2EC
330
2D8
100
AcDbXrecord
280
1
290
0
  0
XRECORD
  5
2ED
330
2D8
100
AcDbXrecord
280
1
 90
65537
  0
XRECORD
  5
2EE
330
2D8
100
AcDbXrecord
280
1
 90
65537
  0
XRECORD
  5
2EF
330
2D8
100
AcDbXrecord
280
1
 90
65537
  0
XRECORD
  5
2F0
330
2D8
100
AcDbXrecord
280
1
 90
65537
  0
XRECORD
  5
2F1
330
2D8
100
AcDbXrecord
280
1
1000
auto
  0
XRECORD
  5
2F2
330
2D8
100
AcDbXrecord
280
1
1000
auto
  0
XRECORD
  5
2F3
330
2D8
100
AcDbXrecord
280
1
1000
auto
  0
XRECORD
  5
2F4
330
2D8
100
AcDbXrecord
280
1
1000
auto
  0
XRECORD
  5
2F5
330
2D8
100
AcDbXrecord
280
1
1000
auto
  0
XRECORD
  5
2F6
330
2D8
100
AcDbXrecord
280
1
1000
auto
  0
XRECORD
  5
2F7
330
2D8
100
AcDbXrecord
280
1
1000
auto
  0
XRECORD
  5
2F8
330
2D8
100
AcDbXrecord
280
1
1000
auto
  0
XRECORD
  5
2F9
330
2D8
100
AcDbXrecord
280
1
 90
1
  0
XRECORD
  5
2FA
330
2D8
100
AcDbXrecord
280
1
 40
10.0
  0
XRECORD
  5
2FB
330
2D8
100
AcDbXrecord
280
1
 40
10.0
  0
XRECORD
  5
2FC
330
2D8
100
AcDbXrecord
280
1
 40
10.0
  0
XRECORD
  5
2FD
330
2D8
100
AcDbXrecord
280
1
 40
10.0
  0
XRECORD
  5
2FE
330
2D8
100
AcDbXrecord
280
1
290
0
  0
XRECORD
  5
2FF
330
2D8
100
AcDbXrecord
280
1
 90
1
  0
XRECORD
  5
300
330
2D8
100
AcDbXrecord
280
1
 40
0.0
  0
XRECORD
  5
301
330
2D8
100
AcDbXrecord
280
1
 40
0.0
  0
XRECORD
  5
302
330
2D8
100
AcDbXrecord
280
1
1000
Portrait
  0
XRECORD
  5
303
330
2D8
100
AcDbXrecord
280
1
 40
279.3999999999999773
  0
XRECORD
  5
304
330
2D8
100
AcDbXrecord
280
1
 40
215.9000000000000057
  0
XRECORD
  5
305
330
2D8
100
AcDbXrecord
280
1
1000
1:1
  0
XRECORD
  5
306
330
2D8
100
AcDbXrecord
280
1
290
1
  0
XRECORD
  5
307
330
2D8
100
AcDbXrecord
280
1
1000
3.21.3
  0
XRECORD
  5
308
330
2D8
100
AcDbXrecord
280
1
 90
4
  0
XRECORD
  5
30A
330
2D8
100
AcDbXrecord
280
1
 40
269.1345934009314078
  0
XRECORD
  5
30B
330
2D8
100
AcDbXrecord
280
1
 40
547.7895941874739947
  0
ENDSEC
  0
EOF
